<svg xmlns="http://www.w3.org/2000/svg" viewBox="0 0 240 240" enable-background="new 0 0 240 240"><path fill="#fff" d="M134.09 45.88c-.643.708-1.223 1.39-1.85 2.027-.815.823-1.727 1.517-2.82 1.95-.816.323-1.654.376-2.506.214-1.195-.225-1.946-.978-2.37-2.082-.17-.44-.297-.893-.473-1.434-.127.2-.227.344-.317.495-1.325 2.218-2.94 4.173-5.118 5.61-.995.658-2.057 1.146-3.27 1.264-1.386.135-2.52-.514-3.032-1.823-.52-1.326-.49-2.69-.137-4.042.77-2.955 1.59-5.897 2.34-8.856.205-.814.316-1.67.33-2.51.016-.884-.65-1.31-1.524-1.11-.72.167-1.29.59-1.783 1.107-1.646 1.728-2.698 3.764-3.24 6.096-.58 2.514-1.15 5.04-1.912 7.5-1.218 3.935-3.58 6.988-7.41 8.734-1.426.65-2.927.96-4.51.77-1.623-.198-2.624-1.11-3.097-2.648-.045-.15-.092-.3-.142-.45-.01-.026-.04-.045-.087-.095-.11.176-.218.342-.322.51-1.324 2.14-2.91 4.04-5.03 5.443-.768.508-1.594.887-2.524 1.007-1.275.165-2.303-.285-3.063-1.287-.413-.546-.724-1.17-1.105-1.8-.085.13-.185.276-.28.425-1.477 2.293-3.235 4.313-5.615 5.716-1.195.705-2.468 1.175-3.882 1.198-1.587.026-2.882-.562-3.893-1.782-.06-.072-.124-.14-.213-.24-.48.52-.933 1.038-1.41 1.53-1.617 1.663-3.39 3.113-5.557 4.013-1.213.502-2.47.723-3.784.635-1.898-.127-3.236-1.33-3.664-3.31-.404-1.868-.15-3.7.313-5.515.715-2.817 1.785-5.507 2.952-8.162.08-.18.157-.362.26-.604-1.326.322-2.535.235-3.702-.446-.495 1.34-.973 2.652-1.466 3.96-1.59 4.224-3.38 8.352-5.825 12.164-2.158 3.363-4.692 6.385-8.078 8.578-4.898 3.172-10.217 4.094-15.82 2.435-4.968-1.472-7.964-4.994-9.025-10.004-1.39-6.57.668-12.098 5.58-16.58 3.042-2.777 6.63-4.546 10.658-5.42.108-.024.215-.05.32-.082.026-.007.046-.035.18-.146-.134-.08-.272-.134-.372-.228-1.52-1.42-2.248-3.206-2.38-5.248-.448-7.003 5.245-11.226 10.06-11.853 1.645-.215 3.27.005 4.818.655 3.403 1.428 4.896 5.158 3.504 8.768-.31.8-.715 1.547-1.384 2.114-.543.46-1.16.685-1.88.535-.438-.09-.718-.35-.738-.8-.017-.372-.02-.764.072-1.12.614-2.345-.3-3.878-2.683-4.457-3.097-.753-6.472.747-7.87 3.498-1.072 2.11-.813 4.82.69 6.416.442.467 1.046.79 1.61 1.125.208.124.512.128.77.12 1.03-.033 2.055-.002 3.03.365.347.13.69.323.975.56.672.563.667 1.456-.067 1.923-.473.3-1.057.503-1.615.58-1.308.177-2.562-.152-3.793-.587-.236-.083-.525-.11-.77-.063-5.838 1.134-10.653 6.202-11.45 12.09-.356 2.615-.108 5.163 1.19 7.524 1.826 3.32 5.224 5.074 9 4.7 1.543-.152 3.056-.41 4.5-.994.116-.046.23-.097.4-.17-.136-.062-.212-.115-.296-.133-3.2-.712-5.24-2.84-5.788-6.094-.487-2.9.2-5.468 2.228-7.644 2.31-2.48 6.437-3.31 9.505-1.872 2.126.996 3.233 2.79 3.733 4.998.194.855.257 1.74.383 2.627.045-.042.133-.096.186-.173 2.73-3.974 4.88-8.23 6.19-12.886.076-.27.03-.623-.08-.89-.663-1.665-1.253-3.352-1.13-5.172.047-.69.21-1.424.526-2.03.775-1.48 2.414-1.496 3.334-.094.538.82.763 1.755.704 2.703-.07 1.14-.27 2.277-.48 3.403-.065.355.02.48.306.598.82.34 1.624.255 2.263-.318.59-.53 1.063-1.19 1.557-1.815.222-.282.35-.636.555-.933.178-.255.378-.51.618-.704.555-.444 1.492-.515 2.005-.166.63.43.74 1.105.53 1.73-.37 1.116-.822 2.21-1.33 3.27-1.01 2.098-1.854 4.244-2.16 6.566-.2 1.516-.376 3.04.05 4.55.474 1.67 1.593 2.52 3.11 2.388 1.08-.094 2.08-.428 2.907-1.127.61-.517 1.145-1.123 1.69-1.71.093-.1.133-.32.098-.46-.734-2.915-.656-5.86-.18-8.782 1.69-10.346 5.66-19.788 11.492-28.466 1.058-1.573 2.27-3.03 3.685-4.3.837-.752 1.726-1.434 2.848-1.713 1.208-.302 2.17.1 2.612 1.264.313.825.524 1.73.568 2.608.16 3.195-.58 6.26-1.577 9.264-2.482 7.476-6.47 14.053-11.9 19.755-.65.686-1.357 1.318-2.01 2.002-.19.2-.362.48-.407.746-.297 1.765-.442 3.537.013 5.3.636 2.465 2.395 3.155 4.546 1.79 1.47-.934 2.552-2.245 3.507-3.666.518-.77 1.003-1.57 1.427-2.393.217-.423.283-.927.39-1.4.957-4.285 2.5-8.32 5.113-11.89 1.267-1.732 2.734-3.265 4.63-4.325.963-.54 1.984-.864 3.114-.797 1.154.068 2.09.45 2.62 1.71.12-.393.242-.67.29-.96.16-1.01.863-1.557 1.702-1.933.816-.365 1.673-.642 2.52-.936.596-.207.89.06.737.69-.515 2.11-1.058 4.214-1.584 6.32-.822 3.3-1.674 6.593-2.434 9.906-.19.823-.185 1.73-.074 2.572.135 1.03.74 1.32 1.753 1.047 1.014-.274 1.724-.955 2.316-1.776 1.077-1.492 1.733-3.184 2.19-4.942 1.165-4.48 2.272-8.973 3.43-13.453.16-.615.402-1.24.752-1.763.283-.422.74-.783 1.2-1.017.797-.406 1.647-.713 2.49-1.016.22-.08.565-.078.734.046.126.093.128.46.074.676-.207.84-.46 1.67-.69 2.503-.03.1-.035.204.016.338.087-.123.176-.244.26-.37 1.283-1.878 2.843-3.452 4.92-4.454.73-.354 1.488-.605 2.314-.573 1.586.06 2.514.928 2.762 2.5.193 1.22-.064 2.386-.358 3.545-.702 2.76-1.46 5.507-2.143 8.272-.186.755-.258 1.558-.246 2.336.02 1.162.785 1.628 1.79 1.036 2.347-1.384 4.03-3.25 4.59-6.077.843-4.284 2.4-8.316 4.872-11.95 1.234-1.815 2.663-3.443 4.583-4.572.824-.484 1.7-.82 2.67-.865 1.514-.072 2.78.335 3.535 1.93.124-.384.255-.66.3-.95.232-1.497 1.17-2.3 2.56-2.7.543-.155 1.07-.37 1.608-.546.692-.225 1.05.102.867.816-.374 1.463-.775 2.92-1.16 4.38-1.704 6.47-3.357 12.952-5.128 19.402-.895 3.26-2 6.462-3.01 9.69-.03.1-.053.205-.09.345 1.95.06 3.84-.118 5.696-.59 2.874-.73 5.148-2.308 6.778-4.8.198-.3.417-.595.667-.854.383-.397.838-.483 1.143-.266.316.225.433.75.143 1.206-.702 1.098-1.357 2.252-2.216 3.22-2.292 2.58-5.27 3.952-8.648 4.427-1.46.205-2.952.21-4.43.262-.308.01-.436.103-.566.353-1.783 3.43-4.043 6.5-6.92 9.098-4.037 3.647-8.752 5.846-14.164 6.463-3.603.41-7.177.255-10.65-.923-1.742-.59-3.337-1.448-4.49-2.928-1.713-2.198-1.732-4.634-.792-7.118.92-2.426 2.75-4.073 4.92-5.374 2.464-1.477 5.162-2.31 7.97-2.823 2.304-.42 4.63-.565 6.965-.54 3.296.038 6.578.285 9.85.692 1.188.148 2.386.21 3.577.332.328.033.478-.074.575-.384.833-2.674 1.682-5.343 2.52-8.015.244-.78.468-1.567.698-2.353.025-.086.03-.176.056-.316zm-4.606 13.638c-.757-.057-1.474-.1-2.19-.166-3.94-.368-7.89-.588-11.848-.53-2.052.03-4.088.235-6.066.836-3.214.976-5.603 2.943-5.734 6.632-.057 1.606.346 3.065 1.492 4.245 1.32 1.36 3.008 1.97 4.84 2.09 4.212.283 8.093-.76 11.568-3.184 3.533-2.464 5.975-5.83 7.856-9.646.032-.066.043-.14.082-.276zM69.696 51.67l.205.102c.026-.06.037-.13.077-.178 4.86-5.778 8.62-12.178 10.91-19.398.61-1.924 1.113-3.883 1.07-5.925-.01-.52-.122-1.065-.306-1.554-.19-.51-.686-.63-1.128-.31-.353.256-.72.55-.944.912-.924 1.48-1.898 2.943-2.67 4.503-2.613 5.28-4.556 10.817-6.028 16.517-.454 1.762-.792 3.555-1.184 5.333zm58.863-9.93c.085.353.192 1.072.44 1.74.226.608.76.895 1.433.876 1.027-.03 1.832-.53 2.54-1.212 1.213-1.174 2.063-2.612 2.604-4.178.79-2.287 1.433-4.626 2.114-6.95.258-.876.477-1.767.32-2.698-.267-1.578-1.445-2.24-2.877-1.52-.633.32-1.225.787-1.717 1.302-1.39 1.454-2.305 3.22-3.077 5.06-.97 2.307-1.658 4.686-1.78 7.58zM84.072 54.224c.083.374.17 1.115.418 1.798.302.83 1.005 1.14 1.872.978.752-.14 1.39-.505 1.944-1.013 1.402-1.287 2.38-2.865 2.934-4.668.64-2.075 1.192-4.176 1.736-6.278.28-1.077.35-2.18-.057-3.257-.395-1.038-1.21-1.42-2.27-1.09-.78.24-1.387.735-1.934 1.31-1.223 1.287-2.063 2.817-2.766 4.427-1.036 2.37-1.737 4.825-1.877 7.793zm-54.32 11.98c.057.434.092 1.067.228 1.678.742 3.32 3.28 4.735 6.726 3.548.097-.032.193-.107.26-.188 1.62-1.98 2.624-4.162 2.3-6.81-.42-3.41-3.923-5.187-6.893-3.453-1.916 1.118-2.553 2.93-2.62 5.225zM214.068 60.383l-.25-.383M397.736 261.213"/><path fill="#fff" d="M231.717 92.134c-6.33 1.076-7.883-1.212-11.245-3.986-8.29-6.83-13.272-13.867-18.612-22.476l-4.16-6.677-.08.116c-.13-.15-.223-.24-.26-.24-.758.005-3.21 5.296-4.064 6.778-5.063 8.77-9.827 15.96-17.9 23.047-3.277 2.88-4.754 5.214-11.115 4.338 14.98-9.537 23.542-23.35 31.723-39.586.322-.638.857-.54 1.486-.035.525-.377.977-.406 1.28.15 8.687 15.972 17.675 29.51 32.947 38.572zm-51.17-20.25c1.924-2.62 2.383-6.003 4.883-2.71-.034-.95 1.707-2.064 1.628-2.983-.08-.883-3.887-5.16-4.883-3.523-5.274 8.674-14.188 18.572-22.777 24.402-3.31 2.246-6.884 3.508-9.76 5.963 7.073.748 9.33-1.363 13.556-4.338 6.215-4.376 13.456-11.507 17.354-16.81zm-10.573 3.797c-1.548-.262-2.748-5.144-4.338-3.523-7.79 7.933-20.784 15.58-33.35 18.708l.677.983-.136 1.185c5.485.206 8.612-1.322 12.473-2.98 7.992-3.434 15.25-7.9 20.878-13.015 1.104 2.594 2.69-.193 3.796-1.357zm-14.9 56.32h-6.605c-.176 0-.39-.886-.642-1.757-.11-.396-.19-.443-.238-.57-1.14 1.11-2.36 1.94-3.66 2.495-1.298.555-2.685.832-4.157.832-2.598 0-4.647-.705-6.143-2.115-1.497-1.41-2.25-3.193-2.25-5.345 0-1.426.338-2.697 1.02-3.814.68-1.118 1.626-1.972 2.853-2.567 1.227-.595 2.98-1.113 5.294-1.558 3.12-.585 5.453-1.132 6.453-1.64v-.665c0-1.283-.283-2.197-.917-2.744-.634-.547-1.795-.82-3.554-.82-1.19 0-2.117.235-2.78.7s-1.204 1.288-1.615 2.46l-6.06-1.094c.683-2.44 1.855-4.247 3.517-5.42 1.664-1.172 4.134-1.76 7.413-1.76 2.978 0 5.195.345 6.653 1.05 1.458.705 2.484 1.587 3.077 2.67.594 1.086.89 3.05.89 5.95l-.07 7.74c0 2.218.106 3.747.32 4.8.213 1.052.613 2.17 1.2 3.17zM147 120.312c-1 .286-2.176.626-4.03 1.022-1.853.396-3.03.784-3.6 1.165-.87.616-1.308 1.4-1.308 2.35 0 .936.346 1.743 1.043 2.424.697.682 1.58 1.022 2.656 1.022 1.204 0 2.344-.396 3.438-1.19.808-.6 1.32-1.338 1.575-2.21.174-.57.227-1.654.227-3.254v-1.33zM165 132v-7.648l3.328-3.47 6.56 11.118h7.2l-9.244-15.898 8.624-9.102h-8.222L165 116.084V98h-6v34h6zm26 0v-7.648l3.25-3.47L200.736 132h7.198l-9.24-15.898 8.623-9.102h-8.222L191 116.084V98h-6v34h6zm41.614 0h-6.606c-.174 0-.387-.886-.64-1.757-.11-.396-.19-.443-.237-.57-1.137 1.11-2.356 1.94-3.655 2.495-1.3.555-2.683.832-4.153.832-2.598 0-4.642-.705-6.138-2.115-1.497-1.41-2.233-3.193-2.233-5.345 0-1.426.367-2.697 1.048-3.814.68-1.118 1.683-1.972 2.91-2.567 1.23-.595 3.097-1.113 5.41-1.558 3.12-.585 4.682-1.132 6.682-1.64v-.665c0-1.283-.514-2.197-1.145-2.744-.635-.546-2.026-.82-3.786-.82-1.188 0-2.114.235-2.78.7-.665.47-1.204 1.288-1.617 2.46l-6.058-1.094c.68-2.44 1.853-4.247 3.516-5.42 1.666-1.172 4.136-1.76 7.414-1.76 2.98 0 5.197.345 6.652 1.05 1.458.705 2.484 1.587 3.078 2.67.593 1.086.892 3.05.892 5.95l-.072 7.74c0 2.218.105 3.747.32 4.8.215 1.052.615 2.17 1.2 3.17zM225 120h-.393c-.855 1-2.205.782-4.06 1.178-1.853.396-3.06.94-3.632 1.32-.87.618-1.3 1.403-1.3 2.353 0 .936.36 1.743 1.058 2.424.697.682 1.607 1.022 2.685 1.022 1.204 0 2.402-.396 3.495-1.19.808-.6 1.435-1.338 1.688-2.21.176-.57.458-1.654.458-3.254V120z"/><path fill="#fff" d="M128.73 161.576c0-.236-.066-.405-.2-.516-.147-.12-.402-.182-.758-.182h-.51v1.405h.616c.57 0 .85-.236.85-.707m.798 2.93h-.703l-.448-.99c-.228-.494-.47-.742-.736-.742h-.38v1.732h-.578v-4.12h1.16c.516 0 .903.11 1.17.344.224.2.337.457.337.777 0 .284-.093.522-.278.72-.18.2-.44.336-.77.405v.018c.23.054.46.306.682.76l.543 1.098v-.002zm1.284-2.02c0-.81-.277-1.495-.83-2.038-.553-.543-1.228-.815-2.026-.815-.822 0-1.506.272-2.05.82-.542.55-.812 1.23-.812 2.033 0 .822.28 1.51.84 2.056.552.547 1.227.817 2.022.817.79 0 1.466-.273 2.022-.827.557-.545.834-1.23.834-2.047m.39-.018c0 .91-.314 1.673-.942 2.288-.628.62-1.398.928-2.32.928-.927 0-1.697-.304-2.31-.9-.61-.607-.915-1.368-.915-2.29 0-.904.31-1.663.932-2.286.62-.62 1.396-.932 2.322-.932.907 0 1.668.297 2.285.89.632.607.947 1.372.947 2.302"/><path fill="#fff" d="M43.128 173.96H41.13v-11.43c0-.904.06-2.003.167-3.3h-.045c-.187.76-.358 1.308-.51 1.648l-5.804 13.08h-.973l-5.816-12.986c-.165-.363-.336-.946-.51-1.743h-.043c.06.68.095 1.787.095 3.32v11.407h-1.925v-17.02h2.635l5.222 11.868c.394.894.648 1.574.772 2.038h.083c.34-.93.61-1.628.814-2.087l5.334-11.82h2.5v17.022z"/><path fill="#fff" d="M49.272 173.958h-1.94v-12.155h1.94v12.155zm.335-16.512c0 .358-.126.657-.376.903-.244.244-.548.368-.904.368-.347 0-.65-.12-.896-.356-.248-.24-.37-.543-.37-.917 0-.35.123-.65.37-.894.248-.242.55-.36.896-.36.356 0 .66.118.905.36.25.245.377.545.377.896"/><path fill="#fff" d="M61.4 173.396c-.93.572-2.044.856-3.33.856-1.742 0-3.145-.58-4.216-1.734-1.04-1.12-1.565-2.57-1.565-4.344 0-1.99.57-3.603 1.717-4.828 1.142-1.227 2.677-1.84 4.61-1.84 1.055 0 1.992.207 2.81.617v1.997c-.906-.637-1.866-.953-2.895-.953-1.238 0-2.245.432-3.026 1.295-.813.883-1.225 2.063-1.225 3.535 0 1.414.377 2.533 1.125 3.36.75.822 1.747 1.234 3.006 1.234 1.064 0 2.06-.348 2.99-1.044v1.85z"/><path fill="#fff" d="M70.686 163.775c-.342-.263-.835-.392-1.486-.392-.79 0-1.455.354-1.993 1.067-.61.797-.914 1.9-.914 3.31v6.197h-1.945v-12.155h1.945v2.506h.047c.286-.887.727-1.57 1.317-2.054.552-.44 1.175-.664 1.862-.664.517 0 .902.056 1.165.166v2.02z"/><path fill="#fff" d="M81.53 167.903c0-1.556-.352-2.745-1.055-3.56-.682-.784-1.635-1.175-2.862-1.175-1.21 0-2.18.396-2.905 1.19-.768.846-1.15 2.04-1.15 3.593 0 1.456.364 2.597 1.1 3.412.732.82 1.718 1.23 2.954 1.23 1.28 0 2.258-.417 2.93-1.246.658-.81.987-1.957.987-3.443m1.994-.07c0 1.938-.547 3.494-1.637 4.66-1.094 1.17-2.567 1.756-4.418 1.756-1.825 0-3.277-.586-4.342-1.757-1.043-1.128-1.567-2.62-1.567-4.472 0-2.113.593-3.744 1.782-4.9 1.1-1.075 2.57-1.615 4.41-1.615 1.814 0 3.23.565 4.25 1.684 1.01 1.125 1.522 2.674 1.522 4.644"/><path fill="#fff" d="M93.172 170.706c0 .995-.37 1.82-1.117 2.477-.813.712-1.93 1.067-3.335 1.067-1.15 0-2.16-.24-3.015-.732v-2.092c.953.775 2.004 1.164 3.16 1.164 1.54 0 2.31-.567 2.31-1.698 0-.475-.168-.87-.51-1.173-.342-.312-1.007-.683-1.995-1.118-1.018-.446-1.743-.903-2.17-1.378-.514-.563-.773-1.295-.773-2.195 0-1.01.403-1.85 1.2-2.518.8-.67 1.826-1.007 3.087-1.007.966 0 1.83.19 2.6.57v1.96c-.803-.58-1.72-.868-2.76-.868-.643 0-1.16.16-1.546.473-.39.32-.586.727-.586 1.225 0 .538.164.957.49 1.257.287.277.9.615 1.823 1.01 1.038.434 1.788.884 2.245 1.346.593.582.892 1.325.892 2.228"/><path fill="#fff" d="M105.062 167.903c0-1.556-.35-2.745-1.056-3.56-.68-.784-1.635-1.175-2.86-1.175-1.21 0-2.18.396-2.91 1.19-.765.846-1.145 2.04-1.145 3.593 0 1.456.366 2.597 1.095 3.412.74.82 1.727 1.23 2.96 1.23 1.282 0 2.26-.417 2.93-1.246.658-.81.987-1.957.987-3.443m2-.07c0 1.938-.552 3.494-1.644 4.66-1.09 1.17-2.562 1.756-4.413 1.756-1.826 0-3.28-.586-4.344-1.757-1.042-1.128-1.566-2.62-1.566-4.472 0-2.113.597-3.744 1.78-4.9 1.098-1.075 2.57-1.615 4.415-1.615 1.812 0 3.226.565 4.244 1.684 1.012 1.125 1.528 2.674 1.528 4.644"/><path fill="#fff" d="M115.635 157.673c-.383-.212-.808-.32-1.292-.32-1.362 0-2.038.858-2.038 2.576v1.872h2.85v1.648h-2.85v10.507h-1.948V163.45h-2.067v-1.648h2.067v-1.97c0-1.338.41-2.387 1.243-3.144.714-.658 1.587-.984 2.626-.984.6 0 1.07.072 1.41.212v1.757z"/><path fill="#fff" d="M123.313 173.836c-.46.264-1.072.394-1.828.394-2.12 0-3.182-1.196-3.182-3.587v-7.19h-2.085v-1.65h2.085v-2.966c.62-.196 1.268-.41 1.95-.63v3.596h3.06v1.65h-3.06v6.86c0 .815.133 1.398.412 1.736.282.348.74.52 1.39.52.483 0 .902-.13 1.258-.393v1.66z"/><path fill="#fff" d="M18.14 221.397c0 .952-.34 1.777-1.028 2.472-.685.692-1.516 1.042-2.49 1.042-.953 0-1.763-.35-2.427-1.043-.664-.697-.995-1.52-.995-2.473 0-.98.33-1.806.995-2.49.664-.687 1.475-1.027 2.427-1.027.975 0 1.806.345 2.49 1.04.687.696 1.027 1.522 1.027 2.477"/><path fill="#fff" d="M61.7 224.196h-6.344l-23.033-35.57c-.538-.857-1.002-1.787-1.396-2.802h-.19c.165.952.25 2.997.25 6.13v32.242h-5.232V179.57h6.79l22.343 35.01c.89 1.388 1.497 2.383 1.806 2.983h.124c-.207-1.283-.315-3.472-.315-6.562v-31.43h5.2l-.002 44.626z"/><path fill="#fff" d="M95.235 224.196H71.582V179.57h22.626v4.728h-17.4v14.846h16.123v4.73H76.81v15.592h18.425v4.73z"/><path fill="#fff" d="M131.11 184.298h-12.854v39.9h-5.23v-39.9h-12.88v-4.73h30.965v4.73z"/></svg>