<svg xmlns="http://www.w3.org/2000/svg" viewBox="0 0 1280 800" enable-background="new 0 0 1280 800"><linearGradient id="a" gradientUnits="userSpaceOnUse" x1="655.351" y1="565.74" x2="655.351" y2="346.565" gradientTransform="matrix(.866 -.5 .5 .866 -114.61 373.787)"><stop offset="0" stop-color="#6BA300"/><stop offset="1" stop-color="#8DD900"/></linearGradient><path fill-rule="evenodd" clip-rule="evenodd" fill="url(#a)" d="M578.5 373.4c-8.7 5-11.7 16.2-6.7 25l91.4 158.4c5 8.7 16.2 11.7 25 6.7l95-54.9c8.7-5 11.7-16.2 6.7-25l-91.4-158.4c-5-8.7-16.2-11.7-25-6.7l-95 54.9z"/><path fill-rule="evenodd" clip-rule="evenodd" fill="#6BA300" d="M692.8 571.4c.1.1.1.2.2.3 2.6 4.1 8 5.5 12.3 3 .1-.1.2-.1.3-.2l15.5-9c.1-.1.2-.1.3-.2 4-2.5 5.4-7.8 3.2-12l-.2-.3-4.6-7.9-7.9 4.6-15.8 9.1-7.9 4.6 4.6 8zM756.2 534.8c.1.1.1.2.2.3 2.6 4.1 8 5.5 12.3 3 .1-.1.2-.1.3-.2l15.5-9c.1-.1.2-.1.3-.2 4-2.5 5.4-7.8 3.2-12l-.2-.3-4.6-7.9-7.9 4.6-15.8 9.1-7.9 4.6 4.6 8z"/><path fill-rule="evenodd" clip-rule="evenodd" fill="#CED900" d="M608.6 313.8c7.7-4.4 34.1 22.5 34.1 22.5L611 354.7s-10.5-36.2-2.4-40.9zM586 348c3.8-2.2 17.1 11.3 17.1 11.3l-15.8 9.1S582 350.3 586 348zM649.4 311.4c3.8-2.2 17.1 11.3 17.1 11.3l-15.8 9.1c-.1 0-5.3-18.1-1.3-20.4z"/><path fill-rule="evenodd" clip-rule="evenodd" fill="#6BA300" d="M734.8 388.1l-27.3-47.2c-.1-24.8 6-45.6 19.4-53.2 24.4-13.7 63.9 40.7 59.6 50.9-2.8 6.7-20.7-12-24.2-6.3-4.2 6.9 15.6 25.5 11.9 33-3.6 7.3-23.1-11.1-26.5-4.6-3 5.6 14.3 27.7 10 35.5-3.2 6.1-22.9-8.1-22.9-8.1zM608.1 461.2S580.9 414 580.8 414c-21.4-12.4-42.5-17.6-55.7-9.8-24.1 14.3 3.3 75.7 14.3 77.1 7.2.9 0-23.9 6.6-24.1 8.1-.2 14.3 26.2 22.6 26.8 8.1.5 2-25.5 9.2-25.3 6.3.2 16.9 26.2 25.7 26.4 7.1.3 4.6-23.9 4.6-23.9zM762.1 435.3c45 12 47-29.8 61-34.7 14-4.9 9.6 57.3-33.6 82.2l-27.4-47.5z"/><linearGradient id="b" gradientUnits="userSpaceOnUse" x1="655.35" y1="565.741" x2="655.35" y2="474.293" gradientTransform="matrix(.866 -.5 .5 .866 -114.61 373.787)"><stop offset="0" stop-color="#8CD700" stop-opacity="0"/><stop offset="1" stop-color="#8CD700"/></linearGradient><path fill-rule="evenodd" clip-rule="evenodd" fill="url(#b)" d="M678.8 547l5 8.6c2.5 4.3 8.1 5.8 12.4 3.3l79.2-45.7c4.4-2.5 5.9-8.1 3.4-12.4l-5-8.6c-17.5-30.3-57.5-50.4-83.7-35.3-26.3 15.1-28.8 59.8-11.3 90.1z"/><path opacity=".25" fill-rule="evenodd" clip-rule="evenodd" fill="#fff" d="M678.8 547l.4.6 95-54.9-.4-.6c-2.9-5.1-6.5-9.8-10.5-14.2l-91.6 52.9c1.8 5.7 4.1 11.1 7.1 16.2z"/><path opacity=".35" fill-rule="evenodd" clip-rule="evenodd" fill="#fff" d="M748.8 465.2c-6.1-4.3-12.6-7.7-19.3-10l-60.7 35c-1.3 6.9-1.6 14.3-1 21.7l81-46.7z"/><path fill-rule="evenodd" clip-rule="evenodd" fill="#fff" d="M648.7 468.4c-4 1.3-13.3-14.8-13.3-14.8l16.7-5.3c0-.1.8 18.7-3.4 20.1z"/><path fill-rule="evenodd" clip-rule="evenodd" fill="#fff" d="M720.5 426.9c3.1-2.8-6.2-18.9-6.2-18.9l-13 11.8c.1 0 15.9 10.1 19.2 7.1z"/><path d="M627 454.5c-1 0-1.9 0-2.9-.1s-1.8-1-1.7-2c.1-1 .9-1.8 2-1.7 27.2 2 82.1-29.6 93.2-53.8.4-.9 1.5-1.3 2.4-.9.9.4 1.3 1.5.9 2.4-11.4 25-64.4 56.1-93.9 56.1z"/><path fill-rule="evenodd" clip-rule="evenodd" d="M672 414.5c-2-3.5-2.2-7.2-.5-8.2 1.8-1 4.8 1 6.8 4.5s2.2 7.2.5 8.2c-1.8 1-4.8-1-6.8-4.5z"/><path fill-rule="evenodd" clip-rule="evenodd" d="M657.7 422.7c-2-3.5-2.2-7.2-.5-8.2 1.8-1 4.8 1 6.8 4.5s2.2 7.2.5 8.2c-1.7 1.1-4.8-1-6.8-4.5z"/><path fill-rule="evenodd" clip-rule="evenodd" fill="#fff" d="M662.7 391.1c-6.9-11.9-11-28.2-2.3-33.2 8.7-5 27.1 3 34 14.9 6.9 11.9 5.4 25.7-3.4 30.7-8.8 5.1-21.5-.5-28.3-12.4z"/><path fill-rule="evenodd" clip-rule="evenodd" fill="#fff" d="M646.8 400.2c-6.9-11.9-18.9-23.7-27.6-18.6-8.7 5-10.9 25-4 36.9 6.9 11.9 19.6 17.5 28.3 12.4 8.7-5 10.2-18.7 3.3-30.7z"/><path fill-rule="evenodd" clip-rule="evenodd" d="M666.3 388.2c-3.8-6.6-1.5-15 5-18.7 6.6-3.8 15-1.5 18.7 5 3.8 6.6 1.5 15-5 18.7-6.5 3.8-14.9 1.6-18.7-5z"/><path fill-rule="evenodd" clip-rule="evenodd" d="M618.8 415.7c-3.8-6.6-1.5-15 5-18.7 6.6-3.8 15-1.5 18.7 5 3.8 6.6 1.5 15-5 18.7-6.6 3.8-14.9 1.5-18.7-5z"/><path fill-rule="evenodd" clip-rule="evenodd" fill="#fff" d="M632.2 403.2c-2.4-.6-4-2.6-3.5-4.3.5-1.7 2.8-2.6 5.2-2 2.4.7 4 2.6 3.5 4.3-.5 1.7-2.8 2.6-5.2 2z"/><path fill-rule="evenodd" clip-rule="evenodd" fill="#fff" d="M679.7 375.7c-2.4-.6-4-2.6-3.5-4.3.5-1.7 2.8-2.6 5.2-2 2.4.7 4 2.6 3.5 4.3-.5 1.8-2.8 2.7-5.2 2z"/><linearGradient id="c" gradientUnits="userSpaceOnUse" x1="916.396" y1="765.023" x2="916.396" y2="611.324" gradientTransform="matrix(.866 -.5 .5 .866 -114.61 373.787)"><stop offset="0" stop-color="#6BA300"/><stop offset="1" stop-color="#8DD900"/></linearGradient><path fill-rule="evenodd" clip-rule="evenodd" fill="url(#c)" d="M951.2 464.1c-6.1 3.5-8.2 11.4-4.7 17.5l64.1 111.1c3.5 6.1 11.4 8.2 17.5 4.7l66.6-38.5c6.1-3.5 8.2-11.4 4.7-17.5l-64.1-111.1c-3.5-6.1-11.4-8.2-17.5-4.7l-66.6 38.5z"/><path fill-rule="evenodd" clip-rule="evenodd" fill="#6BA300" d="M1031.4 602.9c0 .1.1.1.1.2 1.8 2.9 5.6 3.9 8.6 2.1.1 0 .1-.1.2-.1l10.9-6.3c.1 0 .1-.1.2-.1 2.8-1.8 3.8-5.5 2.3-8.4l-.1-.2-3.2-5.6-5.6 3.2-11.1 6.4-5.6 3.2 3.3 5.6zM1075.8 577.2c0 .1.1.1.1.2 1.8 2.9 5.6 3.9 8.6 2.1.1 0 .1-.1.2-.1l10.9-6.3c.1 0 .1-.1.2-.1 2.8-1.8 3.8-5.5 2.3-8.4l-.1-.2-3.2-5.6-5.6 3.2-11.1 6.4-5.6 3.2 3.3 5.6z"/><path fill-rule="evenodd" clip-rule="evenodd" fill="#CED900" d="M972.3 422.3c5.4-3.1 23.9 15.8 23.9 15.8L974 450.9s-7.4-25.4-1.7-28.6zM956.5 446.2c2.7-1.6 12 7.9 12 7.9l-11.1 6.4c-.1 0-3.7-12.7-.9-14.3zM1000.9 420.6c2.7-1.6 12 7.9 12 7.9l-11.1 6.4s-3.7-12.7-.9-14.3z"/><path fill-rule="evenodd" clip-rule="evenodd" fill="#6BA300" d="M1060.8 474.3l-19.1-33.1c0-17.4 4.2-32 13.6-37.3 17.1-9.6 44.8 28.6 41.8 35.7-2 4.7-14.5-8.4-17-4.4-2.9 4.8 10.9 17.9 8.4 23.1-2.5 5.1-16.2-7.8-18.6-3.2-2.1 3.9 10 19.4 7 24.9-2.3 4.3-16.1-5.7-16.1-5.7zM972 525.6l-19.1-33.1c-15-8.7-29.8-12.4-39.1-6.9-16.9 10 2.3 53.1 10 54.1 5 .6 0-16.8 4.6-16.9 5.7-.1 10 18.4 15.8 18.8 5.7.4 1.4-17.9 6.5-17.7 4.4.2 11.8 18.4 18 18.5 5 .2 3.3-16.8 3.3-16.8zM1080 507.5c31.5 8.4 32.9-20.9 42.8-24.3 9.8-3.5 6.7 40.2-23.5 57.7-.1-.1-19.3-33.4-19.3-33.4z"/><linearGradient id="d" gradientUnits="userSpaceOnUse" x1="916.395" y1="765.023" x2="916.395" y2="700.894" gradientTransform="matrix(.866 -.5 .5 .866 -114.61 373.787)"><stop offset="0" stop-color="#8CD700" stop-opacity="0"/><stop offset="1" stop-color="#8CD700"/></linearGradient><path fill-rule="evenodd" clip-rule="evenodd" fill="url(#d)" d="M1021.5 585.8l3.5 6c1.8 3 5.7 4.1 8.7 2.3l55.5-32.1c3.1-1.8 4.1-5.7 2.4-8.7l-3.5-6c-12.3-21.3-40.3-35.4-58.7-24.8-18.4 10.7-20.2 42-7.9 63.3z"/><path opacity=".25" fill-rule="evenodd" clip-rule="evenodd" fill="#fff" d="M1021.5 585.8l.3.4 66.6-38.5-.3-.4c-2.1-3.6-4.5-6.9-7.4-10l-64.2 37.1c1.3 4 3 7.8 5 11.4z"/><path opacity=".35" fill-rule="evenodd" clip-rule="evenodd" fill="#fff" d="M1070.6 528.4c-4.3-3-8.9-5.4-13.5-7l-42.5 24.6c-.9 4.8-1.1 10-.7 15.2l56.7-32.8z"/><path fill-rule="evenodd" clip-rule="evenodd" fill="#fff" d="M1000.4 530.7c-2.8.9-9.3-10.4-9.3-10.4l11.7-3.7c0-.1.6 13.1-2.4 14.1z"/><path fill-rule="evenodd" clip-rule="evenodd" fill="#fff" d="M1050.8 501.6c2.2-2-4.3-13.3-4.3-13.3l-9.1 8.3s11.1 7.1 13.4 5z"/><path d="M985.2 520.9c-.7 0-1.4 0-2-.1-.7-.1-1.2-.7-1.2-1.4.1-.7.7-1.2 1.4-1.2 19 1.4 57.5-20.8 65.4-37.7.3-.6 1.1-.9 1.7-.6.6.3.9 1.1.6 1.7-8.1 17.5-45.2 39.3-65.9 39.3z"/><path fill-rule="evenodd" clip-rule="evenodd" d="M1016.7 492.9c-1.4-2.5-1.6-5-.3-5.7 1.2-.7 3.4.7 4.8 3.2s1.6 5 .3 5.7c-1.2.6-3.3-.8-4.8-3.2z"/><path fill-rule="evenodd" clip-rule="evenodd" d="M1006.7 498.6c-1.4-2.5-1.6-5-.3-5.7 1.2-.7 3.4.7 4.8 3.2s1.6 5 .3 5.7c-1.2.7-3.3-.7-4.8-3.2z"/><path fill-rule="evenodd" clip-rule="evenodd" fill="#fff" d="M1010.2 476.4c-4.8-8.4-7.7-19.8-1.6-23.3s19 2.1 23.8 10.5c4.8 8.4 3.8 18-2.4 21.6-6.1 3.5-15-.4-19.8-8.8z"/><path fill-rule="evenodd" clip-rule="evenodd" fill="#fff" d="M999.1 482.9c-4.8-8.4-13.2-16.6-19.4-13-6.1 3.5-7.7 17.5-2.8 25.9 4.8 8.4 13.7 12.3 19.9 8.7 6.1-3.6 7.1-13.3 2.3-21.6z"/><path fill-rule="evenodd" clip-rule="evenodd" d="M1012.8 474.4c-2.7-4.6-1.1-10.5 3.5-13.1 4.6-2.7 10.5-1.1 13.1 3.5 2.7 4.6 1.1 10.5-3.5 13.1-4.6 2.7-10.5 1.1-13.1-3.5z"/><circle fill-rule="evenodd" clip-rule="evenodd" cx="987.8" cy="488.9" r="9.6"/><path fill-rule="evenodd" clip-rule="evenodd" fill="#fff" d="M988.8 484.9c-1.7-.4-2.8-1.8-2.5-3 .3-1.2 2-1.8 3.7-1.4 1.7.5 2.8 1.8 2.5 3-.4 1.3-2 1.9-3.7 1.4z"/><path fill-rule="evenodd" clip-rule="evenodd" fill="#fff" d="M1022.1 465.7c-1.7-.4-2.8-1.8-2.5-3 .3-1.2 2-1.8 3.7-1.4 1.7.5 2.8 1.8 2.5 3-.3 1.2-2 1.8-3.7 1.4z"/><linearGradient id="e" gradientUnits="userSpaceOnUse" x1="436.118" y1="628.139" x2="436.118" y2="474.439" gradientTransform="matrix(.866 -.5 .5 .866 -114.61 373.787)"><stop offset="0" stop-color="#6BA300"/><stop offset="1" stop-color="#8DD900"/></linearGradient><path fill-rule="evenodd" clip-rule="evenodd" fill="url(#e)" d="M466.9 585.6c-6.1 3.5-8.2 11.4-4.7 17.5l64.1 111.1c3.5 6.1 11.4 8.2 17.5 4.7l66.6-38.5c6.1-3.5 8.2-11.4 4.7-17.5l-64.1-111c-3.5-6.1-11.4-8.2-17.5-4.7l-66.6 38.4z"/><path fill-rule="evenodd" clip-rule="evenodd" fill="#6BA300" d="M547 724.5c0 .1.1.1.1.2 1.8 2.9 5.6 3.9 8.6 2.1.1 0 .1-.1.2-.1l10.9-6.3c.1 0 .1-.1.2-.1 2.8-1.8 3.8-5.5 2.3-8.4l-.1-.2-3.2-5.6-5.6 3.2-11.1 6.4-5.6 3.2 3.3 5.6zM591.4 698.8c0 .1.1.1.1.2 1.8 2.9 5.6 3.9 8.6 2.1.1 0 .1-.1.2-.1l10.9-6.3c.1 0 .1-.1.2-.1 2.8-1.8 3.8-5.5 2.3-8.4l-.1-.2-3.2-5.6-5.6 3.2-11.1 6.4-5.6 3.2 3.3 5.6z"/><path fill-rule="evenodd" clip-rule="evenodd" fill="#CED900" d="M487.9 543.9c5.4-3.1 23.9 15.8 23.9 15.8l-22.2 12.8s-7.3-25.4-1.7-28.6zM472.1 567.8c2.7-1.6 12 7.9 12 7.9l-11.1 6.4s-3.7-12.7-.9-14.3zM516.5 542.2c2.7-1.6 12 7.9 12 7.9l-11.1 6.4s-3.7-12.7-.9-14.3z"/><path fill-rule="evenodd" clip-rule="evenodd" fill="#6BA300" d="M576.5 595.9l-19.1-33.1c0-17.4 4.2-32 13.6-37.3 17.1-9.6 44.8 28.6 41.8 35.7-2 4.7-14.5-8.4-17-4.4-2.9 4.8 10.9 17.9 8.4 23.1-2.5 5.1-16.2-7.8-18.6-3.2-2.1 3.9 10 19.4 7 24.9-2.3 4.3-16.1-5.7-16.1-5.7zM487.6 647.2l-19.1-33.1c-15-8.7-29.8-12.4-39.1-6.9-16.9 10 2.3 53.1 10 54.1 5 .6 0-16.8 4.6-16.9 5.7-.1 10 18.4 15.8 18.8 5.7.4 1.4-17.9 6.5-17.7 4.4.2 11.8 18.4 18 18.5 5.1.2 3.3-16.8 3.3-16.8zM595.6 629.1c31.5 8.4 32.9-20.9 42.8-24.3 9.8-3.5 6.7 40.2-23.5 57.7-.1-.1-19.3-33.4-19.3-33.4z"/><linearGradient id="f" gradientUnits="userSpaceOnUse" x1="436.116" y1="628.139" x2="436.116" y2="564.01" gradientTransform="matrix(.866 -.5 .5 .866 -114.61 373.787)"><stop offset="0" stop-color="#8CD700" stop-opacity="0"/><stop offset="1" stop-color="#8CD700"/></linearGradient><path fill-rule="evenodd" clip-rule="evenodd" fill="url(#f)" d="M537.1 707.4l3.5 6c1.8 3 5.7 4.1 8.7 2.3l55.5-32.1c3.1-1.8 4.1-5.7 2.4-8.7l-3.5-6c-12.3-21.3-40.3-35.4-58.7-24.8-18.3 10.7-20.1 42-7.9 63.3z"/><path opacity=".25" fill-rule="evenodd" clip-rule="evenodd" fill="#fff" d="M537.1 707.4l.3.4 66.6-38.5-.3-.4c-2.1-3.6-4.5-6.9-7.4-10L532.2 696c1.2 4 2.9 7.8 4.9 11.4z"/><path opacity=".35" fill-rule="evenodd" clip-rule="evenodd" fill="#fff" d="M586.3 650c-4.3-3-8.9-5.4-13.5-7l-42.5 24.6c-.9 4.8-1.1 10-.7 15.2l56.7-32.8z"/><path fill-rule="evenodd" clip-rule="evenodd" fill="#fff" d="M516.1 652.3c-2.8.9-9.3-10.4-9.3-10.4l11.7-3.7c-.1-.1.5 13.1-2.4 14.1z"/><path fill-rule="evenodd" clip-rule="evenodd" fill="#fff" d="M566.4 623.2c2.2-2-4.3-13.3-4.3-13.3l-9.1 8.3s11.1 7.1 13.4 5z"/><path d="M500.8 642.5c-.7 0-1.4 0-2-.1-.7-.1-1.2-.7-1.2-1.4.1-.7.7-1.2 1.4-1.2 19 1.4 57.5-20.8 65.4-37.7.3-.6 1.1-.9 1.7-.6.6.3.9 1.1.6 1.7-8 17.5-45.2 39.3-65.9 39.3z"/><path fill-rule="evenodd" clip-rule="evenodd" d="M532.4 614.5c-1.4-2.5-1.6-5-.3-5.7 1.2-.7 3.4.7 4.8 3.2s1.6 5 .3 5.7c-1.3.6-3.4-.8-4.8-3.2z"/><path fill-rule="evenodd" clip-rule="evenodd" d="M522.4 620.2c-1.4-2.5-1.6-5-.3-5.7 1.2-.7 3.4.7 4.8 3.2s1.6 5 .3 5.7c-1.3.7-3.4-.7-4.8-3.2z"/><path fill-rule="evenodd" clip-rule="evenodd" fill="#fff" d="M525.9 598c-4.8-8.4-7.7-19.8-1.6-23.3s19 2.1 23.8 10.5c4.8 8.4 3.8 18-2.4 21.6-6.1 3.5-15-.4-19.8-8.8z"/><path fill-rule="evenodd" clip-rule="evenodd" fill="#fff" d="M514.7 604.5c-4.8-8.4-13.2-16.6-19.4-13-6.1 3.5-7.7 17.5-2.8 25.9 4.8 8.4 13.7 12.3 19.9 8.7 6.1-3.6 7.2-13.3 2.3-21.6z"/><path fill-rule="evenodd" clip-rule="evenodd" d="M528.4 596c-2.7-4.6-1.1-10.5 3.5-13.1 4.6-2.7 10.5-1.1 13.1 3.5 2.7 4.6 1.1 10.5-3.5 13.1-4.6 2.7-10.5 1.1-13.1-3.5z"/><circle fill-rule="evenodd" clip-rule="evenodd" cx="503.4" cy="610.5" r="9.6"/><path fill-rule="evenodd" clip-rule="evenodd" fill="#fff" d="M504.5 606.5c-1.7-.4-2.8-1.8-2.5-3 .3-1.2 2-1.8 3.7-1.4 1.7.5 2.8 1.8 2.5 3-.4 1.3-2.1 1.9-3.7 1.4z"/><path fill-rule="evenodd" clip-rule="evenodd" fill="#fff" d="M537.8 587.3c-1.7-.4-2.8-1.8-2.5-3 .3-1.2 2-1.8 3.7-1.4 1.7.5 2.8 1.8 2.5 3-.4 1.2-2 1.8-3.7 1.4z"/><linearGradient id="g" gradientUnits="userSpaceOnUse" x1="763.635" y1="246.522" x2="763.635" y2="92.823" gradientTransform="matrix(.866 -.5 .5 .866 -114.61 373.787)"><stop offset="0" stop-color="#6BA300"/><stop offset="1" stop-color="#8DD900"/></linearGradient><path fill-rule="evenodd" clip-rule="evenodd" fill="url(#g)" d="M559.7 91.4c-6.1 3.5-8.2 11.4-4.7 17.5L619.1 220c3.5 6.1 11.4 8.2 17.5 4.7l66.6-38.5c6.1-3.5 8.2-11.4 4.7-17.5L643.8 57.6c-3.5-6.1-11.4-8.2-17.5-4.7l-66.6 38.5z"/><path fill-rule="evenodd" clip-rule="evenodd" fill="#6BA300" d="M639.8 230.3c0 .1.1.1.1.2 1.8 2.9 5.6 3.9 8.6 2.1.1 0 .1-.1.2-.1l10.9-6.3c.1 0 .1-.1.2-.1 2.8-1.8 3.8-5.5 2.3-8.4l-.1-.2-3.2-5.6-5.6 3.2-11.1 6.4-5.6 3.2 3.3 5.6zM684.3 204.6c0 .1.1.1.1.2 1.8 2.9 5.6 3.9 8.6 2.1.1 0 .1-.1.2-.1l10.9-6.3c.1 0 .1-.1.2-.1 2.8-1.8 3.8-5.5 2.3-8.4l-.1-.2-3.2-5.6-5.6 3.2-11.1 6.4-5.6 3.2 3.3 5.6z"/><path fill-rule="evenodd" clip-rule="evenodd" fill="#CED900" d="M580.7 49.6c5.4-3.1 23.9 15.8 23.9 15.8l-22.2 12.8c.1.1-7.3-25.3-1.7-28.6zM564.9 73.6c2.7-1.6 12 7.9 12 7.9l-11.1 6.4s-3.7-12.7-.9-14.3zM609.4 47.9c2.7-1.6 12 7.9 12 7.9l-11.1 6.4c-.1 0-3.8-12.7-.9-14.3z"/><path fill-rule="evenodd" clip-rule="evenodd" fill="#6BA300" d="M669.3 101.7l-19.1-33.1c0-17.4 4.2-32 13.6-37.3 17.1-9.6 44.8 28.6 41.8 35.7-2 4.7-14.5-8.4-17-4.4-2.9 4.8 10.9 17.9 8.4 23.1-2.5 5.1-16.2-7.8-18.6-3.2-2.1 3.9 10 19.4 7 24.9-2.3 4.3-16.1-5.7-16.1-5.7zM580.4 153l-19.1-33.1c-15-8.7-29.8-12.4-39.1-6.9-16.9 10 2.3 53.1 10 54.1 5 .6 0-16.8 4.6-16.9 5.7-.1 10 18.4 15.8 18.8 5.7.4 1.4-17.9 6.5-17.7 4.4.2 11.8 18.4 18 18.5 5.1.1 3.3-16.8 3.3-16.8zM688.4 134.8c31.5 8.4 32.9-20.9 42.8-24.3 9.8-3.5 6.7 40.2-23.5 57.7-.1-.1-19.3-33.4-19.3-33.4z"/><linearGradient id="h" gradientUnits="userSpaceOnUse" x1="763.635" y1="246.522" x2="763.635" y2="182.393" gradientTransform="matrix(.866 -.5 .5 .866 -114.61 373.787)"><stop offset="0" stop-color="#8CD700" stop-opacity="0"/><stop offset="1" stop-color="#8CD700"/></linearGradient><path fill-rule="evenodd" clip-rule="evenodd" fill="url(#h)" d="M630 213.2l3.5 6c1.8 3 5.7 4.1 8.7 2.3l55.5-32.1c3.1-1.8 4.1-5.7 2.4-8.7l-3.5-6c-12.3-21.3-40.3-35.4-58.7-24.8-18.4 10.6-20.2 42-7.9 63.3z"/><path opacity=".25" fill-rule="evenodd" clip-rule="evenodd" fill="#fff" d="M630 213.2l.3.4 66.6-38.5-.3-.4c-2.1-3.6-4.5-6.9-7.4-10L625 201.8c1.3 4 2.9 7.8 5 11.4z"/><path opacity=".35" fill-rule="evenodd" clip-rule="evenodd" fill="#fff" d="M679.1 155.8c-4.3-3-8.9-5.4-13.5-7L623 173.3c-.9 4.8-1.1 10-.7 15.2l56.8-32.7z"/><path fill-rule="evenodd" clip-rule="evenodd" fill="#fff" d="M608.9 158c-2.8.9-9.3-10.4-9.3-10.4l11.7-3.7c-.1 0 .5 13.2-2.4 14.1z"/><path fill-rule="evenodd" clip-rule="evenodd" fill="#fff" d="M659.3 128.9c2.2-2-4.3-13.3-4.3-13.3l-9.1 8.3c-.1 0 11 7.1 13.4 5z"/><path d="M593.7 148.3c-.7 0-1.4 0-2-.1-.7-.1-1.2-.7-1.2-1.4.1-.7.7-1.2 1.4-1.2 19 1.4 57.5-20.8 65.4-37.7.3-.6 1.1-.9 1.7-.6.6.3.9 1.1.6 1.7-8.1 17.4-45.2 39.3-65.9 39.3z"/><path fill-rule="evenodd" clip-rule="evenodd" d="M625.2 120.2c-1.4-2.5-1.6-5-.3-5.7 1.2-.7 3.4.7 4.8 3.2s1.6 5 .3 5.7c-1.2.7-3.4-.7-4.8-3.2z"/><path fill-rule="evenodd" clip-rule="evenodd" d="M615.2 126c-1.4-2.5-1.6-5-.3-5.7 1.2-.7 3.4.7 4.8 3.2s1.6 5 .3 5.7c-1.2.7-3.4-.7-4.8-3.2z"/><path fill-rule="evenodd" clip-rule="evenodd" fill="#fff" d="M618.7 103.8c-4.8-8.4-7.7-19.8-1.6-23.3s19 2.1 23.8 10.5c4.8 8.4 3.8 18-2.4 21.6-6.1 3.5-15-.4-19.8-8.8z"/><path fill-rule="evenodd" clip-rule="evenodd" fill="#fff" d="M607.6 110.2c-4.8-8.4-13.2-16.6-19.4-13-6.1 3.5-7.7 17.5-2.8 25.9 4.8 8.4 13.7 12.3 19.9 8.7 6-3.6 7.1-13.2 2.3-21.6z"/><path fill-rule="evenodd" clip-rule="evenodd" d="M621.2 101.8c-2.7-4.6-1.1-10.5 3.5-13.1 4.6-2.7 10.5-1.1 13.1 3.5 2.7 4.6 1.1 10.5-3.5 13.1-4.5 2.7-10.4 1.1-13.1-3.5z"/><circle fill-rule="evenodd" clip-rule="evenodd" cx="596.2" cy="116.2" r="9.6"/><path fill-rule="evenodd" clip-rule="evenodd" fill="#fff" d="M597.3 112.3c-1.7-.4-2.8-1.8-2.5-3 .3-1.2 2-1.8 3.7-1.4 1.7.5 2.8 1.8 2.5 3-.4 1.2-2 1.8-3.7 1.4z"/><path fill-rule="evenodd" clip-rule="evenodd" fill="#fff" d="M630.6 93c-1.7-.4-2.8-1.8-2.5-3 .3-1.2 2-1.8 3.7-1.4 1.7.5 2.8 1.8 2.5 3-.4 1.3-2 1.9-3.7 1.4z"/><linearGradient id="i" gradientUnits="userSpaceOnUse" x1="344.049" y1="211.584" x2="344.049" y2="57.885" gradientTransform="matrix(.866 -.5 .5 .866 -114.61 373.787)"><stop offset="0" stop-color="#6BA300"/><stop offset="1" stop-color="#8DD900"/></linearGradient><path fill-rule="evenodd" clip-rule="evenodd" fill="url(#i)" d="M178.9 270.9c-6.1 3.5-8.2 11.4-4.7 17.5l64.1 111.1c3.5 6.1 11.4 8.2 17.5 4.7l66.6-38.5c6.1-3.5 8.2-11.4 4.7-17.5l-64.1-111c-3.5-6.1-11.4-8.2-17.5-4.7l-66.6 38.4z"/><path fill-rule="evenodd" clip-rule="evenodd" fill="#6BA300" d="M259 409.8c0 .1.1.1.1.2 1.8 2.9 5.6 3.9 8.6 2.1.1 0 .1-.1.2-.1l10.9-6.3c.1 0 .1-.1.2-.1 2.8-1.8 3.8-5.5 2.3-8.4l-.1-.2-3.2-5.6-5.6 3.2-11.1 6.4-5.6 3.2 3.3 5.6zM303.4 384.1c0 .1.1.1.1.2 1.8 2.9 5.6 3.9 8.6 2.1.1 0 .1-.1.2-.1l10.9-6.3c.1 0 .1-.1.2-.1 2.8-1.8 3.8-5.5 2.3-8.4l-.1-.2-3.2-5.6-5.6 3.2-11.1 6.4-5.6 3.2 3.3 5.6z"/><path fill-rule="evenodd" clip-rule="evenodd" fill="#CED900" d="M199.9 229.2c5.4-3.1 23.9 15.8 23.9 15.8l-22.2 12.8s-7.3-25.4-1.7-28.6zM184.1 253.1c2.7-1.6 12 7.9 12 7.9l-11.1 6.4s-3.7-12.7-.9-14.3zM228.5 227.5c2.7-1.6 12 7.9 12 7.9l-11.1 6.4s-3.7-12.7-.9-14.3z"/><path fill-rule="evenodd" clip-rule="evenodd" fill="#6BA300" d="M288.5 281.2l-19.1-33.1c0-17.4 4.2-32 13.6-37.3 17.1-9.6 44.8 28.6 41.8 35.7-2 4.7-14.5-8.4-17-4.4-2.9 4.8 10.9 17.9 8.4 23.1-2.5 5.1-16.2-7.8-18.6-3.2-2.1 3.9 10 19.4 7 24.9-2.3 4.3-16.1-5.7-16.1-5.7zM199.6 332.5l-19.1-33.1c-15-8.7-29.8-12.4-39.1-6.9-16.9 10 2.3 53.1 10 54.1 5 .6 0-16.8 4.6-16.9 5.7-.1 10 18.4 15.8 18.8 5.7.4 1.4-17.9 6.5-17.7 4.4.2 11.8 18.4 18 18.5 5 .2 3.3-16.8 3.3-16.8zM307.6 314.4c31.5 8.4 32.9-20.9 42.8-24.3 9.8-3.5 6.7 40.2-23.5 57.7-.1-.1-19.3-33.4-19.3-33.4z"/><linearGradient id="j" gradientUnits="userSpaceOnUse" x1="344.048" y1="211.584" x2="344.048" y2="147.456" gradientTransform="matrix(.866 -.5 .5 .866 -114.61 373.787)"><stop offset="0" stop-color="#8CD700" stop-opacity="0"/><stop offset="1" stop-color="#8CD700"/></linearGradient><path fill-rule="evenodd" clip-rule="evenodd" fill="url(#j)" d="M249.1 392.7l3.5 6c1.8 3 5.7 4.1 8.7 2.3l55.5-32.1c3.1-1.8 4.1-5.7 2.4-8.7l-3.5-6c-12.3-21.3-40.3-35.4-58.7-24.8-18.3 10.7-20.1 42-7.9 63.3z"/><path opacity=".25" fill-rule="evenodd" clip-rule="evenodd" fill="#fff" d="M249.1 392.7l.3.4 66.6-38.5-.3-.4c-2.1-3.6-4.5-6.9-7.4-10l-64.2 37.1c1.3 4 3 7.8 5 11.4z"/><path opacity=".35" fill-rule="evenodd" clip-rule="evenodd" fill="#fff" d="M298.2 335.3c-4.3-3-8.9-5.4-13.5-7l-42.5 24.6c-.9 4.8-1.1 10-.7 15.2l56.7-32.8z"/><path fill-rule="evenodd" clip-rule="evenodd" fill="#fff" d="M228.1 337.6c-2.8.9-9.3-10.4-9.3-10.4l11.7-3.7c-.1-.1.5 13.1-2.4 14.1z"/><path fill-rule="evenodd" clip-rule="evenodd" fill="#fff" d="M278.4 308.5c2.2-2-4.3-13.3-4.3-13.3l-9.1 8.3s11.1 7.1 13.4 5z"/><path d="M212.8 327.8c-.7 0-1.4 0-2-.1-.7-.1-1.2-.7-1.2-1.4.1-.7.7-1.2 1.4-1.2 19 1.4 57.5-20.8 65.4-37.7.3-.6 1.1-.9 1.7-.6.6.3.9 1.1.6 1.7-8 17.5-45.2 39.3-65.9 39.3z"/><path fill-rule="evenodd" clip-rule="evenodd" d="M244.4 299.8c-1.4-2.5-1.6-5-.3-5.7 1.2-.7 3.4.7 4.8 3.2s1.6 5 .3 5.7c-1.3.6-3.4-.8-4.8-3.2z"/><path fill-rule="evenodd" clip-rule="evenodd" d="M234.4 305.5c-1.4-2.5-1.6-5-.3-5.7 1.2-.7 3.4.7 4.8 3.2s1.6 5 .3 5.7c-1.3.7-3.4-.7-4.8-3.2z"/><path fill-rule="evenodd" clip-rule="evenodd" fill="#fff" d="M237.8 283.3c-4.8-8.4-7.7-19.8-1.6-23.3s19 2.1 23.8 10.5c4.8 8.4 3.8 18-2.4 21.6-6 3.5-14.9-.4-19.8-8.8z"/><path fill-rule="evenodd" clip-rule="evenodd" fill="#fff" d="M226.7 289.8c-4.8-8.4-13.2-16.6-19.4-13-6.1 3.5-7.7 17.5-2.8 25.9 4.8 8.4 13.7 12.3 19.9 8.7 6.1-3.6 7.2-13.3 2.3-21.6z"/><path fill-rule="evenodd" clip-rule="evenodd" d="M240.4 281.3c-2.7-4.6-1.1-10.5 3.5-13.1 4.6-2.7 10.5-1.1 13.1 3.5 2.7 4.6 1.1 10.5-3.5 13.1-4.6 2.7-10.5 1.1-13.1-3.5z"/><circle fill-rule="evenodd" clip-rule="evenodd" cx="215.4" cy="295.8" r="9.6"/><path fill-rule="evenodd" clip-rule="evenodd" fill="#fff" d="M216.5 291.8c-1.7-.4-2.8-1.8-2.5-3 .3-1.2 2-1.8 3.7-1.4 1.7.5 2.8 1.8 2.5 3-.4 1.3-2.1 1.9-3.7 1.4z"/><path fill-rule="evenodd" clip-rule="evenodd" fill="#fff" d="M249.8 272.6c-1.7-.4-2.8-1.8-2.5-3 .3-1.2 2-1.8 3.7-1.4 1.7.5 2.8 1.8 2.5 3-.4 1.2-2 1.8-3.7 1.4z"/><linearGradient id="k" gradientUnits="userSpaceOnUse" x1="1081.195" y1="519.581" x2="1081.195" y2="365.882" gradientTransform="matrix(.866 -.5 .5 .866 -114.61 373.787)"><stop offset="0" stop-color="#6BA300"/><stop offset="1" stop-color="#8DD900"/></linearGradient><path fill-rule="evenodd" clip-rule="evenodd" fill="url(#k)" d="M971.2 169.1c-6.1 3.5-8.2 11.4-4.7 17.5l64.1 111.1c3.5 6.1 11.4 8.2 17.5 4.7l66.6-38.5c6.1-3.5 8.2-11.4 4.7-17.5l-64.1-111.1c-3.5-6.1-11.4-8.2-17.5-4.7l-66.6 38.5z"/><path fill-rule="evenodd" clip-rule="evenodd" fill="#6BA300" d="M1051.4 307.9c0 .1.1.1.1.2 1.8 2.9 5.6 3.9 8.6 2.1.1 0 .1-.1.2-.1l10.9-6.3c.1 0 .1-.1.2-.1 2.8-1.8 3.8-5.5 2.3-8.4l-.1-.2-3.2-5.6-5.6 3.2-11.1 6.4-5.6 3.2 3.3 5.6zM1095.8 282.3c0 .1.1.1.1.2 1.8 2.9 5.6 3.9 8.6 2.1.1 0 .1-.1.2-.1l10.9-6.3c.1 0 .1-.1.2-.1 2.8-1.8 3.8-5.5 2.3-8.4l-.1-.2-3.2-5.6-5.6 3.2-11.1 6.4-5.6 3.2 3.3 5.6z"/><path fill-rule="evenodd" clip-rule="evenodd" fill="#CED900" d="M992.3 127.3c5.4-3.1 23.9 15.8 23.9 15.8L994 156s-7.4-25.4-1.7-28.7zM976.5 151.3c2.7-1.6 12 7.9 12 7.9l-11.1 6.4c-.1 0-3.8-12.7-.9-14.3zM1020.9 125.6c2.7-1.6 12 7.9 12 7.9l-11.1 6.4s-3.7-12.7-.9-14.3z"/><path fill-rule="evenodd" clip-rule="evenodd" fill="#6BA300" d="M1080.8 179.4l-19.1-33.1c0-17.4 4.2-32 13.6-37.3 17.1-9.6 44.8 28.6 41.8 35.7-2 4.7-14.5-8.4-17-4.4-2.9 4.8 10.9 17.9 8.4 23.1-2.5 5.1-16.2-7.8-18.6-3.2-2.1 3.9 10 19.4 7 24.9-2.3 4.3-16.1-5.7-16.1-5.7zM992 230.7l-19.1-33.1c-15-8.7-29.8-12.4-39.1-6.9-16.9 10 2.3 53.1 10 54.1 5 .6 0-16.8 4.6-16.9 5.7-.1 10 18.4 15.8 18.8 5.7.4 1.4-17.9 6.5-17.7 4.4.2 11.8 18.4 18 18.5 5 .1 3.3-16.8 3.3-16.8zM1100 212.5c31.5 8.4 32.9-20.9 42.8-24.3 9.8-3.5 6.7 40.2-23.5 57.7-.1-.1-19.3-33.4-19.3-33.4z"/><linearGradient id="l" gradientUnits="userSpaceOnUse" x1="1081.194" y1="519.581" x2="1081.194" y2="455.452" gradientTransform="matrix(.866 -.5 .5 .866 -114.61 373.787)"><stop offset="0" stop-color="#8CD700" stop-opacity="0"/><stop offset="1" stop-color="#8CD700"/></linearGradient><path fill-rule="evenodd" clip-rule="evenodd" fill="url(#l)" d="M1041.5 290.8l3.5 6c1.8 3 5.7 4.1 8.7 2.3l55.5-32.1c3.1-1.8 4.1-5.7 2.4-8.7l-3.5-6c-12.3-21.3-40.3-35.4-58.7-24.8-18.4 10.7-20.2 42.1-7.9 63.3z"/><path opacity=".25" fill-rule="evenodd" clip-rule="evenodd" fill="#fff" d="M1041.5 290.8l.3.4 66.6-38.5-.3-.4c-2.1-3.6-4.5-6.9-7.4-10l-64.2 37.1c1.3 4.1 3 7.9 5 11.4z"/><path opacity=".35" fill-rule="evenodd" clip-rule="evenodd" fill="#fff" d="M1090.6 233.5c-4.3-3-8.9-5.4-13.5-7l-42.5 24.6c-.9 4.8-1.1 10-.7 15.2l56.7-32.8z"/><path fill-rule="evenodd" clip-rule="evenodd" fill="#fff" d="M1020.4 235.7c-2.8.9-9.3-10.4-9.3-10.4l11.7-3.7s.6 13.2-2.4 14.1z"/><path fill-rule="evenodd" clip-rule="evenodd" fill="#fff" d="M1070.8 206.6c2.2-2-4.3-13.3-4.3-13.3l-9.1 8.3s11.1 7.1 13.4 5z"/><path d="M1005.2 226c-.7 0-1.4 0-2-.1-.7-.1-1.2-.7-1.2-1.4.1-.7.7-1.2 1.4-1.2 19 1.4 57.5-20.8 65.4-37.7.3-.6 1.1-.9 1.7-.6.6.3.9 1.1.6 1.7-8.1 17.4-45.2 39.3-65.9 39.3z"/><path fill-rule="evenodd" clip-rule="evenodd" d="M1036.7 197.9c-1.4-2.5-1.6-5-.3-5.7 1.2-.7 3.4.7 4.8 3.2s1.6 5 .3 5.7c-1.2.7-3.4-.7-4.8-3.2z"/><path fill-rule="evenodd" clip-rule="evenodd" d="M1026.7 203.7c-1.4-2.5-1.6-5-.3-5.7 1.2-.7 3.4.7 4.8 3.2s1.6 5 .3 5.7c-1.2.7-3.4-.8-4.8-3.2z"/><path fill-rule="evenodd" clip-rule="evenodd" fill="#fff" d="M1030.2 181.5c-4.8-8.4-7.7-19.8-1.6-23.3s19 2.1 23.8 10.5c4.8 8.4 3.8 18-2.4 21.6-6.1 3.5-15-.4-19.8-8.8z"/><path fill-rule="evenodd" clip-rule="evenodd" fill="#fff" d="M1019.1 187.9c-4.8-8.4-13.2-16.6-19.4-13-6.1 3.5-7.7 17.5-2.8 25.9 4.8 8.4 13.7 12.3 19.9 8.7 6.1-3.6 7.1-13.2 2.3-21.6z"/><path fill-rule="evenodd" clip-rule="evenodd" d="M1032.8 179.5c-2.7-4.6-1.1-10.5 3.5-13.1 4.6-2.7 10.5-1.1 13.1 3.5 2.7 4.6 1.1 10.5-3.5 13.1-4.6 2.7-10.5 1.1-13.1-3.5z"/><circle fill-rule="evenodd" clip-rule="evenodd" cx="1007.8" cy="193.9" r="9.6"/><path fill-rule="evenodd" clip-rule="evenodd" fill="#fff" d="M1008.8 190c-1.7-.4-2.8-1.8-2.5-3 .3-1.2 2-1.8 3.7-1.4 1.7.5 2.8 1.8 2.5 3-.4 1.2-2 1.8-3.7 1.4z"/><path fill-rule="evenodd" clip-rule="evenodd" fill="#fff" d="M1042.1 170.7c-1.7-.4-2.8-1.8-2.5-3 .3-1.2 2-1.8 3.7-1.4 1.7.5 2.8 1.8 2.5 3-.3 1.3-2 1.9-3.7 1.4z"/><linearGradient id="m" gradientUnits="userSpaceOnUse" x1="887.711" y1="396.586" x2="887.711" y2="280.938" gradientTransform="matrix(.866 -.5 .5 .866 -114.61 373.787)"><stop offset="0" stop-color="#6BA300"/><stop offset="1" stop-color="#8DD900"/></linearGradient><path fill-rule="evenodd" clip-rule="evenodd" fill="url(#m)" d="M769.5 187.6c-4.6 2.7-6.2 8.6-3.5 13.2l48.3 83.6c2.7 4.6 8.6 6.2 13.2 3.5l50.1-29c4.6-2.7 6.2-8.6 3.5-13.2l-48.3-83.6c-2.7-4.6-8.6-6.2-13.2-3.5l-50.1 29z"/><path fill-rule="evenodd" clip-rule="evenodd" fill="#6BA300" d="M829.8 292c0 .1.1.1.1.2 1.4 2.2 4.2 2.9 6.5 1.6.1 0 .1-.1.2-.1l8.2-4.7c.1 0 .1-.1.2-.1 2.1-1.3 2.9-4.1 1.7-6.3l-.1-.2-2.4-4.2-4.2 2.4-8.4 4.8-4.2 2.4 2.4 4.2zM863.2 272.7c0 .1.1.1.1.2 1.4 2.2 4.2 2.9 6.5 1.6.1 0 .1-.1.2-.1l8.2-4.7c.1 0 .1-.1.2-.1 2.1-1.3 2.9-4.1 1.7-6.3l-.1-.2-2.4-4.2-4.2 2.4-8.4 4.8-4.2 2.4 2.4 4.2z"/><path fill-rule="evenodd" clip-rule="evenodd" fill="#CED900" d="M785.3 156.1c4-2.3 18 11.9 18 11.9l-16.7 9.7s-5.5-19.1-1.3-21.6zM773.4 174.1c2-1.2 9 5.9 9 5.9l-8.4 4.8c.1.1-2.7-9.4-.6-10.7zM806.8 154.8c2-1.2 9 5.9 9 5.9l-8.4 4.8c.1.1-2.7-9.4-.6-10.7z"/><path fill-rule="evenodd" clip-rule="evenodd" fill="#6BA300" d="M851.9 195.3l-14.4-24.9c0-13.1 3.2-24.1 10.2-28 12.9-7.2 33.7 21.5 31.5 26.9-1.5 3.5-10.9-6.3-12.8-3.3-2.2 3.6 8.2 13.4 6.3 17.4-1.9 3.8-12.2-5.8-14-2.4-1.6 2.9 7.5 14.6 5.3 18.7-1.7 3.1-12.1-4.4-12.1-4.4zM785.1 233.9L770.7 209c-11.3-6.6-22.4-9.3-29.4-5.2-12.7 7.5 1.7 40 7.5 40.7 3.8.5 0-12.6 3.5-12.7 4.3-.1 7.5 13.8 11.9 14.1 4.3.3 1-13.5 4.9-13.3 3.3.1 8.9 13.8 13.6 13.9 3.7.2 2.4-12.6 2.4-12.6zM866.3 220.2c23.7 6.4 24.8-15.7 32.2-18.3 7.4-2.6 5.1 30.2-17.7 43.4l-14.5-25.1z"/><linearGradient id="n" gradientUnits="userSpaceOnUse" x1="887.71" y1="396.586" x2="887.71" y2="348.333" gradientTransform="matrix(.866 -.5 .5 .866 -114.61 373.787)"><stop offset="0" stop-color="#8CD700" stop-opacity="0"/><stop offset="1" stop-color="#8CD700"/></linearGradient><path fill-rule="evenodd" clip-rule="evenodd" fill="url(#n)" d="M822.4 279.2l2.6 4.5c1.3 2.3 4.3 3.1 6.6 1.7l41.8-24.1c2.3-1.3 3.1-4.3 1.8-6.6l-2.6-4.5c-9.2-16-30.3-26.6-44.2-18.6-13.9 8-15.3 31.6-6 47.6z"/><path opacity=".25" fill-rule="evenodd" clip-rule="evenodd" fill="#fff" d="M822.4 279.2l.2.3 50.1-29-.2-.3c-1.5-2.7-3.4-5.2-5.5-7.5l-48.3 27.9c.9 3 2.1 5.9 3.7 8.6z"/><path opacity=".35" fill-rule="evenodd" clip-rule="evenodd" fill="#fff" d="M859.3 236c-3.2-2.3-6.7-4.1-10.2-5.3l-32 18.5c-.7 3.6-.8 7.5-.5 11.4l42.7-24.6z"/><path fill-rule="evenodd" clip-rule="evenodd" fill="#fff" d="M806.5 237.7c-2.1.7-7-7.8-7-7.8l8.8-2.8c0-.1.4 9.9-1.8 10.6z"/><path fill-rule="evenodd" clip-rule="evenodd" fill="#fff" d="M844.4 215.8c1.7-1.5-3.3-10-3.3-10l-6.8 6.2s8.3 5.4 10.1 3.8z"/><path d="M795 230.4c-.5 0-1 0-1.5-.1-.5 0-.9-.5-.9-1s.5-.9 1-.9c14.3 1.1 43.3-15.6 49.2-28.4.2-.5.8-.7 1.3-.5.5.2.7.8.5 1.3-6.1 13.1-34 29.6-49.6 29.6z"/><ellipse transform="matrix(-.866 .5 -.5 -.866 1635.105 -21.476)" fill-rule="evenodd" clip-rule="evenodd" cx="820.4" cy="208.3" rx="1.9" ry="3.9"/><ellipse transform="matrix(-.866 .5 -.5 -.866 1623.222 -9.68)" fill-rule="evenodd" clip-rule="evenodd" cx="812.9" cy="212.6" rx="1.9" ry="3.9"/><path fill-rule="evenodd" clip-rule="evenodd" fill="#fff" d="M813.9 196.9c-3.6-6.3-5.8-14.9-1.2-17.5s14.3 1.6 17.9 7.9c3.6 6.3 2.8 13.6-1.8 16.2-4.6 2.6-11.3-.3-14.9-6.6z"/><path fill-rule="evenodd" clip-rule="evenodd" fill="#fff" d="M805.5 201.7c-3.6-6.3-10-12.5-14.6-9.8-4.6 2.7-5.8 13.2-2.1 19.5 3.6 6.3 10.3 9.2 14.9 6.6 4.6-2.7 5.4-10 1.8-16.3z"/><circle fill-rule="evenodd" clip-rule="evenodd" cx="822" cy="191.8" r="7.2"/><circle fill-rule="evenodd" clip-rule="evenodd" cx="797" cy="206.2" r="7.2"/><path fill-rule="evenodd" clip-rule="evenodd" fill="#fff" d="M797.8 203.3c-1.3-.3-2.1-1.4-1.9-2.3.2-.9 1.5-1.4 2.7-1 1.3.3 2.1 1.4 1.9 2.3-.2.8-1.5 1.3-2.7 1z"/><path fill-rule="evenodd" clip-rule="evenodd" fill="#fff" d="M822.8 188.8c-1.3-.3-2.1-1.4-1.9-2.3.2-.9 1.5-1.4 2.7-1 1.3.3 2.1 1.4 1.9 2.3-.2.9-1.4 1.3-2.7 1z"/><linearGradient id="o" gradientUnits="userSpaceOnUse" x1="427.638" y1="400.252" x2="427.638" y2="284.604" gradientTransform="matrix(.866 -.5 .5 .866 -114.61 373.787)"><stop offset="0" stop-color="#6BA300"/><stop offset="1" stop-color="#8DD900"/></linearGradient><path fill-rule="evenodd" clip-rule="evenodd" fill="url(#o)" d="M372.9 420.8c-4.6 2.7-6.2 8.6-3.5 13.2l48.3 83.6c2.7 4.6 8.6 6.2 13.2 3.5l50.1-29c4.6-2.7 6.2-8.6 3.5-13.2l-48.3-83.6c-2.7-4.6-8.6-6.2-13.2-3.5l-50.1 29z"/><path fill-rule="evenodd" clip-rule="evenodd" fill="#6BA300" d="M433.2 525.2c0 .1.1.1.1.2 1.4 2.2 4.2 2.9 6.5 1.6.1 0 .1-.1.2-.1l8.2-4.7c.1 0 .1-.1.2-.1 2.1-1.3 2.9-4.1 1.7-6.3l-.1-.2-2.4-4.2-4.2 2.4-8.4 4.8-4.2 2.4 2.4 4.2zM466.6 505.9c0 .1.1.1.1.2 1.4 2.2 4.2 2.9 6.5 1.6.1 0 .1-.1.2-.1l8.2-4.7c.1 0 .1-.1.2-.1 2.1-1.3 2.9-4.1 1.7-6.3l-.1-.2-2.4-4.2-4.2 2.4-8.4 4.8-4.2 2.4 2.4 4.2z"/><path fill-rule="evenodd" clip-rule="evenodd" fill="#CED900" d="M388.7 389.3c4-2.3 18 11.9 18 11.9l-16.7 9.7s-5.5-19.1-1.3-21.6zM376.8 407.4c2-1.2 9 5.9 9 5.9l-8.4 4.8c.1 0-2.7-9.5-.6-10.7zM410.3 388c2-1.2 9 5.9 9 5.9l-8.4 4.8c0 .1-2.8-9.4-.6-10.7z"/><path fill-rule="evenodd" clip-rule="evenodd" fill="#6BA300" d="M455.4 428.5L441 403.6c0-13.1 3.2-24.1 10.2-28 12.9-7.2 33.7 21.5 31.5 26.9-1.5 3.5-10.9-6.3-12.8-3.3-2.2 3.6 8.2 13.4 6.3 17.4-1.9 3.8-12.2-5.8-14-2.4-1.6 2.9 7.5 14.6 5.3 18.7-1.8 3.1-12.1-4.4-12.1-4.4zM388.5 467.1l-14.4-24.9c-11.3-6.6-22.4-9.3-29.4-5.2-12.7 7.5 1.7 40 7.5 40.7 3.8.5 0-12.6 3.5-12.7 4.3-.1 7.5 13.8 11.9 14.1 4.3.3 1-13.5 4.9-13.3 3.3.1 8.9 13.8 13.6 13.9 3.7.2 2.4-12.6 2.4-12.6zM469.7 453.4c23.7 6.4 24.8-15.7 32.2-18.3 7.4-2.6 5.1 30.2-17.7 43.4l-14.5-25.1z"/><linearGradient id="p" gradientUnits="userSpaceOnUse" x1="427.638" y1="400.253" x2="427.638" y2="352" gradientTransform="matrix(.866 -.5 .5 .866 -114.61 373.787)"><stop offset="0" stop-color="#8CD700" stop-opacity="0"/><stop offset="1" stop-color="#8CD700"/></linearGradient><path fill-rule="evenodd" clip-rule="evenodd" fill="url(#p)" d="M425.8 512.4l2.6 4.5c1.3 2.3 4.3 3.1 6.6 1.7l41.8-24.1c2.3-1.3 3.1-4.3 1.8-6.6l-2.6-4.5c-9.2-16-30.3-26.6-44.2-18.6-13.9 8-15.3 31.6-6 47.6z"/><path opacity=".25" fill-rule="evenodd" clip-rule="evenodd" fill="#fff" d="M425.8 512.4l.2.3 50.1-29-.2-.3c-1.5-2.7-3.4-5.2-5.5-7.5L422 503.8c1 3 2.2 5.9 3.8 8.6z"/><path opacity=".35" fill-rule="evenodd" clip-rule="evenodd" fill="#fff" d="M462.7 469.2c-3.2-2.3-6.7-4.1-10.2-5.3l-32 18.5c-.7 3.6-.8 7.5-.5 11.4l42.7-24.6z"/><path fill-rule="evenodd" clip-rule="evenodd" fill="#fff" d="M409.9 470.9c-2.1.7-7-7.8-7-7.8l8.8-2.8s.4 9.9-1.8 10.6z"/><path fill-rule="evenodd" clip-rule="evenodd" fill="#fff" d="M447.8 449c1.7-1.5-3.3-10-3.3-10l-6.8 6.2s8.4 5.4 10.1 3.8z"/><path d="M398.4 463.6c-.5 0-1 0-1.5-.1-.5 0-.9-.5-.9-1s.5-.9 1-.9c14.3 1.1 43.3-15.6 49.2-28.4.2-.5.8-.7 1.3-.5.5.2.7.8.5 1.3-6 13.1-34 29.6-49.6 29.6z"/><ellipse transform="matrix(-.866 .5 -.5 -.866 1011.627 611.976)" fill-rule="evenodd" clip-rule="evenodd" cx="423.8" cy="441.5" rx="1.9" ry="3.9"/><ellipse transform="matrix(-.866 .5 -.5 -.866 999.778 623.791)" fill-rule="evenodd" clip-rule="evenodd" cx="416.3" cy="445.8" rx="1.9" ry="3.9"/><path fill-rule="evenodd" clip-rule="evenodd" fill="#fff" d="M417.3 430.1c-3.6-6.3-5.8-14.9-1.2-17.5 4.6-2.7 14.3 1.6 17.9 7.9 3.6 6.3 2.8 13.6-1.8 16.2-4.6 2.6-11.3-.3-14.9-6.6z"/><path fill-rule="evenodd" clip-rule="evenodd" fill="#fff" d="M408.9 434.9c-3.6-6.3-10-12.5-14.6-9.8-4.6 2.7-5.8 13.2-2.1 19.5 3.6 6.3 10.3 9.2 14.9 6.6 4.6-2.7 5.4-10 1.8-16.3z"/><circle fill-rule="evenodd" clip-rule="evenodd" cx="425.4" cy="425" r="7.2"/><circle fill-rule="evenodd" clip-rule="evenodd" cx="400.4" cy="439.4" r="7.2"/><path fill-rule="evenodd" clip-rule="evenodd" fill="#fff" d="M401.2 436.5c-1.3-.3-2.1-1.4-1.9-2.3.2-.9 1.5-1.4 2.7-1 1.3.3 2.1 1.4 1.9 2.3-.2.9-1.5 1.3-2.7 1z"/><path fill-rule="evenodd" clip-rule="evenodd" fill="#fff" d="M426.2 422c-1.3-.3-2.1-1.4-1.9-2.3.2-.9 1.5-1.4 2.7-1 1.3.3 2.1 1.4 1.9 2.3-.2.9-1.4 1.3-2.7 1z"/><linearGradient id="q" gradientUnits="userSpaceOnUse" x1="588.645" y1="770.615" x2="588.645" y2="654.967" gradientTransform="matrix(.866 -.5 .5 .866 -114.61 373.787)"><stop offset="0" stop-color="#6BA300"/><stop offset="1" stop-color="#8DD900"/></linearGradient><path fill-rule="evenodd" clip-rule="evenodd" fill="url(#q)" d="M697.5 661c-4.6 2.7-6.2 8.6-3.5 13.2l48.3 83.6c2.7 4.6 8.6 6.2 13.2 3.5l50.1-29c4.6-2.7 6.2-8.6 3.5-13.2l-48.3-83.6c-2.7-4.6-8.6-6.2-13.2-3.5l-50.1 29z"/><path fill-rule="evenodd" clip-rule="evenodd" fill="#6BA300" d="M757.8 765.5c0 .1.1.1.1.2 1.4 2.2 4.2 2.9 6.5 1.6.1 0 .1-.1.2-.1l8.2-4.7c.1 0 .1-.1.2-.1 2.1-1.3 2.9-4.1 1.7-6.3l-.1-.2-2.4-4.2-4.2 2.4-8.4 4.8-4.2 2.4 2.4 4.2zM791.2 746.2c0 .1.1.1.1.2 1.4 2.2 4.2 2.9 6.5 1.6.1 0 .1-.1.2-.1l8.2-4.7c.1 0 .1-.1.2-.1 2.1-1.3 2.9-4.1 1.7-6.3l-.1-.2-2.4-4.2-4.2 2.4-8.4 4.8-4.2 2.4 2.4 4.2z"/><path fill-rule="evenodd" clip-rule="evenodd" fill="#CED900" d="M713.3 629.6c4-2.3 18 11.9 18 11.9l-16.7 9.7c0-.1-5.5-19.2-1.3-21.6zM701.4 647.6c2-1.2 9 5.9 9 5.9l-8.4 4.8c.1.1-2.7-9.5-.6-10.7zM734.9 628.3c2-1.2 9 5.9 9 5.9l-8.4 4.8c0 .1-2.8-9.5-.6-10.7z"/><path fill-rule="evenodd" clip-rule="evenodd" fill="#6BA300" d="M780 668.7l-14.4-24.9c0-13.1 3.2-24.1 10.2-28 12.9-7.2 33.7 21.5 31.5 26.9-1.5 3.5-10.9-6.3-12.8-3.3-2.2 3.6 8.2 13.4 6.3 17.4-1.9 3.8-12.2-5.8-14-2.4-1.6 2.9 7.5 14.6 5.3 18.7-1.8 3.2-12.1-4.4-12.1-4.4zM713.1 707.3l-14.4-24.9c-11.3-6.6-22.4-9.3-29.4-5.2-12.7 7.5 1.7 40 7.5 40.7 3.8.5 0-12.6 3.5-12.7 4.3-.1 7.5 13.8 11.9 14.1 4.3.3 1-13.5 4.9-13.3 3.3.1 8.9 13.8 13.6 13.9 3.7.2 2.4-12.6 2.4-12.6zM794.4 693.7c23.7 6.4 24.8-15.7 32.2-18.3 7.4-2.6 5.1 30.2-17.7 43.4-.1-.1-14.5-25.1-14.5-25.1z"/><linearGradient id="r" gradientUnits="userSpaceOnUse" x1="588.644" y1="770.615" x2="588.644" y2="722.363" gradientTransform="matrix(.866 -.5 .5 .866 -114.61 373.787)"><stop offset="0" stop-color="#8CD700" stop-opacity="0"/><stop offset="1" stop-color="#8CD700"/></linearGradient><path fill-rule="evenodd" clip-rule="evenodd" fill="url(#r)" d="M750.4 752.6l2.6 4.5c1.3 2.3 4.3 3.1 6.6 1.7l41.8-24.1c2.3-1.3 3.1-4.3 1.8-6.6l-2.6-4.5c-9.2-16-30.3-26.6-44.2-18.6-13.9 8-15.3 31.6-6 47.6z"/><path opacity=".25" fill-rule="evenodd" clip-rule="evenodd" fill="#fff" d="M750.4 752.6l.2.3 50.1-29-.2-.3c-1.5-2.7-3.4-5.2-5.5-7.5L746.7 744c.9 3.1 2.1 5.9 3.7 8.6z"/><path opacity=".35" fill-rule="evenodd" clip-rule="evenodd" fill="#fff" d="M787.3 709.4c-3.2-2.3-6.7-4.1-10.2-5.3l-32 18.5c-.7 3.6-.8 7.5-.5 11.4l42.7-24.6z"/><path fill-rule="evenodd" clip-rule="evenodd" fill="#fff" d="M734.5 711.1c-2.1.7-7-7.8-7-7.8l8.8-2.8s.4 9.9-1.8 10.6z"/><path fill-rule="evenodd" clip-rule="evenodd" fill="#fff" d="M772.4 689.2c1.7-1.5-3.3-10-3.3-10l-6.8 6.2c0 .1 8.4 5.4 10.1 3.8z"/><path d="M723 703.8c-.5 0-1 0-1.5-.1-.5 0-.9-.5-.9-1s.5-.9 1-.9c14.3 1.1 43.3-15.6 49.2-28.4.2-.5.8-.7 1.3-.5.5.2.7.8.5 1.3-6 13.2-34 29.6-49.6 29.6z"/><ellipse transform="matrix(-.866 .5 -.5 -.866 1737.474 897.984)" fill-rule="evenodd" clip-rule="evenodd" cx="748.5" cy="681.7" rx="1.9" ry="3.9"/><ellipse transform="matrix(-.866 .5 -.5 -.866 1725.628 909.766)" fill-rule="evenodd" clip-rule="evenodd" cx="740.9" cy="686.1" rx="1.9" ry="3.9"/><path fill-rule="evenodd" clip-rule="evenodd" fill="#fff" d="M741.9 670.3c-3.6-6.3-5.8-14.9-1.2-17.5 4.6-2.7 14.3 1.6 17.9 7.9 3.6 6.3 2.8 13.6-1.8 16.2-4.6 2.7-11.3-.3-14.9-6.6z"/><path fill-rule="evenodd" clip-rule="evenodd" fill="#fff" d="M733.5 675.2c-3.6-6.3-10-12.5-14.6-9.8-4.6 2.7-5.8 13.2-2.1 19.5 3.6 6.3 10.3 9.2 14.9 6.6 4.7-2.8 5.4-10.1 1.8-16.3z"/><circle fill-rule="evenodd" clip-rule="evenodd" cx="750.1" cy="665.2" r="7.2"/><circle fill-rule="evenodd" clip-rule="evenodd" cx="725" cy="679.7" r="7.2"/><path fill-rule="evenodd" clip-rule="evenodd" fill="#fff" d="M725.8 676.7c-1.3-.3-2.1-1.4-1.9-2.3.2-.9 1.5-1.4 2.7-1 1.3.3 2.1 1.4 1.9 2.3-.2.9-1.5 1.3-2.7 1z"/><path fill-rule="evenodd" clip-rule="evenodd" fill="#fff" d="M750.9 662.2c-1.3-.3-2.1-1.4-1.9-2.3.2-.9 1.5-1.4 2.7-1 1.3.3 2.1 1.4 1.9 2.3-.2.9-1.5 1.4-2.7 1z"/><linearGradient id="s" gradientUnits="userSpaceOnUse" x1="552.89" y1="145.922" x2="552.89" y2="30.274" gradientTransform="matrix(.866 -.5 .5 .866 -114.61 373.787)"><stop offset="0" stop-color="#6BA300"/><stop offset="1" stop-color="#8DD900"/></linearGradient><path fill-rule="evenodd" clip-rule="evenodd" fill="url(#s)" d="M354.2 137.9c-4.6 2.7-6.2 8.6-3.5 13.2l48.3 83.6c2.7 4.6 8.6 6.2 13.2 3.5l50.1-29c4.6-2.7 6.2-8.6 3.5-13.2l-48.3-83.6c-2.7-4.6-8.6-6.2-13.2-3.5l-50.1 29z"/><path fill-rule="evenodd" clip-rule="evenodd" fill="#6BA300" d="M414.5 242.4c0 .1.1.1.1.2 1.4 2.2 4.2 2.9 6.5 1.6.1 0 .1-.1.2-.1l8.2-4.7c.1 0 .1-.1.2-.1 2.1-1.3 2.9-4.1 1.7-6.3l-.1-.2-2.4-4.2-4.2 2.4-8.4 4.8-4.2 2.4 2.4 4.2zM447.9 223.1c0 .1.1.1.1.2 1.4 2.2 4.2 2.9 6.5 1.6.1 0 .1-.1.2-.1l8.2-4.7c.1 0 .1-.1.2-.1 2.1-1.3 2.9-4.1 1.7-6.3l-.1-.2-2.4-4.2-4.2 2.4-8.4 4.8-4.2 2.4 2.4 4.2z"/><path fill-rule="evenodd" clip-rule="evenodd" fill="#CED900" d="M370 106.5c4-2.3 18 11.9 18 11.9l-16.7 9.7c0-.1-5.5-19.2-1.3-21.6zM358.1 124.5c2-1.2 9 5.9 9 5.9l-8.4 4.8c.1 0-2.7-9.5-.6-10.7zM391.6 105.2c2-1.2 9 5.9 9 5.9l-8.4 4.8s-2.8-9.5-.6-10.7z"/><path fill-rule="evenodd" clip-rule="evenodd" fill="#6BA300" d="M436.7 145.6l-14.4-24.9c0-13.1 3.2-24.1 10.2-28 12.9-7.2 33.7 21.5 31.5 26.9-1.5 3.5-10.9-6.3-12.8-3.3-2.2 3.6 8.2 13.4 6.3 17.4-1.9 3.8-12.2-5.8-14-2.4-1.6 2.9 7.5 14.6 5.3 18.7-1.8 3.2-12.1-4.4-12.1-4.4zM369.8 184.2l-14.4-24.9c-11.3-6.6-22.4-9.3-29.4-5.2-12.7 7.5 1.7 40 7.5 40.7 3.8.5 0-12.6 3.5-12.7 4.3-.1 7.5 13.8 11.9 14.1 4.3.3 1-13.5 4.9-13.3 3.3.1 8.9 13.8 13.6 13.9 3.7.2 2.4-12.6 2.4-12.6zM451 170.6c23.7 6.4 24.8-15.7 32.2-18.3 7.4-2.6 5.1 30.2-17.7 43.4 0-.1-14.5-25.1-14.5-25.1z"/><linearGradient id="t" gradientUnits="userSpaceOnUse" x1="552.889" y1="145.923" x2="552.889" y2="97.67" gradientTransform="matrix(.866 -.5 .5 .866 -114.61 373.787)"><stop offset="0" stop-color="#8CD700" stop-opacity="0"/><stop offset="1" stop-color="#8CD700"/></linearGradient><path fill-rule="evenodd" clip-rule="evenodd" fill="url(#t)" d="M407.1 229.5l2.6 4.5c1.3 2.3 4.3 3.1 6.6 1.7l41.8-24.1c2.3-1.3 3.1-4.3 1.8-6.6l-2.6-4.5c-9.2-16-30.3-26.6-44.2-18.6-13.9 8-15.3 31.6-6 47.6z"/><path opacity=".25" fill-rule="evenodd" clip-rule="evenodd" fill="#fff" d="M407.1 229.5l.2.3 50.1-29-.2-.3c-1.5-2.7-3.4-5.2-5.5-7.5l-48.4 28c1 2.9 2.2 5.8 3.8 8.5z"/><path opacity=".35" fill-rule="evenodd" clip-rule="evenodd" fill="#fff" d="M444 186.3c-3.2-2.3-6.7-4.1-10.2-5.3l-32 18.5c-.7 3.6-.8 7.5-.5 11.4l42.7-24.6z"/><path fill-rule="evenodd" clip-rule="evenodd" fill="#fff" d="M391.2 188c-2.1.7-7-7.8-7-7.8l8.8-2.8s.4 9.9-1.8 10.6z"/><path fill-rule="evenodd" clip-rule="evenodd" fill="#fff" d="M429.1 166.1c1.7-1.5-3.3-10-3.3-10l-6.8 6.2c0 .1 8.4 5.4 10.1 3.8z"/><path d="M379.7 180.7c-.5 0-1 0-1.5-.1-.5 0-.9-.5-.9-1s.5-.9 1-.9c14.3 1.1 43.3-15.6 49.2-28.4.2-.5.8-.7 1.3-.5.5.2.7.8.5 1.3-6 13.2-34 29.6-49.6 29.6z"/><ellipse transform="matrix(-.866 .5 -.5 -.866 835.322 93.456)" fill-rule="evenodd" clip-rule="evenodd" cx="405.1" cy="158.6" rx="1.9" ry="3.9"/><ellipse transform="matrix(-.866 .5 -.5 -.866 823.453 105.284)" fill-rule="evenodd" clip-rule="evenodd" cx="397.6" cy="163" rx="1.9" ry="3.9"/><path fill-rule="evenodd" clip-rule="evenodd" fill="#fff" d="M398.6 147.2c-3.6-6.3-5.8-14.9-1.2-17.5 4.6-2.7 14.3 1.6 17.9 7.9 3.6 6.3 2.8 13.6-1.8 16.2-4.6 2.7-11.3-.3-14.9-6.6z"/><path fill-rule="evenodd" clip-rule="evenodd" fill="#fff" d="M390.2 152c-3.6-6.3-10-12.5-14.6-9.8-4.6 2.7-5.8 13.2-2.1 19.5 3.6 6.3 10.3 9.2 14.9 6.6 4.6-2.7 5.4-10 1.8-16.3z"/><circle fill-rule="evenodd" clip-rule="evenodd" cx="406.7" cy="142.1" r="7.2"/><circle fill-rule="evenodd" clip-rule="evenodd" cx="381.7" cy="156.6" r="7.2"/><path fill-rule="evenodd" clip-rule="evenodd" fill="#fff" d="M382.5 153.6c-1.3-.3-2.1-1.4-1.9-2.3.2-.9 1.5-1.4 2.7-1 1.3.3 2.1 1.4 1.9 2.3-.2.9-1.5 1.3-2.7 1z"/><path fill-rule="evenodd" clip-rule="evenodd" fill="#fff" d="M407.5 139.1c-1.3-.3-2.1-1.4-1.9-2.3.2-.9 1.5-1.4 2.7-1 1.3.3 2.1 1.4 1.9 2.3-.2.9-1.4 1.4-2.7 1z"/><linearGradient id="u" gradientUnits="userSpaceOnUse" x1="1121.781" y1="697.852" x2="1121.781" y2="582.204" gradientTransform="matrix(.866 -.5 .5 .866 -114.61 373.787)"><stop offset="0" stop-color="#6BA300"/><stop offset="1" stop-color="#8DD900"/></linearGradient><path fill-rule="evenodd" clip-rule="evenodd" fill="url(#u)" d="M1122.8 331.4c-4.6 2.7-6.2 8.6-3.5 13.2l48.3 83.6c2.7 4.6 8.6 6.2 13.2 3.5l50.1-29c4.6-2.7 6.2-8.6 3.5-13.2l-48.3-83.6c-2.7-4.6-8.6-6.2-13.2-3.5l-50.1 29z"/><path fill-rule="evenodd" clip-rule="evenodd" fill="#6BA300" d="M1183.1 435.9c0 .1.1.1.1.2 1.4 2.2 4.2 2.9 6.5 1.6.1 0 .1-.1.2-.1l8.2-4.7c.1 0 .1-.1.2-.1 2.1-1.3 2.9-4.1 1.7-6.3l-.1-.2-2.4-4.2-4.2 2.4-8.4 4.8-4.2 2.4 2.4 4.2zM1216.5 416.6c0 .1.1.1.1.2 1.4 2.2 4.2 2.9 6.5 1.6.1 0 .1-.1.2-.1l8.2-4.7c.1 0 .1-.1.2-.1 2.1-1.3 2.9-4.1 1.7-6.3l-.1-.2-2.4-4.2-4.2 2.4-8.4 4.8-4.2 2.4 2.4 4.2z"/><path fill-rule="evenodd" clip-rule="evenodd" fill="#CED900" d="M1138.6 300c4-2.3 18 11.9 18 11.9l-16.7 9.7c0-.1-5.5-19.2-1.3-21.6zM1126.8 318c2-1.2 9 5.9 9 5.9l-8.4 4.8c0 .1-2.8-9.5-.6-10.7zM1160.2 298.7c2-1.2 9 5.9 9 5.9l-8.4 4.8c0 .1-2.7-9.5-.6-10.7z"/><path fill-rule="evenodd" clip-rule="evenodd" fill="#6BA300" d="M1205.3 339.2l-14.4-24.9c0-13.1 3.2-24.1 10.2-28 12.9-7.2 33.7 21.5 31.5 26.9-1.5 3.5-10.9-6.3-12.8-3.3-2.2 3.6 8.2 13.4 6.3 17.4-1.9 3.8-12.2-5.8-14-2.4-1.6 2.9 7.5 14.6 5.3 18.7-1.7 3.1-12.1-4.4-12.1-4.4zM1138.4 377.8l-14.4-24.9c-11.3-6.6-22.4-9.3-29.4-5.2-12.7 7.5 1.7 40 7.5 40.7 3.8.5 0-12.6 3.5-12.7 4.3-.1 7.5 13.8 11.9 14.1 4.3.3 1-13.5 4.9-13.3 3.3.1 8.9 13.8 13.6 13.9 3.7.1 2.4-12.6 2.4-12.6zM1219.7 364.1c23.7 6.4 24.8-15.7 32.2-18.3 7.4-2.6 5.1 30.2-17.7 43.4-.1 0-14.5-25.1-14.5-25.1z"/><linearGradient id="v" gradientUnits="userSpaceOnUse" x1="1121.78" y1="697.852" x2="1121.78" y2="649.6" gradientTransform="matrix(.866 -.5 .5 .866 -114.61 373.787)"><stop offset="0" stop-color="#8CD700" stop-opacity="0"/><stop offset="1" stop-color="#8CD700"/></linearGradient><path fill-rule="evenodd" clip-rule="evenodd" fill="url(#v)" d="M1175.7 423l2.6 4.5c1.3 2.3 4.3 3.1 6.6 1.7l41.8-24.1c2.3-1.3 3.1-4.3 1.8-6.6l-2.6-4.5c-9.2-16-30.3-26.6-44.2-18.6-13.9 8-15.2 31.6-6 47.6z"/><path opacity=".25" fill-rule="evenodd" clip-rule="evenodd" fill="#fff" d="M1175.7 423l.2.3 50.1-29-.2-.3c-1.5-2.7-3.4-5.2-5.5-7.5l-48.3 27.9c.9 3.1 2.1 6 3.7 8.6z"/><path opacity=".35" fill-rule="evenodd" clip-rule="evenodd" fill="#fff" d="M1212.6 379.8c-3.2-2.3-6.7-4.1-10.2-5.3l-32 18.5c-.7 3.6-.8 7.5-.5 11.4l42.7-24.6z"/><path fill-rule="evenodd" clip-rule="evenodd" fill="#fff" d="M1159.8 381.5c-2.1.7-7-7.8-7-7.8l8.8-2.8s.5 9.9-1.8 10.6z"/><path fill-rule="evenodd" clip-rule="evenodd" fill="#fff" d="M1197.7 359.7c1.7-1.5-3.3-10-3.3-10l-6.8 6.2s8.4 5.3 10.1 3.8z"/><path d="M1148.4 374.2c-.5 0-1 0-1.5-.1-.5 0-.9-.5-.9-1s.5-.9 1-.9c14.3 1.1 43.3-15.6 49.2-28.4.2-.5.8-.7 1.3-.5.5.2.7.8.5 1.3-6.1 13.2-34.1 29.6-49.6 29.6z"/><ellipse transform="matrix(-.866 .5 -.5 -.866 2366.378 70.34)" fill-rule="evenodd" clip-rule="evenodd" cx="1173.8" cy="352.1" rx="1.9" ry="3.9"/><ellipse transform="matrix(-.866 .5 -.5 -.866 2354.491 82.105)" fill-rule="evenodd" clip-rule="evenodd" cx="1166.2" cy="356.5" rx="1.9" ry="3.9"/><path fill-rule="evenodd" clip-rule="evenodd" fill="#fff" d="M1167.2 340.8c-3.6-6.3-5.8-14.9-1.2-17.5s14.3 1.6 17.9 7.9c3.6 6.3 2.8 13.6-1.8 16.2-4.6 2.6-11.3-.4-14.9-6.6z"/><path fill-rule="evenodd" clip-rule="evenodd" fill="#fff" d="M1158.8 345.6c-3.6-6.3-10-12.5-14.6-9.8-4.6 2.7-5.8 13.2-2.1 19.5 3.6 6.3 10.3 9.2 14.9 6.6 4.7-2.8 5.5-10 1.8-16.3z"/><circle fill-rule="evenodd" clip-rule="evenodd" cx="1175.4" cy="335.6" r="7.2"/><circle fill-rule="evenodd" clip-rule="evenodd" cx="1150.3" cy="350.1" r="7.2"/><path fill-rule="evenodd" clip-rule="evenodd" fill="#fff" d="M1151.1 347.1c-1.3-.3-2.1-1.4-1.9-2.3.2-.9 1.5-1.4 2.7-1 1.3.3 2.1 1.4 1.9 2.3-.2.9-1.4 1.4-2.7 1z"/><path fill-rule="evenodd" clip-rule="evenodd" fill="#fff" d="M1176.2 332.6c-1.3-.3-2.1-1.4-1.9-2.3.2-.9 1.5-1.4 2.7-1 1.3.3 2.1 1.4 1.9 2.3-.2.9-1.5 1.4-2.7 1z"/><linearGradient id="w" gradientUnits="userSpaceOnUse" x1="60.916" y1="419.572" x2="60.916" y2="303.924" gradientTransform="matrix(.866 -.5 .5 .866 -114.61 373.787)"><stop offset="0" stop-color="#6BA300"/><stop offset="1" stop-color="#8DD900"/></linearGradient><path fill-rule="evenodd" clip-rule="evenodd" fill="url(#w)" d="M65 620.9c-4.6 2.7-6.2 8.6-3.5 13.2l48.3 83.6c2.7 4.6 8.6 6.2 13.2 3.5l50.1-29c4.6-2.7 6.2-8.6 3.5-13.2l-48.3-83.6c-2.7-4.6-8.6-6.2-13.2-3.5l-50.1 29z"/><path fill-rule="evenodd" clip-rule="evenodd" fill="#6BA300" d="M125.3 725.3c0 .1.1.1.1.2 1.4 2.2 4.2 2.9 6.5 1.6.1 0 .1-.1.2-.1l8.2-4.7c.1 0 .1-.1.2-.1 2.1-1.3 2.9-4.1 1.7-6.3l-.1-.2-2.4-4.2-4.2 2.4-8.4 4.8-4.2 2.4 2.4 4.2zM158.7 706c0 .1.1.1.1.2 1.4 2.2 4.2 2.9 6.5 1.6.1 0 .1-.1.2-.1l8.2-4.7c.1 0 .1-.1.2-.1 2.1-1.3 2.9-4.1 1.7-6.3l-.1-.2-2.4-4.2-4.2 2.4-8.4 4.8-4.2 2.4 2.4 4.2z"/><path fill-rule="evenodd" clip-rule="evenodd" fill="#CED900" d="M80.8 589.4c4-2.3 18 11.9 18 11.9L82.1 611s-5.6-19.1-1.3-21.6zM68.9 607.4c2-1.2 9 5.9 9 5.9l-8.4 4.8c.1.1-2.7-9.4-.6-10.7zM102.3 588.1c2-1.2 9 5.9 9 5.9l-8.4 4.8c.1.1-2.7-9.4-.6-10.7z"/><path fill-rule="evenodd" clip-rule="evenodd" fill="#6BA300" d="M147.4 628.6L133 603.7c0-13.1 3.2-24.1 10.2-28 12.9-7.2 33.7 21.5 31.5 26.9-1.5 3.5-10.9-6.3-12.8-3.3-2.2 3.6 8.2 13.4 6.3 17.4-1.9 3.8-12.2-5.8-14-2.4-1.6 2.9 7.5 14.6 5.3 18.7-1.7 3.1-12.1-4.4-12.1-4.4zM80.6 667.2l-14.4-24.9c-11.3-6.6-22.4-9.3-29.4-5.2-12.7 7.5 1.7 40 7.5 40.7 3.8.5 0-12.6 3.5-12.7 4.3-.1 7.5 13.8 11.9 14.1 4.3.3 1-13.5 4.9-13.3 3.3.1 8.9 13.8 13.6 13.9 3.7.2 2.4-12.6 2.4-12.6zM161.8 653.5c23.7 6.4 24.8-15.7 32.2-18.3 7.4-2.6 5.1 30.2-17.7 43.4l-14.5-25.1z"/><linearGradient id="x" gradientUnits="userSpaceOnUse" x1="60.915" y1="419.573" x2="60.915" y2="371.32" gradientTransform="matrix(.866 -.5 .5 .866 -114.61 373.787)"><stop offset="0" stop-color="#8CD700" stop-opacity="0"/><stop offset="1" stop-color="#8CD700"/></linearGradient><path fill-rule="evenodd" clip-rule="evenodd" fill="url(#x)" d="M117.8 712.5l2.6 4.5c1.3 2.3 4.3 3.1 6.6 1.7l41.8-24.1c2.3-1.3 3.1-4.3 1.8-6.6l-2.6-4.5c-9.2-16-30.3-26.6-44.2-18.6-13.8 8-15.2 31.6-6 47.6z"/><path opacity=".25" fill-rule="evenodd" clip-rule="evenodd" fill="#fff" d="M117.8 712.5l.2.3 50.1-29-.2-.3c-1.5-2.7-3.4-5.2-5.5-7.5l-48.3 27.9c.9 3 2.2 5.9 3.7 8.6z"/><path opacity=".35" fill-rule="evenodd" clip-rule="evenodd" fill="#fff" d="M154.8 669.3c-3.2-2.3-6.7-4.1-10.2-5.3l-32 18.5c-.7 3.6-.8 7.5-.5 11.4l42.7-24.6z"/><path fill-rule="evenodd" clip-rule="evenodd" fill="#fff" d="M102 671c-2.1.7-7-7.8-7-7.8l8.8-2.8c-.1 0 .4 9.9-1.8 10.6z"/><path fill-rule="evenodd" clip-rule="evenodd" fill="#fff" d="M139.9 649.1c1.7-1.5-3.3-10-3.3-10l-6.8 6.2s8.3 5.4 10.1 3.8z"/><path d="M90.5 663.7c-.5 0-1 0-1.5-.1-.5 0-.9-.5-.9-1s.5-.9 1-.9c14.3 1.1 43.3-15.6 49.2-28.4.2-.5.8-.7 1.3-.5.5.2.7.8.5 1.3-6.1 13.1-34 29.6-49.6 29.6z"/><ellipse transform="matrix(-.866 .5 -.5 -.866 537.052 1139.298)" fill-rule="evenodd" clip-rule="evenodd" cx="115.9" cy="641.6" rx="1.9" ry="3.9"/><ellipse transform="matrix(-.866 .5 -.5 -.866 525.23 1151.127)" fill-rule="evenodd" clip-rule="evenodd" cx="108.4" cy="645.9" rx="1.9" ry="3.9"/><path fill-rule="evenodd" clip-rule="evenodd" fill="#fff" d="M109.3 630.2c-3.6-6.3-5.8-14.9-1.2-17.5 4.6-2.7 14.3 1.6 17.9 7.9 3.6 6.3 2.8 13.6-1.8 16.2-4.5 2.6-11.2-.3-14.9-6.6z"/><path fill-rule="evenodd" clip-rule="evenodd" fill="#fff" d="M101 635c-3.6-6.3-10-12.5-14.6-9.8-4.6 2.7-5.8 13.2-2.1 19.5 3.6 6.3 10.3 9.2 14.9 6.6 4.6-2.7 5.4-10 1.8-16.3z"/><circle fill-rule="evenodd" clip-rule="evenodd" cx="117.5" cy="625.1" r="7.2"/><circle fill-rule="evenodd" clip-rule="evenodd" cx="92.4" cy="639.5" r="7.2"/><path fill-rule="evenodd" clip-rule="evenodd" fill="#fff" d="M93.2 636.6c-1.3-.3-2.1-1.4-1.9-2.3.2-.9 1.5-1.4 2.7-1 1.3.3 2.1 1.4 1.9 2.3-.2.9-1.4 1.3-2.7 1z"/><path fill-rule="evenodd" clip-rule="evenodd" fill="#fff" d="M118.3 622.1c-1.3-.3-2.1-1.4-1.9-2.3.2-.9 1.5-1.4 2.7-1 1.3.3 2.1 1.4 1.9 2.3-.2.9-1.4 1.3-2.7 1z"/><linearGradient id="y" gradientUnits="userSpaceOnUse" x1="925.948" y1="990.243" x2="925.948" y2="874.595" gradientTransform="matrix(.866 -.5 .5 .866 -114.61 373.787)"><stop offset="0" stop-color="#6BA300"/><stop offset="1" stop-color="#8DD900"/></linearGradient><path fill-rule="evenodd" clip-rule="evenodd" fill="url(#y)" d="M1099.4 682.6c-4.6 2.7-6.2 8.6-3.5 13.2l48.3 83.6c2.7 4.6 8.6 6.2 13.2 3.5l50.1-29c4.6-2.7 6.2-8.6 3.5-13.2l-48.3-83.6c-2.7-4.6-8.6-6.2-13.2-3.5l-50.1 29z"/><path fill-rule="evenodd" clip-rule="evenodd" fill="#6BA300" d="M1159.7 787c0 .1.1.1.1.2 1.4 2.2 4.2 2.9 6.5 1.6.1 0 .1-.1.2-.1l8.2-4.7c.1 0 .1-.1.2-.1 2.1-1.3 2.9-4.1 1.7-6.3l-.1-.2-2.4-4.2-4.2 2.4-8.4 4.8-4.2 2.4 2.4 4.2zM1193.2 767.7c0 .1.1.1.1.2 1.4 2.2 4.2 2.9 6.5 1.6.1 0 .1-.1.2-.1l8.2-4.7c.1 0 .1-.1.2-.1 2.1-1.3 2.9-4.1 1.7-6.3l-.1-.2-2.4-4.2-4.2 2.4-8.4 4.8-4.2 2.4 2.4 4.2z"/><path fill-rule="evenodd" clip-rule="evenodd" fill="#CED900" d="M1115.2 651.1c4-2.3 18 11.9 18 11.9l-16.7 9.7s-5.5-19.1-1.3-21.6zM1103.4 669.1c2-1.2 9 5.9 9 5.9l-8.4 4.8c0 .1-2.8-9.4-.6-10.7zM1136.8 649.8c2-1.2 9 5.9 9 5.9l-8.4 4.8c0 .1-2.7-9.4-.6-10.7z"/><path fill-rule="evenodd" clip-rule="evenodd" fill="#6BA300" d="M1181.9 690.3l-14.4-24.9c0-13.1 3.2-24.1 10.2-28 12.9-7.2 33.7 21.5 31.5 26.9-1.5 3.5-10.9-6.3-12.8-3.3-2.2 3.6 8.2 13.4 6.3 17.4-1.9 3.8-12.2-5.8-14-2.4-1.6 2.9 7.5 14.6 5.3 18.7-1.7 3.1-12.1-4.4-12.1-4.4zM1115 728.9l-14.4-24.9c-11.3-6.6-22.4-9.3-29.4-5.2-12.7 7.5 1.7 40 7.5 40.7 3.8.5 0-12.6 3.5-12.7 4.3-.1 7.5 13.8 11.9 14.1 4.3.3 1-13.5 4.9-13.3 3.3.1 8.9 13.8 13.6 13.9 3.7.1 2.4-12.6 2.4-12.6zM1196.3 715.2c23.7 6.4 24.8-15.7 32.2-18.3 7.4-2.6 5.1 30.2-17.7 43.4-.1 0-14.5-25.1-14.5-25.1z"/><linearGradient id="z" gradientUnits="userSpaceOnUse" x1="925.948" y1="990.243" x2="925.948" y2="941.99" gradientTransform="matrix(.866 -.5 .5 .866 -114.61 373.787)"><stop offset="0" stop-color="#8CD700" stop-opacity="0"/><stop offset="1" stop-color="#8CD700"/></linearGradient><path fill-rule="evenodd" clip-rule="evenodd" fill="url(#z)" d="M1152.3 774.2l2.6 4.5c1.3 2.3 4.3 3.1 6.6 1.7l41.8-24.1c2.3-1.3 3.1-4.3 1.8-6.6l-2.6-4.5c-9.2-16-30.3-26.6-44.2-18.6-13.9 8-15.2 31.6-6 47.6z"/><path opacity=".25" fill-rule="evenodd" clip-rule="evenodd" fill="#fff" d="M1152.3 774.2l.2.3 50.1-29-.2-.3c-1.5-2.7-3.4-5.2-5.5-7.5l-48.3 27.9c.9 3 2.2 5.9 3.7 8.6z"/><path opacity=".35" fill-rule="evenodd" clip-rule="evenodd" fill="#fff" d="M1189.2 731c-3.2-2.3-6.7-4.1-10.2-5.3l-32 18.5c-.7 3.6-.8 7.5-.5 11.4l42.7-24.6z"/><path fill-rule="evenodd" clip-rule="evenodd" fill="#fff" d="M1136.4 732.7c-2.1.7-7-7.8-7-7.8l8.8-2.8c0-.1.5 9.9-1.8 10.6z"/><path fill-rule="evenodd" clip-rule="evenodd" fill="#fff" d="M1174.3 710.8c1.7-1.5-3.3-10-3.3-10l-6.8 6.2s8.4 5.4 10.1 3.8z"/><path d="M1125 725.4c-.5 0-1 0-1.5-.1-.5 0-.9-.5-.9-1s.5-.9 1-.9c14.3 1.1 43.3-15.6 49.2-28.4.2-.5.8-.7 1.3-.5.5.2.7.8.5 1.3-6.1 13.1-34 29.6-49.6 29.6z"/><ellipse transform="matrix(-.866 .5 -.5 -.866 2498.255 737.264)" fill-rule="evenodd" clip-rule="evenodd" cx="1150.4" cy="703.3" rx="1.9" ry="3.9"/><ellipse transform="matrix(-.866 .5 -.5 -.866 2486.394 749.016)" fill-rule="evenodd" clip-rule="evenodd" cx="1142.9" cy="707.6" rx="1.9" ry="3.9"/><path fill-rule="evenodd" clip-rule="evenodd" fill="#fff" d="M1143.8 691.9c-3.6-6.3-5.8-14.9-1.2-17.5 4.6-2.7 14.3 1.6 17.9 7.9 3.6 6.3 2.8 13.6-1.8 16.2-4.6 2.6-11.3-.3-14.9-6.6z"/><path fill-rule="evenodd" clip-rule="evenodd" fill="#fff" d="M1135.4 696.7c-3.6-6.3-10-12.5-14.6-9.8-4.6 2.7-5.8 13.2-2.1 19.5 3.6 6.3 10.3 9.2 14.9 6.6 4.7-2.7 5.5-10 1.8-16.3z"/><circle fill-rule="evenodd" clip-rule="evenodd" cx="1152" cy="686.7" r="7.2"/><circle fill-rule="evenodd" clip-rule="evenodd" cx="1126.9" cy="701.2" r="7.2"/><path fill-rule="evenodd" clip-rule="evenodd" fill="#fff" d="M1127.7 698.3c-1.3-.3-2.1-1.4-1.9-2.3.2-.9 1.5-1.4 2.7-1 1.3.3 2.1 1.4 1.9 2.3-.2.8-1.4 1.3-2.7 1z"/><path fill-rule="evenodd" clip-rule="evenodd" fill="#fff" d="M1152.8 683.8c-1.3-.3-2.1-1.4-1.9-2.3.2-.9 1.5-1.4 2.7-1 1.3.3 2.1 1.4 1.9 2.3-.2.9-1.5 1.3-2.7 1z"/><linearGradient id="A" gradientUnits="userSpaceOnUse" x1="318.721" y1="-49.889" x2="318.721" y2="-165.536" gradientTransform="matrix(.866 -.5 .5 .866 -114.61 373.787)"><stop offset="0" stop-color="#6BA300"/><stop offset="1" stop-color="#8DD900"/></linearGradient><path fill-rule="evenodd" clip-rule="evenodd" fill="url(#A)" d="M53.5 85.4c-4.6 2.7-6.2 8.6-3.5 13.2l48.3 83.6c2.7 4.6 8.6 6.2 13.2 3.5l50.1-29c4.6-2.7 6.2-8.6 3.5-13.2L116.8 60c-2.7-4.6-8.6-6.2-13.2-3.5L53.5 85.4z"/><path fill-rule="evenodd" clip-rule="evenodd" fill="#6BA300" d="M113.8 189.9c0 .1.1.1.1.2 1.4 2.2 4.2 2.9 6.5 1.6.1 0 .1-.1.2-.1l8.2-4.7c.1 0 .1-.1.2-.1 2.1-1.3 2.9-4.1 1.7-6.3l-.1-.2-2.4-4.2-4.2 2.4-8.4 4.8-4.2 2.4 2.4 4.2zM147.2 170.6c0 .1.1.1.1.2 1.4 2.2 4.2 2.9 6.5 1.6.1 0 .1-.1.2-.1l8.2-4.7c.1 0 .1-.1.2-.1 2.1-1.3 2.9-4.1 1.7-6.3l-.1-.2-2.4-4.2-4.2 2.4-8.4 4.8-4.2 2.4 2.4 4.2z"/><path fill-rule="evenodd" clip-rule="evenodd" fill="#CED900" d="M69.3 54c4-2.3 18 11.9 18 11.9l-16.7 9.7c0-.1-5.5-19.2-1.3-21.6zM57.4 72c2-1.2 9 5.9 9 5.9L58 82.7c.1.1-2.7-9.5-.6-10.7zM90.9 52.7c2-1.2 9 5.9 9 5.9l-8.4 4.8c0 .1-2.8-9.5-.6-10.7z"/><path fill-rule="evenodd" clip-rule="evenodd" fill="#6BA300" d="M136 93.1l-14.4-24.9c0-13.1 3.2-24.1 10.2-28 12.9-7.2 33.7 21.5 31.5 26.9-1.5 3.5-10.9-6.3-12.8-3.3-2.2 3.6 8.2 13.4 6.3 17.4-1.9 3.8-12.2-5.8-14-2.4-1.6 2.9 7.5 14.6 5.3 18.7-1.8 3.2-12.1-4.4-12.1-4.4zM69.1 131.8l-14.4-24.9c-11.3-6.6-22.4-9.3-29.4-5.2-12.7 7.5 1.7 40 7.5 40.7 3.8.5 0-12.6 3.5-12.7 4.3-.1 7.5 13.8 11.9 14.1 4.3.3 1-13.5 4.9-13.3 3.3.1 8.9 13.8 13.6 13.9 3.7.1 2.4-12.6 2.4-12.6zM150.3 118.1c23.7 6.4 24.8-15.7 32.2-18.3 7.4-2.6 5.1 30.2-17.7 43.4l-14.5-25.1z"/><linearGradient id="B" gradientUnits="userSpaceOnUse" x1="318.72" y1="-49.888" x2="318.72" y2="-98.141" gradientTransform="matrix(.866 -.5 .5 .866 -114.61 373.787)"><stop offset="0" stop-color="#8CD700" stop-opacity="0"/><stop offset="1" stop-color="#8CD700"/></linearGradient><path fill-rule="evenodd" clip-rule="evenodd" fill="url(#B)" d="M106.4 177l2.6 4.5c1.3 2.3 4.3 3.1 6.6 1.7l41.8-24.1c2.3-1.3 3.1-4.3 1.8-6.6l-2.6-4.5c-9.2-16-30.3-26.6-44.2-18.6-13.9 8-15.3 31.6-6 47.6z"/><path opacity=".25" fill-rule="evenodd" clip-rule="evenodd" fill="#fff" d="M106.4 177l.2.3 50.1-29-.2-.3c-1.5-2.7-3.4-5.2-5.5-7.5l-48.3 27.9c.9 3.1 2.1 5.9 3.7 8.6z"/><path opacity=".35" fill-rule="evenodd" clip-rule="evenodd" fill="#fff" d="M143.3 133.8c-3.2-2.3-6.7-4.1-10.2-5.3l-32 18.5c-.7 3.6-.8 7.5-.5 11.4l42.7-24.6z"/><path fill-rule="evenodd" clip-rule="evenodd" fill="#fff" d="M90.5 135.5c-2.1.7-7-7.8-7-7.8l8.8-2.8s.4 9.9-1.8 10.6z"/><path fill-rule="evenodd" clip-rule="evenodd" fill="#fff" d="M128.4 113.7c1.7-1.5-3.3-10-3.3-10l-6.8 6.2s8.4 5.3 10.1 3.8z"/><path d="M79 128.2c-.5 0-1 0-1.5-.1-.5 0-.9-.5-.9-1s.5-.9 1-.9c14.3 1.1 43.3-15.6 49.2-28.4.2-.5.8-.7 1.3-.5.5.2.7.8.5 1.3-6 13.2-34 29.6-49.6 29.6z"/><ellipse transform="matrix(-.866 .5 -.5 -.866 247.962 145.833)" fill-rule="evenodd" clip-rule="evenodd" cx="104.4" cy="106.1" rx="1.9" ry="3.9"/><ellipse transform="matrix(-.866 .5 -.5 -.866 236.102 157.685)" fill-rule="evenodd" clip-rule="evenodd" cx="96.9" cy="110.5" rx="1.9" ry="3.9"/><path fill-rule="evenodd" clip-rule="evenodd" fill="#fff" d="M97.9 94.7c-3.6-6.3-5.8-14.9-1.2-17.5 4.6-2.7 14.3 1.6 17.9 7.9 3.6 6.3 2.8 13.6-1.8 16.2-4.6 2.7-11.3-.3-14.9-6.6z"/><path fill-rule="evenodd" clip-rule="evenodd" fill="#fff" d="M89.5 99.6c-3.6-6.3-10-12.5-14.6-9.8-4.6 2.7-5.8 13.2-2.1 19.5 3.6 6.3 10.3 9.2 14.9 6.6 4.6-2.8 5.4-10 1.8-16.3z"/><circle fill-rule="evenodd" clip-rule="evenodd" cx="106" cy="89.6" r="7.2"/><circle fill-rule="evenodd" clip-rule="evenodd" cx="81" cy="104.1" r="7.2"/><path fill-rule="evenodd" clip-rule="evenodd" fill="#fff" d="M81.8 101.1c-1.3-.3-2.1-1.4-1.9-2.3.2-.9 1.5-1.4 2.7-1 1.3.3 2.1 1.4 1.9 2.3-.2.9-1.5 1.4-2.7 1z"/><path fill-rule="evenodd" clip-rule="evenodd" fill="#fff" d="M106.8 86.6c-1.3-.3-2.1-1.4-1.9-2.3.2-.9 1.5-1.4 2.7-1 1.3.3 2.1 1.4 1.9 2.3-.2.9-1.4 1.4-2.7 1z"/><linearGradient id="C" gradientUnits="userSpaceOnUse" x1="269.599" y1="361.381" x2="269.599" y2="265.176" gradientTransform="matrix(.866 -.5 .5 .866 -114.61 373.787)"><stop offset="0" stop-color="#6BA300"/><stop offset="1" stop-color="#8DD900"/></linearGradient><path fill-rule="evenodd" clip-rule="evenodd" fill="url(#C)" d="M230.5 480.6c-3.8 2.2-5.2 7.1-2.9 11l40.1 69.5c2.2 3.8 7.1 5.2 11 2.9l41.7-24.1c3.8-2.2 5.2-7.1 2.9-11l-40.1-69.5c-2.2-3.8-7.1-5.2-11-2.9l-41.7 24.1z"/><path fill-rule="evenodd" clip-rule="evenodd" fill="#6BA300" d="M280.7 567.5l.1.1c1.1 1.8 3.5 2.4 5.4 1.3l.1-.1 6.8-3.9.1-.1c1.8-1.1 2.4-3.4 1.4-5.3l-.1-.1-2-3.5-3.5 2-7 4-3.5 2 2.2 3.6zM308.5 551.4l.1.1c1.1 1.8 3.5 2.4 5.4 1.3l.1-.1 6.8-3.9.1-.1c1.8-1.1 2.4-3.4 1.4-5.3l-.1-.1-2-3.5-3.5 2-7 4-3.5 2 2.2 3.6z"/><path fill-rule="evenodd" clip-rule="evenodd" fill="#CED900" d="M243.7 454.4c3.4-1.9 15 9.9 15 9.9l-13.9 8s-4.6-15.8-1.1-17.9zM233.8 469.4c1.7-1 7.5 4.9 7.5 4.9l-7 4c.1.1-2.3-7.9-.5-8.9zM261.6 453.3c1.7-1 7.5 4.9 7.5 4.9l-7 4c.1.1-2.2-7.8-.5-8.9z"/><path fill-rule="evenodd" clip-rule="evenodd" fill="#6BA300" d="M299.1 487l-12-20.7c0-10.9 2.6-20 8.5-23.3 10.7-6 28.1 17.9 26.2 22.3-1.2 2.9-9.1-5.3-10.6-2.8-1.8 3 6.8 11.2 5.2 14.5-1.6 3.2-10.1-4.9-11.6-2-1.3 2.4 6.3 12.2 4.4 15.6-1.4 2.6-10.1-3.6-10.1-3.6zM243.5 519.1s-11.9-20.7-12-20.7c-9.4-5.5-18.7-7.7-24.5-4.3-10.6 6.3 1.4 33.2 6.3 33.8 3.2.4 0-10.5 2.9-10.6 3.5-.1 6.3 11.5 9.9 11.8 3.5.2.9-11.2 4.1-11.1 2.8.1 7.4 11.5 11.3 11.6 3.1.1 2-10.5 2-10.5zM311.1 507.7c19.7 5.3 20.6-13.1 26.8-15.2 6.2-2.2 4.2 25.1-14.7 36.1-.1 0-12.1-20.9-12.1-20.9z"/><linearGradient id="D" gradientUnits="userSpaceOnUse" x1="269.598" y1="361.382" x2="269.598" y2="321.241" gradientTransform="matrix(.866 -.5 .5 .866 -114.61 373.787)"><stop offset="0" stop-color="#8CD700" stop-opacity="0"/><stop offset="1" stop-color="#8CD700"/></linearGradient><path fill-rule="evenodd" clip-rule="evenodd" fill="url(#D)" d="M274.5 556.8l2.2 3.8c1.1 1.9 3.5 2.5 5.5 1.4l34.8-20.1c1.9-1.1 2.6-3.5 1.5-5.5l-2.2-3.8c-7.7-13.3-25.2-22.1-36.8-15.5s-12.7 26.4-5 39.7z"/><path opacity=".25" fill-rule="evenodd" clip-rule="evenodd" fill="#fff" d="M274.5 556.8l.2.3 41.7-24.1-.2-.3c-1.3-2.2-2.8-4.3-4.6-6.2l-40.2 23.2c.8 2.4 1.8 4.8 3.1 7.1z"/><path opacity=".35" fill-rule="evenodd" clip-rule="evenodd" fill="#fff" d="M305.3 520.8c-2.7-1.9-5.5-3.4-8.4-4.4l-26.6 15.4c-.6 3-.7 6.3-.4 9.5l35.4-20.5z"/><path fill-rule="evenodd" clip-rule="evenodd" fill="#fff" d="M261.3 522.3c-1.8.6-5.8-6.5-5.8-6.5l7.3-2.3c0-.1.4 8.2-1.5 8.8z"/><path fill-rule="evenodd" clip-rule="evenodd" fill="#fff" d="M292.9 504.1c1.4-1.3-2.7-8.3-2.7-8.3l-5.7 5.2c0-.1 6.9 4.4 8.4 3.1z"/><path d="M251.8 516.2h-1.3c-.4 0-.8-.4-.7-.9 0-.4.4-.8.9-.7 11.9.9 36-13 40.9-23.6.2-.4.7-.6 1.1-.4.4.2.6.7.4 1.1-5.1 10.8-28.3 24.5-41.3 24.5z"/><ellipse transform="matrix(-.866 .5 -.5 -.866 758.153 792.482)" fill-rule="evenodd" clip-rule="evenodd" cx="272.9" cy="497.8" rx="1.6" ry="3.2"/><ellipse transform="matrix(-.866 .5 -.5 -.866 748.308 802.312)" fill-rule="evenodd" clip-rule="evenodd" cx="266.7" cy="501.4" rx="1.6" ry="3.2"/><path fill-rule="evenodd" clip-rule="evenodd" fill="#fff" d="M267.5 488.3c-3-5.2-4.8-12.4-1-14.6 3.8-2.2 11.9 1.3 14.9 6.6 3 5.2 2.4 11.3-1.5 13.5-3.9 2.2-9.4-.3-12.4-5.5z"/><path fill-rule="evenodd" clip-rule="evenodd" fill="#fff" d="M260.5 492.3c-3-5.2-8.3-10.4-12.1-8.2-3.8 2.2-4.8 11-1.8 16.2 3 5.2 8.6 7.7 12.4 5.5 3.9-2.2 4.5-8.2 1.5-13.5z"/><circle fill-rule="evenodd" clip-rule="evenodd" cx="274.3" cy="484" r="6"/><circle fill-rule="evenodd" clip-rule="evenodd" cx="253.4" cy="496.1" r="6"/><path fill-rule="evenodd" clip-rule="evenodd" fill="#fff" d="M254.1 493.6c-1.1-.3-1.8-1.1-1.6-1.9.2-.8 1.2-1.1 2.3-.9 1.1.3 1.8 1.1 1.6 1.9-.3.8-1.3 1.2-2.3.9z"/><path fill-rule="evenodd" clip-rule="evenodd" fill="#fff" d="M274.9 481.6c-1.1-.3-1.8-1.1-1.6-1.9.2-.8 1.2-1.1 2.3-.9 1.1.3 1.8 1.1 1.6 1.9-.2.8-1.2 1.2-2.3.9z"/><linearGradient id="E" gradientUnits="userSpaceOnUse" x1="585.613" y1="296.214" x2="585.613" y2="200.009" gradientTransform="matrix(.866 -.5 .5 .866 -114.61 373.787)"><stop offset="0" stop-color="#6BA300"/><stop offset="1" stop-color="#8DD900"/></linearGradient><path fill-rule="evenodd" clip-rule="evenodd" fill="url(#E)" d="M471.6 266.1c-3.8 2.2-5.2 7.1-2.9 11l40.1 69.5c2.2 3.8 7.1 5.2 11 2.9l41.7-24.1c3.8-2.2 5.2-7.1 2.9-11L524.3 245c-2.2-3.8-7.1-5.2-11-2.9l-41.7 24z"/><path fill-rule="evenodd" clip-rule="evenodd" fill="#6BA300" d="M521.8 353l.1.1c1.1 1.8 3.5 2.4 5.4 1.3l.1-.1 6.8-3.9.1-.1c1.8-1.1 2.4-3.4 1.4-5.3l-.1-.1-2-3.5-3.5 2-7 4-3.5 2 2.2 3.6zM549.6 337l.1.1c1.1 1.8 3.5 2.4 5.4 1.3l.1-.1 6.8-3.9.1-.1c1.8-1.1 2.4-3.4 1.4-5.3l-.1-.1-2-3.5-3.5 2-7 4-3.5 2 2.2 3.6z"/><path fill-rule="evenodd" clip-rule="evenodd" fill="#CED900" d="M484.8 240c3.4-1.9 15 9.9 15 9.9l-13.9 8s-4.6-15.9-1.1-17.9zM474.9 254.9c1.7-1 7.5 4.9 7.5 4.9l-7 4c0 .1-2.3-7.8-.5-8.9zM502.7 238.9c1.7-1 7.5 4.9 7.5 4.9l-7 4c0 .1-2.3-7.9-.5-8.9z"/><path fill-rule="evenodd" clip-rule="evenodd" fill="#6BA300" d="M540.2 272.6l-12-20.7c0-10.9 2.6-20 8.5-23.3 10.7-6 28.1 17.9 26.2 22.3-1.2 2.9-9.1-5.3-10.6-2.8-1.8 3 6.8 11.2 5.2 14.5-1.6 3.2-10.1-4.9-11.6-2-1.3 2.4 6.3 12.2 4.4 15.6-1.4 2.6-10.1-3.6-10.1-3.6zM484.6 304.7s-11.9-20.7-12-20.7c-9.4-5.5-18.7-7.7-24.5-4.3-10.6 6.3 1.4 33.2 6.3 33.8 3.2.4 0-10.5 2.9-10.6 3.5-.1 6.3 11.5 9.9 11.8 3.5.2.9-11.2 4.1-11.1 2.8.1 7.4 11.5 11.3 11.6 3.1.1 2-10.5 2-10.5zM552.2 293.3c19.7 5.3 20.6-13.1 26.8-15.2 6.2-2.2 4.2 25.1-14.7 36.1-.1-.1-12.1-20.9-12.1-20.9z"/><linearGradient id="F" gradientUnits="userSpaceOnUse" x1="585.612" y1="296.214" x2="585.612" y2="256.074" gradientTransform="matrix(.866 -.5 .5 .866 -114.61 373.787)"><stop offset="0" stop-color="#8CD700" stop-opacity="0"/><stop offset="1" stop-color="#8CD700"/></linearGradient><path fill-rule="evenodd" clip-rule="evenodd" fill="url(#F)" d="M515.6 342.3l2.2 3.8c1.1 1.9 3.5 2.5 5.5 1.4l34.8-20.1c1.9-1.1 2.6-3.5 1.5-5.5l-2.2-3.8c-7.7-13.3-25.2-22.1-36.8-15.5-11.6 6.8-12.7 26.4-5 39.7z"/><path opacity=".25" fill-rule="evenodd" clip-rule="evenodd" fill="#fff" d="M515.6 342.3l.2.3 41.7-24.1-.2-.3c-1.3-2.2-2.8-4.3-4.6-6.2l-40.2 23.2c.8 2.5 1.8 4.9 3.1 7.1z"/><path opacity=".35" fill-rule="evenodd" clip-rule="evenodd" fill="#fff" d="M546.3 306.4c-2.7-1.9-5.5-3.4-8.4-4.4l-26.6 15.4c-.6 3-.7 6.3-.4 9.5l35.4-20.5z"/><path fill-rule="evenodd" clip-rule="evenodd" fill="#fff" d="M502.4 307.8c-1.8.6-5.8-6.5-5.8-6.5l7.3-2.3s.4 8.2-1.5 8.8z"/><path fill-rule="evenodd" clip-rule="evenodd" fill="#fff" d="M533.9 289.6c1.4-1.3-2.7-8.3-2.7-8.3l-5.7 5.2s7 4.4 8.4 3.1z"/><path d="M492.9 301.7h-1.3c-.4 0-.8-.4-.7-.9 0-.4.4-.8.9-.7 11.9.9 36-13 40.9-23.6.2-.4.7-.6 1.1-.4.4.2.6.7.4 1.1-5.1 10.8-28.4 24.5-41.3 24.5z"/><ellipse transform="matrix(-.866 .5 -.5 -.866 1100.831 271.796)" fill-rule="evenodd" clip-rule="evenodd" cx="514" cy="283.4" rx="1.6" ry="3.2"/><ellipse transform="matrix(-.866 .5 -.5 -.866 1090.961 281.617)" fill-rule="evenodd" clip-rule="evenodd" cx="507.8" cy="287" rx="1.6" ry="3.2"/><path fill-rule="evenodd" clip-rule="evenodd" fill="#fff" d="M508.5 273.9c-3-5.2-4.8-12.4-1-14.6 3.8-2.2 11.9 1.3 14.9 6.6 3 5.2 2.4 11.3-1.5 13.5-3.8 2.2-9.3-.3-12.4-5.5z"/><path fill-rule="evenodd" clip-rule="evenodd" fill="#fff" d="M501.6 277.9c-3-5.2-8.3-10.4-12.1-8.2-3.8 2.2-4.8 11-1.8 16.2 3 5.2 8.6 7.7 12.4 5.5 3.8-2.2 4.5-8.3 1.5-13.5z"/><circle fill-rule="evenodd" clip-rule="evenodd" cx="515.3" cy="269.6" r="6"/><circle fill-rule="evenodd" clip-rule="evenodd" cx="494.5" cy="281.6" r="6"/><path fill-rule="evenodd" clip-rule="evenodd" fill="#fff" d="M495.1 279.2c-1.1-.3-1.8-1.1-1.6-1.9.2-.8 1.2-1.1 2.3-.9 1.1.3 1.8 1.1 1.6 1.9-.2.8-1.2 1.2-2.3.9z"/><path fill-rule="evenodd" clip-rule="evenodd" fill="#fff" d="M516 267.1c-1.1-.3-1.8-1.1-1.6-1.9.2-.8 1.2-1.1 2.3-.9 1.1.3 1.8 1.1 1.6 1.9-.2.8-1.2 1.2-2.3.9z"/><linearGradient id="G" gradientUnits="userSpaceOnUse" x1="1041.314" y1="313.346" x2="1041.314" y2="217.141" gradientTransform="matrix(.866 -.5 .5 .866 -114.61 373.787)"><stop offset="0" stop-color="#6BA300"/><stop offset="1" stop-color="#8DD900"/></linearGradient><path fill-rule="evenodd" clip-rule="evenodd" fill="url(#G)" d="M874.8 53.1c-3.8 2.2-5.2 7.1-2.9 11l40.1 69.5c2.2 3.8 7.1 5.2 11 2.9l41.7-24.1c3.8-2.2 5.2-7.1 2.9-11L927.5 32c-2.2-3.8-7.1-5.2-11-2.9l-41.7 24z"/><path fill-rule="evenodd" clip-rule="evenodd" fill="#6BA300" d="M925 140l.1.1c1.1 1.8 3.5 2.4 5.4 1.3l.1-.1 6.8-3.9.1-.1c1.8-1.1 2.4-3.4 1.4-5.3l-.1-.1-2-3.5-3.5 2-7 4-3.5 2 2.2 3.6zM952.8 124l.1.1c1.1 1.8 3.5 2.4 5.4 1.3l.1-.1 6.8-3.9.1-.1c1.8-1.1 2.4-3.4 1.4-5.3l-.1-.1-2-3.5-3.5 2-7 4-3.5 2 2.2 3.6z"/><path fill-rule="evenodd" clip-rule="evenodd" fill="#CED900" d="M888 27c3.4-1.9 15 9.9 15 9.9l-13.9 8S884.5 29 888 27zM878.1 41.9c1.7-1 7.5 4.9 7.5 4.9l-7 4c0 .1-2.3-7.8-.5-8.9zM905.9 25.9c1.7-1 7.5 4.9 7.5 4.9l-7 4s-2.3-7.9-.5-8.9z"/><path fill-rule="evenodd" clip-rule="evenodd" fill="#6BA300" d="M943.4 59.5l-12-20.7c0-10.9 2.6-20 8.5-23.3 10.7-6 28.1 17.9 26.2 22.3-1.2 2.9-9.1-5.3-10.6-2.8-1.8 3 6.8 11.2 5.2 14.5-1.6 3.2-10.1-4.9-11.6-2-1.3 2.4 6.3 12.2 4.4 15.6-1.4 2.7-10.1-3.6-10.1-3.6zM887.8 91.7S875.9 71 875.8 71c-9.4-5.5-18.7-7.7-24.5-4.3-10.6 6.3 1.4 33.2 6.3 33.8 3.2.4 0-10.5 2.9-10.6 3.5-.1 6.3 11.5 9.9 11.8 3.5.2.9-11.2 4.1-11.1 2.8.1 7.4 11.5 11.3 11.6 3.1.1 2-10.5 2-10.5zM955.4 80.3c19.7 5.3 20.6-13.1 26.8-15.2 6.2-2.2 4.2 25.1-14.7 36.1-.1-.1-12.1-20.9-12.1-20.9z"/><linearGradient id="H" gradientUnits="userSpaceOnUse" x1="1041.313" y1="313.346" x2="1041.313" y2="273.206" gradientTransform="matrix(.866 -.5 .5 .866 -114.61 373.787)"><stop offset="0" stop-color="#8CD700" stop-opacity="0"/><stop offset="1" stop-color="#8CD700"/></linearGradient><path fill-rule="evenodd" clip-rule="evenodd" fill="url(#H)" d="M918.8 129.3l2.2 3.8c1.1 1.9 3.5 2.5 5.5 1.4l34.8-20.1c1.9-1.1 2.6-3.5 1.5-5.5l-2.2-3.8c-7.7-13.3-25.2-22.1-36.8-15.5-11.5 6.8-12.7 26.4-5 39.7z"/><path opacity=".25" fill-rule="evenodd" clip-rule="evenodd" fill="#fff" d="M918.8 129.3l.2.3 41.7-24.1-.2-.3c-1.3-2.2-2.8-4.3-4.6-6.2l-40.2 23.2c.8 2.5 1.8 4.9 3.1 7.1z"/><path opacity=".35" fill-rule="evenodd" clip-rule="evenodd" fill="#fff" d="M949.5 93.4c-2.7-1.9-5.5-3.4-8.4-4.4l-26.6 15.4c-.6 3-.7 6.3-.4 9.5l35.4-20.5z"/><path fill-rule="evenodd" clip-rule="evenodd" fill="#fff" d="M905.6 94.8c-1.8.6-5.8-6.5-5.8-6.5l7.3-2.3c0-.1.4 8.2-1.5 8.8z"/><path fill-rule="evenodd" clip-rule="evenodd" fill="#fff" d="M937.1 76.6c1.4-1.3-2.7-8.3-2.7-8.3l-5.7 5.2c0-.1 7 4.4 8.4 3.1z"/><path d="M896.1 88.7h-1.3c-.4 0-.8-.4-.7-.9 0-.4.4-.8.9-.7 11.9.9 36-13 40.9-23.6.2-.4.7-.6 1.1-.4.4.2.6.7.4 1.1-5.1 10.8-28.4 24.5-41.3 24.5z"/><ellipse transform="matrix(-.866 .5 -.5 -.866 1746.747 -327.272)" fill-rule="evenodd" clip-rule="evenodd" cx="917.2" cy="70.3" rx="1.6" ry="3.2"/><ellipse transform="matrix(-.866 .5 -.5 -.866 1736.845 -317.472)" fill-rule="evenodd" clip-rule="evenodd" cx="911" cy="74" rx="1.6" ry="3.2"/><path fill-rule="evenodd" clip-rule="evenodd" fill="#fff" d="M911.7 60.9c-3-5.2-4.8-12.4-1-14.6 3.8-2.2 11.9 1.3 14.9 6.6 3 5.2 2.4 11.3-1.5 13.5-3.8 2.1-9.3-.3-12.4-5.5z"/><path fill-rule="evenodd" clip-rule="evenodd" fill="#fff" d="M904.8 64.9c-3-5.2-8.3-10.4-12.1-8.2-3.8 2.2-4.8 11-1.8 16.2 3 5.2 8.6 7.7 12.4 5.5 3.8-2.2 4.5-8.3 1.5-13.5z"/><circle fill-rule="evenodd" clip-rule="evenodd" cx="918.5" cy="56.6" r="6"/><circle fill-rule="evenodd" clip-rule="evenodd" cx="897.7" cy="68.6" r="6"/><path fill-rule="evenodd" clip-rule="evenodd" fill="#fff" d="M898.3 66.2c-1.1-.3-1.8-1.1-1.6-1.9.2-.8 1.2-1.1 2.3-.9 1.1.3 1.8 1.1 1.6 1.9-.2.8-1.2 1.1-2.3.9z"/><path fill-rule="evenodd" clip-rule="evenodd" fill="#fff" d="M919.2 54.1c-1.1-.3-1.8-1.1-1.6-1.9.2-.8 1.2-1.1 2.3-.9 1.1.3 1.8 1.1 1.6 1.9-.2.8-1.2 1.2-2.3.9z"/><linearGradient id="I" gradientUnits="userSpaceOnUse" x1="165.089" y1="220.42" x2="165.089" y2="124.215" gradientTransform="matrix(.866 -.5 .5 .866 -114.61 373.787)"><stop offset="0" stop-color="#6BA300"/><stop offset="1" stop-color="#8DD900"/></linearGradient><path fill-rule="evenodd" clip-rule="evenodd" fill="url(#I)" d="M69.5 410.7c-3.8 2.2-5.2 7.1-2.9 11l40.1 69.5c2.2 3.8 7.1 5.2 11 2.9l41.7-24.1c3.8-2.2 5.2-7.1 2.9-11l-40.1-69.5c-2.2-3.8-7.1-5.2-11-2.9l-41.7 24.1z"/><path fill-rule="evenodd" clip-rule="evenodd" fill="#6BA300" d="M119.7 497.6l.1.1c1.1 1.8 3.5 2.4 5.4 1.3l.1-.1 6.8-3.9.1-.1c1.8-1.1 2.4-3.4 1.4-5.3l-.1-.1-2-3.5-3.5 2-7 4-3.5 2 2.2 3.6zM147.5 481.6l.1.1c1.1 1.8 3.5 2.4 5.4 1.3l.1-.1 6.8-3.9.1-.1c1.8-1.1 2.4-3.4 1.4-5.3l-.1-.1-2-3.5-3.5 2-7 4-3.5 2 2.2 3.6z"/><path fill-rule="evenodd" clip-rule="evenodd" fill="#CED900" d="M82.7 384.6c3.4-1.9 15 9.9 15 9.9l-13.9 8s-4.6-15.9-1.1-17.9zM72.8 399.6c1.7-1 7.5 4.9 7.5 4.9l-7 4c.1 0-2.2-7.9-.5-8.9zM100.6 383.5c1.7-1 7.5 4.9 7.5 4.9l-7 4c.1.1-2.2-7.9-.5-8.9z"/><path fill-rule="evenodd" clip-rule="evenodd" fill="#6BA300" d="M138.2 417.2l-12-20.7c0-10.9 2.6-20 8.5-23.3 10.7-6 28.1 17.9 26.2 22.3-1.2 2.9-9.1-5.3-10.6-2.8-1.8 3 6.8 11.2 5.2 14.5-1.6 3.2-10.1-4.9-11.6-2-1.3 2.4 6.3 12.2 4.4 15.6-1.5 2.6-10.1-3.6-10.1-3.6zM82.5 449.3s-11.9-20.7-12-20.7c-9.4-5.5-18.7-7.7-24.5-4.3-10.6 6.3 1.4 33.2 6.3 33.8 3.2.4 0-10.5 2.9-10.6 3.5-.1 6.3 11.5 9.9 11.8 3.5.2.9-11.2 4.1-11.1 2.8.1 7.4 11.5 11.3 11.6 3.1.1 2-10.5 2-10.5zM150.1 437.9c19.7 5.3 20.6-13.1 26.8-15.2 6.2-2.2 4.2 25.1-14.7 36.1l-12.1-20.9z"/><linearGradient id="J" gradientUnits="userSpaceOnUse" x1="165.088" y1="220.42" x2="165.088" y2="180.28" gradientTransform="matrix(.866 -.5 .5 .866 -114.61 373.787)"><stop offset="0" stop-color="#8CD700" stop-opacity="0"/><stop offset="1" stop-color="#8CD700"/></linearGradient><path fill-rule="evenodd" clip-rule="evenodd" fill="url(#J)" d="M113.5 486.9l2.2 3.8c1.1 1.9 3.5 2.5 5.5 1.4L156 472c1.9-1.1 2.6-3.5 1.5-5.5l-2.2-3.8c-7.7-13.3-25.2-22.1-36.8-15.5-11.5 6.8-12.6 26.4-5 39.7z"/><path opacity=".25" fill-rule="evenodd" clip-rule="evenodd" fill="#fff" d="M113.5 486.9l.2.3 41.7-24.1-.2-.3c-1.3-2.2-2.8-4.3-4.6-6.2l-40.2 23.2c.8 2.5 1.9 4.9 3.1 7.1z"/><path opacity=".35" fill-rule="evenodd" clip-rule="evenodd" fill="#fff" d="M144.3 451c-2.7-1.9-5.5-3.4-8.4-4.4L109.2 462c-.6 3-.7 6.3-.4 9.5l35.5-20.5z"/><path fill-rule="evenodd" clip-rule="evenodd" fill="#fff" d="M100.3 452.4c-1.8.6-5.8-6.5-5.8-6.5l7.3-2.3s.4 8.2-1.5 8.8z"/><path fill-rule="evenodd" clip-rule="evenodd" fill="#fff" d="M131.9 434.2c1.4-1.3-2.7-8.3-2.7-8.3l-5.7 5.2s6.9 4.4 8.4 3.1z"/><path d="M90.8 446.3h-1.3c-.4 0-.8-.4-.7-.9 0-.4.4-.8.9-.7 11.9.9 36-13 40.9-23.6.2-.4.7-.6 1.1-.4.4.2.6.7.4 1.1-5.1 10.9-28.3 24.5-41.3 24.5z"/><ellipse transform="matrix(-.866 .5 -.5 -.866 422.837 742.677)" fill-rule="evenodd" clip-rule="evenodd" cx="111.9" cy="428" rx="1.6" ry="3.2"/><ellipse transform="matrix(-.866 .5 -.5 -.866 412.994 752.521)" fill-rule="evenodd" clip-rule="evenodd" cx="105.7" cy="431.6" rx="1.6" ry="3.2"/><path fill-rule="evenodd" clip-rule="evenodd" fill="#fff" d="M106.5 418.5c-3-5.2-4.8-12.4-1-14.6 3.8-2.2 11.9 1.3 14.9 6.6 3 5.2 2.4 11.3-1.5 13.5-3.8 2.2-9.4-.3-12.4-5.5z"/><path fill-rule="evenodd" clip-rule="evenodd" fill="#fff" d="M99.5 422.5c-3-5.2-8.3-10.4-12.1-8.2-3.8 2.2-4.8 11-1.8 16.2 3 5.2 8.6 7.7 12.4 5.5 3.9-2.2 4.5-8.3 1.5-13.5z"/><circle fill-rule="evenodd" clip-rule="evenodd" cx="113.3" cy="414.2" r="6"/><circle fill-rule="evenodd" clip-rule="evenodd" cx="92.4" cy="426.3" r="6"/><path fill-rule="evenodd" clip-rule="evenodd" fill="#fff" d="M93.1 423.8c-1.1-.3-1.8-1.1-1.6-1.9.2-.8 1.2-1.1 2.3-.9 1.1.3 1.8 1.1 1.6 1.9-.2.8-1.3 1.2-2.3.9z"/><path fill-rule="evenodd" clip-rule="evenodd" fill="#fff" d="M113.9 411.8c-1.1-.3-1.8-1.1-1.6-1.9.2-.8 1.2-1.1 2.3-.9 1.1.3 1.8 1.1 1.6 1.9-.2.8-1.2 1.1-2.3.9z"/><linearGradient id="K" gradientUnits="userSpaceOnUse" x1="758.794" y1="809.734" x2="758.794" y2="713.53" gradientTransform="matrix(.866 -.5 .5 .866 -114.61 373.787)"><stop offset="0" stop-color="#6BA300"/><stop offset="1" stop-color="#8DD900"/></linearGradient><path fill-rule="evenodd" clip-rule="evenodd" fill="url(#K)" d="M878.3 624.2c-3.8 2.2-5.2 7.1-2.9 11l40.1 69.5c2.2 3.8 7.1 5.2 11 2.9l41.7-24.1c3.8-2.2 5.2-7.1 2.9-11L931 603.1c-2.2-3.8-7.1-5.2-11-2.9l-41.7 24z"/><path fill-rule="evenodd" clip-rule="evenodd" fill="#6BA300" d="M928.5 711.1l.1.1c1.1 1.8 3.5 2.4 5.4 1.3l.1-.1 6.8-3.9.1-.1c1.8-1.1 2.4-3.4 1.4-5.3l-.1-.1-2-3.5-3.5 2-7 4-3.5 2 2.2 3.6zM956.3 695.1l.1.1c1.1 1.8 3.5 2.4 5.4 1.3l.1-.1 6.8-3.9.1-.1c1.8-1.1 2.4-3.4 1.4-5.3l-.1-.1-2-3.5-3.5 2-7 4-3.5 2 2.2 3.6z"/><path fill-rule="evenodd" clip-rule="evenodd" fill="#CED900" d="M891.5 598.1c3.4-1.9 15 9.9 15 9.9l-13.9 8s-4.6-15.9-1.1-17.9zM881.6 613.1c1.7-1 7.5 4.9 7.5 4.9l-7 4c.1 0-2.2-7.9-.5-8.9zM909.4 597c1.7-1 7.5 4.9 7.5 4.9l-7 4c.1.1-2.2-7.9-.5-8.9z"/><path fill-rule="evenodd" clip-rule="evenodd" fill="#6BA300" d="M947 630.7L935 610c0-10.9 2.6-20 8.5-23.3 10.7-6 28.1 17.9 26.2 22.3-1.2 2.9-9.1-5.3-10.6-2.8-1.8 3 6.8 11.2 5.2 14.5-1.6 3.2-10.1-4.9-11.6-2-1.3 2.4 6.3 12.2 4.4 15.6-1.5 2.6-10.1-3.6-10.1-3.6zM891.3 662.8s-11.9-20.7-12-20.7c-9.4-5.5-18.7-7.7-24.5-4.3-10.6 6.3 1.4 33.2 6.3 33.8 3.2.4 0-10.5 2.9-10.6 3.5-.1 6.3 11.5 9.9 11.8 3.5.2.9-11.2 4.1-11.1 2.8.1 7.4 11.5 11.3 11.6 3.1.1 2-10.5 2-10.5zM958.9 651.4c19.7 5.3 20.6-13.1 26.8-15.2 6.2-2.2 4.2 25.1-14.7 36.1l-12.1-20.9z"/><linearGradient id="L" gradientUnits="userSpaceOnUse" x1="758.793" y1="809.735" x2="758.793" y2="769.595" gradientTransform="matrix(.866 -.5 .5 .866 -114.61 373.787)"><stop offset="0" stop-color="#8CD700" stop-opacity="0"/><stop offset="1" stop-color="#8CD700"/></linearGradient><path fill-rule="evenodd" clip-rule="evenodd" fill="url(#L)" d="M922.3 700.4l2.2 3.8c1.1 1.9 3.5 2.5 5.5 1.4l34.8-20.1c1.9-1.1 2.6-3.5 1.5-5.5l-2.2-3.8c-7.7-13.3-25.2-22.1-36.8-15.5-11.5 6.8-12.6 26.4-5 39.7z"/><path opacity=".25" fill-rule="evenodd" clip-rule="evenodd" fill="#fff" d="M922.3 700.4l.2.3 41.7-24.1-.2-.3c-1.3-2.2-2.8-4.3-4.6-6.2l-40.2 23.2c.8 2.5 1.9 4.9 3.1 7.1z"/><path opacity=".35" fill-rule="evenodd" clip-rule="evenodd" fill="#fff" d="M953.1 664.5c-2.7-1.9-5.5-3.4-8.4-4.4L918 675.5c-.6 3-.7 6.3-.4 9.5l35.5-20.5z"/><path fill-rule="evenodd" clip-rule="evenodd" fill="#fff" d="M909.1 665.9c-1.8.6-5.8-6.5-5.8-6.5l7.3-2.3s.4 8.2-1.5 8.8z"/><path fill-rule="evenodd" clip-rule="evenodd" fill="#fff" d="M940.7 647.7c1.4-1.3-2.7-8.3-2.7-8.3l-5.7 5.2s6.9 4.4 8.4 3.1z"/><path d="M899.6 659.8h-1.3c-.4 0-.8-.4-.7-.9 0-.4.4-.8.9-.7 11.9.9 36-13 40.9-23.6.2-.4.7-.6 1.1-.4.4.2.6.7.4 1.1-5.1 10.9-28.3 24.5-41.3 24.5z"/><ellipse transform="matrix(-.866 .5 -.5 -.866 2038.857 736.737)" fill-rule="evenodd" clip-rule="evenodd" cx="920.7" cy="641.5" rx="1.6" ry="3.2"/><ellipse transform="matrix(-.866 .5 -.5 -.866 2028.996 746.514)" fill-rule="evenodd" clip-rule="evenodd" cx="914.5" cy="645.1" rx="1.6" ry="3.2"/><path fill-rule="evenodd" clip-rule="evenodd" fill="#fff" d="M915.3 632c-3-5.2-4.8-12.4-1-14.6 3.8-2.2 11.9 1.3 14.9 6.6 3 5.2 2.4 11.3-1.5 13.5-3.8 2.2-9.4-.3-12.4-5.5z"/><path fill-rule="evenodd" clip-rule="evenodd" fill="#fff" d="M908.3 636c-3-5.2-8.3-10.4-12.1-8.2-3.8 2.2-4.8 11-1.8 16.2 3 5.2 8.6 7.7 12.4 5.5 3.9-2.2 4.5-8.3 1.5-13.5z"/><circle fill-rule="evenodd" clip-rule="evenodd" cx="922.1" cy="627.7" r="6"/><circle fill-rule="evenodd" clip-rule="evenodd" cx="901.2" cy="639.8" r="6"/><path fill-rule="evenodd" clip-rule="evenodd" fill="#fff" d="M901.9 637.3c-1.1-.3-1.8-1.1-1.6-1.9.2-.8 1.2-1.1 2.3-.9 1.1.3 1.8 1.1 1.6 1.9-.2.8-1.3 1.2-2.3.9z"/><path fill-rule="evenodd" clip-rule="evenodd" fill="#fff" d="M922.7 625.3c-1.1-.3-1.8-1.1-1.6-1.9.2-.8 1.2-1.1 2.3-.9 1.1.3 1.8 1.1 1.6 1.9-.2.8-1.2 1.1-2.3.9z"/><linearGradient id="M" gradientUnits="userSpaceOnUse" x1="923.422" y1="558.309" x2="923.422" y2="462.105" gradientTransform="matrix(.866 -.5 .5 .866 -114.61 373.787)"><stop offset="0" stop-color="#6BA300"/><stop offset="1" stop-color="#8DD900"/></linearGradient><path fill-rule="evenodd" clip-rule="evenodd" fill="url(#M)" d="M895.2 324.2c-3.8 2.2-5.2 7.1-2.9 11l40.1 69.5c2.2 3.8 7.1 5.2 11 2.9l41.7-24.1c3.8-2.2 5.2-7.1 2.9-11L947.9 303c-2.2-3.8-7.1-5.2-11-2.9l-41.7 24.1z"/><path fill-rule="evenodd" clip-rule="evenodd" fill="#6BA300" d="M945.4 411.1l.1.1c1.1 1.8 3.5 2.4 5.4 1.3l.1-.1 6.8-3.9.1-.1c1.8-1.1 2.4-3.4 1.4-5.3l-.1-.1-2-3.5-3.5 2-7 4-3.5 2 2.2 3.6zM973.2 395l.1.1c1.1 1.8 3.5 2.4 5.4 1.3l.1-.1 6.8-3.9.1-.1c1.8-1.1 2.4-3.4 1.4-5.3l-.1-.1-2-3.5-3.5 2-7 4-3.5 2 2.2 3.6z"/><path fill-rule="evenodd" clip-rule="evenodd" fill="#CED900" d="M908.4 298c3.4-1.9 15 9.9 15 9.9l-13.9 8c0 .1-4.7-15.8-1.1-17.9zM898.5 313c1.7-1 7.5 4.9 7.5 4.9l-7 4c0 .1-2.3-7.9-.5-8.9zM926.3 297c1.7-1 7.5 4.9 7.5 4.9l-7 4s-2.3-7.9-.5-8.9z"/><path fill-rule="evenodd" clip-rule="evenodd" fill="#6BA300" d="M963.8 330.6l-12-20.7c0-10.9 2.6-20 8.5-23.3 10.7-6 28.1 17.9 26.2 22.3-1.2 2.9-9.1-5.3-10.6-2.8-1.8 3 6.8 11.2 5.2 14.5-1.6 3.2-10.1-4.9-11.6-2-1.3 2.4 6.3 12.2 4.4 15.6-1.5 2.7-10.1-3.6-10.1-3.6zM908.2 362.7s-11.9-20.7-12-20.7c-9.4-5.5-18.7-7.7-24.5-4.3-10.6 6.3 1.4 33.2 6.3 33.8 3.2.4 0-10.5 2.9-10.6 3.5-.1 6.3 11.5 9.9 11.8 3.5.2.9-11.2 4.1-11.1 2.8.1 7.4 11.5 11.3 11.6 3.1.1 2-10.5 2-10.5zM975.8 351.4c19.7 5.3 20.6-13.1 26.8-15.2 6.2-2.2 4.2 25.1-14.7 36.1-.1-.1-12.1-20.9-12.1-20.9z"/><linearGradient id="N" gradientUnits="userSpaceOnUse" x1="923.422" y1="558.31" x2="923.422" y2="518.169" gradientTransform="matrix(.866 -.5 .5 .866 -114.61 373.787)"><stop offset="0" stop-color="#8CD700" stop-opacity="0"/><stop offset="1" stop-color="#8CD700"/></linearGradient><path fill-rule="evenodd" clip-rule="evenodd" fill="url(#N)" d="M939.2 400.4l2.2 3.8c1.1 1.9 3.5 2.5 5.5 1.4l34.8-20.1c1.9-1.1 2.6-3.5 1.5-5.5l-2.2-3.8c-7.7-13.3-25.2-22.1-36.8-15.5-11.6 6.8-12.7 26.4-5 39.7z"/><path opacity=".25" fill-rule="evenodd" clip-rule="evenodd" fill="#fff" d="M939.2 400.4l.2.3 41.7-24.1-.2-.3c-1.3-2.2-2.8-4.3-4.6-6.2l-40.2 23.2c.8 2.5 1.8 4.9 3.1 7.1z"/><path opacity=".35" fill-rule="evenodd" clip-rule="evenodd" fill="#fff" d="M969.9 364.5c-2.7-1.9-5.5-3.4-8.4-4.4l-26.6 15.4c-.6 3-.7 6.3-.4 9.5l35.4-20.5z"/><path fill-rule="evenodd" clip-rule="evenodd" fill="#fff" d="M926 365.9c-1.8.6-5.8-6.5-5.8-6.5l7.3-2.3c0-.1.4 8.2-1.5 8.8z"/><path fill-rule="evenodd" clip-rule="evenodd" fill="#fff" d="M957.5 347.7c1.4-1.3-2.7-8.3-2.7-8.3l-5.7 5.2c0-.1 7 4.4 8.4 3.1z"/><path d="M916.5 359.8h-1.3c-.4 0-.8-.4-.7-.9 0-.4.4-.8.9-.7 11.9.9 36-13 40.9-23.6.2-.4.7-.6 1.1-.4.4.2.6.7.4 1.1-5.1 10.8-28.4 24.5-41.3 24.5z"/><ellipse transform="matrix(-.866 .5 -.5 -.866 1920.312 168.398)" fill-rule="evenodd" clip-rule="evenodd" cx="937.6" cy="341.4" rx="1.6" ry="3.2"/><ellipse transform="matrix(-.866 .5 -.5 -.866 1910.428 178.186)" fill-rule="evenodd" clip-rule="evenodd" cx="931.3" cy="345" rx="1.6" ry="3.2"/><path fill-rule="evenodd" clip-rule="evenodd" fill="#fff" d="M932.1 331.9c-3-5.2-4.8-12.4-1-14.6s11.9 1.3 14.9 6.6c3 5.2 2.4 11.3-1.5 13.5-3.8 2.2-9.4-.2-12.4-5.5z"/><path fill-rule="evenodd" clip-rule="evenodd" fill="#fff" d="M925.2 336c-3-5.2-8.3-10.4-12.1-8.2-3.8 2.2-4.8 11-1.8 16.2 3 5.2 8.6 7.7 12.4 5.5 3.8-2.3 4.5-8.3 1.5-13.5z"/><circle fill-rule="evenodd" clip-rule="evenodd" cx="938.9" cy="327.7" r="6"/><circle fill-rule="evenodd" clip-rule="evenodd" cx="918.1" cy="339.7" r="6"/><path fill-rule="evenodd" clip-rule="evenodd" fill="#fff" d="M918.7 337.2c-1.1-.3-1.8-1.1-1.6-1.9.2-.8 1.2-1.1 2.3-.9 1.1.3 1.8 1.1 1.6 1.9-.2.9-1.2 1.2-2.3.9z"/><path fill-rule="evenodd" clip-rule="evenodd" fill="#fff" d="M939.6 325.2c-1.1-.3-1.8-1.1-1.6-1.9.2-.8 1.2-1.1 2.3-.9 1.1.3 1.8 1.1 1.6 1.9-.2.8-1.3 1.2-2.3.9z"/><linearGradient id="O" gradientUnits="userSpaceOnUse" x1="218.371" y1="528.444" x2="218.371" y2="432.24" gradientTransform="matrix(.866 -.5 .5 .866 -114.61 373.787)"><stop offset="0" stop-color="#6BA300"/><stop offset="1" stop-color="#8DD900"/></linearGradient><path fill-rule="evenodd" clip-rule="evenodd" fill="url(#O)" d="M269.7 650.8c-3.8 2.2-5.2 7.1-2.9 11l40.1 69.5c2.2 3.8 7.1 5.2 11 2.9l41.7-24.1c3.8-2.2 5.2-7.1 2.9-11l-40.1-69.5c-2.2-3.8-7.1-5.2-11-2.9l-41.7 24.1z"/><path fill-rule="evenodd" clip-rule="evenodd" fill="#6BA300" d="M319.9 737.8l.1.1c1.1 1.8 3.5 2.4 5.4 1.3l.1-.1 6.8-3.9.1-.1c1.8-1.1 2.4-3.4 1.4-5.3l-.1-.1-2-3.5-3.5 2-7 4-3.5 2 2.2 3.6zM347.7 721.7l.1.1c1.1 1.8 3.5 2.4 5.4 1.3l.1-.1 6.8-3.9.1-.1c1.8-1.1 2.4-3.4 1.4-5.3l-.1-.1-2-3.5-3.5 2-7 4-3.5 2 2.2 3.6z"/><path fill-rule="evenodd" clip-rule="evenodd" fill="#CED900" d="M282.9 624.7c3.4-1.9 15 9.9 15 9.9l-13.9 8c-.1 0-4.7-15.9-1.1-17.9zM273 639.7c1.7-1 7.5 4.9 7.5 4.9l-7 4s-2.3-7.9-.5-8.9zM300.8 623.6c1.7-1 7.5 4.9 7.5 4.9l-7 4c0 .1-2.3-7.9-.5-8.9z"/><path fill-rule="evenodd" clip-rule="evenodd" fill="#6BA300" d="M338.3 657.3l-12-20.7c0-10.9 2.6-20 8.5-23.3 10.7-6 28.1 17.9 26.2 22.3-1.2 2.9-9.1-5.3-10.6-2.8-1.8 3 6.8 11.2 5.2 14.5-1.6 3.2-10.1-4.9-11.6-2-1.3 2.4 6.3 12.2 4.4 15.6-1.5 2.6-10.1-3.6-10.1-3.6zM282.7 689.4s-11.9-20.7-12-20.7c-9.4-5.5-18.7-7.7-24.5-4.3-10.6 6.3 1.4 33.2 6.3 33.8 3.2.4 0-10.5 2.9-10.6 3.5-.1 6.3 11.5 9.9 11.8 3.5.2.9-11.2 4.1-11.1 2.8.1 7.4 11.5 11.3 11.6 3.1.1 2-10.5 2-10.5zM350.3 678c19.7 5.3 20.6-13.1 26.8-15.2 6.2-2.2 4.2 25.1-14.7 36.1-.1 0-12.1-20.9-12.1-20.9z"/><linearGradient id="P" gradientUnits="userSpaceOnUse" x1="218.37" y1="528.444" x2="218.37" y2="488.304" gradientTransform="matrix(.866 -.5 .5 .866 -114.61 373.787)"><stop offset="0" stop-color="#8CD700" stop-opacity="0"/><stop offset="1" stop-color="#8CD700"/></linearGradient><path fill-rule="evenodd" clip-rule="evenodd" fill="url(#P)" d="M313.7 727.1l2.2 3.8c1.1 1.9 3.5 2.5 5.5 1.4l34.8-20.1c1.9-1.1 2.6-3.5 1.5-5.5l-2.2-3.8c-7.7-13.3-25.2-22.1-36.8-15.5-11.6 6.7-12.7 26.3-5 39.7z"/><path opacity=".25" fill-rule="evenodd" clip-rule="evenodd" fill="#fff" d="M313.7 727.1l.2.3 41.7-24.1-.2-.3c-1.3-2.2-2.8-4.3-4.6-6.2L310.6 720c.8 2.4 1.8 4.8 3.1 7.1z"/><path opacity=".35" fill-rule="evenodd" clip-rule="evenodd" fill="#fff" d="M344.4 691.1c-2.7-1.9-5.5-3.4-8.4-4.4l-26.6 15.4c-.6 3-.7 6.3-.4 9.5l35.4-20.5z"/><path fill-rule="evenodd" clip-rule="evenodd" fill="#fff" d="M300.5 692.5c-1.8.6-5.8-6.5-5.8-6.5l7.3-2.3s.3 8.2-1.5 8.8z"/><path fill-rule="evenodd" clip-rule="evenodd" fill="#fff" d="M332 674.3c1.4-1.3-2.7-8.3-2.7-8.3l-5.7 5.2s7 4.5 8.4 3.1z"/><path d="M291 686.5h-1.3c-.4 0-.8-.4-.7-.9 0-.4.4-.8.9-.7 11.9.9 36-13 40.9-23.6.2-.4.7-.6 1.1-.4.4.2.6.7.4 1.1-5.1 10.8-28.4 24.5-41.3 24.5z"/><ellipse transform="matrix(-.866 .5 -.5 -.866 916.375 1090.676)" fill-rule="evenodd" clip-rule="evenodd" cx="312.1" cy="668.1" rx="1.6" ry="3.2"/><ellipse transform="matrix(-.866 .5 -.5 -.866 906.54 1100.495)" fill-rule="evenodd" clip-rule="evenodd" cx="305.8" cy="671.7" rx="1.6" ry="3.2"/><path fill-rule="evenodd" clip-rule="evenodd" fill="#fff" d="M306.6 658.6c-3-5.2-4.8-12.4-1-14.6 3.8-2.2 11.9 1.3 14.9 6.6 3 5.2 2.4 11.3-1.5 13.5-3.8 2.2-9.4-.3-12.4-5.5z"/><path fill-rule="evenodd" clip-rule="evenodd" fill="#fff" d="M299.7 662.6c-3-5.2-8.3-10.4-12.1-8.2-3.8 2.2-4.8 11-1.8 16.2 3 5.2 8.6 7.7 12.4 5.5 3.8-2.2 4.5-8.2 1.5-13.5z"/><circle fill-rule="evenodd" clip-rule="evenodd" cx="313.4" cy="654.3" r="6"/><circle fill-rule="evenodd" clip-rule="evenodd" cx="292.6" cy="666.4" r="6"/><path fill-rule="evenodd" clip-rule="evenodd" fill="#fff" d="M293.2 663.9c-1.1-.3-1.8-1.1-1.6-1.9.2-.8 1.2-1.1 2.3-.9 1.1.3 1.8 1.1 1.6 1.9-.2.8-1.2 1.2-2.3.9z"/><path fill-rule="evenodd" clip-rule="evenodd" fill="#fff" d="M314.1 651.9c-1.1-.3-1.8-1.1-1.6-1.9.2-.8 1.2-1.1 2.3-.9 1.1.3 1.8 1.1 1.6 1.9-.2.8-1.3 1.2-2.3.9z"/></svg>