<?xml version="1.0" encoding="utf-8"?>
<!-- Generator: Adobe Illustrator 18.1.0, SVG Export Plug-In . SVG Version: 6.00 Build 0)  -->
<!DOCTYPE svg PUBLIC "-//W3C//DTD SVG 1.1//EN" "http://www.w3.org/Graphics/SVG/1.1/DTD/svg11.dtd">
<svg version="1.1" id="Layer_1" xmlns="http://www.w3.org/2000/svg" xmlns:xlink="http://www.w3.org/1999/xlink" x="0px" y="0px"
	 viewBox="0 0 1600 600" enable-background="new 0 0 1600 600" height="600" width="1600" xml:space="preserve">
<g>
	<path fill-rule="evenodd" clip-rule="evenodd" fill="#27AE60" d="M1048.5,248.2c-15.1,5.3-17.6,50.5-65.7,37.3l-28.1-48.7
		c4.7,4.2,19.4,12.5,22.3,7.2c4.5-8.4-14.1-32.1-10.9-38.1c3.7-6.9,24.6,12.8,28.5,5c4-8.1-17.4-28.1-12.9-35.5
		c3.7-6.1,23,14,26,6.8c4.6-10.9-37.7-69.7-64-54.9c-14,7.9-20.4,29.1-20.7,54.7l-8.7-15c-5.4-9.4-18.1-12.9-27.5-7.5l-7.7,4.4
		c0,0-14.2-14.5-18.4-12.1c-4.3,2.5,1.3,22,1.3,22l-8.5,4.9c0,0-28.5-29-36.7-24.2c-8.7,5,2.6,43.9,2.6,43.9l-8.5,4.9
		c0,0-14.2-14.5-18.4-12.1c-4.3,2.5,1.3,22,1.3,22l-9.4,5.4c-9.4,5.4-12.5,18-7.1,27.4l8.5,14.8c-22.2-12.4-43.8-17.3-57.5-9.2
		c-25.9,15.4,3.6,81.5,15.4,83c7.7,1,0-25.8,7.1-25.9c8.7-0.2,15.4,28.2,24.3,28.8c8.7,0.6,2.1-27.5,10-27.2
		c6.8,0.2,18.1,28.2,27.6,28.5c5.9,0.2,5.7-15.6,5.2-22.5L876,416.5c5.4,9.4,17.6,12.5,27.2,7l4.9,8.5c0.1,0.1,0.1,0.2,0.2,0.3
		c2.6,4.5,8.3,5.7,12.9,3c0.1-0.1,0.2-0.1,0.3-0.2l16.7-9.6c0.1-0.1,0.2-0.1,0.3-0.2c4.4-2.6,6-8,3.5-12.5l-0.2-0.3l-5.3-9.1
		l33.8-19.5l5.3,9.1c0.1,0.1,0.1,0.2,0.2,0.3c2.6,4.5,8.9,5.3,13.5,2.6c0.1-0.1,0.2-0.1,0.3-0.2l16.7-9.6c0.1-0.1,0.2-0.1,0.3-0.2
		c4.4-2.6,6.3-8.2,3.7-12.6l-0.2-0.3l-5.3-9.1l-0.1,0c9.4-5.4,13.3-17.1,7.9-26.5l-0.5-0.9C1058.3,310.1,1063.6,242.8,1048.5,248.2z
		 M873,202.3c9.4-5.4,29.1,3.2,36.6,16.1c7.4,12.8,5.8,27.6-3.6,33.1c-9.4,5.4-23.1-0.6-30.5-13.4
		C868.1,225.3,863.6,207.8,873,202.3z M885,254.5c1.9-1.1,5.2,1.1,7.3,4.9c2.2,3.8,2.4,7.7,0.5,8.8c-1.9,1.1-5.2-1.1-7.3-4.9
		C883.3,259.5,883.1,255.6,885,254.5z M869.6,263.4c1.9-1.1,5.2,1.1,7.3,4.8c2.2,3.8,2.4,7.7,0.5,8.8c-1.9,1.1-5.2-1.1-7.3-4.9
		C868,268.4,867.8,264.5,869.6,263.4z M828.7,227.9c9.4-5.4,22.3,7.2,29.7,20c7.4,12.8,5.8,27.6-3.6,33.1
		c-9.4,5.4-23.1-0.6-30.5-13.4C816.9,254.8,819.3,233.3,828.7,227.9z M938.2,246.1c-1.6,3.5-3.9,7-6.9,10.6c1.5,2.6,9.5,17.2,6.4,20
		c-3,2.7-15.5-4.6-19.4-7c-15.1,12.8-35.5,24.6-54.2,31.2c0.1,4.4,0.2,19.2-3.7,20.4c-4,1.3-13-13.7-14.2-15.7
		c-3.2,0.5-6.3,0.8-9.2,0.8c-1.1,0-2.1,0-3.1-0.1c-1.1-0.1-1.9-1-1.8-2.1c0.1-1.1,1-1.9,2.1-1.8c29.2,2.2,88.3-31.9,100.3-57.9
		c0.5-1,1.6-1.4,2.6-1C938.3,243.9,938.7,245.1,938.2,246.1z"/>
	<path fill-rule="evenodd" clip-rule="evenodd" fill="#27AE60" d="M848.4,269.9c7.1-4.1,9.5-13.1,5.4-20.2
		c-4.1-7.1-13.1-9.5-20.2-5.4c-7.1,4.1-9.5,13.1-5.4,20.2C832.3,271.6,841.4,274,848.4,269.9z M838.9,246.5c0.5-1.8,3-2.8,5.6-2.1
		c2.6,0.7,4.3,2.8,3.8,4.6c-0.5,1.9-3,2.8-5.6,2.1C840.1,250.4,838.4,248.3,838.9,246.5z"/>
	<path fill-rule="evenodd" clip-rule="evenodd" fill="#27AE60" d="M899.6,240.4c7.1-4.1,9.5-13.1,5.4-20.2
		c-4.1-7.1-13.1-9.5-20.2-5.4c-7.1,4.1-9.5,13.1-5.4,20.2C883.5,242.1,892.5,244.5,899.6,240.4z M890,216.9c0.5-1.8,3-2.8,5.6-2.1
		c2.6,0.7,4.3,2.8,3.8,4.6c-0.5,1.9-3,2.8-5.6,2.1C891.2,220.9,889.5,218.8,890,216.9z"/>
</g>
<g>
	<path fill-rule="evenodd" clip-rule="evenodd" fill="#3498DB" d="M1276.5,151c-10.8,3.8-12.7,36.2-47,26.7l-20.1-34.8
		c3,3.2,13.7,9.1,15.8,5.2c3.2-6-10.2-23-7.9-27.2c2.6-5,17.6,9.2,20.4,3.6c2.8-5.8-12.4-20.1-9.2-25.4c2.6-4.4,16.4,10,18.6,4.9
		c3.3-7.8-26.8-50-45.7-39.4c-10,5.6-14.7,20.9-14.6,39.1l-6.2-10.8c-3.9-6.7-13.2-8.9-19.9-5l-5.5,3.2c0,0-10.2-10.4-13.1-8.7
		c-3.1,1.8,0.9,15.7,0.9,15.7l-6.1,3.5c0,0-20.4-20.8-26.3-17.4c-6.2,3.6,1.9,31.5,1.9,31.5l-6.1,3.5c0,0-10.2-10.4-13.2-8.7
		c-3.1,1.8,0.9,15.7,0.9,15.7l-6.7,3.9c-6.7,3.9-8.6,12.5-4.7,19.2l6.1,10.6c-16.5-8.6-31.6-12.3-41.4-6.4
		c-18.6,11,2.4,58.4,10.9,59.5c5.5,0.7-0.1-18.4,5-18.5c6.2-0.1,11,20.2,17.4,20.7c6.2,0.4,1.5-19.7,7.1-19.5
		c4.9,0.2,13.2,20.1,20,20.3c4.3,0.1,4.4-11.4,3.9-16.3l41.5,71.8c3.9,6.7,12.2,9.2,19.2,5.2l3.5,6.1c0,0.1,0.1,0.2,0.1,0.2
		c1.9,3.3,5.7,4,9,2.1c0.1,0,0.2-0.1,0.2-0.1l12-6.9c0.1,0,0.2-0.1,0.2-0.1c3.2-1.8,4.6-5.8,2.8-8.9l-0.1-0.2l-3.7-6.4l24.2-14
		l3.7,6.4c0,0.1,0.1,0.2,0.1,0.2c1.9,3.3,6,3.8,9.3,1.9c0.1,0,0.2-0.1,0.2-0.1l12-6.9c0.1,0,0.2-0.1,0.2-0.1
		c3.2-1.8,4.3-5.6,2.5-8.7l-0.1-0.2l-3.7-6.4l0.2-0.1c6.7-3.9,9.8-12.6,5.9-19.3l-0.4-0.6C1283.5,195.4,1287.3,147.2,1276.5,151z
		 M1150.5,118.4c6.7-3.9,20.9,2.3,26.2,11.5c5.3,9.2,4.1,19.8-2.6,23.7c-6.7,3.9-16.5-0.4-21.8-9.6
		C1146.9,134.8,1143.7,122.3,1150.5,118.4z M1159,155.8c1.4-0.8,3.7,0.8,5.3,3.5c1.6,2.7,1.7,5.5,0.4,6.3c-1.4,0.8-3.7-0.8-5.3-3.5
		C1157.9,159.4,1157.7,156.6,1159,155.8z M1148.1,162.1c1.4-0.8,3.7,0.8,5.3,3.5c1.6,2.7,1.7,5.5,0.4,6.3c-1.4,0.8-3.7-0.8-5.3-3.5
		C1146.9,165.7,1146.7,162.9,1148.1,162.1z M1118.7,136.7c6.7-3.9,16,5.1,21.3,14.3c5.3,9.2,4.1,19.8-2.6,23.7
		c-6.7,3.9-16.5-0.4-21.8-9.6C1110.3,156,1112,140.6,1118.7,136.7z M1197.2,149.7c-1.1,2.5-2.8,5-4.9,7.6c1.1,1.9,6.8,12.3,4.6,14.3
		c-2.1,1.9-11.1-3.3-13.9-5c-10.8,9.2-25.4,17.6-38.8,22.3c0.1,3.2,0.1,13.7-2.6,14.6c-2.9,0.9-9.3-9.8-10.2-11.3
		c-2.3,0.4-4.5,0.6-6.6,0.6c-0.8,0-1.5,0-2.2-0.1c-0.8-0.1-1.4-0.7-1.3-1.5c0.1-0.8,0.7-1.4,1.5-1.3c20.9,1.6,63.2-22.8,71.9-41.5
		c0.3-0.7,1.2-1,1.9-0.7C1197.2,148.2,1197.5,149,1197.2,149.7z"/>
	<path fill-rule="evenodd" clip-rule="evenodd" fill="#3498DB" d="M1132.9,166.8c5.1-2.9,6.8-9.4,3.9-14.4
		c-2.9-5.1-9.4-6.8-14.4-3.9c-5.1,2.9-6.8,9.4-3.9,14.4C1121.3,168,1127.8,169.7,1132.9,166.8z M1126,150c0.4-1.3,2.2-2,4-1.5
		c1.9,0.5,3.1,2,2.7,3.3c-0.4,1.3-2.2,2-4,1.5C1126.9,152.8,1125.7,151.4,1126,150z"/>
	<path fill-rule="evenodd" clip-rule="evenodd" fill="#3498DB" d="M1169.5,145.7c5.1-2.9,6.8-9.4,3.9-14.4
		c-2.9-5.1-9.4-6.8-14.4-3.9c-5.1,2.9-6.8,9.4-3.9,14.4C1158,146.9,1164.4,148.6,1169.5,145.7z M1162.6,128.9c0.4-1.3,2.2-2,4-1.5
		c1.9,0.5,3.1,2,2.7,3.3c-0.4,1.3-2.2,2-4,1.5C1163.5,131.7,1162.3,130.2,1162.6,128.9z"/>
</g>
<g>
	<path fill-rule="evenodd" clip-rule="evenodd" fill="#F39C12" d="M788.9,451c-10.8,3.8-12.7,36.2-47,26.7l-20.1-34.8
		c3,3.2,13.6,9.1,15.6,5.3c3.2-6-10.3-22.9-8-27.2c2.6-5,17.6,9.2,20.3,3.6c2.8-5.8-12.5-20.1-9.2-25.4c2.6-4.4,16.4,10,18.6,4.9
		c3.3-7.8-26.7-50.1-45.5-39.5c-10,5.6-14.6,20.8-14.5,39l-6.2-10.8c-3.9-6.7-13.6-8.9-20.4-5l-5.5,3.2c0,0-10.2-10.4-13.1-8.7
		c-3.1,1.8,0.9,15.7,0.9,15.7l-6.1,3.5c0,0-20.4-20.8-26.3-17.4c-6.2,3.6,1.9,31.5,1.9,31.5l-6.1,3.5c0,0-10.2-10.4-13.2-8.7
		c-3.1,1.8,0.9,15.7,0.9,15.7l-6.7,3.9c-6.7,3.9-8.2,12.5-4.3,19.2l6.1,10.6c-16.5-8.6-31.8-12.2-41.6-6.3
		c-18.6,11,2.4,58.5,10.8,59.5c5.5,0.7-0.1-18.4,5-18.5c6.2-0.1,10.9,20.3,17.4,20.7c6.2,0.4,1.5-19.7,7.1-19.5
		c4.9,0.2,13.3,20,20.2,20.2c4.3,0.1,4.6-11.5,4.1-16.4l41.5,71.8c3.9,6.7,12.2,9.2,19.2,5.2l3.5,6.1c0,0.1,0.1,0.2,0.1,0.2
		c1.9,3.3,5.3,4,8.6,2.1c0.1,0,0.2-0.1,0.2-0.1l12-6.9c0.1,0,0.2-0.1,0.2-0.1c3.2-1.8,5.1-5.7,3.2-8.9l-0.1-0.2l-3.8-6.6l24.2-14
		l3.8,6.6c0,0.1,0.1,0.2,0.1,0.2c1.9,3.3,5.6,3.8,8.9,1.9c0.1,0,0.2-0.1,0.2-0.1l12-6.9c0.1,0,0.2-0.1,0.2-0.1
		c3.2-1.8,4.7-5.6,2.9-8.7l-0.1-0.2l-3.8-6.6l-0.1,0.1c6.7-3.9,10.2-12.5,6.3-19.3l-0.4-0.6C796,495.3,799.7,447.2,788.9,451z
		 M662.6,418.5c6.7-3.9,20.9,2.3,26.2,11.5c5.3,9.2,4.1,19.8-2.6,23.7c-6.7,3.9-16.5-0.4-21.8-9.6
		C659.1,434.9,655.9,422.4,662.6,418.5z M671.2,455.9c1.4-0.8,3.7,0.8,5.3,3.5c1.6,2.7,1.7,5.5,0.4,6.3c-1.4,0.8-3.7-0.8-5.3-3.5
		C670,459.5,669.8,456.7,671.2,455.9z M660.2,462.2c1.4-0.8,3.7,0.8,5.3,3.5c1.6,2.7,1.7,5.5,0.4,6.3c-1.4,0.8-3.7-0.8-5.3-3.5
		C659,465.8,658.8,463,660.2,462.2z M630.9,436.8c6.7-3.9,16,5.1,21.3,14.3c5.3,9.2,4.1,19.8-2.6,23.7c-6.7,3.9-16.5-0.4-21.8-9.6
		C622.4,456.1,624.1,440.7,630.9,436.8z M709.3,449.8c-1.1,2.5-2.8,5-4.9,7.6c1.1,1.9,6.8,12.3,4.6,14.3c-2.1,1.9-11.1-3.3-13.9-5
		c-10.8,9.2-25.4,17.6-38.8,22.3c0.1,3.2,0.1,13.7-2.6,14.6c-2.9,0.9-9.3-9.8-10.2-11.3c-2.3,0.4-4.5,0.6-6.6,0.6
		c-0.8,0-1.5,0-2.2-0.1c-0.8-0.1-1.4-0.7-1.3-1.5c0.1-0.8,0.7-1.4,1.5-1.3c20.9,1.6,63.2-22.8,71.9-41.5c0.3-0.7,1.2-1,1.9-0.7
		C709.3,448.3,709.6,449.1,709.3,449.8z"/>
	<path fill-rule="evenodd" clip-rule="evenodd" fill="#F39C12" d="M645,466.9c5.1-2.9,6.8-9.4,3.9-14.4c-2.9-5.1-9.4-6.8-14.4-3.9
		c-5.1,2.9-6.8,9.4-3.9,14.4C633.5,468.1,639.9,469.9,645,466.9z M638.1,450.1c0.4-1.3,2.2-2,4-1.5c1.9,0.5,3.1,2,2.7,3.3
		c-0.4,1.3-2.2,2-4,1.5C639,452.9,637.8,451.5,638.1,450.1z"/>
	<path fill-rule="evenodd" clip-rule="evenodd" fill="#F39C12" d="M681.6,445.8c5.1-2.9,6.8-9.4,3.9-14.4c-2.9-5.1-9.4-6.8-14.4-3.9
		c-5.1,2.9-6.8,9.4-3.9,14.4C670.1,447,676.6,448.7,681.6,445.8z M674.8,429c0.4-1.3,2.2-2,4-1.5c1.9,0.5,3.1,2,2.7,3.3
		c-0.4,1.3-2.2,2-4,1.5C675.6,431.8,674.4,430.3,674.8,429z"/>
</g>
<g>
	<path fill-rule="evenodd" clip-rule="evenodd" fill="#E74C3C" d="M317.2,164c-10.8,3.8-12.7,36.2-47,26.7l-20.1-34.8
		c3,3.2,13.6,9.1,15.7,5.3c3.2-6-10.2-22.9-8-27.2c2.6-5,17.6,9.2,20.3,3.6c2.8-5.8-12.5-20.1-9.2-25.4c2.6-4.4,16.4,10,18.6,4.9
		c3.3-7.8-26.7-50-45.6-39.5c-10,5.6-14.6,20.9-14.5,39l-6.2-10.8c-3.9-6.7-13.6-9.1-20.3-5.3l-5.5,3.2c0,0-10.2-10.4-13.1-8.7
		c-3.1,1.8,0.9,15.7,0.9,15.7l-6.1,3.5c0,0-20.4-20.8-26.3-17.4c-6.2,3.6,1.9,31.5,1.9,31.5l-6.1,3.5c0,0-10.2-10.4-13.2-8.7
		c-3.1,1.8,0.9,15.7,0.9,15.7l-6.7,3.9c-6.7,3.9-8.2,12.7-4.3,19.5l6.1,10.6c-16.5-8.6-31.7-12.2-41.5-6.4
		c-18.6,11,2.4,58.5,10.8,59.5c5.5,0.7-0.1-18.4,5-18.5c6.2-0.1,11,20.2,17.4,20.7c6.2,0.4,1.5-19.7,7.1-19.5
		c4.9,0.2,13.3,20,20.1,20.2c4.3,0.1,4.5-11.5,4-16.3l41.5,71.8c3.9,6.7,12.2,9.2,19.2,5.2l3.5,6.1c0,0.1,0.1,0.2,0.1,0.2
		c1.9,3.3,5.3,3.8,8.6,1.9c0.1,0,0.2-0.1,0.2-0.1l12-6.9c0.1,0,0.2-0.1,0.2-0.1c3.2-1.8,5.1-5.5,3.2-8.7l-0.1-0.2l-3.9-6.8l24.2-14
		l3.9,6.8c0,0.1,0.1,0.2,0.1,0.2c1.9,3.3,5.6,3.6,8.9,1.7c0.1,0,0.2-0.1,0.2-0.1l12-6.9c0.1,0,0.2-0.1,0.2-0.1
		c3.2-1.8,4.7-5.3,2.9-8.5l-0.1-0.2l-3.9-6.8l0,0c6.7-3.9,10.2-12.3,6.3-19l-0.4-0.6C324.2,208.4,328,160.2,317.2,164z M191,131.5
		c6.7-3.9,20.9,2.3,26.2,11.5c5.3,9.2,4.1,19.8-2.6,23.7c-6.7,3.9-16.5-0.4-21.8-9.6C187.4,147.9,184.2,135.4,191,131.5z
		 M199.5,168.9c1.4-0.8,3.7,0.8,5.3,3.5c1.6,2.7,1.7,5.5,0.4,6.3c-1.4,0.8-3.7-0.8-5.3-3.5C198.4,172.5,198.2,169.7,199.5,168.9z
		 M188.6,175.2c1.4-0.8,3.7,0.8,5.3,3.5c1.6,2.7,1.7,5.5,0.4,6.3c-1.4,0.8-3.7-0.8-5.3-3.5C187.4,178.8,187.2,176,188.6,175.2z
		 M159.2,149.8c6.7-3.9,16,5.1,21.3,14.3c5.3,9.2,4.1,19.8-2.6,23.7c-6.7,3.9-16.5-0.4-21.8-9.6
		C150.8,169.1,152.5,153.7,159.2,149.8z M237.7,162.8c-1.1,2.5-2.8,5-4.9,7.6c1.1,1.9,6.8,12.3,4.6,14.3c-2.1,1.9-11.1-3.3-13.9-5
		c-10.8,9.2-25.4,17.6-38.8,22.3c0.1,3.2,0.1,13.7-2.6,14.6c-2.9,0.9-9.3-9.8-10.2-11.3c-2.3,0.4-4.5,0.6-6.6,0.6
		c-0.8,0-1.5,0-2.2-0.1c-0.8-0.1-1.4-0.7-1.3-1.5c0.1-0.8,0.7-1.4,1.5-1.3c20.9,1.6,63.2-22.8,71.9-41.5c0.3-0.7,1.2-1,1.9-0.7
		C237.7,161.3,238,162.1,237.7,162.8z"/>
	<path fill-rule="evenodd" clip-rule="evenodd" fill="#E74C3C" d="M173.4,179.9c5.1-2.9,6.8-9.4,3.9-14.4c-2.9-5.1-9.4-6.8-14.4-3.9
		c-5.1,2.9-6.8,9.4-3.9,14.4C161.8,181.1,168.3,182.8,173.4,179.9z M166.5,163.1c0.4-1.3,2.2-2,4-1.5c1.9,0.5,3.1,2,2.7,3.3
		c-0.4,1.3-2.2,2-4,1.5C167.4,165.9,166.2,164.5,166.5,163.1z"/>
	<path fill-rule="evenodd" clip-rule="evenodd" fill="#E74C3C" d="M210,158.8c5.1-2.9,6.8-9.4,3.9-14.4c-2.9-5.1-9.4-6.8-14.4-3.9
		c-5.1,2.9-6.8,9.4-3.9,14.4C198.5,160,204.9,161.7,210,158.8z M203.1,142c0.4-1.3,2.2-2,4-1.5c1.9,0.5,3.1,2,2.7,3.3
		c-0.4,1.3-2.2,2-4,1.5C204,144.8,202.8,143.3,203.1,142z"/>
</g>
<g>
	<path fill-rule="evenodd" clip-rule="evenodd" fill="#8E44AD" d="M1587,391.9c-10.8,3.8-12.7,36.2-47,26.7l-20.1-34.8
		c3,3.2,13.5,9.2,15.6,5.4c3.2-6-10.3-22.9-8-27.2c2.6-5,17.5,9.3,20.3,3.6c2.8-5.8-12.5-20.1-9.3-25.4c2.6-4.4,16.4,10,18.6,4.9
		c3.3-7.8-26.6-50.1-45.4-39.5c-10,5.6-14.5,20.8-14.4,39l-6.2-10.8c-3.9-6.7-13.8-8.8-20.5-4.9l-5.5,3.2c0,0-10.2-10.4-13.1-8.7
		c-3.1,1.8,0.9,15.7,0.9,15.7l-6.1,3.5c0,0-20.4-20.8-26.3-17.4c-6.2,3.6,1.9,31.5,1.9,31.5l-6.1,3.5c0,0-10.2-10.4-13.2-8.7
		c-3.1,1.8,0.9,15.7,0.9,15.7l-6.7,3.9c-6.7,3.9-8,12.4-4.1,19.1l6.1,10.6c-16.5-8.6-31.8-12.1-41.7-6.3
		c-18.6,11,2.3,58.5,10.8,59.5c5.5,0.7-0.1-18.4,5-18.5c6.2-0.1,10.9,20.3,17.4,20.7c6.2,0.4,1.5-19.7,7.1-19.5
		c4.9,0.2,13.4,19.9,20.2,20.1c4.3,0.1,4.6-11.5,4.1-16.4l41.5,71.8c3.9,6.7,12.2,9.2,19.2,5.2l3.5,6.1c0,0.1,0.1,0.2,0.1,0.2
		c1.9,3.3,5.1,4.1,8.4,2.2c0.1,0,0.2-0.1,0.2-0.1l12-6.9c0.1,0,0.2-0.1,0.2-0.1c3.2-1.8,5.2-5.8,3.4-9l-0.1-0.2l-3.8-6.6l24.2-14
		l3.8,6.6c0,0.1,0.1,0.2,0.1,0.2c1.9,3.3,5.5,3.9,8.8,2c0.1,0,0.2-0.1,0.2-0.1l12-6.9c0.1,0,0.2-0.1,0.2-0.1c3.2-1.8,4.9-5.6,3-8.8
		l-0.1-0.2l-3.8-6.6l-0.2,0.1c6.7-3.9,10.4-12.6,6.5-19.4l-0.4-0.6C1594,436.3,1597.8,388.1,1587,391.9z M1460.5,359.5
		c6.7-3.9,20.9,2.3,26.2,11.5c5.3,9.2,4.1,19.8-2.6,23.7c-6.7,3.9-16.5-0.4-21.8-9.6C1457,376,1453.8,363.4,1460.5,359.5z
		 M1469.1,396.9c1.4-0.8,3.7,0.8,5.3,3.5c1.6,2.7,1.7,5.5,0.4,6.3c-1.4,0.8-3.7-0.8-5.3-3.5C1467.9,400.5,1467.7,397.7,1469.1,396.9
		z M1458.1,403.3c1.4-0.8,3.7,0.8,5.3,3.5c1.6,2.7,1.7,5.5,0.4,6.3c-1.4,0.8-3.7-0.8-5.3-3.5C1456.9,406.9,1456.8,404,1458.1,403.3z
		 M1428.8,377.9c6.7-3.9,16,5.1,21.3,14.3c5.3,9.2,4.1,19.8-2.6,23.7c-6.7,3.9-16.5-0.4-21.8-9.6
		C1420.4,397.1,1422.1,381.8,1428.8,377.9z M1507.2,390.9c-1.1,2.5-2.8,5-4.9,7.6c1.1,1.9,6.8,12.3,4.6,14.3
		c-2.1,1.9-11.1-3.3-13.9-5c-10.8,9.2-25.4,17.6-38.8,22.3c0.1,3.2,0.1,13.7-2.6,14.6c-2.9,0.9-9.3-9.8-10.2-11.3
		c-2.3,0.4-4.5,0.6-6.6,0.6c-0.8,0-1.5,0-2.2-0.1c-0.8-0.1-1.4-0.7-1.3-1.5c0.1-0.8,0.7-1.4,1.5-1.3c20.9,1.6,63.2-22.8,71.9-41.5
		c0.3-0.7,1.2-1,1.9-0.7C1507.2,389.3,1507.6,390.2,1507.2,390.9z"/>
	<path fill-rule="evenodd" clip-rule="evenodd" fill="#8E44AD" d="M1442.9,408c5.1-2.9,6.8-9.4,3.9-14.4c-2.9-5.1-9.4-6.8-14.4-3.9
		c-5.1,2.9-6.8,9.4-3.9,14.4C1431.4,409.2,1437.9,410.9,1442.9,408z M1436.1,391.2c0.4-1.3,2.2-2,4-1.5c1.9,0.5,3.1,2,2.7,3.3
		c-0.4,1.3-2.2,2-4,1.5C1436.9,394,1435.7,392.5,1436.1,391.2z"/>
	<path fill-rule="evenodd" clip-rule="evenodd" fill="#8E44AD" d="M1479.5,386.8c5.1-2.9,6.8-9.4,3.9-14.4
		c-2.9-5.1-9.4-6.8-14.4-3.9c-5.1,2.9-6.8,9.4-3.9,14.4C1468,388,1474.5,389.7,1479.5,386.8z M1472.7,370c0.4-1.3,2.2-2,4-1.5
		c1.9,0.5,3.1,2,2.7,3.3c-0.4,1.3-2.2,2-4,1.5C1473.6,372.8,1472.3,371.4,1472.7,370z"/>
</g>
<g>
	<path fill-rule="evenodd" clip-rule="evenodd" fill="#16A085" d="M1177.7,463.7c-8.9,3.1-10.1,29.6-38.7,22l-16.6-28.7
		c2.6,2.6,11.6,7.3,13.3,4.1c2.7-4.9-8.2-19-6.3-22.5c2.2-4.1,14.6,7.5,16.8,2.9c2.3-4.8-10.2-16.6-7.6-20.9
		c2.2-3.6,13.6,8.2,15.3,4c2.7-6.5-22.4-41-37.9-32.3c-8.3,4.6-11.9,17.1-12.4,32.4l-5.1-8.9c-3.2-5.5-10.1-7.5-15.6-4.2l-4.5,2.6
		c0,0-8.4-8.6-10.8-7.2c-2.6,1.5,0.8,13,0.8,13l-5,2.9c0,0-16.8-17.1-21.7-14.3c-5.1,3,1.6,25.9,1.6,25.9l-5,2.9
		c0,0-8.4-8.6-10.8-7.2c-2.6,1.5,0.8,13,0.8,13l-5.5,3.2c-5.5,3.2-7.8,10.4-4.6,15.9l5,8.7c-13.4-7.2-25.7-10.3-33.8-5.5
		c-15.3,9.1,2.2,48,9.1,48.9c4.6,0.6,0-15.2,4.2-15.3c5.1-0.1,9.1,16.6,14.4,17c5.1,0.3,1.3-16.2,5.9-16c4,0.1,10.6,16.7,16.2,16.8
		c3.5,0.1,3.9-9.6,2.9-13.2l34.1,59.1c3.2,5.5,10.1,7.6,16.2,4.1l2.9,5c0,0.1,0.1,0.1,0.1,0.2c1.5,2.7,5.1,3.7,7.8,2.1
		c0.1,0,0.1-0.1,0.2-0.1l9.9-5.7c0.1,0,0.1-0.1,0.2-0.1c2.6-1.5,3.3-5.1,1.8-7.7l-0.1-0.2l-3-5.2l19.9-11.5l3,5.2
		c0,0.1,0.1,0.1,0.1,0.2c1.5,2.7,5.5,3.5,8.2,1.9c0.1,0,0.1-0.1,0.2-0.1l9.9-5.7c0.1,0,0.1-0.1,0.2-0.1c2.6-1.5,3-4.9,1.4-7.5
		l-0.1-0.2l-3-5.2l0.5-0.3c5.5-3.2,7.4-10.1,4.2-15.6l-0.3-0.5C1184.1,499.8,1186.6,460.5,1177.7,463.7z M1074.5,436.4
		c5.5-3.2,17.2,1.9,21.6,9.5c4.4,7.6,3.4,16.3-2.1,19.5c-5.6,3.2-13.6-0.3-18-7.9C1071.6,449.9,1069,439.6,1074.5,436.4z
		 M1081.6,467.2c1.1-0.6,3.1,0.6,4.3,2.9c1.3,2.2,1.4,4.5,0.3,5.2c-1.1,0.6-3.1-0.6-4.3-2.9C1080.6,470.2,1080.4,467.8,1081.6,467.2
		z M1072.5,472.4c1.1-0.6,3.1,0.6,4.3,2.9c1.3,2.2,1.4,4.5,0.3,5.2c-1.1,0.6-3.1-0.6-4.3-2.9
		C1071.5,475.4,1071.4,473.1,1072.5,472.4z M1048.4,451.5c5.5-3.2,13.2,4.2,17.5,11.8c4.4,7.6,3.4,16.3-2.1,19.5
		c-5.5,3.2-13.6-0.3-18-7.9C1041.4,467.4,1042.8,454.7,1048.4,451.5z M1113,462.2c-0.9,2-2.3,4.1-4.1,6.3c0.9,1.5,5.6,10.1,3.8,11.8
		c-1.8,1.6-9.1-2.7-11.4-4.1c-8.9,7.6-20.9,14.5-32,18.4c0.1,2.6,0.1,11.3-2.2,12c-2.4,0.8-7.7-8.1-8.4-9.3
		c-1.9,0.3-3.7,0.5-5.4,0.5c-0.6,0-1.2,0-1.8-0.1c-0.6,0-1.1-0.6-1.1-1.2c0-0.6,0.6-1.1,1.2-1.1c17.2,1.3,52.1-18.8,59.2-34.2
		c0.3-0.6,1-0.8,1.5-0.6C1113,461,1113.2,461.6,1113,462.2z"/>
	<path fill-rule="evenodd" clip-rule="evenodd" fill="#16A085" d="M1060,476.3c4.2-2.4,5.6-7.7,3.2-11.9c-2.4-4.2-7.7-5.6-11.9-3.2
		c-4.2,2.4-5.6,7.7-3.2,11.9C1050.5,477.3,1055.8,478.7,1060,476.3z M1054.4,462.5c0.3-1.1,1.8-1.6,3.3-1.2c1.5,0.4,2.5,1.6,2.2,2.7
		c-0.3,1.1-1.8,1.7-3.3,1.2C1055.1,464.8,1054.1,463.6,1054.4,462.5z"/>
	<path fill-rule="evenodd" clip-rule="evenodd" fill="#16A085" d="M1090.2,458.9c4.2-2.4,5.6-7.7,3.2-11.9
		c-2.4-4.2-7.7-5.6-11.9-3.2c-4.2,2.4-5.6,7.7-3.2,11.9C1080.7,459.9,1086,461.3,1090.2,458.9z M1084.5,445.1
		c0.3-1.1,1.8-1.6,3.3-1.2c1.5,0.4,2.5,1.6,2.2,2.7c-0.3,1.1-1.8,1.7-3.3,1.2C1085.2,447.4,1084.2,446.2,1084.5,445.1z"/>
</g>
<g>
	<path fill-rule="evenodd" clip-rule="evenodd" fill="#F1C40F" d="M541.1,105.5c-8.9,3.1-10.1,29.6-38.7,22l-16.6-28.7
		c2.6,2.6,11.3,7.5,13,4.3c2.7-4.9-8.4-18.9-6.5-22.4c2.2-4.1,14.5,7.6,16.8,3c2.3-4.8-10.3-16.5-7.6-20.9c2.2-3.6,13.5,8.3,15.3,4
		c2.7-6.5-22.1-41.2-37.6-32.4c-8.3,4.6-11.6,16.9-12.1,32.2l-5.1-8.9c-3.2-5.5-10.9-7.3-16.4-4.1l-4.5,2.6c0,0-8.4-8.6-10.8-7.2
		c-2.6,1.5,0.8,13,0.8,13l-5,2.9c0,0-16.8-17.1-21.7-14.3c-5.1,3,1.6,25.9,1.6,25.9l-5,2.9c0,0-8.4-8.6-10.8-7.2
		c-2.6,1.5,0.8,13,0.8,13l-5.5,3.2c-5.5,3.2-7,10.3-3.8,15.8l5,8.7c-13.4-7.2-26-10.1-34.1-5.3c-15.3,9.1,2,48.1,8.9,49
		c4.6,0.6-0.1-15.2,4.1-15.3c5.1-0.1,9,16.7,14.3,17c5.1,0.3,1.2-16.2,5.9-16c4,0.1,10.9,16.5,16.5,16.7c3.5,0.1,4.2-9.7,3.2-13.4
		l34.1,59.1c3.2,5.5,10.1,7.6,16.2,4.1l2.9,5c0,0.1,0.1,0.1,0.1,0.2c1.5,2.7,4.4,3.8,7.1,2.3c0.1,0,0.1-0.1,0.2-0.1l9.9-5.7
		c0.1,0,0.1-0.1,0.2-0.1c2.6-1.5,4.1-5.2,2.6-7.8l-0.1-0.2l-3.1-5.4l19.9-11.5l3.1,5.4c0,0.1,0.1,0.1,0.1,0.2c1.5,2.7,4.8,3.6,7.5,2
		c0.1,0,0.1-0.1,0.2-0.1l9.9-5.7c0.1,0,0.1-0.1,0.2-0.1c2.6-1.5,3.7-5,2.2-7.6l-0.1-0.2l-3.1-5.4l-0.1,0.1
		c5.5-3.2,8.1-10.2,4.9-15.7l-0.3-0.5C547.5,141.7,550,102.4,541.1,105.5z M437.4,78.6c5.5-3.2,17.2,1.9,21.6,9.5
		c4.4,7.6,3.4,16.3-2.1,19.5c-5.5,3.2-13.6-0.3-18-7.9C434.5,92.1,431.8,81.8,437.4,78.6z M444.4,109.4c1.1-0.6,3.1,0.6,4.3,2.9
		c1.3,2.2,1.4,4.5,0.3,5.2c-1.1,0.6-3.1-0.6-4.3-2.9C443.4,112.4,443.3,110,444.4,109.4z M435.4,114.6c1.1-0.6,3.1,0.6,4.3,2.9
		c1.3,2.2,1.4,4.5,0.3,5.2c-1.1,0.6-3.1-0.6-4.3-2.9C434.4,117.6,434.3,115.3,435.4,114.6z M411.2,93.7c5.5-3.2,13.2,4.2,17.5,11.8
		c4.4,7.6,3.4,16.3-2.1,19.5c-5.5,3.2-13.6-0.3-18-7.9C404.3,109.6,405.7,96.9,411.2,93.7z M475.8,104.4c-0.9,2-2.3,4.1-4.1,6.3
		c0.9,1.5,5.6,10.1,3.8,11.8c-1.8,1.6-9.1-2.7-11.4-4.1c-8.9,7.6-20.9,14.5-32,18.4c0.1,2.6,0.1,11.3-2.2,12
		c-2.4,0.8-7.7-8.1-8.4-9.3c-1.9,0.3-3.7,0.5-5.4,0.5c-0.6,0-1.2,0-1.8-0.1c-0.6,0-1.1-0.6-1.1-1.2c0-0.6,0.6-1.1,1.2-1.1
		c17.2,1.3,52.1-18.8,59.2-34.2c0.3-0.6,1-0.8,1.5-0.6C475.8,103.2,476.1,103.8,475.8,104.4z"/>
	<path fill-rule="evenodd" clip-rule="evenodd" fill="#F1C40F" d="M422.9,118.5c4.2-2.4,5.6-7.7,3.2-11.9c-2.4-4.2-7.7-5.6-11.9-3.2
		c-4.2,2.4-5.6,7.7-3.2,11.9C413.4,119.5,418.7,120.9,422.9,118.5z M417.2,104.7c0.3-1.1,1.8-1.6,3.3-1.2c1.5,0.4,2.5,1.6,2.2,2.7
		c-0.3,1.1-1.8,1.7-3.3,1.2C417.9,107,416.9,105.8,417.2,104.7z"/>
	<path fill-rule="evenodd" clip-rule="evenodd" fill="#F1C40F" d="M453,101.1c4.2-2.4,5.6-7.7,3.2-11.9c-2.4-4.2-7.7-5.6-11.9-3.2
		c-4.2,2.4-5.6,7.7-3.2,11.9C443.5,102.1,448.9,103.5,453,101.1z M447.4,87.2c0.3-1.1,1.8-1.6,3.3-1.2c1.5,0.4,2.5,1.6,2.2,2.7
		c-0.3,1.1-1.8,1.7-3.3,1.2C448.1,89.6,447.1,88.3,447.4,87.2z"/>
</g>
<g>
	<path fill-rule="evenodd" clip-rule="evenodd" fill="#D35400" d="M517.4,400c-8.9,3.1-10.1,29.6-38.7,22l-16.6-28.7
		c2.6,2.6,11.3,7.4,13,4.3c2.7-4.9-8.4-18.9-6.5-22.4c2.2-4.1,14.5,7.6,16.8,3c2.3-4.8-10.2-16.5-7.6-20.9c2.2-3.6,13.5,8.3,15.3,4
		c2.7-6.5-22.1-41.1-37.6-32.4c-8.3,4.6-11.7,17-12.1,32.2l-5.1-8.9c-3.2-5.5-10.7-7.3-16.3-4.1l-4.5,2.6c0,0-8.4-8.6-10.8-7.2
		c-2.6,1.5,0.8,13,0.8,13l-5,2.9c0,0-16.8-17.1-21.7-14.3c-5.1,3,1.6,25.9,1.6,25.9l-5,2.9c0,0-8.4-8.6-10.8-7.2
		c-2.6,1.5,0.8,13,0.8,13l-5.5,3.2c-5.5,3.2-7.2,10.2-4,15.7l5,8.7c-13.4-7.2-26-10.1-34.1-5.3c-15.3,9.1,2,48.1,9,49
		c4.6,0.6,0-15.2,4.2-15.3c5.1-0.1,9,16.7,14.3,17c5.1,0.3,1.2-16.2,5.9-16c4,0.1,10.9,16.5,16.5,16.7c3.5,0.1,4.2-9.7,3.2-13.4
		l34.1,59.1c3.2,5.5,10.1,7.6,16.2,4.1l2.9,5c0,0.1,0.1,0.1,0.1,0.2c1.5,2.7,4.5,3.9,7.2,2.3c0.1,0,0.1-0.1,0.2-0.1l9.9-5.7
		c0.1,0,0.1-0.1,0.2-0.1c2.6-1.5,3.9-5.3,2.4-7.9l-0.1-0.2l-3.1-5.3l19.9-11.5l3.1,5.3c0,0.1,0.1,0.1,0.1,0.2
		c1.5,2.7,4.9,3.7,7.6,2.1c0.1,0,0.1-0.1,0.2-0.1l9.9-5.7c0.1,0,0.1-0.1,0.2-0.1c2.6-1.5,3.6-5.1,2.1-7.7l-0.1-0.2l-3.1-5.3l-0.1,0
		c5.5-3.2,8-10.2,4.8-15.8l-0.3-0.5C523.8,436.2,526.3,396.8,517.4,400z M413.7,373.1c5.5-3.2,17.2,1.9,21.6,9.5
		c4.4,7.6,3.4,16.3-2.1,19.5c-5.5,3.2-13.6-0.3-18-7.9C410.8,386.6,408.2,376.3,413.7,373.1z M420.8,403.8c1.1-0.6,3.1,0.6,4.3,2.9
		c1.3,2.2,1.4,4.5,0.3,5.2c-1.1,0.6-3.1-0.6-4.3-2.9C419.8,406.8,419.7,404.5,420.8,403.8z M411.7,409.1c1.1-0.6,3.1,0.6,4.3,2.9
		c1.3,2.2,1.4,4.5,0.3,5.2c-1.1,0.6-3.1-0.6-4.3-2.9C410.8,412,410.6,409.7,411.7,409.1z M387.6,388.1c5.5-3.2,13.2,4.2,17.5,11.8
		c4.4,7.6,3.4,16.3-2.1,19.5c-5.5,3.2-13.6-0.3-18-7.9C380.7,404,382.1,391.4,387.6,388.1z M452.2,398.9c-0.9,2-2.3,4.1-4.1,6.3
		c0.9,1.5,5.6,10.1,3.8,11.8c-1.8,1.6-9.1-2.7-11.4-4.1c-8.9,7.6-20.9,14.5-32,18.4c0.1,2.6,0.1,11.3-2.2,12
		c-2.4,0.8-7.7-8.1-8.4-9.3c-1.9,0.3-3.7,0.5-5.4,0.5c-0.6,0-1.2,0-1.8-0.1c-0.6,0-1.1-0.6-1.1-1.2c0-0.6,0.6-1.1,1.2-1.1
		c17.2,1.3,52.1-18.8,59.2-34.2c0.3-0.6,1-0.8,1.5-0.6C452.2,397.6,452.5,398.3,452.2,398.9z"/>
	<path fill-rule="evenodd" clip-rule="evenodd" fill="#D35400" d="M399.2,412.9c4.2-2.4,5.6-7.7,3.2-11.9c-2.4-4.2-7.7-5.6-11.9-3.2
		c-4.2,2.4-5.6,7.7-3.2,11.9C389.7,413.9,395.1,415.3,399.2,412.9z M393.6,399.1c0.3-1.1,1.8-1.6,3.3-1.2c1.5,0.4,2.5,1.6,2.2,2.7
		c-0.3,1.1-1.8,1.7-3.3,1.2C394.3,401.4,393.3,400.2,393.6,399.1z"/>
	<path fill-rule="evenodd" clip-rule="evenodd" fill="#D35400" d="M429.4,395.5c4.2-2.4,5.6-7.7,3.2-11.9c-2.4-4.2-7.7-5.6-11.9-3.2
		c-4.2,2.4-5.6,7.7-3.2,11.9C419.9,396.5,425.2,397.9,429.4,395.5z M423.8,381.7c0.3-1.1,1.8-1.6,3.3-1.2c1.5,0.4,2.5,1.6,2.2,2.7
		c-0.3,1.1-1.8,1.7-3.3,1.2C424.5,384,423.5,382.8,423.8,381.7z"/>
</g>
<g>
	<path fill-rule="evenodd" clip-rule="evenodd" fill="#9B59B6" d="M1490.2,151.4c-8.9,3.1-10.1,29.6-38.7,22l-16.6-28.7
		c2.6,2.6,11.3,7.4,13,4.3c2.7-4.9-8.4-18.9-6.5-22.4c2.2-4.1,14.5,7.6,16.8,3c2.3-4.8-10.3-16.5-7.6-20.9c2.2-3.6,13.5,8.3,15.3,4
		c2.7-6.5-22.1-41.2-37.6-32.4c-8.3,4.6-11.6,16.9-12.1,32.2l-5.1-8.9c-3.2-5.5-10.8-7.4-16.4-4.2l-4.5,2.6c0,0-8.4-8.6-10.8-7.2
		c-2.6,1.5,0.8,13,0.8,13l-5,2.9c0,0-16.8-17.1-21.7-14.3c-5.1,3,1.6,25.9,1.6,25.9l-5,2.9c0,0-8.4-8.6-10.8-7.2
		c-2.6,1.5,0.8,13,0.8,13l-5.5,3.2c-5.5,3.2-7,10.3-3.8,15.9l5,8.7c-13.4-7.2-26-10.1-34.1-5.3c-15.3,9.1,2,48.1,9,49
		c4.6,0.6,0-15.2,4.2-15.3c5.1-0.1,9,16.7,14.3,17c5.1,0.3,1.2-16.2,5.9-16c4,0.1,10.9,16.5,16.5,16.7c3.5,0.1,4.2-9.7,3.2-13.4
		l34.1,59.1c3.2,5.5,10.1,7.6,16.2,4.1l2.9,5c0,0.1,0.1,0.1,0.1,0.2c1.5,2.7,4.4,3.8,7.1,2.2c0.1,0,0.1-0.1,0.2-0.1l9.9-5.7
		c0.1,0,0.1-0.1,0.2-0.1c2.6-1.5,4.1-5.2,2.6-7.8l-0.1-0.2l-3.2-5.5l19.9-11.5l3.2,5.5c0,0.1,0.1,0.1,0.1,0.2c1.5,2.7,4.8,3.5,7.5,2
		c0.1,0,0.1-0.1,0.2-0.1l9.9-5.7c0.1,0,0.1-0.1,0.2-0.1c2.6-1.5,3.7-4.9,2.2-7.6l-0.1-0.2l-3.2-5.5l-0.1,0.1
		c5.5-3.2,8.1-10.1,4.9-15.7l-0.3-0.5C1496.6,187.5,1499.1,148.2,1490.2,151.4z M1386.5,124.5c5.5-3.2,17.2,1.9,21.6,9.5
		c4.4,7.6,3.4,16.3-2.1,19.5c-5.5,3.2-13.6-0.3-18-7.9C1383.6,138,1381,127.7,1386.5,124.5z M1393.6,155.2c1.1-0.6,3.1,0.6,4.3,2.9
		c1.3,2.2,1.4,4.5,0.3,5.2c-1.1,0.6-3.1-0.6-4.3-2.9C1392.6,158.2,1392.4,155.9,1393.6,155.2z M1384.5,160.5
		c1.1-0.6,3.1,0.6,4.3,2.9c1.3,2.2,1.4,4.5,0.3,5.2c-1.1,0.6-3.1-0.6-4.3-2.9C1383.5,163.4,1383.4,161.1,1384.5,160.5z
		 M1360.4,139.6c5.5-3.2,13.2,4.2,17.5,11.8c4.4,7.6,3.4,16.3-2.1,19.5c-5.5,3.2-13.6-0.3-18-7.9
		C1353.4,155.4,1354.8,142.8,1360.4,139.6z M1425,150.3c-0.9,2-2.3,4.1-4.1,6.3c0.9,1.5,5.6,10.1,3.8,11.8
		c-1.8,1.6-9.1-2.7-11.4-4.1c-8.9,7.6-20.9,14.5-32,18.4c0.1,2.6,0.1,11.3-2.2,12c-2.4,0.8-7.7-8.1-8.4-9.3
		c-1.9,0.3-3.7,0.5-5.4,0.5c-0.6,0-1.2,0-1.8-0.1c-0.6,0-1.1-0.6-1.1-1.2c0-0.6,0.6-1.1,1.2-1.1c17.2,1.3,52.1-18.8,59.2-34.2
		c0.3-0.6,1-0.8,1.5-0.6C1425,149,1425.2,149.7,1425,150.3z"/>
	<path fill-rule="evenodd" clip-rule="evenodd" fill="#9B59B6" d="M1372,164.3c4.2-2.4,5.6-7.7,3.2-11.9c-2.4-4.2-7.7-5.6-11.9-3.2
		s-5.6,7.7-3.2,11.9C1362.5,165.3,1367.8,166.7,1372,164.3z M1366.4,150.5c0.3-1.1,1.8-1.6,3.3-1.2c1.5,0.4,2.5,1.6,2.2,2.7
		c-0.3,1.1-1.8,1.7-3.3,1.2C1367.1,152.8,1366.1,151.6,1366.4,150.5z"/>
	<path fill-rule="evenodd" clip-rule="evenodd" fill="#9B59B6" d="M1402.2,146.9c4.2-2.4,5.6-7.7,3.2-11.9
		c-2.4-4.2-7.7-5.6-11.9-3.2c-4.2,2.4-5.6,7.7-3.2,11.9C1392.7,147.9,1398,149.3,1402.2,146.9z M1396.5,133.1
		c0.3-1.1,1.8-1.6,3.3-1.2c1.5,0.4,2.5,1.6,2.2,2.7c-0.3,1.1-1.8,1.7-3.3,1.2C1397.2,135.4,1396.2,134.2,1396.5,133.1z"/>
</g>
<g>
	<path fill-rule="evenodd" clip-rule="evenodd" fill="#1ABC9C" d="M831.4,61.5c-6.6,2.3-7.1,21.8-28.7,16.3l-12.3-21.3
		c2.2,1.8,8.4,5.5,9.7,3.2c2-3.7-6.2-14-4.8-16.7c1.6-3,10.8,5.6,12.4,2.2c1.7-3.5-7.6-12.3-5.6-15.5c1.6-2.7,10,6.1,11.4,3
		c2-4.8-16.4-30.5-27.9-24.1c-6.1,3.4-8.6,12.5-9,23.9l-3.8-6.6c-2.4-4.1-7.9-5.4-12.1-3l-3.4,1.9c0,0-6.2-6.3-8-5.3
		c-1.9,1.1,0.6,9.6,0.6,9.6l-3.7,2.2c0,0-12.5-12.7-16.1-10.6c-3.8,2.2,1.2,19.2,1.2,19.2l-3.7,2.2c0,0-6.2-6.3-8-5.3
		c-1.9,1.1,0.6,9.6,0.6,9.6l-4.1,2.4c-4.1,2.4-5.3,7.5-3,11.7l3.7,6.5c-10-5.3-19.3-7.5-25.3-3.9c-11.3,6.7,1.5,35.7,6.7,36.3
		c3.4,0.4,0-11.3,3.1-11.3c3.8-0.1,6.7,12.4,10.6,12.6c3.8,0.3,0.9-12,4.3-11.9c3,0.1,8.1,12.3,12.2,12.4c2.6,0.1,2.9-7.1,2.4-9.9
		l25.3,43.9c2.4,4.1,7.8,5.5,12.1,3l2.2,3.7c0,0,0.1,0.1,0.1,0.1c1.1,2,3.3,2.9,5.3,1.8c0.1,0,0.1-0.1,0.1-0.1l7.3-4.2
		c0,0,0.1-0.1,0.1-0.1c1.9-1.1,2.9-4,1.8-5.9l-0.1-0.1l-2.3-4l14.7-8.5l2.3,4c0,0.1,0.1,0.1,0.1,0.1c1.1,2,3.7,2.7,5.7,1.6
		c0,0,0.1-0.1,0.1-0.1l7.3-4.2c0,0,0.1-0.1,0.1-0.1c1.9-1.1,2.6-3.7,1.4-5.7l-0.1-0.1l-2.3-4l0,0c4.1-2.4,6-7.5,3.6-11.6l-0.2-0.4
		C836.4,88.3,838,59.2,831.4,61.5z M754.5,41.6c4.1-2.4,12.8,1.4,16,7c3.2,5.6,2.5,12.1-1.6,14.5c-4.1,2.4-10.1-0.2-13.3-5.9
		C752.3,51.6,750.4,44,754.5,41.6z M759.7,64.4c0.8-0.5,2.3,0.5,3.2,2.1c0.9,1.6,1.1,3.4,0.2,3.8c-0.8,0.5-2.3-0.5-3.2-2.1
		C759,66.6,758.9,64.9,759.7,64.4z M753,68.3c0.8-0.5,2.3,0.5,3.2,2.1c0.9,1.6,1.1,3.4,0.2,3.8c-0.8,0.5-2.3-0.5-3.2-2.1
		C752.3,70.5,752.2,68.8,753,68.3z M735.1,52.8c4.1-2.4,9.8,3.1,13,8.8c3.2,5.6,2.5,12.1-1.6,14.5c-4.1,2.4-10.1-0.2-13.3-5.9
		C730,64.5,731,55.2,735.1,52.8z M783,60.7c-0.7,1.5-1.7,3.1-3,4.6c0.6,1.1,4.1,7.5,2.8,8.7c-1.3,1.2-6.8-2-8.5-3.1
		c-6.6,5.6-15.5,10.8-23.7,13.6c0.1,1.9,0.1,8.4-1.6,8.9c-1.8,0.6-5.7-6-6.2-6.9c-1.4,0.2-2.8,0.3-4,0.3c-0.5,0-0.9,0-1.3,0
		c-0.5,0-0.8-0.4-0.8-0.9c0-0.5,0.4-0.8,0.9-0.8c12.8,1,38.6-14,43.9-25.3c0.2-0.4,0.7-0.6,1.1-0.4C783,59.8,783.2,60.3,783,60.7z"
		/>
	<path fill-rule="evenodd" clip-rule="evenodd" fill="#1ABC9C" d="M743.7,71.2c3.1-1.8,4.1-5.7,2.4-8.8c-1.8-3.1-5.7-4.1-8.8-2.4
		c-3.1,1.8-4.1,5.7-2.4,8.8C736.7,71.9,740.7,72.9,743.7,71.2z M739.6,60.9c0.2-0.8,1.3-1.2,2.5-0.9c1.1,0.3,1.9,1.2,1.7,2
		c-0.2,0.8-1.3,1.2-2.5,0.9C740.1,62.6,739.3,61.7,739.6,60.9z"/>
	<path fill-rule="evenodd" clip-rule="evenodd" fill="#1ABC9C" d="M766.1,58.2c3.1-1.8,4.1-5.7,2.4-8.8c-1.8-3.1-5.7-4.1-8.8-2.4
		c-3.1,1.8-4.1,5.7-2.4,8.8C759.1,59,763,60,766.1,58.2z M761.9,48c0.2-0.8,1.3-1.2,2.5-0.9c1.1,0.3,1.9,1.2,1.7,2
		c-0.2,0.8-1.3,1.2-2.5,0.9C762.5,49.7,761.7,48.8,761.9,48z"/>
</g>
<g>
	<path fill-rule="evenodd" clip-rule="evenodd" fill="#2980B9" d="M1313.6,352.9c-6.6,2.3-7.1,21.8-28.7,16.3l-12.3-21.3
		c2.2,1.8,8.4,5.5,9.7,3.2c2-3.7-6.2-14-4.8-16.7c1.6-3,10.8,5.6,12.4,2.2c1.7-3.5-7.6-12.3-5.6-15.5c1.6-2.7,10,6.1,11.4,3
		c2-4.8-16.4-30.5-27.9-24c-6.1,3.4-8.6,12.6-9,23.9l-3.8-6.6c-2.4-4.1-8-5.6-12.2-3.2l-3.4,1.9c0,0-6.2-6.3-8-5.3
		c-1.9,1.1,0.6,9.6,0.6,9.6l-3.7,2.2c0,0-12.5-12.7-16.1-10.6c-3.8,2.2,1.2,19.2,1.2,19.2l-3.7,2.2c0,0-6.2-6.3-8-5.3
		c-1.9,1.1,0.6,9.6,0.6,9.6l-4.1,2.4c-4.1,2.4-5.2,7.8-2.9,11.9l3.7,6.5c-10-5.3-19.3-7.5-25.3-3.9c-11.3,6.7,1.5,35.7,6.7,36.3
		c3.4,0.4,0-11.3,3.1-11.3c3.8-0.1,6.7,12.4,10.6,12.6c3.8,0.3,0.9-12,4.3-11.9c3,0.1,8,12.3,12.2,12.4c2.6,0.1,2.9-7.1,2.4-9.9
		l25.3,43.9c2.4,4.1,7.8,5.5,12.1,3l2.2,3.7c0,0,0.1,0.1,0.1,0.1c1.1,2,3.2,2.7,5.2,1.6c0.1,0,0.1-0.1,0.1-0.1l7.3-4.2
		c0,0,0.1-0.1,0.1-0.1c1.9-1.1,3-3.7,1.9-5.7l-0.1-0.1l-2.4-4.2l14.7-8.5l2.4,4.2c0,0.1,0.1,0.1,0.1,0.1c1.1,2,3.6,2.5,5.6,1.3
		c0,0,0.1-0.1,0.1-0.1l7.3-4.2c0,0,0.1-0.1,0.1-0.1c1.9-1.1,2.7-3.5,1.5-5.4l-0.1-0.1l-2.4-4.2l0.1,0c4.1-2.4,6.1-7.3,3.7-11.4
		l-0.2-0.4C1318.6,379.6,1320.2,350.5,1313.6,352.9z M1236.7,332.9c4.1-2.4,12.8,1.4,16,7c3.2,5.6,2.5,12.1-1.6,14.5
		c-4.1,2.4-10.1-0.2-13.3-5.9C1234.5,342.9,1232.6,335.3,1236.7,332.9z M1241.9,355.7c0.8-0.5,2.3,0.5,3.2,2.1
		c0.9,1.6,1.1,3.4,0.2,3.8c-0.8,0.5-2.3-0.5-3.2-2.1C1241.2,357.9,1241.1,356.2,1241.9,355.7z M1235.2,359.6
		c0.8-0.5,2.3,0.5,3.2,2.1c0.9,1.6,1.1,3.4,0.2,3.8c-0.8,0.5-2.3-0.5-3.2-2.1C1234.5,361.8,1234.4,360.1,1235.2,359.6z
		 M1217.3,344.1c4.1-2.4,9.8,3.1,13,8.8c3.2,5.6,2.5,12.1-1.6,14.5c-4.1,2.4-10.1-0.2-13.3-5.9
		C1212.2,355.8,1213.2,346.5,1217.3,344.1z M1265.2,352c-0.7,1.5-1.7,3.1-3,4.6c0.6,1.1,4.1,7.5,2.8,8.7c-1.3,1.2-6.8-2-8.5-3.1
		c-6.6,5.6-15.5,10.8-23.7,13.6c0.1,1.9,0.1,8.4-1.6,8.9c-1.8,0.6-5.7-6-6.2-6.9c-1.4,0.2-2.8,0.3-4,0.3c-0.5,0-0.9,0-1.3,0
		c-0.5,0-0.8-0.4-0.8-0.9c0-0.5,0.4-0.8,0.9-0.8c12.8,1,38.6-14,43.9-25.3c0.2-0.4,0.7-0.6,1.1-0.4
		C1265.2,351.1,1265.4,351.6,1265.2,352z"/>
	<path fill-rule="evenodd" clip-rule="evenodd" fill="#2980B9" d="M1225.9,362.5c3.1-1.8,4.1-5.7,2.4-8.8c-1.8-3.1-5.7-4.1-8.8-2.4
		c-3.1,1.8-4.1,5.7-2.4,8.8C1218.9,363.2,1222.9,364.2,1225.9,362.5z M1221.8,352.2c0.2-0.8,1.3-1.2,2.5-0.9c1.1,0.3,1.9,1.2,1.7,2
		c-0.2,0.8-1.3,1.2-2.5,0.9C1222.3,353.9,1221.5,353,1221.8,352.2z"/>
	<path fill-rule="evenodd" clip-rule="evenodd" fill="#2980B9" d="M1248.3,349.5c3.1-1.8,4.1-5.7,2.4-8.8c-1.8-3.1-5.7-4.1-8.8-2.4
		c-3.1,1.8-4.1,5.7-2.4,8.8C1241.3,350.3,1245.2,351.3,1248.3,349.5z M1244.1,339.3c0.2-0.8,1.3-1.2,2.5-0.9c1.1,0.3,1.9,1.2,1.7,2
		c-0.2,0.8-1.3,1.2-2.5,0.9C1244.7,341,1243.9,340.1,1244.1,339.3z"/>
</g>
<g>
	<path fill-rule="evenodd" clip-rule="evenodd" fill="#C0392B" d="M285.8,411.5c-6.6,2.3-7.1,21.8-28.7,16.3l-12.3-21.3
		c2.2,1.8,8.4,5.6,9.6,3.2c2-3.7-6.2-14-4.8-16.6c1.6-3,10.7,5.6,12.4,2.2c1.7-3.5-7.6-12.3-5.6-15.5c1.6-2.7,10,6.1,11.4,3
		c2-4.8-16.4-30.6-27.9-24.1c-6.1,3.4-8.5,12.5-8.9,23.9l-3.8-6.6c-2.4-4.1-8.3-5.6-12.4-3.3l-3.4,1.9c0,0-6.2-6.3-8-5.3
		c-1.9,1.1,0.6,9.6,0.6,9.6l-3.7,2.2c0,0-12.5-12.7-16.1-10.6c-3.8,2.2,1.2,19.2,1.2,19.2l-3.7,2.2c0,0-6.2-6.3-8-5.3
		c-1.9,1.1,0.6,9.6,0.6,9.6l-4.1,2.4c-4.1,2.4-5,7.8-2.6,11.9l3.7,6.5c-10-5.3-19.4-7.5-25.4-3.9c-11.3,6.7,1.5,35.7,6.6,36.3
		c3.4,0.4,0-11.2,3.1-11.3c3.8-0.1,6.7,12.4,10.6,12.6c3.8,0.3,0.9-12,4.3-11.9c3,0.1,8.1,12.2,12.3,12.3c2.6,0.1,2.9-7.1,2.4-10
		l25.3,43.9c2.4,4.1,7.8,5.5,12.1,3l2.2,3.7c0,0,0.1,0.1,0.1,0.1c1.1,2,3,2.7,5,1.5c0.1,0,0.1-0.1,0.1-0.1l7.3-4.2
		c0,0,0.1-0.1,0.1-0.1c1.9-1.1,3.3-3.7,2.1-5.6l-0.1-0.1l-2.5-4.4l14.7-8.5l2.5,4.4c0,0.1,0.1,0.1,0.1,0.1c1.1,2,3.3,2.5,5.4,1.3
		c0,0,0.1-0.1,0.1-0.1l7.3-4.2c0,0,0.1-0.1,0.1-0.1c1.9-1.1,2.9-3.5,1.8-5.4l-0.1-0.1l-2.5-4.4l-0.1,0c4.1-2.4,6.3-7.3,3.9-11.4
		l-0.2-0.4C290.8,438.2,292.5,409.1,285.8,411.5z M208.8,391.6c4.1-2.4,12.8,1.4,16,7c3.2,5.6,2.5,12.1-1.6,14.5
		c-4.1,2.4-10.1-0.2-13.3-5.9C206.6,401.6,204.7,393.9,208.8,391.6z M214,414.4c0.8-0.5,2.3,0.5,3.2,2.1c0.9,1.6,1.1,3.4,0.2,3.8
		c-0.8,0.5-2.3-0.5-3.2-2.1C213.3,416.6,213.2,414.9,214,414.4z M207.3,418.3c0.8-0.5,2.3,0.5,3.2,2.1c0.9,1.6,1.1,3.4,0.2,3.8
		c-0.8,0.5-2.3-0.5-3.2-2.1C206.6,420.5,206.5,418.7,207.3,418.3z M189.4,402.8c4.1-2.4,9.8,3.1,13,8.8c3.2,5.6,2.5,12.1-1.6,14.5
		c-4.1,2.4-10.1-0.2-13.3-5.9C184.3,414.5,185.3,405.1,189.4,402.8z M237.3,410.7c-0.7,1.5-1.7,3.1-3,4.6c0.6,1.1,4.1,7.5,2.8,8.7
		c-1.3,1.2-6.8-2-8.5-3.1c-6.6,5.6-15.5,10.8-23.7,13.6c0.1,1.9,0.1,8.4-1.6,8.9c-1.8,0.6-5.7-6-6.2-6.9c-1.4,0.2-2.8,0.3-4,0.3
		c-0.5,0-0.9,0-1.3,0c-0.5,0-0.8-0.4-0.8-0.9c0-0.5,0.4-0.8,0.9-0.8c12.8,1,38.6-14,43.9-25.3c0.2-0.4,0.7-0.6,1.1-0.4
		C237.3,409.8,237.5,410.3,237.3,410.7z"/>
	<path fill-rule="evenodd" clip-rule="evenodd" fill="#C0392B" d="M198,421.1c3.1-1.8,4.1-5.7,2.4-8.8c-1.8-3.1-5.7-4.1-8.8-2.4
		c-3.1,1.8-4.1,5.7-2.4,8.8C191,421.9,194.9,422.9,198,421.1z M193.8,410.9c0.2-0.8,1.3-1.2,2.5-0.9c1.1,0.3,1.9,1.2,1.7,2
		c-0.2,0.8-1.3,1.2-2.5,0.9C194.4,412.6,193.6,411.7,193.8,410.9z"/>
	<path fill-rule="evenodd" clip-rule="evenodd" fill="#C0392B" d="M220.4,408.2c3.1-1.8,4.1-5.7,2.4-8.8c-1.8-3.1-5.7-4.1-8.8-2.4
		c-3.1,1.8-4.1,5.7-2.4,8.8C213.4,408.9,217.3,410,220.4,408.2z M216.2,398c0.2-0.8,1.3-1.2,2.5-0.9c1.1,0.3,1.9,1.2,1.7,2
		c-0.2,0.8-1.3,1.2-2.5,0.9C216.8,399.7,216,398.8,216.2,398z"/>
</g>
<g>
	<path fill-rule="evenodd" clip-rule="evenodd" fill="#E67E22" d="M597.9,282.9c-4.9,1.7-5.1,16.1-21.3,12.1l-9.1-15.8
		c1.8,1.2,6.4,4,7.3,2.3c1.5-2.7-4.5-10.4-3.5-12.4c1.2-2.2,8,4.2,9.2,1.6c1.3-2.6-5.6-9.1-4.2-11.5c1.2-2,7.4,4.5,8.4,2.2
		c1.5-3.5-12.3-22.5-20.8-17.8c-4.5,2.6-6,9.1-6.8,17.8l-2.8-4.9c-1.8-3.1-5.6-4.1-8.7-2.3l-2.5,1.4c0,0-4.6-4.7-6-3.9
		c-1.4,0.8,0.4,7.1,0.4,7.1l-2.8,1.6c0,0-9.2-9.4-11.9-7.9c-2.8,1.6,0.9,14.2,0.9,14.2l-2.8,1.6c0,0-4.6-4.7-6-3.9
		c-1.4,0.8,0.4,7.1,0.4,7.1l-3,1.8c-3.1,1.8-4.1,5.6-2.3,8.7l2.8,4.8c-7-4.1-14.2-5.6-18.7-3c-8.4,5,1.1,26.4,5,26.9
		c2.5,0.3,0-8.4,2.3-8.4c2.8-0.1,5,9.2,7.9,9.4c2.8,0.2,0.7-8.9,3.2-8.8c2.2,0.1,5.9,9.1,9,9.2c1.9,0.1,1.8-5.1,1.7-7.3l18.8,32.5
		c1.8,3.1,5.8,4,9.3,2l1.6,2.8c0,0,0,0.1,0.1,0.1c0.9,1.5,2.3,2.3,3.8,1.4c0,0,0.1,0,0.1-0.1l5.4-3.1c0,0,0.1,0,0.1-0.1
		c1.4-0.8,1.8-2.8,1-4.2l-0.1-0.1l-1.9-3.2l11.3-6.5l1.9,3.2c0,0,0,0.1,0.1,0.1c0.9,1.5,2.7,2,4.2,1.2c0,0,0.1,0,0.1-0.1l5.4-3.1
		c0,0,0.1,0,0.1-0.1c1.4-0.8,2.2-3,1.4-4.4l-0.1-0.1l-1.9-3.2l-0.3,0.2c3.1-1.8,4.4-5.2,2.6-8.2l-0.2-0.3
		C601.8,302.5,602.8,281.1,597.9,282.9z M541.1,267.9c3.1-1.8,9.4,1.1,11.9,5.2c2.4,4.2,1.9,9-1.2,10.7c-3.1,1.8-7.5-0.2-9.9-4.3
		C539.5,275.4,538.1,269.7,541.1,267.9z M545,284.8c0.6-0.4,1.7,0.4,2.4,1.6c0.7,1.2,0.8,2.5,0.2,2.8c-0.6,0.4-1.7-0.4-2.4-1.6
		C544.5,286.5,544.4,285.2,545,284.8z M540,287.7c0.6-0.4,1.7,0.4,2.4,1.6c0.7,1.2,0.8,2.5,0.2,2.8c-0.6,0.4-1.7-0.4-2.4-1.6
		C539.5,289.3,539.4,288.1,540,287.7z M526.7,276.2c3-1.8,7.2,2.3,9.6,6.5c2.4,4.2,1.9,9-1.2,10.7c-3.1,1.8-7.5-0.2-9.9-4.3
		C522.9,284.9,523.7,278,526.7,276.2z M562.3,282.1c-0.5,1.1-1.3,2.3-2.2,3.4c0.5,0.9,3.1,5.6,2.1,6.5c-1,0.9-5-1.5-6.3-2.3
		c-4.9,4.2-11.5,8-17.6,10.1c0,1.4,0.1,6.2-1.2,6.6c-1.3,0.4-4.2-4.4-4.6-5.1c-1,0.2-2,0.3-3,0.3c-0.3,0-0.7,0-1,0
		c-0.4,0-0.6-0.3-0.6-0.7c0-0.4,0.3-0.6,0.7-0.6c9.5,0.7,28.6-10.3,32.5-18.8c0.1-0.3,0.5-0.5,0.8-0.3
		C562.3,281.4,562.4,281.8,562.3,282.1z"/>
	<path fill-rule="evenodd" clip-rule="evenodd" fill="#E67E22" d="M533.1,289.8c2.3-1.3,3.1-4.2,1.8-6.5c-1.3-2.3-4.2-3.1-6.5-1.8
		c-2.3,1.3-3.1,4.2-1.8,6.5C527.9,290.4,530.9,291.2,533.1,289.8z M530,282.2c0.2-0.6,1-0.9,1.8-0.7c0.8,0.2,1.4,0.9,1.2,1.5
		c-0.2,0.6-1,0.9-1.8,0.7C530.4,283.5,529.9,282.8,530,282.2z"/>
	<path fill-rule="evenodd" clip-rule="evenodd" fill="#E67E22" d="M549.7,280.3c2.3-1.3,3.1-4.2,1.8-6.5c-1.3-2.3-4.2-3.1-6.5-1.8
		c-2.3,1.3-3.1,4.2-1.8,6.5C544.5,280.8,547.4,281.6,549.7,280.3z M546.6,272.7c0.2-0.6,1-0.9,1.8-0.7c0.8,0.2,1.4,0.9,1.2,1.5
		c-0.2,0.6-1,0.9-1.8,0.7C547,273.9,546.5,273.3,546.6,272.7z"/>
</g>
<g>
	<path fill-rule="evenodd" clip-rule="evenodd" fill="#2ECC71" d="M670.6,157.6c-4.9,1.7-5.1,16.1-21.3,12.1l-9.1-15.8
		c1.8,1.2,6.5,3.9,7.4,2.2c1.5-2.7-4.5-10.5-3.4-12.4c1.2-2.2,8,4.1,9.3,1.6c1.3-2.6-5.6-9.1-4.1-11.5c1.2-2,7.5,4.5,8.4,2.2
		c1.5-3.5-12.4-22.5-20.9-17.7c-4.5,2.6-6.1,9.2-6.9,17.8l-2.8-4.9c-1.8-3.1-5.4-4.3-8.4-2.5l-2.5,1.4c0,0-4.6-4.7-6-3.9
		c-1.4,0.8,0.4,7.1,0.4,7.1l-2.8,1.6c0,0-9.2-9.4-11.9-7.9c-2.8,1.6,0.9,14.2,0.9,14.2l-2.8,1.6c0,0-4.6-4.7-6-3.9
		c-1.4,0.8,0.4,7.1,0.4,7.1l-3,1.8c-3.1,1.8-4.3,5.8-2.6,8.9l2.8,4.8c-7-4.1-14.1-5.7-18.6-3c-8.4,5,1.2,26.4,5,26.9
		c2.5,0.3,0-8.4,2.3-8.4c2.8-0.1,5,9.1,7.9,9.3c2.8,0.2,0.7-8.9,3.2-8.8c2.2,0.1,5.8,9.2,8.9,9.3c1.9,0.1,1.7-5,1.6-7.3l18.8,32.5
		c1.8,3.1,5.8,4,9.3,2l1.6,2.8c0,0,0,0.1,0.1,0.1c0.9,1.5,2.5,2.1,4,1.3c0,0,0.1,0,0.1-0.1l5.4-3.1c0,0,0.1,0,0.1-0.1
		c1.4-0.8,1.6-2.6,0.7-4l-0.1-0.1l-1.9-3.3l11.3-6.5l1.9,3.3c0,0,0,0.1,0.1,0.1c0.9,1.5,3,1.9,4.5,1c0,0,0.1,0,0.1-0.1l5.4-3.1
		c0,0,0.1,0,0.1-0.1c1.4-0.8,2-2.8,1.1-4.2l-0.1-0.1l-1.9-3.3l0,0c3.1-1.8,4.1-5,2.3-8.1l-0.2-0.3
		C674.5,177.3,675.5,155.9,670.6,157.6z M614.1,142.6c3.1-1.8,9.4,1.1,11.9,5.2c2.4,4.2,1.9,9-1.2,10.7c-3.1,1.8-7.5-0.2-9.9-4.3
		C612.5,150,611.1,144.3,614.1,142.6z M618,159.5c0.6-0.4,1.7,0.4,2.4,1.6c0.7,1.2,0.8,2.5,0.2,2.8c-0.6,0.4-1.7-0.4-2.4-1.6
		C617.5,161.1,617.4,159.8,618,159.5z M613,162.3c0.6-0.4,1.7,0.4,2.4,1.6c0.7,1.2,0.8,2.5,0.2,2.8c-0.6,0.4-1.7-0.4-2.4-1.6
		C612.5,164,612.4,162.7,613,162.3z M599.8,150.9c3-1.8,7.2,2.3,9.6,6.5c2.4,4.2,1.9,9-1.2,10.7c-3.1,1.8-7.5-0.2-9.9-4.3
		C595.9,159.6,596.7,152.6,599.8,150.9z M635.3,156.7c-0.5,1.1-1.3,2.3-2.2,3.4c0.5,0.9,3.1,5.6,2.1,6.5c-1,0.9-5-1.5-6.3-2.3
		c-4.9,4.2-11.5,8-17.6,10.1c0,1.4,0.1,6.2-1.2,6.6c-1.3,0.4-4.2-4.4-4.6-5.1c-1,0.2-2,0.3-3,0.3c-0.3,0-0.7,0-1,0
		c-0.4,0-0.6-0.3-0.6-0.7c0-0.4,0.3-0.6,0.7-0.6c9.5,0.7,28.6-10.3,32.5-18.8c0.1-0.3,0.5-0.5,0.8-0.3
		C635.3,156,635.4,156.4,635.3,156.7z"/>
	<path fill-rule="evenodd" clip-rule="evenodd" fill="#2ECC71" d="M606.2,164.5c2.3-1.3,3.1-4.2,1.8-6.5c-1.3-2.3-4.2-3.1-6.5-1.8
		c-2.3,1.3-3.1,4.2-1.8,6.5C600.9,165,603.9,165.8,606.2,164.5z M603.1,156.9c0.2-0.6,1-0.9,1.8-0.7c0.8,0.2,1.4,0.9,1.2,1.5
		c-0.2,0.6-1,0.9-1.8,0.7C603.4,158.1,602.9,157.5,603.1,156.9z"/>
	<path fill-rule="evenodd" clip-rule="evenodd" fill="#2ECC71" d="M622.7,154.9c2.3-1.3,3.1-4.2,1.8-6.5c-1.3-2.3-4.2-3.1-6.5-1.8
		c-2.3,1.3-3.1,4.2-1.8,6.5C617.5,155.4,620.4,156.2,622.7,154.9z M619.6,147.3c0.2-0.6,1-0.9,1.8-0.7c0.8,0.2,1.4,0.9,1.2,1.5
		c-0.2,0.6-1,0.9-1.8,0.7C620,148.6,619.5,147.9,619.6,147.3z"/>
</g>
</svg>
