<svg xmlns="http://www.w3.org/2000/svg" viewBox="0 0 240 240" enable-background="new 0 0 240 240"><path fill="#fff" d="M119.5 20C77.35 20 32 32.706 32 60.625v118.75C32 207.28 77.35 220 119.5 220c42.144 0 87.5-12.72 87.5-40.625V60.625C207 32.705 161.638 20 119.5 20zM195 179.375c0 15.525-33.58 28.125-75 28.125-41.425 0-75-12.6-75-28.125v-23.35c12.912 13.306 44.062 20.225 75 20.225s62.088-6.92 75-20.225v23.35zM195 142h-.025s.025.07.025.13c0 15.432-33.58 27.9-75 27.9s-75-12.452-75-27.883c0-.062.025-.147.025-.147H45v-23.475c12.912 13.306 44.062 20.225 75 20.225s62.088-6.92 75-20.225V142zm0-38h-.025s.025.32.025.38c0 15.432-33.58 28.026-75 28.026s-75-12.64-75-28.072c0-.062.025-.334.025-.334H45V82.9c16.38 12.48 46.406 18.35 75 18.35s58.62-5.87 75-18.35V104zm-75-15.25c-41.425 0-75-12.6-75-28.125C45 45.087 78.575 32.5 120 32.5c41.42 0 75 12.587 75 28.125 0 15.525-33.58 28.125-75 28.125z"/></svg>