<?xml version="1.0" encoding="utf-8"?>
<!-- Generator: Adobe Illustrator 18.1.0, SVG Export Plug-In . SVG Version: 6.00 Build 0)  -->
<!DOCTYPE svg PUBLIC "-//W3C//DTD SVG 1.1//EN" "http://www.w3.org/Graphics/SVG/1.1/DTD/svg11.dtd">
<svg version="1.1" id="Layer_1" xmlns="http://www.w3.org/2000/svg" xmlns:xlink="http://www.w3.org/1999/xlink" x="0px" y="0px"
	 viewBox="0 0 841.9 595.3" enable-background="new 0 0 841.9 595.3" xml:space="preserve">
<path fill="#FFFFFF" d="M420.9,7.4c-163.7,0-297.6,133.9-297.6,297.6c0,132.1,85.6,243.7,202.8,282.8c14.9,1.9,20.5-5.6,20.5-14.9
	c0-7.4,0-26,0-50.2c-83.7,18.6-100.5-39.1-100.5-39.1c-13-33.5-33.5-42.8-33.5-42.8c-27.9-18.6,1.9-18.6,1.9-18.6
	C244.2,424.1,261,452,261,452c26,44.6,68.8,31.6,87.4,24.2c1.9-18.6,11.2-31.6,18.6-39.1c-67-7.4-135.8-33.5-135.8-147
	c0-31.6,11.2-59.5,29.8-80c-3.7-7.4-13-37.2,3.7-78.1c0,0,24.2-7.4,81.9,29.8c24.2-7.4,48.4-9.3,74.4-9.3s50.2,3.7,74.4,9.3
	c57.7-39.1,81.9-31.6,81.9-31.6c16.7,40.9,5.6,70.7,3.7,78.1c18.6,20.5,29.8,46.5,29.8,80c0,113.5-68.8,139.5-135.8,147
	c11.2,9.3,20.5,27.9,20.5,55.8c0,39.1,0,72.5,0,81.9c0,7.4,5.6,16.7,20.5,14.9C633,548.8,718.6,437.2,718.6,305.1
	C718.6,141.4,584.6,7.4,420.9,7.4z"/>
</svg>
