<?xml version="1.0" encoding="utf-8"?>
<!-- Generator: Adobe Illustrator 18.1.0, SVG Export Plug-In . SVG Version: 6.00 Build 0)  -->
<!DOCTYPE svg PUBLIC "-//W3C//DTD SVG 1.1//EN" "http://www.w3.org/Graphics/SVG/1.1/DTD/svg11.dtd">
<svg version="1.1" id="Layer_1" xmlns="http://www.w3.org/2000/svg" xmlns:xlink="http://www.w3.org/1999/xlink" x="0px" y="0px"
	 viewBox="0 0 841.9 595.3" enable-background="new 0 0 841.9 595.3" xml:space="preserve">
<path id="path4429" fill="#FFFFFF" d="M440.7,41.8c-93.9,0-144.7,59.4-144.7,125.8c0,50.5,36.2,107.5,110.9,107.5h18.9
	c0,0-5.1,12.5-5.2,24.6c0,17.8,6.4,27.8,20,43.2c-128.5,7.8-180.1,59.7-180.1,115.3c0,48.8,46.7,96.8,144.9,96.8
	c116.2,0,176.4-64.5,176.4-127.8c0-44.6-22.2-69.1-78.5-111.3c-16.6-12.9-19.8-21.1-19.8-30.7c0-13.8,8.3-22.9,11.3-26.4
	c5.3-5.6,14.6-12,18-15.1c18.9-16,45.6-39.7,45.6-87.1c0-32.5-13.5-60.4-44.3-86.6h37.6l28.2-28.2L440.7,41.8L440.7,41.8z
	 M414.8,62.9c17,0,31.3,6,46.3,18.5c16.7,15,43.3,55.4,43.3,105.3c0,53.9-41.9,68.6-64.5,68.6c-11.1,0-24.4-3.1-35.6-10.8
	c-25-16.2-49.8-59.4-49.8-110.7C354.3,87.6,381.9,62.9,414.8,62.9z M451.9,363.4c7.2,0,12.3,0.6,12.3,0.6S481.1,376,493,385
	c27.5,21.7,44.6,38.3,44.6,67.9c0,40.7-37.7,72.6-98.8,72.6c-67.1,0-118.3-31.2-118.3-82.2C320.4,401.1,355.5,364.7,451.9,363.4
	L451.9,363.4z"/>
</svg>
