<svg xmlns="http://www.w3.org/2000/svg" viewBox="0 0 240 240" enable-background="new 0 0 240 240"><path fill="#fff" d="M103.1 61.2V54H137v7.2h-33.9zm0 14.3v-7.2H137v7.2h-33.9zM144.7 133.4l-6.2-3.6 16.9-29.3 6.2 3.6-16.9 29.3zm12.4 7.2l-6.2-3.6 16.9-29.3 6.2 3.6-16.9 29.3zM78.4 104.1l6.2-3.6 16.9 29.3-6.2 3.6-16.9-29.3zM66 111.3l6.2-3.6 17 29.3-6.2 3.6-17-29.3zM43.9 0C22.8 0 .2 6.4.2 20.3v59.4C.2 93.7 22.9 100 44 100c21.1 0 43.8-6.4 43.8-20.3V20.3C87.7 6.4 65 0 43.9 0zm37.8 79.7c0 7.8-16.8 14.1-37.5 14.1S6.7 87.5 6.7 79.7V68c6.5 6.7 22 10.1 37.5 10.1s31-3.5 37.5-10.1v11.7zm0-18.7c-.1 0 0 0 0 0 0 7.8-16.8 14-37.5 14S6.7 68.8 6.7 61.1V49.3c6.5 6.7 22 10.1 37.5 10.1s31-3.5 37.5-10.1V61zm0-19v.2c0 7.7-16.8 14-37.5 14s-37.5-6.3-37.5-14V31.5c8.2 6.2 23.2 9.2 37.5 9.2s29.3-2.9 37.5-9.2V42zm-37.5-7.6c-20.7 0-37.5-6.3-37.5-14.1S23.5 6.2 44.2 6.2s37.5 6.3 37.5 14.1-16.8 14.1-37.5 14.1zM120 140c-21.1 0-43.8 6.4-43.8 20.3v59.4c0 14 22.7 20.3 43.8 20.3 21.1 0 43.8-6.4 43.8-20.3v-59.4c0-13.9-22.7-20.3-43.8-20.3zm37.8 79.7c0 7.8-16.8 14.1-37.5 14.1s-37.5-6.3-37.5-14.1V208c6.5 6.7 22 10.1 37.5 10.1s31-3.5 37.5-10.1v11.7zm0-18.7c0 7.8-16.8 14-37.5 14s-37.5-6.2-37.5-13.9V189.3c6.5 6.7 22 10.1 37.5 10.1s31-3.5 37.5-10.1V201zm0-19v.2c0 7.7-16.8 14-37.5 14s-37.5-6.3-37.5-14V171.4c8.2 6.2 23.2 9.2 37.5 9.2s29.3-2.9 37.5-9.2V182zm-37.5-7.6c-20.7 0-37.5-6.3-37.5-14.1s16.8-14.1 37.5-14.1 37.5 6.3 37.5 14.1-16.8 14.1-37.5 14.1zM196.1 0c-21.1 0-43.8 6.4-43.8 20.3v59.4c0 14 22.7 20.3 43.8 20.3 21.1 0 43.8-6.4 43.8-20.3V20.3C239.8 6.4 217.2 0 196.1 0zm37.7 79.7c0 7.8-16.8 14.1-37.5 14.1s-37.5-6.3-37.5-14.1V68c6.5 6.7 22 10.1 37.5 10.1s31-3.5 37.5-10.1v11.7zm0-18.7c0 7.8-16.8 14-37.5 14s-37.5-6.2-37.5-13.9V49.3c6.5 6.7 22 10.1 37.5 10.1s31-3.5 37.5-10.1V61zm0-19v.2c0 7.7-16.8 14-37.5 14s-37.5-6.3-37.5-14V31.5c8.2 6.2 23.2 9.2 37.5 9.2s29.3-2.9 37.5-9.2V42zm-37.5-7.6c-20.7 0-37.5-6.3-37.5-14.1s16.8-14.1 37.5-14.1 37.5 6.3 37.5 14.1-16.7 14.1-37.5 14.1z"/></svg>