<?xml version="1.0" encoding="utf-8"?>
<!-- Generator: Adobe Illustrator 18.1.1, SVG Export Plug-In . SVG Version: 6.00 Build 0)  -->
<!DOCTYPE svg PUBLIC "-//W3C//DTD SVG 1.1//EN" "http://www.w3.org/Graphics/SVG/1.1/DTD/svg11.dtd">
<svg version="1.1" id="Layer_1" xmlns="http://www.w3.org/2000/svg" xmlns:xlink="http://www.w3.org/1999/xlink" x="0px" y="0px"
	 viewBox="0 0 560 512" enable-background="new 0 0 560 512" height="512" width="560" xml:space="preserve">
<g>
	<path fill="#D3DBE3" d="M241.7,93.4v-30c7.1-1.6,12.5-7.9,12.5-15.5c0-8.8-7.1-15.9-16-15.9c-8.8,0-16,7.1-16,15.9
		c0,6.9,4.5,12.8,10.7,14.9v30.6h-85v123.3h180.4V93.4H241.7z"/>
	<polygon fill="#D3DBE3" points="90,373.2 110.6,373.2 110.6,512 371.2,512 371.2,373.2 391.9,373.2 391.9,512 480,512 480,247.6 
		0,247.6 0.3,512 90,512 	"/>
</g>
<g>
	<path fill="#FFFFFF" d="M208.9,326.6c2.1-1.2,4.3-2.3,6.8-3.4c5-2.1,9.9-3.3,15.2-3.8l5.6,6.5l-2.5,6.6c-5.1,1-9.8,2.8-14.3,5.5
		c-0.4,0.2-0.7,0.4-1,0.6l-0.9-8.6L208.9,326.6z"/>
	<path fill="#FFFFFF" d="M206.4,328.1l9,3.5l0.9,8.5c-4.9,3.6-8.6,8.1-11.3,13.7c-0.3,0.5-0.5,1-0.7,1.5l-6.3-7.7l-10.3,2.2
		c2.5-5.5,6-10.5,10.3-14.8C200.6,332.4,203.4,330.1,206.4,328.1z"/>
	<path fill="#FFFFFF" d="M265.4,388.4c1-1.7,1.8-3.3,2.3-5l9.7,11.7l16.3-3.5c-0.9,2.5-2.1,5.1-3.3,7.5c-3.4,6.5-7.8,12.1-13.2,16.8
		c-5.5,4.8-11.9,8.3-18.8,10.5c-0.1,0.1-0.3,0.1-0.4,0.1l-12.1-10.2l3.2-13.9c0.1,0,0.1-0.1,0.3-0.1
		C256.1,399.7,261.5,394.9,265.4,388.4z"/>
	<path fill="#FFFFFF" d="M285.8,333.5c1,1.4,1.9,2.8,2.8,4.3c3.7,6.3,6.3,12.9,7.7,20.1c1.4,7,1.6,14.2,0.6,21.3
		c-0.5,3.5-1.2,6.8-2.2,10l-16.3,3.5l-9.8-11.8c1.2-4.3,1.2-8.8,0.4-13.6c-1.1-5.6-3.6-10.3-7.3-14.3l17.6-2.1L285.8,333.5z"/>
	<path fill="#FFFFFF" d="M186.6,352.4l10.5-2.2l6.2,7.6c-1.9,5.4-2.3,11.1-1.4,17c0.3,1.7,0.7,3.3,1.1,4.9l-11.1-2.5l-8,9.4
		c-1-4.1-1.4-8.4-1.4-12.8c0-7.2,1.4-14.2,4-21C186.6,352.5,186.6,352.4,186.6,352.4z"/>
	<path fill="#FFFFFF" d="M203.8,382.2c1.6,4.2,3.9,8.1,7,11.6c2.3,2.6,5,4.9,7.9,6.6l-11,6.3l0.6,14.3c-3.7-2.2-7-5-10-8.1
		c-5.1-5.3-9-11.2-11.7-18.1c-0.8-1.9-1.4-3.8-1.9-5.6l8.1-9.7L203.8,382.2z"/>
	<path fill="#FFFFFF" d="M221.1,401.7c2.3,1.2,4.9,2.1,7.6,2.7c6.1,1.4,11.9,1.2,17.6-0.7l-3.2,13.8l11.9,10.1
		c-6,1.6-12.1,2.2-18.3,2c-7.2-0.3-14.2-1.8-21-4.6c-1.8-0.7-3.6-1.6-5.2-2.5l-0.6-14.4L221.1,401.7z"/>
	<path fill="#FFFFFF" d="M284.2,331.3l-6.6,17.4l-18.1,2.1c-0.6-0.5-1-0.9-1.7-1.3c-5.9-4.5-12.6-7.1-20.1-7.9
		c-1.7-0.1-3.4-0.2-5-0.1l6.3-16.1l-13.7-15.6c4.1-0.4,8.2-0.5,12.3-0.4c2.4,0.1,4.9,0.3,7.3,0.6c3.5,0.5,6.8,1.1,10.1,2.1
		c7,2,13.4,5.2,19.2,9.7C278.1,324.6,281.2,327.8,284.2,331.3z"/>
	<g id="Colour_8_">
	</g>
</g>
</svg>
