<svg xmlns="http://www.w3.org/2000/svg" viewBox="0 0 240 240" enable-background="new 0 0 240 240"><path fill="none" stroke="#fff" stroke-width="5" stroke-miterlimit="10" d="M121.1 31.2c-48.8 0-88.4 39.6-88.4 88.4 0 37.9 23.8 70.2 57.3 82.7l20.4-54.3c-11.5-4.3-19.7-15.4-19.7-28.4 0-16.8 13.6-30.4 30.4-30.4 16.8 0 30.4 13.6 30.4 30.4 0 13-8.2 24.1-19.7 28.4l20.4 54.3c33.5-12.6 57.3-44.9 57.3-82.7 0-48.8-39.6-88.4-88.4-88.4z"/><path fill="#fff" d="M207.7 180.6v16.3h-3.4v-16.3h-5.6V178h14.6v2.6h-5.6zM234.5 187.6c0-.1-.1-.6-.2-1.2-.1-.5-.1-1-.2-1.4-.1.4-.2.9-.4 1.3s-.4.9-.6 1.3l-5.5 10.1-5.5-10.3-.6-1.2c-.2-.4-.3-.8-.4-1.2 0 .4 0 .8-.1 1.2-.1.4-.2.9-.3 1.4l-2.3 9.3h-3.1l5-19.8 6.2 12c.1.2.2.5.4.9s.4 1 .7 1.6c.2-.5.5-1.2.9-2.1.1-.2.2-.4.3-.5l6.1-12 5.1 19.8h-3.2l-2.3-9.2z"/></svg>