<?xml version="1.0" encoding="utf-8"?>
<!-- Generator: Adobe Illustrator 18.1.1, SVG Export Plug-In . SVG Version: 6.00 Build 0)  -->
<!DOCTYPE svg PUBLIC "-//W3C//DTD SVG 1.1//EN" "http://www.w3.org/Graphics/SVG/1.1/DTD/svg11.dtd">
<svg version="1.1" xmlns="http://www.w3.org/2000/svg" xmlns:xlink="http://www.w3.org/1999/xlink" x="0px" y="0px"
	 viewBox="0 0 258.1 238.2" enable-background="new 0 0 258.1 238.2" xml:space="preserve">
<g id="Body">
	
		<linearGradient id="SVGID_1_" gradientUnits="userSpaceOnUse" x1="131.9798" y1="218.7553" x2="131.9798" y2="38.997" gradientTransform="matrix(0.866 -0.5 0.5 0.866 -42.9969 82.0325)">
		<stop  offset="0" style="stop-color:#6BA300"/>
		<stop  offset="1" style="stop-color:#8DD900"/>
	</linearGradient>
	<path fill-rule="evenodd" clip-rule="evenodd" fill="url(#SVGID_1_)" d="M51.7,72.1c-7.2,4.1-9.6,13.3-5.5,20.5l75,129.9
		c4.1,7.2,13.3,9.6,20.5,5.5l77.9-45c7.2-4.1,9.6-13.3,5.5-20.5l-75-129.9c-4.1-7.2-13.3-9.6-20.5-5.5L51.7,72.1z"/>
	<path fill-rule="evenodd" clip-rule="evenodd" fill="#6BA300" d="M145.5,234.5c0,0.1,0.1,0.2,0.1,0.3c2.1,3.4,6.6,4.5,10.1,2.5
		c0.1,0,0.2-0.1,0.3-0.1l12.7-7.4c0.1,0,0.2-0.1,0.3-0.1c3.3-2.1,4.5-6.4,2.6-9.8l-0.2-0.3l-3.8-6.5l-6.5,3.8l-13,7.5l-6.5,3.8
		L145.5,234.5z"/>
	<path fill-rule="evenodd" clip-rule="evenodd" fill="#6BA300" d="M197.4,204.5c0.1,0.1,0.1,0.2,0.2,0.3c2.1,3.4,6.6,4.5,10.1,2.5
		c0.1,0,0.2-0.1,0.3-0.1l12.7-7.4c0.1,0,0.2-0.1,0.3-0.1c3.3-2.1,4.5-6.4,2.6-9.8l-0.2-0.3l-3.8-6.5l-6.5,3.8l-13,7.5l-6.5,3.8
		L197.4,204.5z"/>
	<path fill-rule="evenodd" clip-rule="evenodd" fill="#CED900" d="M76.3,23.2c6.3-3.6,28,18.5,28,18.5l-26,15
		C78.3,56.7,69.7,27.1,76.3,23.2z"/>
	<path fill-rule="evenodd" clip-rule="evenodd" fill="#CED900" d="M57.8,51.2c3.1-1.8,14,9.2,14,9.2l-13,7.5
		C58.8,68,54.5,53.1,57.8,51.2z"/>
	<path fill-rule="evenodd" clip-rule="evenodd" fill="#CED900" d="M109.8,21.2c3.1-1.8,14,9.2,14,9.2l-13,7.5
		C110.8,38,106.5,23.1,109.8,21.2z"/>
	<path fill-rule="evenodd" clip-rule="evenodd" fill="#6BA300" d="M179.9,84.1c0,0-22.4-38.7-22.4-38.7
		c-0.1-20.3,4.9-37.4,15.9-43.6c20-11.3,52.4,33.4,48.9,41.7c-2.3,5.5-17-9.8-19.8-5.2c-3.4,5.7,12.8,20.9,9.8,27
		c-2.9,6-18.9-9.1-21.7-3.8c-2.4,4.6,11.7,22.7,8.2,29.1C196,95.8,179.9,84.1,179.9,84.1z"/>
	<path fill-rule="evenodd" clip-rule="evenodd" fill="#6BA300" d="M76,144.1c0,0-22.3-38.7-22.4-38.7C36,95.2,18.8,91,7.9,97.4
		c-19.8,11.7,2.7,62.1,11.7,63.2c5.9,0.7,0-19.6,5.4-19.8c6.6-0.1,11.7,21.5,18.5,22c6.6,0.4,1.6-20.9,7.6-20.7
		c5.2,0.2,13.8,21.5,21.1,21.7C78,164,76,144.1,76,144.1z"/>
	<path fill-rule="evenodd" clip-rule="evenodd" fill="#6BA300" d="M202.3,122.9c36.9,9.9,38.5-24.4,50-28.5
		c11.5-4.1,7.9,47-27.5,67.4C224.8,161.9,202.3,122.9,202.3,122.9z"/>
	
		<linearGradient id="Tummy_1_" gradientUnits="userSpaceOnUse" x1="131.9787" y1="218.7557" x2="131.9787" y2="143.754" gradientTransform="matrix(0.866 -0.5 0.5 0.866 -42.9969 82.0325)">
		<stop  offset="0" style="stop-color:#8CD700;stop-opacity:0"/>
		<stop  offset="1" style="stop-color:#8CD700"/>
	</linearGradient>
	<path id="Tummy" fill-rule="evenodd" clip-rule="evenodd" fill="url(#Tummy_1_)" d="M133.9,214.5l4.1,7.1c2.1,3.6,6.6,4.8,10.2,2.7
		l65-37.5c3.6-2.1,4.8-6.6,2.8-10.2l-4.1-7.1c-14.4-24.9-47.2-41.4-68.7-29C121.7,153,119.6,189.6,133.9,214.5z"/>
	<path id="Tummy_Stripe_1_" opacity="0.25" fill-rule="evenodd" clip-rule="evenodd" fill="#FFFFFF" d="M133.9,214.5l0.3,0.5
		l77.9-45l-0.3-0.5c-2.4-4.2-5.3-8.1-8.6-11.7l-75.1,43.4C129.6,205.8,131.5,210.3,133.9,214.5z"/>
	<path id="Tummy_Stripe" opacity="0.35" fill-rule="evenodd" clip-rule="evenodd" fill="#FFFFFF" d="M191.3,147.4
		c-5-3.5-10.4-6.3-15.8-8.2l-49.7,28.7c-1.1,5.7-1.3,11.7-0.8,17.8L191.3,147.4z"/>
</g>
<g id="Face">
	<path id="Tooth_3_" fill-rule="evenodd" clip-rule="evenodd" fill="#FFFFFF" d="M109.2,150c-3.3,1.1-10.9-12.2-10.9-12.2l13.7-4.4
		C112,133.5,112.7,148.9,109.2,150z"/>
	<path id="Tooth_2_" fill-rule="evenodd" clip-rule="evenodd" fill="#FFFFFF" d="M168.2,116c2.6-2.3-5.1-15.5-5.1-15.5l-10.6,9.7
		C152.5,110.1,165.5,118.4,168.2,116z"/>
	
		<path id="Mouth_1_" fill-rule="evenodd" clip-rule="evenodd" fill="none" stroke="#000000" stroke-width="3" stroke-linecap="round" stroke-linejoin="round" stroke-miterlimit="10" d="
		M89.2,137.1c23.4,1.8,68.6-24.8,77.9-45"/>
	<path id="Nostril_3_" fill-rule="evenodd" clip-rule="evenodd" d="M128.3,105.8c-1.7-2.9-1.8-5.9-0.4-6.7c1.4-0.8,3.9,0.8,5.6,3.7
		c1.7,2.9,1.8,5.9,0.4,6.7C132.5,110.3,130,108.7,128.3,105.8z"/>
	<path id="Nostril_2_" fill-rule="evenodd" clip-rule="evenodd" d="M116.6,112.6c-1.7-2.9-1.8-5.9-0.4-6.7c1.4-0.8,3.9,0.8,5.6,3.7
		c1.7,2.9,1.8,5.9,0.4,6.7C120.8,117.1,118.3,115.4,116.6,112.6z"/>
	<path id="Eye_3_" fill-rule="evenodd" clip-rule="evenodd" fill="#FFFFFF" d="M120.7,86.6c-5.6-9.8-9.1-23.1-1.9-27.3
		s22.2,2.5,27.9,12.3c5.6,9.8,4.4,21.1-2.8,25.2C136.7,100.9,126.3,96.4,120.7,86.6z"/>
	<path id="Eye_2_" fill-rule="evenodd" clip-rule="evenodd" fill="#FFFFFF" d="M107.7,94.1c-5.6-9.8-15.5-19.4-22.7-15.3
		c-7.2,4.1-9,20.5-3.3,30.3c5.6,9.8,16,14.4,23.2,10.2C112.1,115.2,113.3,103.9,107.7,94.1z"/>
	<path id="Pupil_3_" fill-rule="evenodd" clip-rule="evenodd" d="M123.7,84.2c-3.1-5.4-1.3-12.3,4.1-15.4c5.4-3.1,12.3-1.3,15.4,4.1
		c3.1,5.4,1.3,12.3-4.1,15.4C133.7,91.5,126.8,89.6,123.7,84.2z"/>
	<path id="Pupil_2_" fill-rule="evenodd" clip-rule="evenodd" d="M84.7,106.7c-3.1-5.4-1.3-12.3,4.1-15.4c5.4-3.1,12.3-1.3,15.4,4.1
		c3.1,5.4,1.3,12.3-4.1,15.4C94.7,114,87.8,112.1,84.7,106.7z"/>
	<path id="Reflection_3_" fill-rule="evenodd" clip-rule="evenodd" fill="#FFFFFF" d="M95.7,96.5c-2-0.5-3.3-2.1-2.9-3.5
		c0.4-1.4,2.3-2.1,4.3-1.6c2,0.5,3.3,2.1,2.9,3.5C99.6,96.3,97.6,97,95.7,96.5z"/>
	<path id="Reflection_2_" fill-rule="evenodd" clip-rule="evenodd" fill="#FFFFFF" d="M134.6,74c-2-0.5-3.3-2.1-2.9-3.5
		c0.4-1.4,2.3-2.1,4.3-1.6c2,0.5,3.3,2.1,2.9,3.5C138.5,73.8,136.6,74.5,134.6,74z"/>
</g>
<g id="Shadows_1_">
	<path opacity="0.1" fill-rule="evenodd" clip-rule="evenodd" d="M145.5,234.5c0,0.1,0.1,0.2,0.1,0.3c2.1,3.4,6.6,4.5,10.1,2.5
		c0.1,0,0.2-0.1,0.3-0.1l12.7-7.4c0.1,0,0.2-0.1,0.3-0.1c3.3-2.1,4.5-6.4,2.6-9.8l-0.2-0.3l-3.8-6.5l-6.5,3.8l-13,7.5l-6.5,3.8
		L145.5,234.5z"/>
	<path opacity="0.1" fill-rule="evenodd" clip-rule="evenodd" d="M197.4,204.5c0.1,0.1,0.1,0.2,0.2,0.3c2.1,3.4,6.6,4.5,10.1,2.5
		c0.1,0,0.2-0.1,0.3-0.1l12.7-7.4c0.1,0,0.2-0.1,0.3-0.1c3.3-2.1,4.5-6.4,2.6-9.8l-0.2-0.3l-3.8-6.5l-6.5,3.8l-13,7.5l-6.5,3.8
		L197.4,204.5z"/>
	
		<linearGradient id="SVGID_2_" gradientUnits="userSpaceOnUse" x1="130.7809" y1="23.7515" x2="147.7318" y2="23.7515" gradientTransform="matrix(0.866 -0.5 0.5 0.866 -42.9969 82.0325)">
		<stop  offset="0" style="stop-color:#000000;stop-opacity:0"/>
		<stop  offset="1" style="stop-color:#000000"/>
	</linearGradient>
	<path opacity="0.15" fill-rule="evenodd" clip-rule="evenodd" fill="url(#SVGID_2_)" d="M76.3,23.2c-0.6,0.3-1,0.8-1.4,1.5
		c7.4,0.7,22.9,20.7,22.9,20.7l6.5-3.8C104.3,41.7,82.6,19.6,76.3,23.2z"/>
	
		<linearGradient id="SVGID_3_" gradientUnits="userSpaceOnUse" x1="161.5511" y1="31.2519" x2="170.2312" y2="31.2519" gradientTransform="matrix(0.866 -0.5 0.5 0.866 -42.9969 82.0325)">
		<stop  offset="0" style="stop-color:#000000;stop-opacity:0"/>
		<stop  offset="1" style="stop-color:#000000"/>
	</linearGradient>
	<path opacity="0.15" fill-rule="evenodd" clip-rule="evenodd" fill="url(#SVGID_3_)" d="M109.8,21.2c-0.3,0.2-0.6,0.5-0.8,1
		c3.7,0.7,10.9,10.5,10.9,10.5l3.9-2.2C123.8,30.5,112.9,19.4,109.8,21.2z"/>
	
		<linearGradient id="SVGID_4_" gradientUnits="userSpaceOnUse" x1="101.5505" y1="31.2512" x2="110.2304" y2="31.2512" gradientTransform="matrix(0.866 -0.5 0.5 0.866 -42.9969 82.0325)">
		<stop  offset="0" style="stop-color:#000000;stop-opacity:0"/>
		<stop  offset="1" style="stop-color:#000000"/>
	</linearGradient>
	<path opacity="0.15" fill-rule="evenodd" clip-rule="evenodd" fill="url(#SVGID_4_)" d="M57.8,51.2c-0.3,0.2-0.6,0.5-0.8,1
		c3.7,0.7,10.9,10.5,10.9,10.5l3.9-2.2C71.8,60.5,61,49.4,57.8,51.2z"/>
	
		<linearGradient id="SVGID_5_" gradientUnits="userSpaceOnUse" x1="221.9813" y1="128.3008" x2="221.9813" y2="66.499" gradientTransform="matrix(0.866 -0.5 0.5 0.866 -42.9969 82.0325)">
		<stop  offset="0" style="stop-color:#000000"/>
		<stop  offset="1" style="stop-color:#000000;stop-opacity:0"/>
	</linearGradient>
	<path opacity="0.15" fill-rule="evenodd" clip-rule="evenodd" fill="url(#SVGID_5_)" d="M179.9,84.1c0,0,16.1,11.7,18.9,6.6
		c3.5-6.4-10.7-24.5-8.2-29.1c2.8-5.3,18.8,9.8,21.7,3.8c3-6.2-13.2-21.4-9.8-27c2.8-4.6,17.5,10.7,19.8,5.2
		c1.8-4.2-5.7-17.9-16.2-28.8c7.7,9.5,6.7,16.8,5.2,20.4c-2.3,5.5-11.1-7.1-14-2.5c-3.4,5.7,6.9,18.2,3.9,24.4
		c-2.9,6-13.1-6.4-15.9-1.1c-2.4,4.6,5.8,20,2.4,26.4c-2,3.8-5.4,1.1-10.2-2L179.9,84.1z"/>
	
		<linearGradient id="SVGID_6_" gradientUnits="userSpaceOnUse" x1="41.9831" y1="129.048" x2="41.9771" y2="65.7264" gradientTransform="matrix(0.866 -0.5 0.5 0.866 -42.9969 82.0325)">
		<stop  offset="0" style="stop-color:#000000"/>
		<stop  offset="1" style="stop-color:#000000;stop-opacity:0"/>
	</linearGradient>
	<path opacity="0.15" fill-rule="evenodd" clip-rule="evenodd" fill="url(#SVGID_6_)" d="M76,144.1c0,0,2.1,19.8-3.8,19.7
		c-7.2-0.2-15.9-21.5-21.1-21.7c-6-0.2-0.9,21.2-7.6,20.7c-6.8-0.5-11.9-22.1-18.5-22c-5.4,0.1,0.5,20.5-5.4,19.8
		C15,160,7,146.7,2.7,132.2c4.4,11.4,11.2,14.2,15,14.7c5.9,0.7-0.6-13.2,4.8-13.3c6.6-0.1,12.3,15.1,19.2,15.6
		c6.6,0.4,1-14.5,7-14.3c5.2,0.2,14.5,15.1,21.7,15.3c4.3,0.1,3.7-4.2,3.4-9.8L76,144.1z"/>
	
		<linearGradient id="SVGID_7_" gradientUnits="userSpaceOnUse" x1="222.1381" y1="203.386" x2="222.1381" y2="158.4853" gradientTransform="matrix(0.866 -0.5 0.5 0.866 -42.9969 82.0325)">
		<stop  offset="0" style="stop-color:#000000"/>
		<stop  offset="1" style="stop-color:#000000;stop-opacity:0"/>
	</linearGradient>
	<path opacity="0.15" fill-rule="evenodd" clip-rule="evenodd" fill="url(#SVGID_7_)" d="M217.2,148.8l7.6,13.1
		c35.4-20.4,39.1-71.5,27.5-67.4c-0.3,0.1-0.6,0.3-0.9,0.4C259.4,108.7,237.4,139.8,217.2,148.8z"/>
</g>
</svg>
