<svg xmlns="http://www.w3.org/2000/svg" viewBox="0 0 240 240" enable-background="new 0 0 240 240"><path fill="#fff" d="M183.55 88.82c.893-.412 1.767-.927 2.513-1.672l4.288-4.288c3.35-3.35 3.35-8.77 0-12.118-3.348-3.35-8.768-3.35-12.117 0l-4.288 4.288c-.437.437-.662.984-.984 1.485-11.886-11.244-27.328-18.772-44.48-20.656.006-.162.096-.31.096-.483v-8.57h8.57c4.712 0 8.57-3.857 8.57-8.57s-3.857-8.57-8.57-8.57H102.86c-4.71 0-8.57 3.857-8.57 8.57s3.858 8.57 8.57 8.57h8.57v8.57c0 .174.085.315.104.49-38.624 4.216-68.68 36.92-68.68 76.656 0 42.61 34.537 77.146 77.147 77.146s77.147-34.537 77.147-77.147c0-16.233-5.04-31.27-13.597-43.697v-.007zM120 192.52c-33.076 0-60-26.917-60-60s26.924-60 60-60 60 26.917 60 60-26.924 60-60 60zM128.57 123.946V106.8c0-4.712-3.857-8.57-8.57-8.57s-8.57 3.857-8.57 8.57v25.715c0 4.712 3.857 8.57 8.57 8.57h25.715c4.712 0 8.57-3.857 8.57-8.57 0-4.712-3.857-8.57-8.57-8.57H128.57zM120 81.09c-28.39 0-51.43 23.042-51.43 51.43s23.04 51.43 51.43 51.43 51.43-23.04 51.43-51.43S148.39 81.09 120 81.09zm0 94.286c-23.632 0-42.86-19.23-42.86-42.86s19.228-42.86 42.86-42.86 42.86 19.228 42.86 42.86-19.228 42.86-42.86 42.86z"/></svg>