<svg xmlns="http://www.w3.org/2000/svg" viewBox="0 0 240 240" enable-background="new 0 0 240 240"><path fill="#fff" d="M116.173 16.18v.047c-.367-.027-.74-.047-1.113-.047-7.365 0-13.33 5.965-13.33 13.33 0 .267.013.527.027.786-7.378.966-14.65 2.813-21.62 5.525-11.5 4.46-22.144 11.245-31.128 19.843-8.992 8.59-16.324 19.002-21.382 30.486-5.072 11.476-7.838 24.026-8.105 36.67-.287 12.644 1.92 25.414 6.565 37.31 4.626 11.905 11.657 22.915 20.562 32.206 8.898 9.298 19.675 16.876 31.566 22.1 11.884 5.24 24.88 8.092 37.95 8.36 13.07.292 26.288-2.007 38.592-6.82 12.31-4.79 23.688-12.07 33.285-21.28 9.604-9.204 17.43-20.348 22.82-32.645 5.413-12.283 8.346-25.726 8.612-39.223.293-13.497-2.086-27.16-7.072-39.864-4.965-12.717-12.49-24.46-22.008-34.365-9.51-9.91-21.022-17.99-33.725-23.548-12.697-5.585-26.58-8.605-40.503-8.87h.006zM80.78 37.36c6.7-2.965 13.784-5.11 21.036-6.41.72 6.684 6.372 11.89 13.25 11.89.38 0 .746-.014 1.113-.048v.047c10.51-.288 21.06 1.492 30.93 5.29 9.872 3.787 19.043 9.58 26.8 16.95 7.766 7.372 14.104 16.303 18.49 26.167 4.4 9.858 6.818 20.628 7.092 31.566.28 10.93-1.58 21.928-5.552 32.205-3.96 10.277-9.998 19.822-17.676 27.887-7.67 8.07-16.976 14.663-27.247 19.215-10.264 4.566-21.48 7.072-32.845 7.345-11.364.28-22.8-1.666-33.485-5.805-10.684-4.126-20.595-10.41-28.966-18.395-8.377-7.978-15.215-17.65-19.934-28.326-4.74-10.665-7.325-22.33-7.598-34.12-.287-11.783 1.753-23.673 6.06-34.757 4.285-11.09 10.823-21.368 19.114-30.046 8.285-8.685 18.322-15.77 29.406-20.655h.013zM61.666 96.674H85c4.904 0 9.284 2.605 12.338 6.675 2.165-4.025 4.86-7.755 7.94-11.08-5.355-5.485-12.44-8.925-20.28-8.925H61.666c-3.685 0-6.665 2.985-6.665 6.665s2.98 6.665 6.665 6.665zm51.233 20.74c3.675-11.046 15.04-20.74 24.324-20.74h12.254l-8.62 8.62c-2.605 2.605-2.605 6.82 0 9.425 1.3 1.3 3.005 1.955 4.715 1.955s3.416-.655 4.716-1.955L175 90.003 150.286 65.29c-2.605-2.606-6.82-2.606-9.425 0-2.604 2.604-2.604 6.82 0 9.424l8.62 8.62h-12.253c-15.16 0-31.404 13.114-36.978 29.86l-3.146 9.404c-4.275 12.84-13.814 20.734-18.764 20.734H61.675c-3.685 0-6.665 2.985-6.665 6.665s2.98 6.665 6.665 6.665H78.34c12.243 0 25.753-12.834 31.418-29.86l3.145-9.4-.005.01zm27.958 7.88c-2.605 2.604-2.605 6.82 0 9.424l8.62 8.62h-15.584c-8.455 0-15.534-5.94-17.94-14.054-1.704 5-4.18 9.995-7.264 14.564 5.905 7.745 14.954 12.82 25.204 12.82h15.584l-8.62 8.62c-2.605 2.604-2.605 6.82 0 9.424 1.3 1.3 3.005 1.956 4.715 1.956s3.416-.655 4.716-1.955L175 149.997l-24.714-24.714c-2.605-2.605-6.82-2.605-9.425 0l-.004.01z"/></svg>