<?xml version="1.0" encoding="utf-8"?>
<!-- Generator: Adobe Illustrator 18.1.0, SVG Export Plug-In . SVG Version: 6.00 Build 0)  -->
<!DOCTYPE svg PUBLIC "-//W3C//DTD SVG 1.1//EN" "http://www.w3.org/Graphics/SVG/1.1/DTD/svg11.dtd">
<svg version="1.1" id="Layer_1" xmlns="http://www.w3.org/2000/svg" xmlns:xlink="http://www.w3.org/1999/xlink" x="0px" y="0px"
	 viewBox="0 0 841.9 595.3" enable-background="new 0 0 841.9 595.3" xml:space="preserve">
<path fill="#FFFFFF" d="M311.2,539.5c-68.8,0-133.9-20.5-187.9-55.8c9.3,1.9,18.6,1.9,29.8,1.9c57.7,0,109.8-18.6,152.5-52.1
	c-53.9-1.9-98.6-37.2-113.5-85.6c7.4,1.9,14.9,1.9,22.3,1.9c11.2,0,22.3-1.9,31.6-3.7c-55.8-11.2-98.6-61.4-98.6-119.1v-1.9
	c16.7,9.3,35.3,14.9,55.8,14.9c-33.5-22.3-53.9-59.5-53.9-102.3c0-22.3,5.6-42.8,16.7-61.4c59.5,74.4,150.7,122.8,251.1,128.4
	c-1.9-9.3-3.7-18.6-3.7-27.9c0-67,53.9-122.8,122.8-122.8c35.3,0,67,14.9,89.3,39.1c27.9-5.6,53.9-14.9,78.1-29.8
	c-9.3,27.9-27.9,52.1-53.9,67c24.2-3.7,48.4-9.3,70.7-18.6c-16.7,24.2-37.2,46.5-61.4,63.2v14.9
	C657.2,353.4,534.4,539.5,311.2,539.5"/>
</svg>
