<svg xmlns="http://www.w3.org/2000/svg" viewBox="0 0 1200 300" enable-background="new 0 0 1200 300"><path fill="#435261" d="M720.9 88.8h-.9c-5.3 0-9.6-4.3-9.6-9.6v-4.3c0-3.1-2.5-5.6-5.6-5.6h-2.1c-3.1 0-5.6 2.5-5.6 5.6v4.3c0 3.1 2.5 5.6 5.6 5.6h2.1c1.5 0 2.9-.6 4-1.6l.9-.9.3.7c.3.9.8 1.8 1.4 2.6l.3.3-.3.3c-1.7 1.7-4.1 2.6-6.6 2.6h-2.1c-5.3 0-9.6-4.3-9.6-9.6v-4.3c0-5.3 4.3-9.6 9.6-9.6h2.1c5.3 0 9.6 4.3 9.6 9.6v4.3c0 3.1 2.5 5.6 5.6 5.6h.9v4zM722.9 88.8h-.9v-3.9h.9c3.1 0 5.6-2.5 5.6-5.6v-4.4c0-5.3 4.3-9.6 9.6-9.6h.9v3.9h-1c-3.1 0-5.6 2.5-5.6 5.6v4.3c.1 5.4-4.2 9.7-9.5 9.7zM749.9 88.8c-5.3 0-9.6-4.3-9.6-9.6V65.4h3.9v13.9c0 3.1 2.5 5.6 5.6 5.6s5.6-2.5 5.6-5.6V65.4h3.9v13.9c0 5.2-4.2 9.4-9.3 9.6l-.1-.1zM620.8 88.9h-2.1c-5.3 0-9.7-4.3-9.7-9.7V58.8h4.1V67c1.6-1.1 3.5-1.7 5.5-1.7h2.1c5.3 0 9.7 4.3 9.7 9.7v4.3c.1 5.3-4.4 9.6-9.6 9.6zm-2.1-19.5c-3 0-5.5 2.5-5.5 5.5v4.3c0 3 2.5 5.5 5.5 5.5h2.1c3 0 5.5-2.5 5.5-5.5v-4.3c0-3-2.5-5.5-5.5-5.5h-2.1zM671.2 88.9h-1c-5.3 0-9.6-4.3-9.6-9.6V59h4.1v6.4h4v4.1h-3.9v9.7c0 3 2.5 5.5 5.5 5.5h1l-.1 4.2zM691.8 88.9h-4.1V75c0-3-2.5-5.5-5.5-5.5s-5.5 2.5-5.5 5.5v13.9h-4.1V59h4.1v8.2c1.6-1.1 3.5-1.7 5.5-1.7 5.3 0 9.5 4.3 9.5 9.6l.1 13.8zM659.8 88.8h-.8c-5.3 0-9.6-4.3-9.6-9.6v-4.3c0-3.1-2.5-5.6-5.6-5.6h-2.1c-3.1 0-5.6 2.5-5.6 5.6v4.3c0 3.1 2.5 5.6 5.6 5.6h2.1c1.5 0 2.9-.6 4-1.6l.9-.9.3.7c.3.9.8 1.8 1.4 2.6l.3.3-.3.3c-1.7 1.7-4.1 2.6-6.6 2.6h-2.1c-5.3 0-9.6-4.3-9.6-9.6v-4.3c0-5.3 4.3-9.6 9.6-9.6h2.1c5.3 0 9.6 4.3 9.6 9.6v4.3c0 3.1 2.5 5.6 5.6 5.6h.9v4h-.1zM769.8 82.6c-.7 0-1.4-.4-1.8-1-1-1.8-1.6-3.8-1.6-5.8 0-6.4 5.2-11.7 11.7-11.7 1.1 0 2 .9 2 2.1 0 1.1-.9 2.1-2.1 2.1-4.2 0-7.6 3.4-7.6 7.6 0 1.3.4 2.6 1 3.8.2.3.3.7.3 1 .2 1.1-.7 1.9-1.9 1.9zM773.9 71.2c-1.2 1.1-2 2.7-2 4.5 0 1.1.3 2.2.8 3.1.3.5.5 1.1.5 1.7 0 1.4-.8 2.5-2 3.1 1.6.5 3.4.3 4.9-.6 1-.6 1.7-1.4 2.3-2.3.3-.5.7-.9 1.3-1.2 1.2-.7 2.6-.6 3.7.2-.4-1.6-1.4-3.1-2.9-4-1-.6-2-.8-3.1-.8-.6 0-1.2-.2-1.7-.5-1.2-.6-1.9-1.9-1.8-3.2zM773 89.4c-4.2 0-8-2.2-10.1-5.8-.6-1-.2-2.2.8-2.8 1-.5 2.3-.2 2.8.7 1.3 2.3 3.9 3.8 6.5 3.8 1.3 0 2.6-.4 3.8-1 1.1-.7 2.1-1.6 2.8-2.8.2-.3.4-.6.8-.7.9-.6 2.3-.2 2.8.8.4.6.4 1.4 0 2-1 1.8-2.5 3.2-4.3 4.3-1.7 1-3.7 1.5-5.9 1.5zM785.7 88c-.4 0-.7-.1-1-.3-1-.6-1.3-1.8-.8-2.8 2.1-3.6.8-8.2-2.8-10.3-1.1-.7-2.4-1-3.8-1-.4 0-.7-.1-1-.3-1-.6-1.3-1.8-.8-2.8.4-.6 1-1 1.8-1 2 0 4.1.5 5.8 1.6 2.7 1.6 4.6 4.1 5.4 7.1.8 3 .4 6.2-1.2 8.8-.3.6-.9 1-1.6 1zM182.1 204.4c0 3.2-2.6 5.8-5.8 5.8s-5.8-2.6-5.8-5.8 2.6-5.8 5.8-5.8 5.8 2.6 5.8 5.8zm-31.2 5.8c3.2 0 5.8-2.6 5.8-5.8s-2.6-5.8-5.8-5.8c-3.2 0-5.8 2.6-5.8 5.8-.1 3.2 2.5 5.8 5.8 5.8zm107.6 17.6v3.9c0 3.7-2.3 7.6-7.5 7.6-5.3 0-7.6-3.8-7.6-7.6v-12.5h15v-9.9h-15v-8.8h-10.5V231c0 10.3 7.1 18.1 18.1 18.1 11 0 18-7.7 18-18.1v-3.3l-10.5.1zm-30.6 4.1H197c1.4 5 5.3 8.1 10.3 8.1 3.5 0 6.9-1.5 8.7-4.8h11.2c-2.4 8.3-9.6 14-19.8 14-11.5 0-21-9.5-21-21.4s9.5-21.6 21-21.6c12 .1 22 9.4 20.5 25.7zm-10.3-8.6c-1.3-4.8-5.3-7.8-10.3-7.8-4.8 0-8.6 3-10.1 7.8h20.4zm-46.6 8.5c0 3.7-2.3 7.6-7.6 7.6-5.2 0-7.5-3.8-7.5-7.6v-3.7h-10.4v3.1c0 10.3 7 18.1 18 18.1s18.1-7.7 18.1-18.1v-17.1H171v17.7zM464.9 65.6h6.3v18.9h-6.3zM463 69.6h-8.8l-5.2 5.2h7.1c-.9 2.1-3 3.5-5.4 3.5-3.3 0-5.9-2.7-5.9-5.9s2.7-5.9 5.9-5.9c1.2 0 2.3.4 3.2.9l4.8-4.8c-2.2-1.8-5-2.9-8-2.9-7 0-12.6 5.7-12.6 12.7S443.8 85 450.7 85c7 0 12.7-5.7 12.7-12.6-.2-1-.2-1.9-.4-2.8"/><path fill="#435261" d="M464.9 60.2h6.3V64h-6.3zM485.3 84.6H480l-.2-.1-7.3-19h6.7l3.5 10.6 3.5-10.6h6.6zM493.9 65.6h6.3v18.9h-6.3zM493.9 60.2h6.3V64h-6.3zM519.5 84.5h-6.2V74c0-2-.8-3-2.4-3-2.1 0-2.5 1.6-2.5 3v10.5h-6.3V65.6h4.3l1.7 1.7c1.4-1.4 2.9-2 4.8-2 4.1 0 6.6 2.8 6.6 7.2v12zM377.3 84.8c-3.3 0-6-1.2-8-3.7l-.4-.4 4.2-4.2.2.3c1.3 1.5 2.5 2.1 3.8 2.1 1.7 0 2.5-1 2.5-3.2V60.1h6.5v15.8c.1 5.7-3.1 8.9-8.8 8.9"/><path fill="#435261" d="M536.5 65.6l-1.6 1.6c-1.5-1.3-3.2-1.9-5.3-1.9-4.2 0-8.5 3.1-8.5 8.9v.1c0 5.9 4.3 8.9 8.5 8.9 2 0 3.6-.6 5-1.8-.3 2.2-1.6 3.7-4.3 3.7-1.6 0-3-.3-4.5-.9l-4.1 4.1.6.3c2.4 1.3 5.2 1.9 8.1 1.9 7.2 0 10.6-3.7 10.6-10.5V65.6h-4.5zm-1.3 8.6c0 2.2-1.7 3.8-4 3.8-2.4 0-4-1.5-4-3.8v-.1c0-2.2 1.7-3.8 4-3.8 2.3.1 4 1.7 4 3.9zM394.8 84.8c-4.1 0-6.6-2.8-6.6-7.2v-12h6.3v10.5c0 2 .8 3 2.4 3 2.1 0 2.5-1.6 2.5-3V65.6h6.3v18.9h-4.3l-1.7-1.7c-1.5 1.3-2.9 2-4.9 2M431.5 84.8c-3.9 0-5.8-1.9-5.8-5.9v-7.8h-2.1v-5.5h2.1v-5.4h6.3v5.4h4.1v5.5H432V78c0 .8.2 1.1 1 1.1s1.5-.2 2.2-.6l.9-.5v5.4l-.3.2c-1.3.8-2.6 1.2-4.3 1.2M417 72.8l-.6-.2c-1.5-.5-2.8-1-2.8-1.6v-.1c0-.6.8-.8 1.5-.8 1 0 2.4.4 3.8 1.2l3.6-3.6-.3-.2c-2-1.4-4.7-2.2-7-2.2-4.2 0-7.1 2.5-7.1 6.2v.1c0 3.7 2.9 5 5.7 5.9.2.1.5.1.7.2 1.5.4 2.8.8 2.8 1.5v.1c0 .8-.9.9-1.8.9-1.5 0-3.3-.7-5-1.8l-3.5 3.5.3.2c2.3 1.8 5.2 2.8 8.1 2.8 4.6 0 7.4-2.4 7.4-6.3v-.1c0-3.7-3.8-5-5.8-5.7"/><path fill="#435261" d="M542.5 66.4h.8v2.2h1v-2.2h.9v-.8h-2.7zM547.8 65.6l-.6 1-.7-1h-1v3h1v-1.5l.5.7h.5l.5-.7v1.5h1v-3zM884.7 67.1h11.5l14.3-15.6h-11.3zM953.8 72.6c2.9-2.5 4.1-6.6 4.1-9.2 0-1.9-.8-11.8-16.4-11.8h-18.7v45.1h20.6c2.6 0 7.8-.3 10.8-2.9 4.1-3.7 4.9-7.4 4.9-9.6-.1-5.7-2.6-9.3-5.3-11.6zM932 59.3h11.2c3 0 5.6 1.1 5.6 5.1 0 3.7-2.3 5.2-6.4 5.2H932V59.3zm11 29.6h-10.8V77.4h12.6c1.9 0 5.3 0 5.3 5.2-.1 6.3-4.1 6.3-7.1 6.3zM999.8 72.6c3.3-2.5 4.1-6.6 4.1-9.2 0-1.9-.8-11.8-16.4-11.8h-18.7v45.1h20.6c2.6 0 7.8-.3 10.7-2.9 4.2-3.7 4.9-7.4 4.9-9.6 0-5.7-2.8-9.3-5.2-11.6zM978 59.3h11.2c3 0 5.6 1.1 5.6 5.1 0 3.7-2.2 5.2-6.3 5.2H978V59.3zm10.9 29.6h-10.8V77.4h12.7c1.8 0 5.3 0 5.3 5.2-.1 6.3-4.2 6.3-7.2 6.3zM896.7 51.1c-2.4-.7-4.8-1.1-7.4-1.1-13.5 0-24.3 10.7-24.3 24.2 0 12.9 10.9 23.8 24.3 23.8 13.1 0 24-10.9 24-23.8 0-6.2-2.2-11.7-6-16l-6.4 6.8c2 2.5 3.2 5.7 3.2 9.1 0 7.8-6.8 14.5-14.7 14.5-8.3 0-15-6.7-15-14.5 0-8.2 6.7-14.8 15-14.8l7.3-8.2z"/><g fill="#435261"><path d="M672.7 213.1c-3.8 0-6.9 2.6-7.8 6.1v.1h15.7c-.9-3.7-4.1-6.2-7.9-6.2zM706 213.1c-4.4 0-8 3.6-8 8s3.6 8 8 8 8-3.6 8-8c0-4.5-3.6-8-8-8zm0 10.7c-1.5 0-2.8-1.2-2.8-2.8s1.2-2.8 2.8-2.8c1.5 0 2.8 1.2 2.8 2.8 0 1.6-1.3 2.8-2.8 2.8zM678.7 171.4c-27.5 0-49.8 22.3-49.8 49.8s22.3 49.8 49.8 49.8 49.8-22.3 49.8-49.8-22.3-49.8-49.8-49.8zm-18.5 60.7c-.4 0-.8-.2-1.1-.5l-8.5-8.5-8.5 8.5c-.3.3-.7.4-1.1.4-.8 0-1.5-.7-1.5-1.5 0-.4.2-.8.5-1.1l8.5-8.5-8.5-8.5c-.3-.3-.5-.7-.5-1.1 0-.8.7-1.5 1.5-1.5.4 0 .8.2 1.1.4l8.5 8.5 8.5-8.5c.3-.3.7-.5 1.1-.5.8 0 1.5.7 1.5 1.5 0 .4-.2.8-.4 1.1l-8.5 8.5 8.5 8.5c.3.3.4.7.4 1.1 0 1-.7 1.7-1.5 1.7zm20.3-9.9h-15.9v.2c.1.4.2.9.3 1.3.8 2.2 3.2 5.3 7.6 5.3 1.4 0 2.6-.3 3.7-.9.9-.5 1.6-1.1 2.2-1.8.2-.2.4-.5.5-.7.7-1 1.7-.8 2.2-.3.7.5.8 1.6.2 2.3v.1c-.9 1.1-1.8 2-2.9 2.7-1 .7-2.2 1.1-3.3 1.4-1.4.3-2.7.4-4 .3-4.5-.6-8.3-3.9-9.5-8.3-.2-.9-.3-1.8-.3-2.7 0-3.6 1.7-7 4.7-9.2 3.7-2.6 8.6-2.7 12.4-.3 2.6 1.6 4.3 4.2 4.9 7.3.6 1.7-.5 3.3-2.8 3.3zm12.9-9.1c-3.3.4-3.7 2-3.7 5.8v11.6c0 .8-.7 1.5-1.5 1.5s-1.5-.7-1.5-1.5v-18.8c0-.8.7-1.5 1.5-1.5.7 0 1.3.5 1.5 1.2 1.1-.9 2.5-1.3 3.9-1.3h.5c.8 0 1.5.7 1.5 1.5s-.6 1.5-1.5 1.5h-.7zm12.6 19.1c-6.2 0-11.2-5-11.2-11.2s5-11.2 11.2-11.2 11.2 5 11.2 11.2-5.2 11.2-11.2 11.2z"/></g><path fill="#435261" d="M844.5 236.6c3.2 0 6.2-.5 8.8-1.4.7-.2 1.3-.5 1.9-.8-.8 1.8-1.8 3.3-3.2 4.4-2.8 2.1-6.1 3.5-9.7 4 .9-1.6 1.6-3.7 2.2-6.2m-15 4.2c-.1 0-.1-.1-.2-.1-1.2-.6-1.7-3.4-1.1-7.6 2.4 1.1 5 1.9 7.7 2.5 2.1.4 4.1.7 6.2.8-1 4.3-2.2 6.6-3.1 6.6h-.2c-3.3-.1-6.4-.8-9.3-2.2M818 227.1c-.2-.7-.3-1.5-.4-2.2.8 1.1 1.7 2.1 2.7 3.1 1.6 1.5 3.6 2.9 5.7 4-.4 2.5-.6 4.7-.3 6.5-3.5-2.7-6.3-6.7-7.7-11.4m27.9-6v-2.6c2.8-.2 5.4-.9 7.5-2.1 1.9 3.9 3 7.9 3 11.8 0 1.1-.1 2.2-.3 3.2-1 .6-2.2 1.1-3.5 1.6-2.3.8-4.9 1.2-7.7 1.3.6-4.1 1-8.7 1-13.2m-9.4 12.3c-2.8-.6-5.4-1.5-7.8-2.6.8-3.5 2.2-7.8 4.5-12.5.3-.7.7-1.4 1-2 1.6.7 3.4 1.3 5.2 1.7 1.4.3 2.8.5 4.1.5v2.6c0 5.3-.4 9.7-1 13.1-2-.1-4-.4-6-.8m-14.5-7c-1.9-1.8-3.2-3.6-3.9-5.5.5-2.1 1.5-4.1 3-6.1 1.4-1.9 3.2-3.6 5.2-5 .6 1.1 1.4 2.1 2.5 3.1 1 .9 2.2 1.8 3.4 2.5-.4.7-.7 1.4-1 2-2 4.1-3.6 8.4-4.6 12.4-1.7-1-3.4-2.2-4.6-3.4m22.4-20.8c2.6 1.9 4.9 4.3 6.8 7.2.4.5.7 1.1 1.1 1.6-1.8 1-4.1 1.6-6.5 1.8-.3-3.8-.8-7.4-1.4-10.6m-4.5 10.2c-1.6-.4-3.2-.8-4.6-1.5 2.1-3.7 4.4-6.8 6.6-9.2.7 2.8 1.3 6.5 1.5 11.1-1.2 0-2.4-.1-3.5-.4m-9.5-4.7c-.9-.9-1.6-1.8-2.1-2.7 2.1-1.3 4.4-2.3 6.9-3 1.5-.4 3-.8 4.5-1-2.2 2.4-4.3 5.5-6.3 8.9-1.2-.5-2.2-1.2-3-2.2m-4.9-7c0 .1-.1.2-.1.4-.2 1.1-.2 2.1.1 3.2-2.4 1.7-4.5 3.6-6.2 5.8-.5.7-1 1.4-1.4 2 1.3-4.6 4-8.6 7.6-11.4m2 .7c.3-1.2.9-2.2 2-3.1 2.6-.8 5.6-.6 8.9.6-1.3.2-2.7.5-4 .9-2.5.8-4.8 1.8-6.9 3v-1.4m18.3-2.9c.8-.5 1.5-.8 2.1-1 1.1.4 2.2 1 3.3 1.8-1.7-.5-3.5-.6-5.4-.8m-3.8-2.3c.9.1 1.9.3 2.9.5-.6.3-1.3.8-1.9 1.3-.3-.8-.6-1.3-1-1.8m-2.5.8c-1-.4-2-.7-3-.9.8-.1 1.6-.1 2.4-.1.4 0 .8.5 1.3 1.3-.2-.1-.3-.1-.7-.3M815 221.1c0 2.3.3 4.5.9 6.6 0 .1.1.3.1.4v.1c3 9.8 12.2 17 23 17 5 0 9.6-1.5 13.5-4.1 0 0 .1 0 .1-.1.2-.2.4-.3.7-.5 4.4-3.3 7.7-8 9.1-13.5.1-.3.1-.5.2-.8v-.2c.3-1.6.5-3.2.5-4.9 0-3.3-.6-6.4-1.9-9.4-.2-.6-.9-.8-1.5-.6s-.8.9-.6 1.5c1.1 2.7 1.7 5.6 1.7 8.5 0 1.8-.2 3.6-.6 5.3-.3 1.1-.9 2-1.7 2.9v-1.1c0-4.3-1.2-8.8-3.4-13.1 1.6-1.4 2.6-3.1 3-5 .1-.6-.3-1.2-.9-1.3s-1.2.3-1.3.9c-.2 1.3-.9 2.4-1.9 3.4-.3-.5-.7-1.1-1-1.6-2-2.9-4.3-5.4-6.8-7.4 3.4.2 6.5 1 9 2.4.4.2.9.2 1.3-.1.5-.4.5-1.1.1-1.6-3.6-5-9.8-7.8-17.6-7.8-13.2.1-24 10.9-24 24.1"/><path fill="#435261" d="M1017.7 232.6c1.6 0 2.4.8 2.4 2.1s-.8 2.1-2.3 2.1h-1v2h-1.3v-6.2h2.2m-.9 3.2h.8c.8 0 1.1-.3 1.1-1s-.4-1-1.2-1h-.8v2h.1zm-3.8.5c0 .9-.4 1.4-1.1 1.4-.7 0-1.1-.4-1.1-1.4v-3.7h-1.3v3.6c0 .9.2 1.6.7 2 .4.4 1 .6 1.8.6 1.1 0 2.4-.4 2.4-2.6v-3.6h-1.3l-.1 3.7zm-7-3.7c1.3 0 2.8.8 2.8 3.2 0 2.3-1.4 3.1-2.8 3.1s-2.8-.8-2.8-3.1c0-2.5 1.5-3.2 2.8-3.2m0 5c.5 0 1.4-.3 1.4-2s-.9-2-1.4-2c-.9 0-1.4.7-1.4 2s.4 2 1.4 2m-4.1-.7c.2.4.4.8.8.8h.3v1s-.2.1-.7.1c-1 0-1.4-.7-1.6-1.3-.2-.5-.4-1-1-1h-.6v2.3h-1.3v-6.2h2.2c1.6 0 2.3.6 2.3 2 0 .8-.5 1.3-1 1.6.2.1.4.4.6.7m-2.7-1.5h.7c.7 0 1.2-.4 1.2-.9 0-.6-.4-.9-1.1-.9h-.8v1.8zm-5 1.2h1.4v.1c0 .4-.1 1.1-1.1 1.1-.9 0-1.4-.7-1.4-2s.5-2 1.4-2c1.1 0 1.1 1.1 1.1 1.1v.1l1.2-.2c0-.4-.4-2.1-2.3-2.1-1.8 0-2.7 1.1-2.7 3.2 0 2 1 3.1 2.8 3.1s2.4-1.2 2.4-2.2v-1.1h-2.6l-.2.9zm-3.8-4h-1.6l-2 2.8v-2.8h-1.3v6.2h1.3v-2.9l2.1 2.9h1.6l-2.4-3.1 2.3-3.1zm-7.5 3.8l-2.2-3.8h-1.3v6.2h1.3v-3.7l2.2 3.7h1.3v-6.2h-1.3v3.8zm-6.1-3.8l2.2 6.2h-1.4l-.5-1.5H975l-.5 1.5H973l2.3-6.2h1.5zm-.8 1.6l-.7 1.9h1.4l-.7-1.9zm-4 1.4c.5.1 1.1.6 1.1 1.5 0 1.1-.8 1.8-2.2 1.8h-2.6v-6.2h2.4c1.3 0 2 .6 2 1.7-.2.7-.5 1-.7 1.2m-1.5-.5c.5 0 .8-.2.8-.7s-.3-.7-1-.7h-.7v1.4h.9zm-1 2.5h1c.7 0 1-.3 1-.8 0-.7-.6-.8-1-.8h-1v1.6zm-6.7-5c1.9 0 3.1 1.2 3.1 3.2 0 1.9-1 3-2.8 3H961v-6.2h1.8zm-.6 5h.8c1 0 1.5-.7 1.5-1.9 0-1.4-.6-2.1-1.8-2.1h-.5v4zm-4.5-5h-1.3v6.2h4v-1.1h-2.7v-5.1zm-3.2 4.3c.2.4.4.8.8.8h.3v1s-.2.1-.6.1c-1 0-1.4-.7-1.6-1.3-.2-.5-.4-1-1-1h-.6v2.3h-1.3v-6.2h2.2c1.6 0 2.3.6 2.3 2 0 .8-.5 1.3-1 1.6.2.1.5.4.5.7m-2.6-1.5h.7c.7 0 1.2-.4 1.2-.9 0-.6-.4-.9-1.1-.9h-.8v1.8zm-4.9-2.8c1.3 0 2.8.8 2.8 3.2 0 2.3-1.4 3.1-2.8 3.1s-2.8-.8-2.8-3.1c0-2.5 1.5-3.2 2.8-3.2m0 5c.5 0 1.4-.3 1.4-2s-.9-2-1.4-2c-.9 0-1.4.7-1.4 2s.4 2 1.4 2m-4.5-5h1.5l-1.8 6.2h-1.5l-1.1-3.9-1.1 3.9H937l-1.8-6.2h1.5l1 4.5 1.2-4.5h1.1l1.2 4.5 1.3-4.5zM874.2 230.8h1.6v8h-1.6zM877.2 238.8v-8h3c1.6 0 2.6.6 2.6 2.1 0 1.4-.8 1.7-1.2 1.7.5 0 1.8.5 1.8 2 0 1.7-1.3 2.2-2.8 2.2h-3.4m3-4.7c.9 0 1.1-.4 1.1-1.1 0-.7-.4-1-1.4-1h-1.1v2.1h1.4zm0 3.5c.8 0 1.4-.3 1.4-1.1s-.6-1.1-1.4-1.1h-1.4v2.3l1.4-.1zM891.2 238.8s-.3.1-.8.1c-2.4 0-1.8-3.1-3.5-3.1h-.9v3h-1.6v-8h2.8c2 0 3 .7 3 2.5 0 1.2-.8 1.8-1.4 2 .8.7.9 2.2 1.9 2.2h.3v1.3m-4-4.2c1 0 1.7-.4 1.7-1.3 0-.8-.6-1.3-1.5-1.3H886v2.6h1zM891.9 238.8v-8h2.3c2.1 0 4 1.1 4 4.1 0 2.9-1.7 3.9-3.7 3.9h-2.6m2.6-1.2c1.2 0 2.1-.9 2.1-2.6 0-1.8-.8-2.9-2.4-2.9h-.8v5.5h1.1zM902.9 236.9c-.8 0-1.5-.7-1.5-1.5s.7-1.5 1.5-1.5 1.5.7 1.5 1.5-.6 1.5-1.5 1.5"/><path fill="#435261" d="M908 230.8h1.6v8H908zM911 238.8v-8h2.4c2.1 0 4 1.1 4 4.1 0 2.9-1.7 3.9-3.7 3.9H911m2.7-1.2c1.2 0 2.1-.9 2.1-2.6 0-1.8-.8-2.9-2.4-2.9h-.8v5.5h1.1zM922.5 236.8h-2.9l-.7 2h-1.7l3-8h1.6l3 8h-1.6l-.7-2m-2.3-1.2h2l-1-2.9-1 2.9zM870 211.2h12v2.4h-4.3v12.3h-3.2v-12.3H870v-2.4M883.7 225.9v-14.7h3.2v5.9h5.6v-5.9h3.2v14.7h-3.2v-6.3h-5.6v6.3h-3.2M898.2 211.2h10v2.4h-6.8v3.5h6.3v2.5h-6.3v4h7v2.3h-10.2v-14.7M923.9 211.2h3.6l2.5 11.1 2.5-11.1h3l-3.8 14.7h-3.5l-2.7-11.1-2.8 11.1H919l-3.5-14.7h3.2l2.3 11.1 2.9-11.1M936.5 218.6c0-4.4 2.2-7.7 7.1-7.7s7.1 3.3 7.1 7.7-2.2 7.7-7.1 7.7c-4.8-.1-7.1-3.4-7.1-7.7m3.4 0c0 2.5.6 5.4 3.7 5.4s3.7-2.9 3.7-5.4-.6-5.4-3.7-5.4-3.7 2.9-3.7 5.4"/><path fill="#435261" d="M956 225.9h-3.2v-14.7h6.3c2.5 0 5.1.8 5.1 3.8 0 1.9-1.2 3.2-3.1 3.6 2.4.3 2.4 1.8 2.7 3.8.1.9.3 2.7.9 3.5h-3.5c-.3-1.3-.4-2.6-.5-4-.1-.8-.3-1.9-1.3-2H956v6m0-8.3h2.6c1.4 0 2.2-.7 2.2-2s-.8-1.9-2.2-1.9H956v3.9zM966.5 225.9v-14.7h3.3v12.4h6.4v2.3h-9.7"/><path fill="#435261" d="M977.9 211.2h5c4.6 0 7.5 2.2 7.5 7.4s-2.9 7.4-7.5 7.4h-5v-14.8m3.1 12.4h1.6c3.8 0 4.3-2.6 4.3-4.9s-.6-5-4.3-4.9H981v9.8zM998.4 225.9v-14.7h5.5c2.6-.2 5.3.9 5.3 3.8 0 1.6-1.1 2.7-2.6 3.2 1.9.4 3.3 1.7 3.3 3.8 0 2.9-3.7 4-6 3.8l-5.5.1m5.6-2.3c1.5 0 2.5-.3 2.5-2s-1-2-2.5-2h-2.5v3.9h2.5v.1zm0-6.5c1.3 0 2.1-.6 2.1-1.7 0-1.2-.7-1.7-2.1-1.7h-2.5v3.5h2.5v-.1zM1010.9 225.9l5.3-14.7h3.8l5.1 14.7h-3.1l-1.1-3.1h-5.8l-1.1 3.1h-3.1m9.1-5.5l-2-6.3-2.2 6.3h4.2zM1035.5 225.9l-5.7-12.1h-.1v12.1h-2.9v-14.7h4.6l5.6 11.6v-11.6h3v14.7h-4.5M1045.8 217.6l5-6.4h3.6l-5.4 6.6 5.9 8.1h-4l-5.1-7.5v7.5h-3.1v-14.7h3.1v6.4M930 239.8c-.2 0-.4-.2-.4-.4v-9c0-.2.2-.4.4-.4s.4.2.4.4v9c0 .2-.2.4-.4.4"/><g fill="#435261"><path d="M527 205.1h-6.8l-13.5 17.5v2.7l13.5 17.5h6.8l-15-18.9zM424.5 222.1c1.3-1.9 2.1-4.2 2.1-6.4 0-5.3-3.5-10.7-10.4-10.7h-11.8v29.1L374.3 205H367l38.4 37.3c.5.5 1.1.6 1.8.6.3 0 .6 0 1-.2 1-.5 1.6-1.4 1.6-2.6v-30.4h6.7c3.8 0 5.8 2.9 5.8 5.8s-1.9 5.9-5.8 5.9h-4.8V225.8h8.2s5.3-.3 7.2 3.2c.3.6.5 1.4.6 2.6.2 5.1-3.7 6.2-4 6.2H412v4.8h11.8c1.3 0 3.8-1 5.8-3 1.4-1.4 2.9-4.2 2.7-8.3-.8-5-4-8-7.8-9.2zM461 204.9v33h-3.4c-.8 0-1.3-.5-1.6-.8l-.3-.2-6.6-8.3c5.1-1 8.2-4.8 9.1-9.1.2-.8.2-1.6.2-2.4 0-1.3-.2-2.6-.6-3.8-1.4-4.5-5.6-7.8-10.6-8.2h-13.7v37.8h5.4v-33h8.2c3.2 0 5.1 1.9 6.1 4.2.5 1 .6 1.9.6 2.9 0 2.6-1.3 4.6-3.2 5.9-.8.6-1.8 1-2.7 1h-6.8v2.2l1.6 1.9 11 13.9c.3.3.8.6 1.4.6h8.5s2.7.2 3-2.6v-35H461zM486.7 238.1h.6-1.4.8zM499.8 204.9V238h-13.7c-1.8-.2-3.5-.6-5-1.4-4.3-2.2-7.2-7-7.2-12.6 0-7.8 5.8-14.1 13-14.1 3.2 0 6.1 1.3 8.3 3.2l2.9-3.7c-3-2.7-7-4.5-11.4-4.5h-.2c-9.8 0-17.8 8.5-17.8 19 0 6.6 3.2 12.5 8 15.8 2.6 1.9 5.6 3.2 8.8 3.2h17s2.2.2 2.7-2.6v-35.4h-5.4z"/></g><path fill="#435261" d="M210.8 64.5c-1.6.2-4.4.2-5.9.2v-7h5.3c.8 0 1.6.2 2.3.2 0-.2-.2-.5-.2-.6 0-.2.2-.5.2-.6-.8 0-1.6.2-2.3.2h-5.3v-6h3.3l2.6.2c.8 0 1.6.2 2.3.2 0-.2-.2-.5-.2-.6 0-.3.2-.5.2-.8h-10.5V66h10.7c0-.2-.2-.5-.2-.6 0-.3.2-.5.2-.8-.8-.1-1.8-.1-2.5-.1m21.8-14.8h-.9v16.2c.2-.2.5-.2.8-.2.2 0 .5 0 .6.2V53.1h.3l11.4 11.3c.6.6 1.1 1.1 1.4 1.5h.8V49.7c-.3 0-.5.2-.8.2s-.5-.2-.8-.2v12.2h-.2l-12.6-12.2zM200 63.3c-.5.5-2.6 1.9-5.6 1.9-4 0-7-2.8-7-7.4 0-3.9 2.3-7.4 7.2-7.4 2.8 0 4.7 1.5 5.1 2h.2c.2-.6.3-1.2.5-1.9-1.7-.6-3.7-1.1-5.6-1.1-5.6 0-10 3.1-10 8.3 0 5.1 3.6 8.3 9.3 8.3 2 0 4.2-.3 5.8-1.2l.1-1.5zm17.9-6.2v-6.5c1.1 0 4-.2 5 0 2 .3 3 1.4 3 2.9 0 1.9-1.4 3.1-3.4 3.4-1.3.4-4.1.2-4.6.2m10.4 6.8l-5.4-6.2c2.6-.3 5.4-1.7 5.4-4.5 0-2.3-1.9-3.6-5.9-3.6h-6.7v16.3c.5-.2.8-.2 1.2-.2.3 0 .8 0 1.1.2V58h2.2l2 2.2 3.1 3.6c.6.8 1.1 1.4 1.7 2.2.5-.2.9-.2 1.6-.2.5 0 .9 0 1.4.2l-.5-.6-1.2-1.5zm-14.9 35.6c-1.7-.2-3.4-.6-5-1 4.1 4.1 9.1 7.2 14.7 9.2l1.9-2.1c-4.2-1.4-8.2-3.4-11.6-6.1m-8.6-53.6h3.2c4.1-5.2 14.5-13 28.5-13 3 0 6 .4 8.8 1.1-1.1-1.2-2.3-2.2-3.6-3.2-1.7-.2-3.5-.4-5.3-.4-12.5 0-24 5.7-31.6 15.5m31.6 61.5c-1.8 0-3.5-.2-5.3-.4l-2.1 2.2c2.4.4 4.8.7 7.3.7 11.4 0 21.7-4.7 29-12.3l-.7-3c-6.8 7.8-16.8 12.8-28.2 12.8m33.4-15.3c3.3-4.9 5.4-10.5 6.3-16.6h.2l6.4-45.6-2.5-.4-4.6 32.5c-2.7-12.7-11.5-23.2-23.3-28.3 1.1 1.4 2 2.8 2.9 4.3 11.2 6.5 18.7 18.5 18.7 32.2 0 6.7-1.8 13-4.9 18.4l.8 3.5zm-70.9-21.9v-.9l-2.6-.1v.9c0 3.3.4 6.6 1.2 9.7.9 3.5 2.3 6.8 4 9.9 1.4.8 2.9 1.5 4.4 2.1-2.7-3.7-4.7-7.9-5.9-12.6-.6-2.9-1.1-6-1.1-9m57.9-11.5c0 20.5-16.8 37.2-37.5 37.2-17.2 0-32.2-11.6-36.4-28.1-.7-3-1.1-6-1.1-9.1 0-20.5 16.8-37.2 37.5-37.2 20.8-.1 37.5 16.6 37.5 37.2m-37.5-39.8c-22.1 0-40 17.8-40 39.8 0 3.3.4 6.6 1.2 9.7.1.3.2.7.3 1l10 35.7 2.5-.7-6.3-22.2c7.4 10 19.2 16.3 32.3 16.3 6.6 0 12.8-1.6 18.3-4.4l-32 34.9h3.5l39.8-43.5c5.4-5.9 9-13.4 10.1-21.7l15.3 65.1h2.6l-18.6-79.3c-3.1-13-12.5-23.6-24.9-28.2h59.2v-2.5"/></svg>