<?xml version="1.0" encoding="utf-8"?>
<!-- Generator: Adobe Illustrator 18.1.1, SVG Export Plug-In . SVG Version: 6.00 Build 0)  -->
<!DOCTYPE svg PUBLIC "-//W3C//DTD SVG 1.1//EN" "http://www.w3.org/Graphics/SVG/1.1/DTD/svg11.dtd">
<svg version="1.1" id="Layer_1" xmlns="http://www.w3.org/2000/svg" xmlns:xlink="http://www.w3.org/1999/xlink" x="0px" y="0px"
	 viewBox="0 0 1200 300" enable-background="new 0 0 1200 300" xml:space="preserve">
<path fill="#435261" d="M720.9,88.8H720c-5.3,0-9.6-4.3-9.6-9.6v-4.3c0-3.1-2.5-5.6-5.6-5.6h-2.1c-3.1,0-5.6,2.5-5.6,5.6v4.3
	c0,3.1,2.5,5.6,5.6,5.6h2.1c1.5,0,2.9-0.6,4-1.6l0.9-0.9L710,83c0.3,0.9,0.8,1.8,1.4,2.6l0.3,0.3l-0.3,0.3c-1.7,1.7-4.1,2.6-6.6,2.6
	h-2.1c-5.3,0-9.6-4.3-9.6-9.6v-4.3c0-5.3,4.3-9.6,9.6-9.6h2.1c5.3,0,9.6,4.3,9.6,9.6v4.3c0,3.1,2.5,5.6,5.6,5.6h0.9L720.9,88.8
	L720.9,88.8z"/>
<path fill="#435261" d="M722.9,88.8H722v-3.9h0.9c3.1,0,5.6-2.5,5.6-5.6v-4.4c0-5.3,4.3-9.6,9.6-9.6h0.9v3.9H738
	c-3.1,0-5.6,2.5-5.6,5.6v4.3C732.5,84.5,728.2,88.8,722.9,88.8L722.9,88.8z"/>
<path fill="#435261" d="M749.9,88.8L749.9,88.8c-5.3,0-9.6-4.3-9.6-9.6V65.4h3.9v13.9c0,3.1,2.5,5.6,5.6,5.6s5.6-2.5,5.6-5.6V65.4
	h3.9v13.9c0,5.2-4.2,9.4-9.3,9.6L749.9,88.8L749.9,88.8z"/>
<path fill="#435261" d="M620.8,88.9h-2.1c-5.3,0-9.7-4.3-9.7-9.7V58.8h4.1V67c1.6-1.1,3.5-1.7,5.5-1.7h2.1c5.3,0,9.7,4.3,9.7,9.7
	v4.3C630.5,84.6,626,88.9,620.8,88.9L620.8,88.9z M618.7,69.4c-3,0-5.5,2.5-5.5,5.5v4.3c0,3,2.5,5.5,5.5,5.5h2.1
	c3,0,5.5-2.5,5.5-5.5v-4.3c0-3-2.5-5.5-5.5-5.5H618.7L618.7,69.4z"/>
<path fill="#435261" d="M671.2,88.9h-1c-5.3,0-9.6-4.3-9.6-9.6V59h4.1v6.4c2.1,0,3.5,0,3.5,0h0.5v4.1h-3.9v9.7c0,3,2.5,5.5,5.5,5.5
	h1L671.2,88.9L671.2,88.9z"/>
<path fill="#435261" d="M691.8,88.9h-4.1V75c0-3-2.5-5.5-5.5-5.5s-5.5,2.5-5.5,5.5v13.9h-4.1V59h4.1v8.2c1.6-1.1,3.5-1.7,5.5-1.7
	c5.3,0,9.5,4.3,9.5,9.6L691.8,88.9L691.8,88.9z"/>
<path fill="#435261" d="M659.8,88.8H659c-5.3,0-9.6-4.3-9.6-9.6v-4.3c0-3.1-2.5-5.6-5.6-5.6h-2.1c-3.1,0-5.6,2.5-5.6,5.6v4.3
	c0,3.1,2.5,5.6,5.6,5.6h2.1c1.5,0,2.9-0.6,4-1.6l0.9-0.9L649,83c0.3,0.9,0.8,1.8,1.4,2.6l0.3,0.3l-0.3,0.3c-1.7,1.7-4.1,2.6-6.6,2.6
	h-2.1c-5.3,0-9.6-4.3-9.6-9.6v-4.3c0-5.3,4.3-9.6,9.6-9.6h2.1c5.3,0,9.6,4.3,9.6,9.6v4.3c0,3.1,2.5,5.6,5.6,5.6h0.9v4H659.8z"/>
<path fill="#435261" d="M769.8,82.6c-0.7,0-1.4-0.4-1.8-1c-1-1.8-1.6-3.8-1.6-5.8c0-6.4,5.2-11.7,11.7-11.7c1.1,0,2,0.9,2,2.1
	c0,1.1-0.9,2.1-2.1,2.1c-4.2,0-7.6,3.4-7.6,7.6c0,1.3,0.4,2.6,1,3.8c0.2,0.3,0.3,0.7,0.3,1C771.9,81.8,771,82.6,769.8,82.6
	L769.8,82.6z"/>
<path fill="#435261" d="M773.9,71.2c-1.2,1.1-2,2.7-2,4.5c0,1.1,0.3,2.2,0.8,3.1c0.3,0.5,0.5,1.1,0.5,1.7c0,1.4-0.8,2.5-2,3.1
	c1.6,0.5,3.4,0.3,4.9-0.6c1-0.6,1.7-1.4,2.3-2.3c0.3-0.5,0.7-0.9,1.3-1.2c1.2-0.7,2.6-0.6,3.7,0.2c-0.4-1.6-1.4-3.1-2.9-4
	c-1-0.6-2-0.8-3.1-0.8c-0.6,0-1.2-0.2-1.7-0.5C774.5,73.8,773.8,72.5,773.9,71.2L773.9,71.2z"/>
<path fill="#435261" d="M773,89.4c-4.2,0-8-2.2-10.1-5.8c-0.6-1-0.2-2.2,0.8-2.8c1-0.5,2.3-0.2,2.8,0.7c1.3,2.3,3.9,3.8,6.5,3.8
	c1.3,0,2.6-0.4,3.8-1c1.1-0.7,2.1-1.6,2.8-2.8c0.2-0.3,0.4-0.6,0.8-0.7c0.9-0.6,2.3-0.2,2.8,0.8c0.4,0.6,0.4,1.4,0,2
	c-1,1.8-2.5,3.2-4.3,4.3C777.2,88.9,775.2,89.4,773,89.4L773,89.4z"/>
<path fill="#435261" d="M785.7,88c-0.4,0-0.7-0.1-1-0.3c-1-0.6-1.3-1.8-0.8-2.8c2.1-3.6,0.8-8.2-2.8-10.3c-1.1-0.7-2.4-1-3.8-1
	c-0.4,0-0.7-0.1-1-0.3c-1-0.6-1.3-1.8-0.8-2.8c0.4-0.6,1-1,1.8-1c2,0,4.1,0.5,5.8,1.6c2.7,1.6,4.6,4.1,5.4,7.1
	c0.8,3,0.4,6.2-1.2,8.8C787,87.6,786.4,88,785.7,88L785.7,88z"/>
<path fill="#435261" d="M182.1,204.4c0,3.2-2.6,5.8-5.8,5.8s-5.8-2.6-5.8-5.8s2.6-5.8,5.8-5.8S182.1,201.2,182.1,204.4z
	 M150.9,210.2c3.2,0,5.8-2.6,5.8-5.8s-2.6-5.8-5.8-5.8c-3.2,0-5.8,2.6-5.8,5.8C145,207.6,147.6,210.2,150.9,210.2z M258.5,227.8v3.9
	c0,3.7-2.3,7.6-7.5,7.6c-5.3,0-7.6-3.8-7.6-7.6v-12.5h15v-9.9h-15v-8.8h-10.5V231c0,10.3,7.1,18.1,18.1,18.1c11,0,18-7.7,18-18.1
	v-3.3L258.5,227.8L258.5,227.8z M227.9,231.9H197c1.4,5,5.3,8.1,10.3,8.1c3.5,0,6.9-1.5,8.7-4.8h11.2c-2.4,8.3-9.6,14-19.8,14
	c-11.5,0-21-9.5-21-21.4s9.5-21.6,21-21.6C219.4,206.3,229.4,215.6,227.9,231.9z M217.6,223.3c-1.3-4.8-5.3-7.8-10.3-7.8
	c-4.8,0-8.6,3-10.1,7.8H217.6z M171,231.8c0,3.7-2.3,7.6-7.6,7.6c-5.2,0-7.5-3.8-7.5-7.6v-3.7h-10.4v3.1c0,10.3,7,18.1,18,18.1
	s18.1-7.7,18.1-18.1v-17.1H171V231.8L171,231.8z"/>
<rect x="464.9" y="65.6" fill="#435261" width="6.3" height="18.9"/>
<path fill="#435261" d="M463,69.6h-8.8l-5.2,5.2h7.1c-0.9,2.1-3,3.5-5.4,3.5c-3.3,0-5.9-2.7-5.9-5.9s2.7-5.9,5.9-5.9
	c1.2,0,2.3,0.4,3.2,0.9l4.8-4.8c-2.2-1.8-5-2.9-8-2.9c-7,0-12.6,5.7-12.6,12.7S443.8,85,450.7,85c7,0,12.7-5.7,12.7-12.6
	C463.2,71.4,463.2,70.5,463,69.6"/>
<rect x="464.9" y="60.2" fill="#435261" width="6.3" height="3.8"/>
<polygon fill="#435261" points="485.3,84.6 480,84.6 479.8,84.5 472.5,65.5 479.2,65.5 482.7,76.1 486.2,65.5 492.8,65.5 "/>
<rect x="493.9" y="65.6" fill="#435261" width="6.3" height="18.9"/>
<rect x="493.9" y="60.2" fill="#435261" width="6.3" height="3.8"/>
<path fill="#435261" d="M519.5,84.5h-6.2V74c0-2-0.8-3-2.4-3c-2.1,0-2.5,1.6-2.5,3v10.5h-6.3V65.6h4.3l1.7,1.7c1.4-1.4,2.9-2,4.8-2
	c4.1,0,6.6,2.8,6.6,7.2V84.5L519.5,84.5z"/>
<path fill="#435261" d="M377.3,84.8c-3.3,0-6-1.2-8-3.7l-0.4-0.4l4.2-4.2l0.2,0.3c1.3,1.5,2.5,2.1,3.8,2.1c1.7,0,2.5-1,2.5-3.2V60.1
	h6.5v15.8C386.2,81.6,383,84.8,377.3,84.8"/>
<path fill="#435261" d="M536.5,65.6l-1.6,1.6c-1.5-1.3-3.2-1.9-5.3-1.9c-4.2,0-8.5,3.1-8.5,8.9v0.1c0,5.9,4.3,8.9,8.5,8.9
	c2,0,3.6-0.6,5-1.8c-0.3,2.2-1.6,3.7-4.3,3.7c-1.6,0-3-0.3-4.5-0.9l-4.1,4.1l0.6,0.3c2.4,1.3,5.2,1.9,8.1,1.9
	c7.2,0,10.6-3.7,10.6-10.5V65.6H536.5L536.5,65.6z M535.2,74.2c0,2.2-1.7,3.8-4,3.8c-2.4,0-4-1.5-4-3.8v-0.1c0-2.2,1.7-3.8,4-3.8
	C533.5,70.4,535.2,72,535.2,74.2L535.2,74.2z"/>
<path fill="#435261" d="M394.8,84.8c-4.1,0-6.6-2.8-6.6-7.2v-12h6.3v10.5c0,2,0.8,3,2.4,3c2.1,0,2.5-1.6,2.5-3V65.6h6.3v18.9h-4.3
	l-1.7-1.7C398.2,84.1,396.8,84.8,394.8,84.8"/>
<path fill="#435261" d="M431.5,84.8c-3.9,0-5.8-1.9-5.8-5.9v-7.8h-2.1v-5.5h2.1v-5.4h6.3v5.4h4.1v5.5H432V78c0,0.8,0.2,1.1,1,1.1
	s1.5-0.2,2.2-0.6l0.9-0.5v5.4l-0.3,0.2C434.5,84.4,433.2,84.8,431.5,84.8"/>
<path fill="#435261" d="M417,72.8l-0.6-0.2c-1.5-0.5-2.8-1-2.8-1.6v-0.1c0-0.6,0.8-0.8,1.5-0.8c1,0,2.4,0.4,3.8,1.2l3.6-3.6
	l-0.3-0.2c-2-1.4-4.7-2.2-7-2.2c-4.2,0-7.1,2.5-7.1,6.2v0.1c0,3.7,2.9,5,5.7,5.9c0.2,0.1,0.5,0.1,0.7,0.2c1.5,0.4,2.8,0.8,2.8,1.5
	v0.1c0,0.8-0.9,0.9-1.8,0.9c-1.5,0-3.3-0.7-5-1.8l-3.5,3.5l0,0l0.3,0.2c2.3,1.8,5.2,2.8,8.1,2.8c4.6,0,7.4-2.4,7.4-6.3v-0.1
	C422.8,74.8,419,73.5,417,72.8"/>
<polygon fill="#435261" points="542.5,66.4 543.3,66.4 543.3,68.6 544.3,68.6 544.3,66.4 545.2,66.4 545.2,65.6 542.5,65.6 "/>
<polygon fill="#435261" points="547.8,65.6 547.2,66.6 546.5,65.6 545.5,65.6 545.5,68.6 546.5,68.6 546.5,67.1 547,67.8 
	547.5,67.8 548,67.1 548,68.6 549,68.6 549,65.6 "/>
<polygon fill="#435261" points="884.7,67.1 896.2,67.1 910.5,51.5 899.2,51.5 "/>
<path fill="#435261" d="M953.8,72.6c2.9-2.5,4.1-6.6,4.1-9.2c0-1.9-0.8-11.8-16.4-11.8h-18.7v45.1h20.6c2.6,0,7.8-0.3,10.8-2.9
	c4.1-3.7,4.9-7.4,4.9-9.6C959,78.5,956.5,74.9,953.8,72.6z M932,59.3h11.2c3,0,5.6,1.1,5.6,5.1c0,3.7-2.3,5.2-6.4,5.2H932L932,59.3
	L932,59.3z M943,88.9h-10.8V77.4h12.6c1.9,0,5.3,0,5.3,5.2C950,88.9,946,88.9,943,88.9z"/>
<path fill="#435261" d="M999.8,72.6c3.3-2.5,4.1-6.6,4.1-9.2c0-1.9-0.8-11.8-16.4-11.8h-18.7v45.1h20.6c2.6,0,7.8-0.3,10.7-2.9
	c4.2-3.7,4.9-7.4,4.9-9.6C1005,78.5,1002.2,74.9,999.8,72.6z M978,59.3h11.2c3,0,5.6,1.1,5.6,5.1c0,3.7-2.2,5.2-6.3,5.2H978V59.3
	L978,59.3z M988.9,88.9h-10.8V77.4h12.7c1.8,0,5.3,0,5.3,5.2C996,88.9,991.9,88.9,988.9,88.9z"/>
<path fill="#435261" d="M896.7,51.1c-2.4-0.7-4.8-1.1-7.4-1.1C875.8,50,865,60.7,865,74.2c0,12.9,10.9,23.8,24.3,23.8
	c13.1,0,24-10.9,24-23.8c0-6.2-2.2-11.7-6-16l-6.4,6.8c2,2.5,3.2,5.7,3.2,9.1c0,7.8-6.8,14.5-14.7,14.5c-8.3,0-15-6.7-15-14.5
	c0-8.2,6.7-14.8,15-14.8L896.7,51.1L896.7,51.1z"/>
<g>
	<path fill="#435261" d="M672.7,213.1c-3.8,0-6.9,2.6-7.8,6.1c0,0,0,0,0,0.1h15.7C679.7,215.6,676.5,213.1,672.7,213.1z"/>
	<path fill="#435261" d="M706,213.1c-4.4,0-8,3.6-8,8s3.6,8,8,8s8-3.6,8-8C714,216.6,710.4,213.1,706,213.1z M706,223.8
		c-1.5,0-2.8-1.2-2.8-2.8s1.2-2.8,2.8-2.8c1.5,0,2.8,1.2,2.8,2.8C708.8,222.6,707.5,223.8,706,223.8z"/>
	<path fill="#435261" d="M678.7,171.4c-27.5,0-49.8,22.3-49.8,49.8s22.3,49.8,49.8,49.8s49.8-22.3,49.8-49.8
		S706.2,171.4,678.7,171.4z M660.2,232.1c-0.4,0-0.8-0.2-1.1-0.5l-8.5-8.5l-8.5,8.5c-0.3,0.3-0.7,0.4-1.1,0.4
		c-0.8,0-1.5-0.7-1.5-1.5c0-0.4,0.2-0.8,0.5-1.1l8.5-8.5l-8.5-8.5c-0.3-0.3-0.5-0.7-0.5-1.1c0-0.8,0.7-1.5,1.5-1.5
		c0.4,0,0.8,0.2,1.1,0.4l8.5,8.5l8.5-8.5c0.3-0.3,0.7-0.5,1.1-0.5c0.8,0,1.5,0.7,1.5,1.5c0,0.4-0.2,0.8-0.4,1.1l-8.5,8.5l8.5,8.5
		c0.3,0.3,0.4,0.7,0.4,1.1C661.7,231.4,661,232.1,660.2,232.1z M680.5,222.2c0,0-15,0-15.9,0c0,0.1,0,0.2,0,0.2
		c0.1,0.4,0.2,0.9,0.3,1.3c0.8,2.2,3.2,5.3,7.6,5.3c1.4,0,2.6-0.3,3.7-0.9c0.9-0.5,1.6-1.1,2.2-1.8c0.2-0.2,0.4-0.5,0.5-0.7
		c0.7-1,1.7-0.8,2.2-0.3c0.7,0.5,0.8,1.6,0.2,2.3c0,0,0,0,0,0.1c-0.9,1.1-1.8,2-2.9,2.7c-1,0.7-2.2,1.1-3.3,1.4
		c-1.4,0.3-2.7,0.4-4,0.3c-4.5-0.6-8.3-3.9-9.5-8.3c-0.2-0.9-0.3-1.8-0.3-2.7c0-3.6,1.7-7,4.7-9.2c3.7-2.6,8.6-2.7,12.4-0.3
		c2.6,1.6,4.3,4.2,4.9,7.3C683.9,220.6,682.8,222.2,680.5,222.2z M693.4,213.1c-3.3,0.4-3.7,2-3.7,5.8v11.6c0,0.8-0.7,1.5-1.5,1.5
		s-1.5-0.7-1.5-1.5v-18.8c0-0.8,0.7-1.5,1.5-1.5c0.7,0,1.3,0.5,1.5,1.2c1.1-0.9,2.5-1.3,3.9-1.3h0.5c0.8,0,1.5,0.7,1.5,1.5
		s-0.6,1.5-1.5,1.5C694,213.1,693.7,213.1,693.4,213.1z M706,232.2c-6.2,0-11.2-5-11.2-11.2s5-11.2,11.2-11.2s11.2,5,11.2,11.2
		S712,232.2,706,232.2z"/>
</g>
<path fill="#435261" d="M844.5,236.6c3.2,0,6.2-0.5,8.8-1.4c0.7-0.2,1.3-0.5,1.9-0.8c-0.8,1.8-1.8,3.3-3.2,4.4
	c-2.8,2.1-6.1,3.5-9.7,4C843.2,241.2,843.9,239.1,844.5,236.6 M829.5,240.8c-0.1,0-0.1-0.1-0.2-0.1c-1.2-0.6-1.7-3.4-1.1-7.6
	c2.4,1.1,5,1.9,7.7,2.5c2.1,0.4,4.1,0.7,6.2,0.8c-1,4.3-2.2,6.6-3.1,6.6c0,0-0.1,0-0.2,0C835.5,242.9,832.4,242.2,829.5,240.8
	 M818,227.1c-0.2-0.7-0.3-1.5-0.4-2.2c0.8,1.1,1.7,2.1,2.7,3.1c1.6,1.5,3.6,2.9,5.7,4c-0.4,2.5-0.6,4.7-0.3,6.5
	C822.2,235.8,819.4,231.8,818,227.1 M845.9,221.1c0-0.9,0-1.8,0-2.6c2.8-0.2,5.4-0.9,7.5-2.1c1.9,3.9,3,7.9,3,11.8
	c0,1.1-0.1,2.2-0.3,3.2c-1,0.6-2.2,1.1-3.5,1.6c-2.3,0.8-4.9,1.2-7.7,1.3C845.5,230.2,845.9,225.6,845.9,221.1 M836.5,233.4
	c-2.8-0.6-5.4-1.5-7.8-2.6c0.8-3.5,2.2-7.8,4.5-12.5c0.3-0.7,0.7-1.4,1-2c1.6,0.7,3.4,1.3,5.2,1.7c1.4,0.3,2.8,0.5,4.1,0.5
	c0,0.8,0,1.7,0,2.6c0,5.3-0.4,9.7-1,13.1C840.5,234.1,838.5,233.8,836.5,233.4 M822,226.4c-1.9-1.8-3.2-3.6-3.9-5.5
	c0.5-2.1,1.5-4.1,3-6.1c1.4-1.9,3.2-3.6,5.2-5c0.6,1.1,1.4,2.1,2.5,3.1c1,0.9,2.2,1.8,3.4,2.5c-0.4,0.7-0.7,1.4-1,2
	c-2,4.1-3.6,8.4-4.6,12.4C824.9,228.8,823.2,227.6,822,226.4 M844.4,205.6c2.6,1.9,4.9,4.3,6.8,7.2c0.4,0.5,0.7,1.1,1.1,1.6
	c-1.8,1-4.1,1.6-6.5,1.8C845.5,212.4,845,208.8,844.4,205.6 M839.9,215.8c-1.6-0.4-3.2-0.8-4.6-1.5c2.1-3.7,4.4-6.8,6.6-9.2
	c0.7,2.8,1.3,6.5,1.5,11.1C842.2,216.2,841,216.1,839.9,215.8 M830.4,211.1c-0.9-0.9-1.6-1.8-2.1-2.7c2.1-1.3,4.4-2.3,6.9-3
	c1.5-0.4,3-0.8,4.5-1c-2.2,2.4-4.3,5.5-6.3,8.9C832.2,212.8,831.2,212.1,830.4,211.1 M825.5,204.1c0,0.1-0.1,0.2-0.1,0.4
	c-0.2,1.1-0.2,2.1,0.1,3.2c-2.4,1.7-4.5,3.6-6.2,5.8c-0.5,0.7-1,1.4-1.4,2C819.2,210.9,821.9,206.9,825.5,204.1 M827.5,204.8
	c0.3-1.2,0.9-2.2,2-3.1c2.6-0.8,5.6-0.6,8.9,0.6c-1.3,0.2-2.7,0.5-4,0.9c-2.5,0.8-4.8,1.8-6.9,3
	C827.5,205.8,827.5,205.3,827.5,204.8 M845.8,201.9c0.8-0.5,1.5-0.8,2.1-1c1.1,0.4,2.2,1,3.3,1.8
	C849.5,202.2,847.7,202.1,845.8,201.9 M842,199.6c0.9,0.1,1.9,0.3,2.9,0.5c-0.6,0.3-1.3,0.8-1.9,1.3
	C842.7,200.6,842.4,200.1,842,199.6 M839.5,200.4c-1-0.4-2-0.7-3-0.9c0.8-0.1,1.6-0.1,2.4-0.1c0.4,0,0.8,0.5,1.3,1.3
	C840,200.6,839.9,200.6,839.5,200.4 M815,221.1c0,2.3,0.3,4.5,0.9,6.6c0,0.1,0.1,0.3,0.1,0.4c0,0,0,0,0,0.1c3,9.8,12.2,17,23,17
	c5,0,9.6-1.5,13.5-4.1c0,0,0.1,0,0.1-0.1c0.2-0.2,0.4-0.3,0.7-0.5c4.4-3.3,7.7-8,9.1-13.5c0.1-0.3,0.1-0.5,0.2-0.8
	c0-0.1,0-0.1,0-0.2c0.3-1.6,0.5-3.2,0.5-4.9c0-3.3-0.6-6.4-1.9-9.4c-0.2-0.6-0.9-0.8-1.5-0.6s-0.8,0.9-0.6,1.5
	c1.1,2.7,1.7,5.6,1.7,8.5c0,1.8-0.2,3.6-0.6,5.3c-0.3,1.1-0.9,2-1.7,2.9c0-0.4,0-0.8,0-1.1c0-4.3-1.2-8.8-3.4-13.1
	c1.6-1.4,2.6-3.1,3-5c0.1-0.6-0.3-1.2-0.9-1.3s-1.2,0.3-1.3,0.9c-0.2,1.3-0.9,2.4-1.9,3.4c-0.3-0.5-0.7-1.1-1-1.6
	c-2-2.9-4.3-5.4-6.8-7.4c3.4,0.2,6.5,1,9,2.4c0.4,0.2,0.9,0.2,1.3-0.1c0.5-0.4,0.5-1.1,0.1-1.6c-3.6-5-9.8-7.8-17.6-7.8
	C825.8,197.1,815,207.9,815,221.1"/>
<path fill="#435261" d="M1017.7,232.6c1.6,0,2.4,0.8,2.4,2.1s-0.8,2.1-2.3,2.1h-1v2h-1.3v-6.2L1017.7,232.6 M1016.8,235.8h0.8
	c0.8,0,1.1-0.3,1.1-1s-0.4-1-1.2-1h-0.8v2H1016.8z M1013,236.3c0,0.9-0.4,1.4-1.1,1.4c-0.7,0-1.1-0.4-1.1-1.4v-3.7h-1.3v3.6
	c0,0.9,0.2,1.6,0.7,2c0.4,0.4,1,0.6,1.8,0.6c1.1,0,2.4-0.4,2.4-2.6v-3.6h-1.3L1013,236.3L1013,236.3z M1006,232.6
	c1.3,0,2.8,0.8,2.8,3.2c0,2.3-1.4,3.1-2.8,3.1s-2.8-0.8-2.8-3.1C1003.2,233.3,1004.7,232.6,1006,232.6 M1006,237.6
	c0.5,0,1.4-0.3,1.4-2s-0.9-2-1.4-2c-0.9,0-1.4,0.7-1.4,2S1005,237.6,1006,237.6 M1001.9,236.9c0.2,0.4,0.4,0.8,0.8,0.8h0.3v1l0,0
	c0,0-0.2,0.1-0.7,0.1c-1,0-1.4-0.7-1.6-1.3c-0.2-0.5-0.4-1-1-1h-0.6v2.3h-1.3v-6.2h2.2c1.6,0,2.3,0.6,2.3,2c0,0.8-0.5,1.3-1,1.6
	C1001.5,236.3,1001.7,236.6,1001.9,236.9 M999.2,235.4h0.7c0.7,0,1.2-0.4,1.2-0.9c0-0.6-0.4-0.9-1.1-0.9h-0.8L999.2,235.4
	L999.2,235.4z M994.2,236.6h1.4v0.1c0,0.4-0.1,1.1-1.1,1.1c-0.9,0-1.4-0.7-1.4-2s0.5-2,1.4-2c1.1,0,1.1,1.1,1.1,1.1v0.1l1.2-0.2l0,0
	c0-0.4-0.4-2.1-2.3-2.1c-1.8,0-2.7,1.1-2.7,3.2c0,2,1,3.1,2.8,3.1s2.4-1.2,2.4-2.2v-1.1h-2.6L994.2,236.6L994.2,236.6z M990.4,232.6
	h-1.6l-2,2.8v-2.8h-1.3v6.2h1.3v-2.9l2.1,2.9h1.6l-2.4-3.1L990.4,232.6z M982.9,236.4l-2.2-3.8h-1.3v6.2h1.3v-3.7l2.2,3.7h1.3v-6.2
	h-1.3V236.4z M976.8,232.6l2.2,6.2h-1.4l-0.5-1.5H975l-0.5,1.5H973l2.3-6.2H976.8L976.8,232.6z M976,234.2l-0.7,1.9h1.4L976,234.2z
	 M972,235.6c0.5,0.1,1.1,0.6,1.1,1.5c0,1.1-0.8,1.8-2.2,1.8h-2.6v-6.2h2.4c1.3,0,2,0.6,2,1.7C972.5,235.1,972.2,235.4,972,235.6
	 M970.5,235.1c0.5,0,0.8-0.2,0.8-0.7s-0.3-0.7-1-0.7h-0.7v1.4H970.5z M969.5,237.6h1c0.7,0,1-0.3,1-0.8c0-0.7-0.6-0.8-1-0.8h-1
	V237.6L969.5,237.6z M962.8,232.6c1.9,0,3.1,1.2,3.1,3.2c0,1.9-1,3-2.8,3H961v-6.2H962.8L962.8,232.6z M962.2,237.6h0.8
	c1,0,1.5-0.7,1.5-1.9c0-1.4-0.6-2.1-1.8-2.1h-0.5V237.6L962.2,237.6L962.2,237.6z M957.7,232.6h-1.3v6.2h4v-1.1h-2.7V232.6
	L957.7,232.6z M954.5,236.9c0.2,0.4,0.4,0.8,0.8,0.8h0.3v1l0,0c0,0-0.2,0.1-0.6,0.1c-1,0-1.4-0.7-1.6-1.3c-0.2-0.5-0.4-1-1-1h-0.6
	v2.3h-1.3v-6.2h2.2c1.6,0,2.3,0.6,2.3,2c0,0.8-0.5,1.3-1,1.6C954.2,236.3,954.5,236.6,954.5,236.9 M951.9,235.4h0.7
	c0.7,0,1.2-0.4,1.2-0.9c0-0.6-0.4-0.9-1.1-0.9h-0.8L951.9,235.4L951.9,235.4z M947,232.6c1.3,0,2.8,0.8,2.8,3.2
	c0,2.3-1.4,3.1-2.8,3.1s-2.8-0.8-2.8-3.1C944.2,233.3,945.7,232.6,947,232.6 M947,237.6c0.5,0,1.4-0.3,1.4-2s-0.9-2-1.4-2
	c-0.9,0-1.4,0.7-1.4,2S946,237.6,947,237.6 M942.5,232.6h1.5l-1.8,6.2h-1.5l-1.1-3.9l-1.1,3.9h-1.5l-1.8-6.2h1.5l1,4.5l1.2-4.5h1.1
	l1.2,4.5L942.5,232.6z"/>
<rect x="874.2" y="230.8" fill="#435261" width="1.6" height="8"/>
<path fill="#435261" d="M877.2,238.8v-8h3c1.6,0,2.6,0.6,2.6,2.1c0,1.4-0.8,1.7-1.2,1.7l0,0c0.5,0,1.8,0.5,1.8,2
	c0,1.7-1.3,2.2-2.8,2.2H877.2 M880.2,234.1c0.9,0,1.1-0.4,1.1-1.1c0-0.7-0.4-1-1.4-1h-1.1v2.1H880.2L880.2,234.1z M880.2,237.6
	c0.8,0,1.4-0.3,1.4-1.1s-0.6-1.1-1.4-1.1h-1.4v2.3L880.2,237.6L880.2,237.6z"/>
<path fill="#435261" d="M891.2,238.8c0,0-0.3,0.1-0.8,0.1c-2.4,0-1.8-3.1-3.5-3.1H886v3h-1.6v-8h2.8c2,0,3,0.7,3,2.5
	c0,1.2-0.8,1.8-1.4,2c0.8,0.7,0.9,2.2,1.9,2.2h0.3v1.3 M887,234.6c1,0,1.7-0.4,1.7-1.3c0-0.8-0.6-1.3-1.5-1.3H886v2.6H887z"/>
<path fill="#435261" d="M891.9,238.8v-8h2.3c2.1,0,4,1.1,4,4.1c0,2.9-1.7,3.9-3.7,3.9H891.9 M894.5,237.6c1.2,0,2.1-0.9,2.1-2.6
	c0-1.8-0.8-2.9-2.4-2.9h-0.8v5.5H894.5L894.5,237.6z"/>
<path fill="#435261" d="M902.9,236.9c-0.8,0-1.5-0.7-1.5-1.5s0.7-1.5,1.5-1.5s1.5,0.7,1.5,1.5S903.8,236.9,902.9,236.9"/>
<rect x="908" y="230.8" fill="#435261" width="1.6" height="8"/>
<path fill="#435261" d="M911,238.8v-8h2.4c2.1,0,4,1.1,4,4.1c0,2.9-1.7,3.9-3.7,3.9H911 M913.7,237.6c1.2,0,2.1-0.9,2.1-2.6
	c0-1.8-0.8-2.9-2.4-2.9h-0.8v5.5H913.7L913.7,237.6z"/>
<path fill="#435261" d="M922.5,236.8h-2.9l-0.7,2h-1.7l3-8h1.6l3,8h-1.6L922.5,236.8 M920.2,235.6h2l-1-2.9L920.2,235.6z"/>
<polyline fill="#435261" points="870,211.2 882,211.2 882,213.6 877.7,213.6 877.7,225.9 874.5,225.9 874.5,213.6 870,213.6 
	870,211.2 "/>
<polyline fill="#435261" points="883.7,225.9 883.7,211.2 886.9,211.2 886.9,217.1 892.5,217.1 892.5,211.2 895.7,211.2 
	895.7,225.9 892.5,225.9 892.5,219.6 886.9,219.6 886.9,225.9 883.7,225.9 "/>
<polyline fill="#435261" points="898.2,211.2 908.2,211.2 908.2,213.6 901.4,213.6 901.4,217.1 907.7,217.1 907.7,219.6 
	901.4,219.6 901.4,223.6 908.4,223.6 908.4,225.9 898.2,225.9 898.2,211.2 "/>
<polyline fill="#435261" points="923.9,211.2 927.5,211.2 930,222.3 930,222.3 932.5,211.2 935.5,211.2 931.7,225.9 928.2,225.9 
	925.5,214.8 925.5,214.8 922.7,225.9 919,225.9 915.5,211.2 918.7,211.2 921,222.3 921,222.3 923.9,211.2 "/>
<path fill="#435261" d="M936.5,218.6c0-4.4,2.2-7.7,7.1-7.7s7.1,3.3,7.1,7.7s-2.2,7.7-7.1,7.7C938.8,226.2,936.5,222.9,936.5,218.6
	 M939.9,218.6c0,2.5,0.6,5.4,3.7,5.4c3.1,0,3.7-2.9,3.7-5.4s-0.6-5.4-3.7-5.4S939.9,216.1,939.9,218.6"/>
<path fill="#435261" d="M956,225.9h-3.2v-14.7h6.3c2.5,0,5.1,0.8,5.1,3.8c0,1.9-1.2,3.2-3.1,3.6l0,0c2.4,0.3,2.4,1.8,2.7,3.8
	c0.1,0.9,0.3,2.7,0.9,3.5h-3.5c-0.3-1.3-0.4-2.6-0.5-4c-0.1-0.8-0.3-1.9-1.3-2H956V225.9 M956,217.6h2.6c1.4,0,2.2-0.7,2.2-2
	s-0.8-1.9-2.2-1.9H956V217.6z"/>
<polyline fill="#435261" points="966.5,225.9 966.5,211.2 969.8,211.2 969.8,223.6 976.2,223.6 976.2,225.9 966.5,225.9 "/>
<path fill="#435261" d="M977.9,211.2h5c4.6,0,7.5,2.2,7.5,7.4s-2.9,7.4-7.5,7.4h-5V211.2 M981,223.6h1.6c3.8,0,4.3-2.6,4.3-4.9
	s-0.6-5-4.3-4.9H981V223.6z"/>
<path fill="#435261" d="M998.4,225.9v-14.7h5.5c2.6-0.2,5.3,0.9,5.3,3.8c0,1.6-1.1,2.7-2.6,3.2l0,0c1.9,0.4,3.3,1.7,3.3,3.8
	c0,2.9-3.7,4-6,3.8L998.4,225.9 M1004,223.6c1.5,0,2.5-0.3,2.5-2s-1-2-2.5-2h-2.5v3.9h2.5V223.6z M1004,217.1c1.3,0,2.1-0.6,2.1-1.7
	c0-1.2-0.7-1.7-2.1-1.7h-2.5v3.5h2.5V217.1z"/>
<path fill="#435261" d="M1010.9,225.9l5.3-14.7h3.8l5.1,14.7h-3.1l-1.1-3.1h-5.8l-1.1,3.1H1010.9 M1020,220.4l-2-6.3l0,0l-2.2,6.3
	H1020z"/>
<polyline fill="#435261" points="1035.5,225.9 1029.8,213.8 1029.7,213.8 1029.7,225.9 1026.8,225.9 1026.8,211.2 1031.4,211.2 
	1037,222.8 1037,222.8 1037,211.2 1040,211.2 1040,225.9 1035.5,225.9 "/>
<polyline fill="#435261" points="1045.8,217.6 1045.8,217.6 1050.8,211.2 1054.4,211.2 1049,217.8 1054.9,225.9 1050.9,225.9 
	1045.8,218.4 1045.8,218.4 1045.8,225.9 1042.7,225.9 1042.7,211.2 1045.8,211.2 1045.8,217.6 "/>
<path fill="#435261" d="M930,239.8c-0.2,0-0.4-0.2-0.4-0.4v-9c0-0.2,0.2-0.4,0.4-0.4s0.4,0.2,0.4,0.4v9
	C930.4,239.6,930.2,239.8,930,239.8"/>
<g>
	<polygon fill="#435261" points="527,205.1 520.2,205.1 506.7,222.6 506.7,225.3 520.2,242.8 527,242.8 512,223.9 	"/>
	<path fill="#435261" d="M424.5,222.1c1.3-1.9,2.1-4.2,2.1-6.4c0-5.3-3.5-10.7-10.4-10.7h-11.8v29.1l-30.1-29.1H367l38.4,37.3
		c0.5,0.5,1.1,0.6,1.8,0.6c0.3,0,0.6,0,1-0.2c1-0.5,1.6-1.4,1.6-2.6v-30.4h6.7c3.8,0,5.8,2.9,5.8,5.8s-1.9,5.9-5.8,5.9h-4.8v0.6v3.8
		h8.2c0,0,5.3-0.3,7.2,3.2c0.3,0.6,0.5,1.4,0.6,2.6c0.2,5.1-3.7,6.2-4,6.2c-1.1,0-6.7,0-6.9,0H412v4.8h4.8c0,0,6.1,0,7,0l0,0
		c1.3,0,3.8-1,5.8-3c1.4-1.4,2.9-4.2,2.7-8.3C431.5,226.3,428.3,223.3,424.5,222.1z"/>
	<path fill="#435261" d="M461,204.9v33h-3.4c-0.8,0-1.3-0.5-1.6-0.8l-0.3-0.2l-6.6-8.3c5.1-1,8.2-4.8,9.1-9.1
		c0.2-0.8,0.2-1.6,0.2-2.4c0-1.3-0.2-2.6-0.6-3.8c-1.4-4.5-5.6-7.8-10.6-8.2c-0.2,0-0.3,0-0.6,0h-13.1v37.8h5.4v-33h7.2
		c0.2,0,0.3,0,0.5,0s0.3,0,0.5,0c3.2,0,5.1,1.9,6.1,4.2c0.5,1,0.6,1.9,0.6,2.9c0,2.6-1.3,4.6-3.2,5.9c-0.8,0.6-1.8,1-2.7,1
		c-0.3,0-0.6,0-1,0c-0.2,0-0.8,0-0.8,0h-5v2.2l1.6,1.9l11,13.9c0.3,0.3,0.8,0.6,1.4,0.6h8.5c0,0,2.7,0.2,3-2.6v-35L461,204.9
		L461,204.9z"/>
	<path fill="#435261" d="M486.7,238.1c0.2,0,0.5,0,0.6,0h-1.4C486.2,238.1,486.5,238.1,486.7,238.1z"/>
	<path fill="#435261" d="M499.8,204.9v9.6v23.5h-12.5c-0.2,0-0.5,0-0.6,0c-0.1,0-0.5,0-0.6,0c-1.8-0.2-3.5-0.6-5-1.4
		c-4.3-2.2-7.2-7-7.2-12.6c0-7.8,5.8-14.1,13-14.1c3.2,0,6.1,1.3,8.3,3.2l2.9-3.7c-3-2.7-7-4.5-11.4-4.5c0,0,0,0-0.2,0
		c-9.8,0-17.8,8.5-17.8,19c0,6.6,3.2,12.5,8,15.8c2.6,1.9,5.6,3.2,8.8,3.2c4.2,0,17,0,17,0l0,0c0,0,2.2,0.2,2.7-2.6v-35.4H499.8z"/>
</g>
<path id="path2192" fill="#435261" d="M210.8,64.5c-1.6,0.2-4.4,0.2-5.9,0.2v-7h5.3c0.8,0,1.6,0.2,2.3,0.2c0-0.2-0.2-0.5-0.2-0.6
	c0-0.2,0.2-0.5,0.2-0.6c-0.8,0-1.6,0.2-2.3,0.2h-5.3v-6h3.3l2.6,0.2c0.8,0,1.6,0.2,2.3,0.2c0-0.2-0.2-0.5-0.2-0.6
	c0-0.3,0.2-0.5,0.2-0.8h-10.5v16.1h10.7c0-0.2-0.2-0.5-0.2-0.6c0-0.3,0.2-0.5,0.2-0.8C212.5,64.5,211.5,64.5,210.8,64.5 M232.6,49.7
	h-0.9v16.2c0.2-0.2,0.5-0.2,0.8-0.2c0.2,0,0.5,0,0.6,0.2V53.1h0.3l11.4,11.3c0.6,0.6,1.1,1.1,1.4,1.5h0.8V49.7
	c-0.3,0-0.5,0.2-0.8,0.2s-0.5-0.2-0.8-0.2v12.2h-0.2L232.6,49.7L232.6,49.7z M200,63.3c-0.5,0.5-2.6,1.9-5.6,1.9c-4,0-7-2.8-7-7.4
	c0-3.9,2.3-7.4,7.2-7.4c2.8,0,4.7,1.5,5.1,2h0.2c0.2-0.6,0.3-1.2,0.5-1.9c-1.7-0.6-3.7-1.1-5.6-1.1c-5.6,0-10,3.1-10,8.3
	c0,5.1,3.6,8.3,9.3,8.3c2,0,4.2-0.3,5.8-1.2L200,63.3z M217.9,57.1v-6.5c1.1,0,4-0.2,5,0c2,0.3,3,1.4,3,2.9c0,1.9-1.4,3.1-3.4,3.4
	C221.2,57.3,218.4,57.1,217.9,57.1 M228.3,63.9l-5.4-6.2c2.6-0.3,5.4-1.7,5.4-4.5c0-2.3-1.9-3.6-5.9-3.6h-6.7v16.3
	c0.5-0.2,0.8-0.2,1.2-0.2c0.3,0,0.8,0,1.1,0.2V58h2.2l2,2.2l3.1,3.6c0.6,0.8,1.1,1.4,1.7,2.2c0.5-0.2,0.9-0.2,1.6-0.2
	c0.5,0,0.9,0,1.4,0.2l-0.5-0.6L228.3,63.9L228.3,63.9z M213.4,99.5c-1.7-0.2-3.4-0.6-5-1c4.1,4.1,9.1,7.2,14.7,9.2l1.9-2.1
	C220.8,104.2,216.8,102.2,213.4,99.5 M204.8,45.9h3.2c4.1-5.2,14.5-13,28.5-13c3,0,6,0.4,8.8,1.1c-1.1-1.2-2.3-2.2-3.6-3.2
	c-1.7-0.2-3.5-0.4-5.3-0.4C223.9,30.4,212.4,36.1,204.8,45.9 M236.4,107.4c-1.8,0-3.5-0.2-5.3-0.4l-2.1,2.2c2.4,0.4,4.8,0.7,7.3,0.7
	c11.4,0,21.7-4.7,29-12.3l-0.7-3C257.8,102.4,247.8,107.4,236.4,107.4 M269.8,92.1c3.3-4.9,5.4-10.5,6.3-16.6h0.2l6.4-45.6l-2.5-0.4
	L275.6,62c-2.7-12.7-11.5-23.2-23.3-28.3c1.1,1.4,2,2.8,2.9,4.3c11.2,6.5,18.7,18.5,18.7,32.2c0,6.7-1.8,13-4.9,18.4L269.8,92.1
	L269.8,92.1z M198.9,70.2v-0.9l-2.6-0.1v0.9c0,3.3,0.4,6.6,1.2,9.7c0.9,3.5,2.3,6.8,4,9.9c1.4,0.8,2.9,1.5,4.4,2.1
	c-2.7-3.7-4.7-7.9-5.9-12.6C199.4,76.3,198.9,73.2,198.9,70.2 M256.8,58.7c0,20.5-16.8,37.2-37.5,37.2c-17.2,0-32.2-11.6-36.4-28.1
	c-0.7-3-1.1-6-1.1-9.1c0-20.5,16.8-37.2,37.5-37.2C240.1,21.4,256.8,38.1,256.8,58.7 M219.3,18.9c-22.1,0-40,17.8-40,39.8
	c0,3.3,0.4,6.6,1.2,9.7c0.1,0.3,0.2,0.7,0.3,1l0,0l10,35.7l2.5-0.7L187,82.2c7.4,10,19.2,16.3,32.3,16.3c6.6,0,12.8-1.6,18.3-4.4
	l-32,34.9h3.5l39.8-43.5l0,0c5.4-5.9,9-13.4,10.1-21.7l15.3,65.1h2.6l-18.6-79.3l0,0c-3.1-13-12.5-23.6-24.9-28.2h59.2v-2.5"/>
</svg>
