<?xml version="1.0" encoding="utf-8"?>
<!DOCTYPE svg PUBLIC "-//W3C//DTD SVG 1.1//EN" "http://www.w3.org/Graphics/SVG/1.1/DTD/svg11.dtd">
<svg version="1.1" id="Layer_1" xmlns="http://www.w3.org/2000/svg" xmlns:xlink="http://www.w3.org/1999/xlink" x="0px" y="0px"
	 viewBox="0 0 1200 300" enable-background="new 0 0 1200 300" xml:space="preserve">
<path fill="#435261" d="M861.9,90.9H861c-5.3,0-9.6-4.3-9.6-9.6V77c0-3.1-2.5-5.6-5.6-5.6h-2.1c-3.1,0-5.6,2.5-5.6,5.6v4.3
			c0,3.1,2.5,5.6,5.6,5.6h2.1c1.5,0,2.9-0.6,4-1.6l0.9-0.9l0.3,0.7c0.3,0.9,0.8,1.8,1.4,2.6l0.3,0.3l-0.3,0.3
			c-1.7,1.7-4.1,2.6-6.6,2.6h-2.1c-5.3,0-9.6-4.3-9.6-9.6V77c0-5.3,4.3-9.6,9.6-9.6h2.1c5.3,0,9.6,4.3,9.6,9.6v4.3
			c0,3.1,2.5,5.6,5.6,5.6h0.9V90.9L861.9,90.9z"/>
<path fill="#435261" d="M863.9,90.9H863V87h0.9c3.1,0,5.6-2.5,5.6-5.6V77c0-5.3,4.3-9.6,9.6-9.6h0.9v3.9h-0.9
			c-3.1,0-5.6,2.5-5.6,5.6v4.3C873.5,86.6,869.2,90.9,863.9,90.9L863.9,90.9z"/>
<path fill="#435261" d="M890.9,90.9L890.9,90.9c-5.3,0-9.6-4.3-9.6-9.6V67.5h3.9v13.9c0,3.1,2.5,5.6,5.6,5.6
			c3.1,0,5.6-2.5,5.6-5.6V67.5h3.9v13.9c0,5.2-4.2,9.4-9.3,9.6L890.9,90.9L890.9,90.9z"/>
<path fill="#435261" d="M761.8,91h-2.1c-5.3,0-9.7-4.3-9.7-9.7V60.9h4.1v8.2c1.6-1.1,3.5-1.7,5.5-1.7h2.1c5.3,0,9.7,4.3,9.7,9.7
		v4.3C771.5,86.7,767.1,91,761.8,91L761.8,91z M759.7,71.5c-3,0-5.5,2.5-5.5,5.5v4.3c0,3,2.5,5.5,5.5,5.5h2.1c3,0,5.5-2.5,5.5-5.5
		V77c0-3-2.5-5.5-5.5-5.5H759.7L759.7,71.5z"/>
<path fill="#435261" d="M812.2,91h-1c-5.3,0-9.6-4.3-9.6-9.6V61.1h4.1v6.4c2.1,0,3.5,0,3.5,0l0.5,0v4.1l-3.9,0v9.7
			c0,3,2.5,5.5,5.5,5.5h1V91L812.2,91z"/>
<path fill="#435261" d="M832.8,91h-4.1V77.1c0-3-2.5-5.5-5.5-5.5c-3,0-5.5,2.5-5.5,5.5V91h-4.1V61.1h4.1v8.2
			c1.6-1.1,3.5-1.7,5.5-1.7c5.3,0,9.5,4.3,9.5,9.6V91L832.8,91z"/>
<path fill="#435261" d="M800.8,90.9H800c-5.3,0-9.6-4.3-9.6-9.6V77c0-3.1-2.5-5.6-5.6-5.6h-2.1c-3.1,0-5.6,2.5-5.6,5.6v4.3
			c0,3.1,2.5,5.6,5.6,5.6h2.1c1.5,0,2.9-0.6,4-1.6l0.9-0.9l0.3,0.7c0.3,0.9,0.8,1.8,1.4,2.6l0.3,0.3l-0.3,0.3
			c-1.7,1.7-4.1,2.6-6.6,2.6h-2.1c-5.3,0-9.6-4.3-9.6-9.6V77c0-5.3,4.3-9.6,9.6-9.6h2.1c5.3,0,9.6,4.3,9.6,9.6v4.3
			c0,3.1,2.5,5.6,5.6,5.6h0.9V90.9L800.8,90.9z"/>
<path fill="#435261" d="M910.8,84.7c-0.7,0-1.4-0.4-1.8-1c-1-1.8-1.6-3.8-1.6-5.8c0-6.4,5.2-11.7,11.7-11.7c1.1,0,2,0.9,2,2.1
			c0,1.1-0.9,2.1-2.1,2.1c-4.2,0-7.6,3.4-7.6,7.6c0,1.3,0.4,2.6,1,3.8c0.2,0.3,0.3,0.7,0.3,1C912.9,83.8,912,84.7,910.8,84.7
			L910.8,84.7z"/>
<path fill="#435261" d="M914.9,73.3c-1.2,1.1-2,2.7-2,4.5c0,1.1,0.3,2.2,0.8,3.1c0.3,0.5,0.5,1.1,0.5,1.7c0,1.4-0.8,2.5-2,3.1
		c1.6,0.5,3.4,0.3,4.9-0.6c1-0.6,1.7-1.4,2.3-2.3c0.3-0.5,0.7-0.9,1.3-1.2c1.2-0.7,2.6-0.6,3.7,0.2c-0.4-1.6-1.4-3.1-2.9-4
		c-1-0.6-2-0.8-3.1-0.8c-0.6,0-1.2-0.2-1.7-0.5C915.5,75.9,914.8,74.6,914.9,73.3L914.9,73.3z"/>
<path fill="#435261" d="M914.1,91.5c-4.2,0-8-2.2-10.1-5.8c-0.6-1-0.2-2.2,0.8-2.8c1-0.5,2.3-0.2,2.8,0.7c1.3,2.3,3.9,3.8,6.5,3.8
			c1.3,0,2.6-0.4,3.8-1c1.1-0.7,2.1-1.6,2.8-2.8c0.2-0.3,0.4-0.6,0.8-0.7c0.9-0.6,2.3-0.2,2.8,0.8c0.4,0.6,0.4,1.4,0,2
			c-1,1.8-2.5,3.2-4.3,4.3C918.2,91,916.2,91.5,914.1,91.5L914.1,91.5z"/>
<path fill="#435261" d="M926.7,90.1c-0.4,0-0.7-0.1-1-0.3c-1-0.6-1.3-1.8-0.8-2.8c2.1-3.6,0.8-8.2-2.8-10.3c-1.1-0.7-2.4-1-3.8-1
			c-0.4,0-0.7-0.1-1-0.3c-1-0.6-1.3-1.8-0.8-2.8c0.4-0.6,1-1,1.8-1c2,0,4.1,0.5,5.8,1.6c2.7,1.6,4.6,4.1,5.4,7.1
			c0.8,3,0.4,6.2-1.2,8.8C928.1,89.7,927.4,90.1,926.7,90.1L926.7,90.1z"/>
<path fill="#435261" d="M95.2,205.5c0,3.2-2.6,5.8-5.8,5.8s-5.8-2.6-5.8-5.8c0-3.2,2.6-5.8,5.8-5.8S95.2,202.3,95.2,205.5z
	 M63.9,211.3c3.2,0,5.8-2.6,5.8-5.8c0-3.2-2.6-5.8-5.8-5.8s-5.8,2.6-5.8,5.8C58.1,208.7,60.7,211.3,63.9,211.3z M171.5,228.9v3.9
	c0,3.7-2.3,7.6-7.5,7.6c-5.3,0-7.6-3.8-7.6-7.6v-12.5h15v-9.9h-15v-8.8h-10.5v30.5c0,10.3,7.1,18.1,18.1,18.1s18-7.7,18-18.1v-3.3
	L171.5,228.9L171.5,228.9z M141,233h-30.9c1.4,5,5.3,8.1,10.3,8.1c3.5,0,6.9-1.5,8.7-4.8h11.2c-2.4,8.3-9.6,14-19.8,14
	c-11.5,0-21-9.5-21-21.4s9.5-21.6,21-21.6C132.5,207.4,142.5,216.7,141,233z M130.6,224.4c-1.3-4.8-5.3-7.8-10.3-7.8
	c-4.8,0-8.6,3-10.1,7.8H130.6z M84.1,232.8c0,3.7-2.3,7.6-7.6,7.6c-5.2,0-7.5-3.8-7.5-7.6v-3.7H58.6v3.1c0,10.3,7,18.1,18,18.1
	s18.1-7.7,18.1-18.1v-17.1H84.1L84.1,232.8L84.1,232.8z"/>
<rect x="606" y="67.7" fill="#435261" width="6.3" height="18.9"/>
<path fill="#435261" d="M604,71.7h-8.8l-5.2,5.2h7.1c-0.9,2.1-3,3.5-5.4,3.5c-3.3,0-5.9-2.7-5.9-5.9s2.7-5.9,5.9-5.9
	c1.2,0,2.3,0.4,3.2,0.9l4.8-4.8c-2.2-1.8-5-2.9-8-2.9c-7,0-12.6,5.7-12.6,12.7c0,7,5.7,12.6,12.6,12.6c7,0,12.7-5.7,12.7-12.6
	C604.3,73.5,604.2,72.6,604,71.7"/>
<rect x="606" y="62.2" fill="#435261" width="6.3" height="3.8"/>
<polygon fill="#435261" points="626.4,86.7 621,86.7 620.9,86.6 613.5,67.6 620.2,67.6 623.7,78.2 627.2,67.6 633.8,67.6 	"/>
<rect x="635" y="67.7" fill="#435261" width="6.3" height="18.9"/>
<rect x="635" y="62.2" fill="#435261" width="6.3" height="3.8"/>
<path fill="#435261" d="M660.6,86.6h-6.2V76.1c0-2-0.8-3-2.4-3c-2.1,0-2.5,1.6-2.5,3v10.5h-6.3V67.7h4.3l1.7,1.7
		c1.4-1.4,2.9-2,4.8-2c4.1,0,6.6,2.8,6.6,7.2V86.6L660.6,86.6z"/>
<path fill="#435261" d="M518.4,86.9c-3.3,0-6-1.2-8-3.7l-0.4-0.4l4.2-4.2l0.2,0.3c1.3,1.5,2.5,2.1,3.8,2.1c1.7,0,2.5-1,2.5-3.2
		V62.2h6.5V78C527.2,83.7,524,86.9,518.4,86.9"/>
<path fill="#435261" d="M677.6,67.7l-1.6,1.6c-1.5-1.3-3.2-1.9-5.3-1.9c-4.2,0-8.5,3.1-8.5,8.9v0.1c0,5.9,4.3,8.9,8.5,8.9
		c2,0,3.6-0.6,5-1.8c-0.3,2.2-1.6,3.7-4.3,3.7c-1.6,0-3-0.3-4.5-0.9l-4.1,4.1l0.6,0.3c2.4,1.3,5.2,1.9,8.1,1.9
		c7.2,0,10.6-3.7,10.6-10.5V67.7L677.6,67.7L677.6,67.7z M676.2,76.3c0,2.2-1.7,3.8-4,3.8c-2.4,0-4-1.5-4-3.8v-0.1
		c0-2.2,1.7-3.8,4-3.8C674.5,72.5,676.2,74.1,676.2,76.3L676.2,76.3z"/>
<path fill="#435261" d="M535.9,86.9c-4.1,0-6.6-2.8-6.6-7.2V67.7h6.3v10.5c0,2,0.8,3,2.4,3c2.1,0,2.5-1.6,2.5-3V67.7h6.3v18.9h-4.3
		l-1.7-1.7C539.3,86.2,537.8,86.9,535.9,86.9"/>
<path fill="#435261" d="M572.6,86.9c-3.9,0-5.8-1.9-5.8-5.9v-7.8h-2.1v-5.5h2.1v-5.4h6.3v5.4h4.1v5.5h-4.1v6.9c0,0.8,0.2,1.1,1,1.1
		s1.5-0.2,2.2-0.6l0.9-0.5v5.4l-0.3,0.2C575.6,86.5,574.2,86.9,572.6,86.9"/>
<path fill="#435261" d="M558,74.9l-0.6-0.2c-1.5-0.5-2.8-1-2.8-1.6v-0.1c0-0.6,0.8-0.8,1.5-0.8c1,0,2.4,0.4,3.8,1.2l3.6-3.6
		l-0.3-0.2c-2-1.4-4.7-2.2-7-2.2c-4.2,0-7.1,2.5-7.1,6.2v0.1c0,3.7,2.9,5,5.7,5.9c0.2,0.1,0.5,0.1,0.7,0.2c1.5,0.4,2.8,0.8,2.8,1.5
		v0.1c0,0.8-0.9,0.9-1.8,0.9c-1.5,0-3.3-0.7-5-1.8L548,84L548,84l0.3,0.2c2.3,1.8,5.2,2.8,8.1,2.8c4.6,0,7.4-2.4,7.4-6.3v-0.1
		C563.8,76.9,560,75.6,558,74.9"/>
<polygon fill="#435261" points="683.5,68.5 684.4,68.5 684.4,70.7 685.4,70.7 685.4,68.5 686.3,68.5 686.3,67.7 683.5,67.7 	"/>
<polygon fill="#435261" points="688.9,67.7 688.3,68.7 687.6,67.7 686.6,67.7 686.6,70.7 687.6,70.7 687.6,69.2 688,69.9
		688.5,69.9 689,69.2 689,70.7 690,70.7 690,67.7 	"/>
<path fill="#435261" d="M450,73.2V70H446v-4.9l-0.1,0l-3.7,1.1l-0.1,0V70h-5.8v-2.1c0-1,0.2-1.7,0.7-2.2
		c0.4-0.5,1-0.7,1.8-0.7c0.6,0,1.1,0.1,1.7,0.4l0.1,0.1v-3.3l-0.1,0c-0.5-0.2-1.3-0.3-2.2-0.3c-1.1,0-2.2,0.2-3.1,0.7
		c-0.9,0.5-1.6,1.2-2.1,2.1c-0.5,0.9-0.8,1.9-0.8,3.1V70h-2.7v3.2h2.8v13.3h3.9V73.2h5.8v8.5c0,3.5,1.7,5.3,4.9,5.3
		c0.5,0,1.1-0.1,1.7-0.2s1-0.2,1.2-0.4l0.1,0v-3.2l-0.2,0.1c-0.2,0.1-0.5,0.3-0.8,0.4c-0.3,0.1-0.6,0.1-0.8,0.1
		c-0.8,0-1.3-0.2-1.7-0.6c-0.4-0.4-0.5-1.1-0.5-2.1v-7.8L450,73.2L450,73.2z M420.9,83.7c-1.4,0-2.5-0.5-3.3-1.4
		c-0.8-0.9-1.2-2.3-1.2-4c0-1.8,0.4-3.1,1.2-4.1c0.8-0.9,1.9-1.4,3.3-1.4c1.4,0,2.4,0.5,3.2,1.4c0.8,0.9,1.2,2.3,1.2,4
		c0,1.8-0.4,3.2-1.1,4.1C423.4,83.2,422.3,83.7,420.9,83.7 M421.1,69.6c-2.7,0-4.9,0.8-6.4,2.4c-1.5,1.6-2.3,3.7-2.3,6.5
		c0,2.6,0.8,4.7,2.3,6.2c1.5,1.5,3.6,2.3,6.1,2.3c2.6,0,4.8-0.8,6.3-2.4c1.5-1.6,2.3-3.7,2.3-6.4c0-2.6-0.7-4.7-2.2-6.2
		C425.7,70.4,423.6,69.6,421.1,69.6 M406,69.6c-1.8,0-3.4,0.5-4.6,1.4c-1.2,0.9-1.8,2.2-1.8,3.7c0,0.8,0.1,1.5,0.4,2
		s0.7,1.1,1.2,1.5c0.5,0.4,1.3,0.9,2.4,1.3c0.9,0.4,1.6,0.7,2,0.9c0.4,0.2,0.7,0.5,0.9,0.7c0.2,0.2,0.2,0.5,0.2,0.9
		c0,1.1-0.8,1.7-2.5,1.7c-0.6,0-1.4-0.1-2.1-0.4c-0.8-0.3-1.5-0.6-2.2-1.1l-0.2-0.1V86l0.1,0c0.6,0.3,1.3,0.5,2.1,0.7
		c0.8,0.2,1.6,0.3,2.2,0.3c2,0,3.6-0.5,4.8-1.4c1.2-0.9,1.8-2.2,1.8-3.7c0-1.1-0.3-2.1-1-2.8c-0.6-0.8-1.7-1.5-3.3-2.1
		c-1.2-0.5-2-0.9-2.3-1.2c-0.3-0.3-0.5-0.7-0.5-1.3c0-0.5,0.2-0.9,0.6-1.2s1-0.5,1.7-0.5c0.7,0,1.3,0.1,2,0.3
		c0.7,0.2,1.2,0.5,1.7,0.8l0.2,0.1v-3.6l-0.1,0c-0.5-0.2-1-0.4-1.8-0.5C407.2,69.7,406.6,69.6,406,69.6 M389.4,83.7
		c-1.4,0-2.5-0.5-3.3-1.4c-0.8-0.9-1.2-2.3-1.2-4c0-1.8,0.4-3.1,1.2-4.1c0.8-0.9,1.9-1.4,3.3-1.4c1.4,0,2.4,0.5,3.2,1.4
		c0.8,0.9,1.2,2.3,1.2,4c0,1.8-0.4,3.2-1.1,4.1C391.9,83.2,390.9,83.7,389.4,83.7 M389.6,69.6c-2.7,0-4.9,0.8-6.4,2.4
		c-1.5,1.6-2.3,3.7-2.3,6.5c0,2.6,0.8,4.7,2.3,6.2c1.5,1.5,3.6,2.3,6.1,2.3c2.6,0,4.8-0.8,6.3-2.4c1.5-1.6,2.3-3.7,2.3-6.4
		c0-2.6-0.7-4.7-2.2-6.2C394.2,70.4,392.2,69.6,389.6,69.6 M374.9,72.9V70H371v16.5h3.9v-8.4c0-1.4,0.3-2.6,1-3.5
		c0.6-0.9,1.5-1.3,2.5-1.3c0.4,0,0.7,0.1,1.2,0.2c0.4,0.1,0.7,0.2,0.9,0.4l0.2,0.1V70l-0.1,0c-0.4-0.2-0.9-0.2-1.5-0.2
		c-1,0-1.8,0.3-2.6,0.9C375.7,71.2,375.3,71.9,374.9,72.9C374.9,72.9,374.9,72.9,374.9,72.9z M364.1,69.6c-1.8,0-3.4,0.4-4.7,1.1
		s-2.4,1.8-3.1,3.2s-1.1,3-1.1,4.7c0,1.6,0.4,3,1,4.3s1.7,2.2,2.9,2.9c1.2,0.7,2.7,1,4.2,1c1.8,0,3.4-0.4,4.7-1.1l0.1,0v-3.6
		l-0.2,0.1c-0.6,0.4-1.2,0.8-1.9,1c-0.7,0.2-1.3,0.4-1.9,0.4c-1.5,0-2.7-0.5-3.6-1.4c-0.9-0.9-1.3-2.3-1.3-3.9c0-1.7,0.5-3,1.4-4
		c0.9-1,2.1-1.5,3.6-1.5c1.3,0,2.5,0.4,3.7,1.3l0.2,0.1v-3.7l-0.1,0c-0.4-0.2-1.1-0.5-1.8-0.6C365.5,69.7,364.7,69.6,364.1,69.6
		 M352.5,70h-3.9v16.5h3.9V70z M350.6,63c-0.6,0-1.2,0.2-1.7,0.7c-0.5,0.4-0.7,1-0.7,1.6c0,0.6,0.2,1.2,0.7,1.6
		c0.5,0.4,1,0.6,1.7,0.6s1.2-0.2,1.7-0.6c0.5-0.4,0.7-0.9,0.7-1.6c0-0.6-0.2-1.2-0.7-1.6C351.8,63.2,351.3,63,350.6,63 M340.9,68.8
		v17.7h4v-23h-5.5l-7,17.1l-6.8-17.1h-5.7v23h3.7V68.8h0.1l7.1,17.7h2.8l7-17.7L340.9,68.8L340.9,68.8z"/>
	<path fill="#435261" d="M288.3,74.1H270V55.8h18.3V74.1z"/>
	<path fill="#435261" d="M308.4,74.1h-18.3V55.8h18.3V74.1z"/>
	<path fill="#435261" d="M288.3,94.2H270V75.9h18.3V94.2z"/>
	<path fill="#435261" d="M308.4,94.2h-18.3V75.9h18.3V94.2z"/>
<polygon fill="#435261" points="1025.7,69.2 1037.3,69.2 1051.5,53.6 1040.3,53.6 "/>
<path fill="#435261" d="M1094.8,74.7c2.9-2.5,4.1-6.6,4.1-9.2c0-1.9-0.8-11.8-16.4-11.8h-18.7v45.1h20.6c2.6,0,7.8-0.3,10.8-2.9
	c4.1-3.7,4.9-7.4,4.9-9.6C1100,80.6,1097.5,77,1094.8,74.7z M1073.1,61.4h11.2c3,0,5.6,1.1,5.6,5.1c0,3.7-2.3,5.2-6.4,5.2h-10.5
	V61.4L1073.1,61.4z M1084,91h-10.8V79.5h12.6c1.9,0,5.3,0,5.3,5.2C1091,91,1087,91,1084,91z"/>
<path fill="#435261" d="M1140.8,74.7c3.3-2.5,4.1-6.6,4.1-9.2c0-1.9-0.8-11.8-16.4-11.8h-18.7v45.1h20.6c2.6,0,7.8-0.3,10.7-2.9
	c4.2-3.7,4.9-7.4,4.9-9.6C1146,80.6,1143.3,77,1140.8,74.7z M1119,61.4h11.2c3,0,5.6,1.1,5.6,5.1c0,3.7-2.2,5.2-6.3,5.2H1119V61.4
	L1119,61.4z M1129.9,91h-10.8V79.5h12.7c1.8,0,5.3,0,5.3,5.2C1137,91,1132.9,91,1129.9,91z"/>
<path fill="#435261" d="M1037.7,53.2c-2.4-0.7-4.8-1.1-7.4-1.1c-13.5,0-24.3,10.6-24.3,24.1c0,12.9,10.9,23.8,24.3,23.8
	c13.1,0,24-10.9,24-23.8c0-6.2-2.2-11.7-6-16l-6.4,6.8c2,2.5,3.2,5.7,3.2,9.1c0,7.8-6.8,14.5-14.7,14.5c-8.3,0-15-6.7-15-14.5
	c0-8.2,6.7-14.8,15-14.8L1037.7,53.2L1037.7,53.2z"/>
<g>
	<path fill="#435261" d="M585.7,214.1c-3.8,0-6.9,2.6-7.8,6.1c0,0,0,0,0,0.1h15.7C592.7,216.7,589.5,214.1,585.7,214.1z"/>
	<path fill="#435261" d="M619,214.1c-4.4,0-8,3.6-8,8s3.6,8,8,8s8-3.6,8-8C627,217.7,623.4,214.1,619,214.1z M619,224.9
		c-1.5,0-2.8-1.2-2.8-2.8s1.2-2.8,2.8-2.8c1.5,0,2.8,1.2,2.8,2.8C621.8,223.6,620.5,224.9,619,224.9z"/>
	<path fill="#435261" d="M591.7,172.5c-27.5,0-49.8,22.3-49.8,49.8s22.3,49.8,49.8,49.8s49.8-22.3,49.8-49.8
		S619.2,172.5,591.7,172.5z M573.2,233.2c-0.4,0-0.8-0.2-1.1-0.5l-8.5-8.5l-8.5,8.5c-0.3,0.3-0.7,0.4-1.1,0.4
		c-0.8,0-1.5-0.7-1.5-1.5c0-0.4,0.2-0.8,0.5-1.1l8.5-8.5l-8.5-8.5c-0.3-0.3-0.5-0.7-0.5-1.1c0-0.8,0.7-1.5,1.5-1.5
		c0.4,0,0.8,0.2,1.1,0.4l8.5,8.5c0,0,8.5-8.5,8.5-8.5c0.3-0.3,0.7-0.5,1.1-0.5c0.8,0,1.5,0.7,1.5,1.5c0,0.4-0.2,0.8-0.4,1.1
		l-8.5,8.5l8.5,8.5c0.3,0.3,0.4,0.7,0.4,1.1C574.7,232.5,574,233.2,573.2,233.2z M593.6,223.3c0,0-15,0-15.9,0c0,0.1,0,0.2,0,0.2
		c0.1,0.4,0.2,0.9,0.3,1.3c0.8,2.2,3.2,5.3,7.6,5.3c1.4,0,2.6-0.3,3.7-0.9c0.9-0.5,1.6-1.1,2.2-1.8c0.2-0.2,0.4-0.5,0.5-0.7
		c0.7-1,1.7-0.8,2.2-0.3c0.7,0.5,0.8,1.6,0.2,2.3c0,0,0,0,0,0.1c-0.9,1.1-1.8,2-2.9,2.7c-1,0.7-2.2,1.1-3.3,1.4
		c-1.4,0.3-2.7,0.4-4,0.3c-4.5-0.6-8.3-3.9-9.5-8.3c-0.2-0.9-0.3-1.8-0.3-2.7c0-3.6,1.7-7,4.7-9.2c3.7-2.6,8.6-2.7,12.4-0.3
		c2.6,1.6,4.3,4.2,4.9,7.3C596.9,221.7,595.8,223.3,593.6,223.3z M606.4,214.2c-3.3,0.4-3.7,2-3.7,5.8v11.6c0,0.8-0.7,1.5-1.5,1.5
		c-0.8,0-1.5-0.7-1.5-1.5c0,0,0-18.8,0-18.8c0-0.8,0.7-1.5,1.5-1.5c0.7,0,1.3,0.5,1.5,1.2c1.1-0.9,2.5-1.3,3.9-1.3h0.5
		c0.8,0,1.5,0.7,1.5,1.5c0,0.8-0.6,1.5-1.5,1.5C607,214.1,606.7,214.1,606.4,214.2z M619,233.3c-6.2,0-11.2-5-11.2-11.2
		s5-11.2,11.2-11.2s11.2,5,11.2,11.2S625.1,233.3,619,233.3z"/>
</g>
<path fill="#435261" d="M757.5,237.6c3.2,0,6.2-0.5,8.8-1.4c0.7-0.2,1.3-0.5,1.9-0.8c-0.8,1.8-1.8,3.3-3.2,4.4
	c-2.8,2.1-6.1,3.5-9.7,4C756.2,242.3,756.9,240.1,757.5,237.6 M742.6,241.9c-0.1,0-0.1-0.1-0.2-0.1c-1.2-0.6-1.7-3.4-1.1-7.6
	c2.4,1.1,5,1.9,7.7,2.5c2.1,0.4,4.1,0.7,6.2,0.8c-1,4.3-2.2,6.6-3.1,6.6c0,0-0.1,0-0.2,0C748.6,244,745.4,243.3,742.6,241.9
	 M731.1,228.2c-0.2-0.7-0.3-1.5-0.4-2.2c0.8,1.1,1.7,2.1,2.7,3.1c1.6,1.5,3.6,2.9,5.7,4c-0.4,2.5-0.6,4.7-0.3,6.5
	C735.2,236.8,732.4,232.8,731.1,228.2 M758.9,222.2c0-0.9,0-1.8,0-2.6c2.8-0.2,5.4-0.9,7.5-2.1c1.9,3.9,3,7.9,3,11.8
	c0,1.1-0.1,2.2-0.3,3.2c-1,0.6-2.2,1.1-3.5,1.6c-2.3,0.8-4.9,1.2-7.7,1.3C758.6,231.3,758.9,226.7,758.9,222.2 M749.5,234.5
	c-2.8-0.6-5.4-1.5-7.8-2.6c0.8-3.5,2.2-7.8,4.5-12.5c0.3-0.7,0.7-1.4,1-2c1.6,0.7,3.4,1.3,5.2,1.7c1.4,0.3,2.8,0.5,4.1,0.5
	c0,0.8,0,1.7,0,2.6c0,5.3-0.4,9.7-1,13.1C753.6,235.2,751.6,234.9,749.5,234.5 M735,227.5c-1.9-1.8-3.2-3.6-3.9-5.5
	c0.5-2.1,1.5-4.1,3-6.1c1.4-1.9,3.2-3.6,5.2-5c0.6,1.1,1.4,2.1,2.5,3.1c1,0.9,2.2,1.8,3.4,2.5c-0.4,0.7-0.7,1.4-1,2
	c-2,4.1-3.6,8.4-4.6,12.4C737.9,229.8,736.3,228.7,735,227.5 M757.4,206.7c2.6,1.9,4.9,4.3,6.8,7.2c0.4,0.5,0.7,1.1,1.1,1.6
	c-1.8,1-4.1,1.6-6.5,1.8C758.5,213.5,758.1,209.8,757.4,206.7 M752.9,216.9c-1.6-0.4-3.2-0.8-4.6-1.5c2.1-3.7,4.4-6.8,6.6-9.2
	c0.7,2.8,1.3,6.5,1.5,11.1C755.3,217.3,754.1,217.2,752.9,216.9 M743.4,212.2c-0.9-0.9-1.6-1.8-2.1-2.7c2.1-1.3,4.4-2.3,6.9-3
	c1.5-0.4,3-0.8,4.5-1c-2.2,2.4-4.3,5.5-6.3,8.9C745.2,213.8,744.2,213.1,743.4,212.2 M738.6,205.1c0,0.1-0.1,0.2-0.1,0.4
	c-0.2,1.1-0.2,2.1,0.1,3.2c-2.4,1.7-4.5,3.6-6.2,5.8c-0.5,0.7-1,1.4-1.4,2C732.2,212,734.9,208,738.6,205.1 M740.6,205.9
	c0.3-1.2,0.9-2.2,2-3.1c2.6-0.8,5.6-0.6,8.9,0.6c-1.3,0.2-2.7,0.5-4,0.9c-2.5,0.8-4.8,1.8-6.9,3
	C740.5,206.9,740.5,206.4,740.6,205.9 M758.8,203c0.8-0.5,1.5-0.8,2.1-1c1.1,0.4,2.2,1,3.3,1.8C762.5,203.3,760.7,203.1,758.8,203
	 M755.1,200.6c0.9,0.1,1.9,0.3,2.9,0.5c-0.6,0.3-1.3,0.8-1.9,1.3C755.7,201.7,755.4,201.1,755.1,200.6 M752.6,201.5
	c-1-0.4-2-0.7-3-0.9c0.8-0.1,1.6-0.1,2.4-0.1c0.4,0,0.8,0.5,1.3,1.3C753.1,201.7,752.9,201.6,752.6,201.5 M728,222.2
	c0,2.3,0.3,4.5,0.9,6.6c0,0.1,0.1,0.3,0.1,0.4c0,0,0,0,0,0.1c3,9.8,12.2,17,23,17c5,0,9.6-1.5,13.5-4.1c0,0,0.1,0,0.1-0.1
	c0.2-0.2,0.4-0.3,0.7-0.5c4.4-3.3,7.7-8,9.1-13.5c0.1-0.3,0.1-0.5,0.2-0.8c0-0.1,0-0.1,0-0.2c0.3-1.6,0.5-3.2,0.5-4.9
	c0-3.3-0.6-6.4-1.9-9.4c-0.2-0.6-0.9-0.8-1.5-0.6c-0.6,0.2-0.8,0.9-0.6,1.5c1.1,2.7,1.7,5.6,1.7,8.5c0,1.8-0.2,3.6-0.6,5.3
	c-0.3,1.1-0.9,2-1.7,2.9c0-0.4,0-0.8,0-1.1c0-4.3-1.2-8.8-3.4-13.1c1.6-1.4,2.6-3.1,3-5c0.1-0.6-0.3-1.2-0.9-1.3s-1.2,0.3-1.3,0.9
	c-0.2,1.3-0.9,2.4-1.9,3.4c-0.3-0.5-0.7-1.1-1-1.6c-2-2.9-4.3-5.4-6.8-7.4c3.4,0.2,6.5,1,9,2.4c0.4,0.2,0.9,0.2,1.3-0.1
	c0.5-0.4,0.5-1.1,0.1-1.6c-3.6-5-9.8-7.8-17.6-7.8C738.8,198.2,728,209,728,222.2"/>
<path fill="#435261" d="M930.7,233.7c1.6,0,2.4,0.8,2.4,2.1c0,1.3-0.8,2.1-2.3,2.1h-1v2h-1.3v-6.2L930.7,233.7 M929.8,236.8h0.8
	c0.8,0,1.1-0.3,1.1-1c0-0.7-0.4-1-1.2-1h-0.8V236.8L929.8,236.8z M926.1,237.4c0,0.9-0.4,1.4-1.1,1.4c-0.7,0-1.1-0.4-1.1-1.4v-3.7
	h-1.3v3.6c0,0.9,0.2,1.6,0.7,2c0.4,0.4,1,0.6,1.8,0.6c1.1,0,2.4-0.4,2.4-2.6v-3.6h-1.3L926.1,237.4L926.1,237.4z M919,233.6
	c1.3,0,2.8,0.8,2.8,3.2c0,2.3-1.4,3.1-2.8,3.1s-2.8-0.8-2.8-3.1C916.2,234.4,917.7,233.6,919,233.6 M919,238.7c0.5,0,1.4-0.3,1.4-2
	s-0.9-2-1.4-2c-0.9,0-1.4,0.7-1.4,2C917.6,238,918.1,238.7,919,238.7 M914.9,238c0.2,0.4,0.4,0.8,0.8,0.8h0.3v1h0
	c0,0-0.2,0.1-0.7,0.1c-1,0-1.4-0.7-1.6-1.3c-0.2-0.5-0.4-1-1-1h-0.6v2.3h-1.3v-6.2h2.2c1.6,0,2.3,0.6,2.3,2c0,0.8-0.5,1.3-1,1.6
	C914.6,237.4,914.7,237.7,914.9,238 M912.2,236.5h0.7c0.7,0,1.2-0.4,1.2-0.9c0-0.6-0.4-0.9-1.1-0.9h-0.8V236.5L912.2,236.5z
	 M907.3,237.6h1.4v0.1c0,0.4-0.1,1.1-1.1,1.1c-0.9,0-1.4-0.7-1.4-2c0-1.3,0.5-2,1.4-2c1.1,0,1.1,1.1,1.1,1.1v0.1l1.2-0.2v0
	c0-0.4-0.4-2.1-2.3-2.1c-1.8,0-2.7,1.1-2.7,3.2c0,2,1,3.1,2.8,3.1s2.4-1.2,2.4-2.2v-1.1h-2.6L907.3,237.6L907.3,237.6z M903.4,233.7
	h-1.6l-2,2.8v-2.8h-1.3v6.2h1.3V237l2.1,2.9h1.6l-2.4-3.1L903.4,233.7z M895.9,237.5l-2.2-3.8h-1.3v6.2h1.3v-3.7l2.2,3.7h1.3v-6.2
	h-1.3V237.5z M889.8,233.7l2.2,6.2h-1.4l-0.5-1.5h-2.1l-0.5,1.5h-1.4l2.3-6.2L889.8,233.7L889.8,233.7z M889.1,235.3l-0.7,1.9h1.4
	L889.1,235.3z M885,236.6c0.5,0.1,1.1,0.6,1.1,1.5c0,1.1-0.8,1.8-2.2,1.8h-2.6v-6.2h2.4c1.3,0,2,0.6,2,1.7
	C885.6,236.2,885.3,236.5,885,236.6 M883.5,236.2c0.5,0,0.8-0.2,0.8-0.7c0-0.5-0.3-0.7-1-0.7h-0.7v1.4H883.5z M882.6,238.7h1
	c0.7,0,1-0.3,1-0.8c0-0.7-0.6-0.8-1-0.8h-1V238.7L882.6,238.7z M875.8,233.7c1.9,0,3.1,1.2,3.1,3.2c0,1.9-1,3-2.8,3H874v-6.2
	L875.8,233.7L875.8,233.7z M875.3,238.7h0.8c1,0,1.5-0.7,1.5-1.9c0-1.4-0.6-2.1-1.8-2.1h-0.5L875.3,238.7L875.3,238.7L875.3,238.7z
	 M870.7,233.7h-1.3v6.2h4v-1.1h-2.7L870.7,233.7L870.7,233.7z M867.6,238c0.2,0.4,0.4,0.8,0.8,0.8h0.3v1h0c0,0-0.2,0.1-0.6,0.1
	c-1,0-1.4-0.7-1.6-1.3c-0.2-0.5-0.4-1-1-1h-0.6v2.3h-1.3v-6.2h2.2c1.6,0,2.3,0.6,2.3,2c0,0.8-0.5,1.3-1,1.6
	C867.3,237.4,867.5,237.7,867.6,238 M864.9,236.5h0.7c0.7,0,1.2-0.4,1.2-0.9c0-0.6-0.4-0.9-1.1-0.9h-0.8L864.9,236.5L864.9,236.5z
	 M860,233.6c1.3,0,2.8,0.8,2.8,3.2c0,2.3-1.4,3.1-2.8,3.1s-2.8-0.8-2.8-3.1C857.3,234.4,858.7,233.6,860,233.6 M860,238.7
	c0.5,0,1.4-0.3,1.4-2s-0.9-2-1.4-2c-0.9,0-1.4,0.7-1.4,2S859.1,238.7,860,238.7 M855.6,233.7h1.5l-1.8,6.2h-1.5l-1.1-3.9l-1.1,3.9
	h-1.5l-1.8-6.2h1.5l1,4.5l1.2-4.5h1.1l1.2,4.5L855.6,233.7z"/>
<rect x="787.3" y="231.8" fill="#435261" width="1.6" height="8"/>
<path fill="#435261" d="M790.3,239.8v-8h3c1.6,0,2.6,0.6,2.6,2.1c0,1.4-0.8,1.7-1.2,1.7v0c0.5,0,1.8,0.5,1.8,2
	c0,1.7-1.3,2.2-2.8,2.2L790.3,239.8 M793.2,235.2c0.9,0,1.1-0.4,1.1-1.1c0-0.7-0.4-1-1.4-1h-1.1v2.1L793.2,235.2L793.2,235.2z
	 M793.3,238.6c0.8,0,1.4-0.3,1.4-1.1c0-0.8-0.6-1.1-1.4-1.1h-1.4v2.3L793.3,238.6L793.3,238.6z"/>
<path fill="#435261" d="M804.2,239.8c0,0-0.3,0.1-0.8,0.1c-2.4,0-1.8-3.1-3.5-3.1H799v3h-1.6v-8h2.8c2,0,3,0.7,3,2.5
	c0,1.2-0.8,1.8-1.4,2c0.8,0.7,0.9,2.2,1.9,2.2h0.3V239.8 M800.1,235.6c1,0,1.7-0.4,1.7-1.3c0-0.8-0.6-1.3-1.5-1.3H799v2.6H800.1z"/>
<path fill="#435261" d="M804.9,239.8v-8h2.3c2.1,0,4,1.1,4,4.1c0,2.9-1.7,3.9-3.7,3.9H804.9 M807.6,238.6c1.2,0,2.1-0.9,2.1-2.6
	c0-1.8-0.8-2.9-2.4-2.9h-0.8v5.5L807.6,238.6L807.6,238.6z"/>
<path fill="#435261" d="M815.9,238c-0.8,0-1.5-0.7-1.5-1.5c0-0.8,0.7-1.5,1.5-1.5s1.5,0.7,1.5,1.5C817.4,237.3,816.8,238,815.9,238"
	/>
<rect x="821" y="231.8" fill="#435261" width="1.6" height="8"/>
<path fill="#435261" d="M824,239.8v-8h2.4c2.1,0,4,1.1,4,4.1c0,2.9-1.7,3.9-3.7,3.9H824 M826.7,238.6c1.2,0,2.1-0.9,2.1-2.6
	c0-1.8-0.8-2.9-2.4-2.9h-0.8v5.5L826.7,238.6L826.7,238.6z"/>
<path fill="#435261" d="M835.6,237.8h-2.9l-0.7,2h-1.7l3-8h1.6l3,8h-1.6L835.6,237.8 M833.2,236.6h2l-1-2.9L833.2,236.6z"/>
<polyline fill="#435261" points="783.1,212.3 795.1,212.3 795.1,214.7 790.7,214.7 790.7,227 787.5,227 787.5,214.7 783.1,214.7
	783.1,212.3 "/>
<polyline fill="#435261" points="796.7,227 796.7,212.3 799.9,212.3 799.9,218.1 805.5,218.1 805.5,212.3 808.7,212.3 808.7,227
	805.5,227 805.5,220.6 799.9,220.6 799.9,227 796.7,227 "/>
<polyline fill="#435261" points="811.3,212.3 821.2,212.3 821.2,214.7 814.4,214.7 814.4,218.2 820.7,218.2 820.7,220.6
	814.4,220.6 814.4,224.6 821.4,224.6 821.4,227 811.3,227 811.3,212.3 "/>
<polyline fill="#435261" points="836.9,212.3 840.5,212.3 843.1,223.4 843.1,223.4 845.5,212.3 848.5,212.3 844.7,227 841.2,227
	838.6,215.8 838.5,215.8 835.7,227 832.1,227 828.5,212.3 831.7,212.3 834,223.4 834,223.4 836.9,212.3 "/>
<path fill="#435261" d="M849.6,219.7c0-4.4,2.2-7.7,7.1-7.7s7.1,3.3,7.1,7.7c0,4.4-2.2,7.7-7.1,7.7
	C851.8,227.3,849.6,224,849.6,219.7 M852.9,219.7c0,2.5,0.6,5.4,3.7,5.4c3.1,0,3.7-2.9,3.7-5.4c0-2.5-0.6-5.4-3.7-5.4
	C853.5,214.3,852.9,217.1,852.9,219.7"/>
<path fill="#435261" d="M869,227h-3.2v-14.7h6.3c2.5,0,5.1,0.8,5.1,3.8c0,1.9-1.2,3.2-3.1,3.6v0c2.4,0.3,2.4,1.8,2.7,3.8
	c0.1,0.9,0.3,2.7,0.9,3.5h-3.5c-0.3-1.3-0.4-2.6-0.5-4c-0.1-0.8-0.3-1.9-1.3-2H869V227 M869,218.6h2.6c1.4,0,2.2-0.7,2.2-2
	c0-1.3-0.8-1.9-2.2-1.9H869V218.6z"/>
<polyline fill="#435261" points="879.6,227 879.6,212.3 882.8,212.3 882.8,224.6 889.2,224.6 889.2,227 879.6,227 "/>
<path fill="#435261" d="M890.9,212.3h5c4.6,0,7.5,2.2,7.5,7.4s-2.9,7.4-7.5,7.4h-5V212.3 M894.1,224.6h1.6c3.8,0,4.3-2.6,4.3-4.9
	s-0.6-5-4.3-4.9h-1.6V224.6z"/>
<path fill="#435261" d="M911.4,227v-14.7h5.5c2.6-0.2,5.3,0.9,5.3,3.8c0,1.6-1.1,2.7-2.6,3.2v0c1.9,0.4,3.3,1.7,3.3,3.8
	c0,2.9-3.7,4-6,3.8L911.4,227 M917.1,224.6c1.5,0,2.5-0.3,2.5-2c0-1.7-1-2-2.5-2h-2.5v3.9H917.1z M917.1,218.2
	c1.3,0,2.1-0.6,2.1-1.7c0-1.2-0.7-1.7-2.1-1.7h-2.5v3.5H917.1z"/>
<path fill="#435261" d="M923.9,227l5.3-14.7h3.8l5.1,14.7H935l-1.1-3.1h-5.8L927,227H923.9 M933.1,221.5l-2-6.3h0l-2.2,6.3H933.1z"
	/>
<polyline fill="#435261" points="948.6,227 942.8,214.8 942.7,214.8 942.7,227 939.8,227 939.8,212.3 944.5,212.3 950.1,223.9
	950.1,223.8 950.1,212.3 953.1,212.3 953.1,227 948.6,227 "/>
<polyline fill="#435261" points="958.9,218.7 958.9,218.7 963.8,212.3 967.5,212.3 962.1,218.9 968,227 964,227 958.9,219.5
	958.9,219.5 958.9,227 955.7,227 955.7,212.3 958.9,212.3 958.9,218.7 "/>
<path fill="#435261" d="M843,240.8c-0.2,0-0.4-0.2-0.4-0.4v-9c0-0.2,0.2-0.4,0.4-0.4c0.2,0,0.4,0.2,0.4,0.4v9
	C843.4,240.6,843.2,240.8,843,240.8"/>
<g>
	<polygon fill="#435261" points="440,206.1 433.3,206.1 419.7,223.6 419.7,226.4 433.3,243.9 440,243.9 425,225 	"/>
	<path fill="#435261" d="M337.6,223.2c1.3-1.9,2.1-4.2,2.1-6.4c0-5.3-3.5-10.7-10.4-10.7h-11.8v29.1l-30.1-29.1H280l38.4,37.3
		c0.5,0.5,1.1,0.6,1.8,0.6c0.3,0,0.6,0,1-0.2c1-0.5,1.6-1.4,1.6-2.6v-30.4h6.7c3.8,0,5.8,2.9,5.8,5.8s-1.9,5.9-5.8,5.9h-4.8v0.6v3.8
		h8.2c0,0,5.3-0.3,7.2,3.2c0.3,0.6,0.5,1.4,0.6,2.6c0.2,5.1-3.7,6.2-4,6.2c-1.1,0-6.7,0-6.9,0H325v4.8h4.8c0,0,6.1,0,7,0l0,0
		c1.3,0,3.8-1,5.8-3c1.4-1.4,2.9-4.2,2.7-8.3C344.6,227.4,341.4,224.4,337.6,223.2z"/>
	<path fill="#435261" d="M374.1,206v33h-3.4c-0.8,0-1.3-0.5-1.6-0.8l-0.3-0.2l-6.6-8.3c5.1-1,8.2-4.8,9.1-9.1
		c0.2-0.8,0.2-1.6,0.2-2.4c0-1.3-0.2-2.6-0.6-3.8c-1.4-4.5-5.6-7.8-10.6-8.2c-0.2,0-0.3,0-0.6,0h-13.1V244h5.4v-33h7.2
		c0.2,0,0.3,0,0.5,0c0.2,0,0.3,0,0.5,0c3.2,0,5.1,1.9,6.1,4.2c0.5,1,0.6,1.9,0.6,2.9c0,2.6-1.3,4.6-3.2,5.9c-0.8,0.6-1.8,1-2.7,1
		c-0.3,0-0.6,0-1,0c-0.2,0-0.8,0-0.8,0h-5v2.2l1.6,1.9l11,13.9c0.3,0.3,0.8,0.6,1.4,0.6h8.5c0,0,2.7,0.2,3-2.6V206H374.1L374.1,206z
		"/>
	<path fill="#435261" d="M399.7,239.1c0.2,0,0.5,0,0.6,0h-1.4C399.2,239.1,399.5,239.1,399.7,239.1z"/>
	<path fill="#435261" d="M412.8,206v9.6v23.5h-12.5c-0.2,0-0.5,0-0.6,0s-0.5,0-0.6,0c-1.8-0.2-3.5-0.6-5-1.4
		c-4.3-2.2-7.2-7-7.2-12.6c0-7.8,5.8-14.1,13-14.1c3.2,0,6.1,1.3,8.3,3.2l2.9-3.7c-3-2.7-7-4.5-11.4-4.5c0,0,0,0-0.2,0
		c-9.8,0-17.8,8.5-17.8,19c0,6.6,3.2,12.5,8,15.8c2.6,1.9,5.6,3.2,8.8,3.2c4.2,0,17,0,17,0l0,0c0,0,2.2,0.2,2.7-2.6V206H412.8z"/>
</g>
<g id="layer1" transform="translate(-257.26607,-478.41111)">
	<g id="g2384" transform="matrix(0.9832957,0,0,0.9832957,260.08126,481.2263)">
		<path id="path2386" fill="#435261" d="M1018.4,243.8h4.9c1.2,0,2.4,0.2,2.4,2.2c0,2.1-1.5,2.1-2.8,2.1h-4.5V243.8 M1014.1,256.6
			h4.2V251h6.6c3.4,0,5.2-2,5.2-5.3c0-2.1-1.1-4.7-5.5-4.7h-10.5C1014.1,241,1014.1,256.6,1014.1,256.6z"/>
		<path id="path2388" fill="#435261" d="M1035.5,249.5L1035.5,249.5c0-0.3,0.6-2.6,3.7-2.6c2.8,0,3.6,2,3.6,2.6v0H1035.5
			 M1042.4,253.1c-0.5,1-1.6,1.5-3.2,1.5c-2.6,0-3.8-1.7-3.8-2.8v0h11.2v-0.3c0-4.4-2.4-7-7.5-7c-4.6,0-7.7,1.9-7.7,6.3
			s3.1,6.3,7.7,6.3c3.5,0,6.2-1.2,7.3-3.9L1042.4,253.1L1042.4,253.1z"/>
		<path id="path2390" fill="#435261" d="M1049,244.9h3.7v2.3h0c1.4-1.8,2.5-2.6,4.7-2.6c0.4,0,1,0,1.4,0.1v3.6
			c-0.7-0.2-1.4-0.3-2.1-0.3c-2.6,0-3.9,1.3-3.9,3.6v5h-3.8V244.9"/>
		<polyline id="polyline2392" fill="#435261" points="1061.1,240.7 1065,240.7 1065,249.2 1070.1,244.9 1075.4,244.9 1069.8,249.3
			1075.7,256.6 1070.7,256.6 1066.8,251.7 1065,253.2 1065,256.6 1061.1,256.6 1061.1,240.7 		"/>
		<path id="path2394" fill="#435261" d="M1077.8,244.9h3.8v11.7h-3.8V244.9z M1077.8,240.7h3.8v2.7h-3.8V240.7z"/>
		<path id="path2396" fill="#435261" d="M1094.3,249.9c0-1.6-0.8-2.4-2.6-2.4c-1.8,0-3.3,0.9-3.3,3.4v5.6h-3.8v-11.7h3.7v1.7h0
			c0.7-1,2.5-2,4.8-2c2,0,5,0.8,5,4.2v7.8h-3.8L1094.3,249.9"/>
		<path id="path2398" fill="#435261" d="M1081.6,189.4v0.6c4.7,3.4,7.8,8.5,7.8,14.7c0,6.2-3.1,11.5-7.8,14.9v0.4l26.1-13
			L1081.6,189.4"/>
		<polyline id="polyline2400" fill="#435261" points="1065.2,234.2 1050.9,234.2 1056.6,189.3 1070.9,189.3 1065.2,234.2 		"/>
		<polyline id="polyline2402" fill="#435261" points="1101.5,241 1116.1,241 1116.1,243.9 1105.8,243.9 1105.8,247.2 1115.6,247.2
			1115.6,250 1105.8,250 1105.8,253.6 1116.2,253.6 1116.2,256.6 1101.5,256.6 1101.5,241 		"/>
		<rect id="rect2404" x="1118.7" y="240.7" fill="#435261" width="3.8" height="15.8"/>
		<path id="path2406" fill="#435261" d="M1143.7,249.5c0-1.6-1.2-2-2.4-2c-1.6,0-2.9,0.9-2.9,2.7v6.3h-3.8v-7c0-1.6-1.2-2-2.3-2
			c-1.6,0-3,0.9-3,2.7v6.3h-3.8v-11.7h3.7v1.7h0c0.7-1,2.5-2,4.8-2c2.2,0,3.4,0.9,4,2.2c1.1-1.4,2.7-2.2,4.8-2.2
			c2.4,0,4.6,1,4.6,4.1v7.9h-3.8L1143.7,249.5"/>
		<path id="path2408" fill="#435261" d="M1153.6,249.5L1153.6,249.5c0-0.3,0.6-2.6,3.7-2.6c2.8,0,3.6,2,3.6,2.6v0H1153.6
			 M1160.5,253.1c-0.5,1-1.6,1.5-3.2,1.5c-2.6,0-3.8-1.7-3.8-2.8v0h11.2v-0.3c0-4.4-2.4-7-7.5-7c-4.6,0-7.7,1.9-7.7,6.3
			s3.1,6.3,7.7,6.3c3.5,0,6.2-1.2,7.3-3.9L1160.5,253.1L1160.5,253.1z"/>
		<path id="path2410" fill="#435261" d="M1167,244.9h3.7v2.3h0c1.4-1.8,2.5-2.6,4.7-2.6c0.4,0,1,0,1.4,0.1v3.6
			c-0.7-0.2-1.4-0.3-2.1-0.3c-2.6,0-3.9,1.3-3.9,3.6v5h-3.8L1167,244.9"/>
	</g>
</g>
<path id="path2192" fill="#435261" d="M94.8,65.6c-1.6,0.2-4.4,0.2-5.9,0.2v-7h5.3
	c0.8,0,1.6,0.2,2.3,0.2c0-0.2-0.2-0.5-0.2-0.6c0-0.2,0.2-0.5,0.2-0.6c-0.8,0-1.6,0.2-2.3,0.2h-5.3v-6h3.3l2.6,0.2
	c0.8,0,1.6,0.2,2.3,0.2c0-0.2-0.2-0.5-0.2-0.6c0-0.3,0.2-0.5,0.2-0.8H86.6v16.1h10.7c0-0.2-0.2-0.5-0.2-0.6c0-0.3,0.2-0.5,0.2-0.8
	C96.6,65.6,95.6,65.6,94.8,65.6 M116.6,50.8h-0.9V67c0.2-0.2,0.5-0.2,0.8-0.2c0.2,0,0.5,0,0.6,0.2V54.2h0.3l11.4,11.3
	c0.6,0.6,1.1,1.1,1.4,1.5h0.8V50.8c-0.3,0-0.5,0.2-0.8,0.2c-0.3,0-0.5-0.2-0.8-0.2V63h-0.2L116.6,50.8L116.6,50.8z M84.1,64.4
	c-0.5,0.5-2.6,1.9-5.6,1.9c-4,0-7-2.8-7-7.4c0-3.9,2.3-7.4,7.2-7.4c2.8,0,4.7,1.5,5.1,2H84c0.2-0.6,0.3-1.2,0.5-1.9
	c-1.7-0.6-3.7-1.1-5.6-1.1c-5.6,0-10,3.1-10,8.3c0,5.1,3.6,8.3,9.3,8.3c2,0,4.2-0.3,5.8-1.2L84.1,64.4z M102,58.2v-6.5
	c1.1,0,4-0.2,5,0c2,0.3,3,1.4,3,2.9c0,1.9-1.4,3.1-3.4,3.4C105.3,58.4,102.5,58.2,102,58.2 M112.4,65l-5.4-6.2
	c2.6-0.3,5.4-1.7,5.4-4.5c0-2.3-1.9-3.6-5.9-3.6h-6.7V67c0.5-0.2,0.8-0.2,1.2-0.2c0.3,0,0.8,0,1.1,0.2v-7.9h2.2l2,2.2l3.1,3.6
	c0.6,0.8,1.1,1.4,1.7,2.2c0.5-0.2,0.9-0.2,1.6-0.2c0.5,0,0.9,0,1.4,0.2l-0.5-0.6L112.4,65L112.4,65z M97.4,100.6
	c-1.7-0.2-3.4-0.6-5-1c4.1,4.1,9.1,7.2,14.7,9.2l1.9-2.1C104.8,105.3,100.9,103.3,97.4,100.6 M88.8,47l3.2,0
	c4.1-5.2,14.5-13,28.5-13c3,0,6,0.4,8.8,1.1c-1.1-1.2-2.3-2.2-3.6-3.2c-1.7-0.2-3.5-0.4-5.3-0.4C108,31.5,96.5,37.2,88.8,47
	 M120.5,108.5c-1.8,0-3.5-0.2-5.3-0.4l-2.1,2.2c2.4,0.4,4.8,0.7,7.3,0.7c11.4,0,21.7-4.7,29-12.3l-0.7-3
	C141.9,103.5,131.8,108.5,120.5,108.5 M153.9,93.2c3.3-4.9,5.4-10.5,6.3-16.6l0.2,0l6.4-45.6l-2.5-0.4l-4.6,32.5
	c-2.7-12.7-11.5-23.2-23.3-28.3c1.1,1.4,2,2.8,2.9,4.3c11.2,6.5,18.7,18.5,18.7,32.2c0,6.7-1.8,13-4.9,18.4L153.9,93.2L153.9,93.2z
	 M83,71.3l0-0.9l-2.6-0.1l0,0.9c0,3.3,0.4,6.6,1.2,9.7c0.9,3.5,2.3,6.8,4,9.9c1.4,0.8,2.9,1.5,4.4,2.1c-2.7-3.7-4.7-7.9-5.9-12.6
	C83.4,77.4,83,74.3,83,71.3 M140.9,59.8c0,20.5-16.8,37.2-37.5,37.2C86.2,97,71.2,85.4,67,68.9c-0.7-3-1.1-6-1.1-9.1
	c0-20.5,16.8-37.2,37.5-37.2C124.1,22.5,140.9,39.2,140.9,59.8 M103.4,20c-22.1,0-40,17.8-40,39.8c0,3.3,0.4,6.6,1.2,9.7
	c0.1,0.3,0.2,0.7,0.3,1l0,0l10,35.7l2.5-0.7l-6.3-22.2c7.4,10,19.2,16.3,32.3,16.3c6.6,0,12.8-1.6,18.3-4.4l-32,34.9h3.5L133,86.6
	l0,0c5.4-5.9,9-13.4,10.1-21.7l15.3,65.1h2.6l-18.6-79.3l0,0c-3.1-13-12.5-23.6-24.9-28.2h59.2V20"/>
</svg>
