<svg xmlns="http://www.w3.org/2000/svg" viewBox="0 0 1200 300" enable-background="new 0 0 1200 300"><path fill="#435261" d="M861.9 90.9h-.9c-5.3 0-9.6-4.3-9.6-9.6V77c0-3.1-2.5-5.6-5.6-5.6h-2.1c-3.1 0-5.6 2.5-5.6 5.6v4.3c0 3.1 2.5 5.6 5.6 5.6h2.1c1.5 0 2.9-.6 4-1.6l.9-.9.3.7c.3.9.8 1.8 1.4 2.6l.3.3-.3.3c-1.7 1.7-4.1 2.6-6.6 2.6h-2.1c-5.3 0-9.6-4.3-9.6-9.6V77c0-5.3 4.3-9.6 9.6-9.6h2.1c5.3 0 9.6 4.3 9.6 9.6v4.3c0 3.1 2.5 5.6 5.6 5.6h.9v4zM863.9 90.9h-.9V87h.9c3.1 0 5.6-2.5 5.6-5.6V77c0-5.3 4.3-9.6 9.6-9.6h.9v3.9h-.9c-3.1 0-5.6 2.5-5.6 5.6v4.3c0 5.4-4.3 9.7-9.6 9.7zM890.9 90.9c-5.3 0-9.6-4.3-9.6-9.6V67.5h3.9v13.9c0 3.1 2.5 5.6 5.6 5.6 3.1 0 5.6-2.5 5.6-5.6V67.5h3.9v13.9c0 5.2-4.2 9.4-9.3 9.6l-.1-.1zM761.8 91h-2.1c-5.3 0-9.7-4.3-9.7-9.7V60.9h4.1v8.2c1.6-1.1 3.5-1.7 5.5-1.7h2.1c5.3 0 9.7 4.3 9.7 9.7v4.3c.1 5.3-4.3 9.6-9.6 9.6zm-2.1-19.5c-3 0-5.5 2.5-5.5 5.5v4.3c0 3 2.5 5.5 5.5 5.5h2.1c3 0 5.5-2.5 5.5-5.5V77c0-3-2.5-5.5-5.5-5.5h-2.1zM812.2 91h-1c-5.3 0-9.6-4.3-9.6-9.6V61.1h4.1v6.4h4v4.1h-3.9v9.7c0 3 2.5 5.5 5.5 5.5h1V91h-.1zM832.8 91h-4.1V77.1c0-3-2.5-5.5-5.5-5.5s-5.5 2.5-5.5 5.5V91h-4.1V61.1h4.1v8.2c1.6-1.1 3.5-1.7 5.5-1.7 5.3 0 9.5 4.3 9.5 9.6V91h.1zM800.8 90.9h-.8c-5.3 0-9.6-4.3-9.6-9.6V77c0-3.1-2.5-5.6-5.6-5.6h-2.1c-3.1 0-5.6 2.5-5.6 5.6v4.3c0 3.1 2.5 5.6 5.6 5.6h2.1c1.5 0 2.9-.6 4-1.6l.9-.9.3.7c.3.9.8 1.8 1.4 2.6l.3.3-.3.3c-1.7 1.7-4.1 2.6-6.6 2.6h-2.1c-5.3 0-9.6-4.3-9.6-9.6V77c0-5.3 4.3-9.6 9.6-9.6h2.1c5.3 0 9.6 4.3 9.6 9.6v4.3c0 3.1 2.5 5.6 5.6 5.6h.9v4h-.1zM910.8 84.7c-.7 0-1.4-.4-1.8-1-1-1.8-1.6-3.8-1.6-5.8 0-6.4 5.2-11.7 11.7-11.7 1.1 0 2 .9 2 2.1 0 1.1-.9 2.1-2.1 2.1-4.2 0-7.6 3.4-7.6 7.6 0 1.3.4 2.6 1 3.8.2.3.3.7.3 1 .2 1-.7 1.9-1.9 1.9zM914.9 73.3c-1.2 1.1-2 2.7-2 4.5 0 1.1.3 2.2.8 3.1.3.5.5 1.1.5 1.7 0 1.4-.8 2.5-2 3.1 1.6.5 3.4.3 4.9-.6 1-.6 1.7-1.4 2.3-2.3.3-.5.7-.9 1.3-1.2 1.2-.7 2.6-.6 3.7.2-.4-1.6-1.4-3.1-2.9-4-1-.6-2-.8-3.1-.8-.6 0-1.2-.2-1.7-.5-1.2-.6-1.9-1.9-1.8-3.2zM914.1 91.5c-4.2 0-8-2.2-10.1-5.8-.6-1-.2-2.2.8-2.8 1-.5 2.3-.2 2.8.7 1.3 2.3 3.9 3.8 6.5 3.8 1.3 0 2.6-.4 3.8-1 1.1-.7 2.1-1.6 2.8-2.8.2-.3.4-.6.8-.7.9-.6 2.3-.2 2.8.8.4.6.4 1.4 0 2-1 1.8-2.5 3.2-4.3 4.3-1.8 1-3.8 1.5-5.9 1.5zM926.7 90.1c-.4 0-.7-.1-1-.3-1-.6-1.3-1.8-.8-2.8 2.1-3.6.8-8.2-2.8-10.3-1.1-.7-2.4-1-3.8-1-.4 0-.7-.1-1-.3-1-.6-1.3-1.8-.8-2.8.4-.6 1-1 1.8-1 2 0 4.1.5 5.8 1.6 2.7 1.6 4.6 4.1 5.4 7.1.8 3 .4 6.2-1.2 8.8-.2.6-.9 1-1.6 1zM95.2 205.5c0 3.2-2.6 5.8-5.8 5.8s-5.8-2.6-5.8-5.8c0-3.2 2.6-5.8 5.8-5.8s5.8 2.6 5.8 5.8zm-31.3 5.8c3.2 0 5.8-2.6 5.8-5.8 0-3.2-2.6-5.8-5.8-5.8s-5.8 2.6-5.8 5.8c0 3.2 2.6 5.8 5.8 5.8zm107.6 17.6v3.9c0 3.7-2.3 7.6-7.5 7.6-5.3 0-7.6-3.8-7.6-7.6v-12.5h15v-9.9h-15v-8.8h-10.5v30.5c0 10.3 7.1 18.1 18.1 18.1s18-7.7 18-18.1v-3.3l-10.5.1zM141 233h-30.9c1.4 5 5.3 8.1 10.3 8.1 3.5 0 6.9-1.5 8.7-4.8h11.2c-2.4 8.3-9.6 14-19.8 14-11.5 0-21-9.5-21-21.4s9.5-21.6 21-21.6c12 .1 22 9.4 20.5 25.7zm-10.4-8.6c-1.3-4.8-5.3-7.8-10.3-7.8-4.8 0-8.6 3-10.1 7.8h20.4zm-46.5 8.4c0 3.7-2.3 7.6-7.6 7.6-5.2 0-7.5-3.8-7.5-7.6v-3.7H58.6v3.1c0 10.3 7 18.1 18 18.1s18.1-7.7 18.1-18.1v-17.1H84.1v17.7zM606 67.7h6.3v18.9H606zM604 71.7h-8.8l-5.2 5.2h7.1c-.9 2.1-3 3.5-5.4 3.5-3.3 0-5.9-2.7-5.9-5.9s2.7-5.9 5.9-5.9c1.2 0 2.3.4 3.2.9l4.8-4.8c-2.2-1.8-5-2.9-8-2.9-7 0-12.6 5.7-12.6 12.7 0 7 5.7 12.6 12.6 12.6 7 0 12.7-5.7 12.7-12.6-.1-1-.2-1.9-.4-2.8"/><path fill="#435261" d="M606 62.2h6.3V66H606zM626.4 86.7H621l-.1-.1-7.4-19h6.7l3.5 10.6 3.5-10.6h6.6zM635 67.7h6.3v18.9H635zM635 62.2h6.3V66H635zM660.6 86.6h-6.2V76.1c0-2-.8-3-2.4-3-2.1 0-2.5 1.6-2.5 3v10.5h-6.3V67.7h4.3l1.7 1.7c1.4-1.4 2.9-2 4.8-2 4.1 0 6.6 2.8 6.6 7.2v12zM518.4 86.9c-3.3 0-6-1.2-8-3.7l-.4-.4 4.2-4.2.2.3c1.3 1.5 2.5 2.1 3.8 2.1 1.7 0 2.5-1 2.5-3.2V62.2h6.5V78c0 5.7-3.2 8.9-8.8 8.9"/><path fill="#435261" d="M677.6 67.7l-1.6 1.6c-1.5-1.3-3.2-1.9-5.3-1.9-4.2 0-8.5 3.1-8.5 8.9v.1c0 5.9 4.3 8.9 8.5 8.9 2 0 3.6-.6 5-1.8-.3 2.2-1.6 3.7-4.3 3.7-1.6 0-3-.3-4.5-.9l-4.1 4.1.6.3c2.4 1.3 5.2 1.9 8.1 1.9 7.2 0 10.6-3.7 10.6-10.5V67.7h-4.5zm-1.4 8.6c0 2.2-1.7 3.8-4 3.8-2.4 0-4-1.5-4-3.8v-.1c0-2.2 1.7-3.8 4-3.8 2.3.1 4 1.7 4 3.9zM535.9 86.9c-4.1 0-6.6-2.8-6.6-7.2v-12h6.3v10.5c0 2 .8 3 2.4 3 2.1 0 2.5-1.6 2.5-3V67.7h6.3v18.9h-4.3l-1.7-1.7c-1.5 1.3-3 2-4.9 2M572.6 86.9c-3.9 0-5.8-1.9-5.8-5.9v-7.8h-2.1v-5.5h2.1v-5.4h6.3v5.4h4.1v5.5h-4.1v6.9c0 .8.2 1.1 1 1.1s1.5-.2 2.2-.6l.9-.5v5.4l-.3.2c-1.3.8-2.7 1.2-4.3 1.2M558 74.9l-.6-.2c-1.5-.5-2.8-1-2.8-1.6V73c0-.6.8-.8 1.5-.8 1 0 2.4.4 3.8 1.2l3.6-3.6-.3-.2c-2-1.4-4.7-2.2-7-2.2-4.2 0-7.1 2.5-7.1 6.2v.1c0 3.7 2.9 5 5.7 5.9.2.1.5.1.7.2 1.5.4 2.8.8 2.8 1.5v.1c0 .8-.9.9-1.8.9-1.5 0-3.3-.7-5-1.8L548 84l.3.2c2.3 1.8 5.2 2.8 8.1 2.8 4.6 0 7.4-2.4 7.4-6.3v-.1c0-3.7-3.8-5-5.8-5.7"/><path fill="#435261" d="M683.5 68.5h.9v2.2h1v-2.2h.9v-.8h-2.8zM688.9 67.7l-.6 1-.7-1h-1v3h1v-1.5l.4.7h.5l.5-.7v1.5h1v-3zM450 73.2V70h-4v-4.9h-.1l-3.7 1.1h-.1V70h-5.8v-2.1c0-1 .2-1.7.7-2.2.4-.5 1-.7 1.8-.7.6 0 1.1.1 1.7.4l.1.1v-3.3h-.1c-.5-.2-1.3-.3-2.2-.3-1.1 0-2.2.2-3.1.7-.9.5-1.6 1.2-2.1 2.1-.5.9-.8 1.9-.8 3.1V70h-2.7v3.2h2.8v13.3h3.9V73.2h5.8v8.5c0 3.5 1.7 5.3 4.9 5.3.5 0 1.1-.1 1.7-.2s1-.2 1.2-.4h.1v-3.2l-.2.1c-.2.1-.5.3-.8.4-.3.1-.6.1-.8.1-.8 0-1.3-.2-1.7-.6-.4-.4-.5-1.1-.5-2.1v-7.8l4-.1zm-29.1 10.5c-1.4 0-2.5-.5-3.3-1.4-.8-.9-1.2-2.3-1.2-4 0-1.8.4-3.1 1.2-4.1.8-.9 1.9-1.4 3.3-1.4s2.4.5 3.2 1.4c.8.9 1.2 2.3 1.2 4 0 1.8-.4 3.2-1.1 4.1-.8.9-1.9 1.4-3.3 1.4m.2-14.1c-2.7 0-4.9.8-6.4 2.4-1.5 1.6-2.3 3.7-2.3 6.5 0 2.6.8 4.7 2.3 6.2 1.5 1.5 3.6 2.3 6.1 2.3 2.6 0 4.8-.8 6.3-2.4 1.5-1.6 2.3-3.7 2.3-6.4 0-2.6-.7-4.7-2.2-6.2-1.5-1.6-3.6-2.4-6.1-2.4m-15.1 0c-1.8 0-3.4.5-4.6 1.4-1.2.9-1.8 2.2-1.8 3.7 0 .8.1 1.5.4 2s.7 1.1 1.2 1.5c.5.4 1.3.9 2.4 1.3.9.4 1.6.7 2 .9.4.2.7.5.9.7.2.2.2.5.2.9 0 1.1-.8 1.7-2.5 1.7-.6 0-1.4-.1-2.1-.4-.8-.3-1.5-.6-2.2-1.1l-.2-.1V86h.1c.6.3 1.3.5 2.1.7.8.2 1.6.3 2.2.3 2 0 3.6-.5 4.8-1.4 1.2-.9 1.8-2.2 1.8-3.7 0-1.1-.3-2.1-1-2.8-.6-.8-1.7-1.5-3.3-2.1-1.2-.5-2-.9-2.3-1.2-.3-.3-.5-.7-.5-1.3 0-.5.2-.9.6-1.2s1-.5 1.7-.5 1.3.1 2 .3c.7.2 1.2.5 1.7.8l.2.1v-3.6h-.1c-.5-.2-1-.4-1.8-.5-.7-.2-1.3-.3-1.9-.3m-16.6 14.1c-1.4 0-2.5-.5-3.3-1.4-.8-.9-1.2-2.3-1.2-4 0-1.8.4-3.1 1.2-4.1.8-.9 1.9-1.4 3.3-1.4s2.4.5 3.2 1.4c.8.9 1.2 2.3 1.2 4 0 1.8-.4 3.2-1.1 4.1-.8.9-1.8 1.4-3.3 1.4m.2-14.1c-2.7 0-4.9.8-6.4 2.4-1.5 1.6-2.3 3.7-2.3 6.5 0 2.6.8 4.7 2.3 6.2 1.5 1.5 3.6 2.3 6.1 2.3 2.6 0 4.8-.8 6.3-2.4 1.5-1.6 2.3-3.7 2.3-6.4 0-2.6-.7-4.7-2.2-6.2-1.5-1.6-3.5-2.4-6.1-2.4m-14.7 3.3V70H371v16.5h3.9v-8.4c0-1.4.3-2.6 1-3.5.6-.9 1.5-1.3 2.5-1.3.4 0 .7.1 1.2.2.4.1.7.2.9.4l.2.1v-4h-.1c-.4-.2-.9-.2-1.5-.2-1 0-1.8.3-2.6.9-.8.5-1.2 1.2-1.6 2.2zm-10.8-3.3c-1.8 0-3.4.4-4.7 1.1s-2.4 1.8-3.1 3.2-1.1 3-1.1 4.7c0 1.6.4 3 1 4.3s1.7 2.2 2.9 2.9c1.2.7 2.7 1 4.2 1 1.8 0 3.4-.4 4.7-1.1h.1v-3.6l-.2.1c-.6.4-1.2.8-1.9 1-.7.2-1.3.4-1.9.4-1.5 0-2.7-.5-3.6-1.4-.9-.9-1.3-2.3-1.3-3.9 0-1.7.5-3 1.4-4 .9-1 2.1-1.5 3.6-1.5 1.3 0 2.5.4 3.7 1.3l.2.1v-3.7h-.1c-.4-.2-1.1-.5-1.8-.6-.7-.2-1.5-.3-2.1-.3m-11.6.4h-3.9v16.5h3.9V70zm-1.9-7c-.6 0-1.2.2-1.7.7-.5.4-.7 1-.7 1.6 0 .6.2 1.2.7 1.6.5.4 1 .6 1.7.6s1.2-.2 1.7-.6c.5-.4.7-.9.7-1.6 0-.6-.2-1.2-.7-1.6-.5-.5-1-.7-1.7-.7m-9.7 5.8v17.7h4v-23h-5.5l-7 17.1-6.8-17.1h-5.7v23h3.7V68.8h.1l7.1 17.7h2.8l7-17.7h.3zM288.3 74.1H270V55.8h18.3v18.3zM308.4 74.1h-18.3V55.8h18.3v18.3zM288.3 94.2H270V75.9h18.3v18.3zM308.4 94.2h-18.3V75.9h18.3v18.3zM1025.7 69.2h11.6l14.2-15.6h-11.2zM1094.8 74.7c2.9-2.5 4.1-6.6 4.1-9.2 0-1.9-.8-11.8-16.4-11.8h-18.7v45.1h20.6c2.6 0 7.8-.3 10.8-2.9 4.1-3.7 4.9-7.4 4.9-9.6-.1-5.7-2.6-9.3-5.3-11.6zm-21.7-13.3h11.2c3 0 5.6 1.1 5.6 5.1 0 3.7-2.3 5.2-6.4 5.2H1073V61.4h.1zM1084 91h-10.8V79.5h12.6c1.9 0 5.3 0 5.3 5.2-.1 6.3-4.1 6.3-7.1 6.3zM1140.8 74.7c3.3-2.5 4.1-6.6 4.1-9.2 0-1.9-.8-11.8-16.4-11.8h-18.7v45.1h20.6c2.6 0 7.8-.3 10.7-2.9 4.2-3.7 4.9-7.4 4.9-9.6 0-5.7-2.7-9.3-5.2-11.6zM1119 61.4h11.2c3 0 5.6 1.1 5.6 5.1 0 3.7-2.2 5.2-6.3 5.2H1119V61.4zm10.9 29.6h-10.8V79.5h12.7c1.8 0 5.3 0 5.3 5.2-.1 6.3-4.2 6.3-7.2 6.3zM1037.7 53.2c-2.4-.7-4.8-1.1-7.4-1.1-13.5 0-24.3 10.6-24.3 24.1 0 12.9 10.9 23.8 24.3 23.8 13.1 0 24-10.9 24-23.8 0-6.2-2.2-11.7-6-16l-6.4 6.8c2 2.5 3.2 5.7 3.2 9.1 0 7.8-6.8 14.5-14.7 14.5-8.3 0-15-6.7-15-14.5 0-8.2 6.7-14.8 15-14.8l7.3-8.1z"/><g fill="#435261"><path d="M585.7 214.1c-3.8 0-6.9 2.6-7.8 6.1v.1h15.7c-.9-3.6-4.1-6.2-7.9-6.2zM619 214.1c-4.4 0-8 3.6-8 8s3.6 8 8 8 8-3.6 8-8-3.6-8-8-8zm0 10.8c-1.5 0-2.8-1.2-2.8-2.8s1.2-2.8 2.8-2.8c1.5 0 2.8 1.2 2.8 2.8 0 1.5-1.3 2.8-2.8 2.8zM591.7 172.5c-27.5 0-49.8 22.3-49.8 49.8s22.3 49.8 49.8 49.8 49.8-22.3 49.8-49.8-22.3-49.8-49.8-49.8zm-18.5 60.7c-.4 0-.8-.2-1.1-.5l-8.5-8.5-8.5 8.5c-.3.3-.7.4-1.1.4-.8 0-1.5-.7-1.5-1.5 0-.4.2-.8.5-1.1l8.5-8.5-8.5-8.5c-.3-.3-.5-.7-.5-1.1 0-.8.7-1.5 1.5-1.5.4 0 .8.2 1.1.4l8.5 8.5 8.5-8.5c.3-.3.7-.5 1.1-.5.8 0 1.5.7 1.5 1.5 0 .4-.2.8-.4 1.1l-8.5 8.5 8.5 8.5c.3.3.4.7.4 1.1 0 1-.7 1.7-1.5 1.7zm20.4-9.9h-15.9v.2c.1.4.2.9.3 1.3.8 2.2 3.2 5.3 7.6 5.3 1.4 0 2.6-.3 3.7-.9.9-.5 1.6-1.1 2.2-1.8.2-.2.4-.5.5-.7.7-1 1.7-.8 2.2-.3.7.5.8 1.6.2 2.3v.1c-.9 1.1-1.8 2-2.9 2.7-1 .7-2.2 1.1-3.3 1.4-1.4.3-2.7.4-4 .3-4.5-.6-8.3-3.9-9.5-8.3-.2-.9-.3-1.8-.3-2.7 0-3.6 1.7-7 4.7-9.2 3.7-2.6 8.6-2.7 12.4-.3 2.6 1.6 4.3 4.2 4.9 7.3.5 1.7-.6 3.3-2.8 3.3zm12.8-9.1c-3.3.4-3.7 2-3.7 5.8v11.6c0 .8-.7 1.5-1.5 1.5s-1.5-.7-1.5-1.5v-18.8c0-.8.7-1.5 1.5-1.5.7 0 1.3.5 1.5 1.2 1.1-.9 2.5-1.3 3.9-1.3h.5c.8 0 1.5.7 1.5 1.5s-.6 1.5-1.5 1.5c-.1-.1-.4-.1-.7 0zm12.6 19.1c-6.2 0-11.2-5-11.2-11.2s5-11.2 11.2-11.2 11.2 5 11.2 11.2-5.1 11.2-11.2 11.2z"/></g><path fill="#435261" d="M757.5 237.6c3.2 0 6.2-.5 8.8-1.4.7-.2 1.3-.5 1.9-.8-.8 1.8-1.8 3.3-3.2 4.4-2.8 2.1-6.1 3.5-9.7 4 .9-1.5 1.6-3.7 2.2-6.2m-14.9 4.3c-.1 0-.1-.1-.2-.1-1.2-.6-1.7-3.4-1.1-7.6 2.4 1.1 5 1.9 7.7 2.5 2.1.4 4.1.7 6.2.8-1 4.3-2.2 6.6-3.1 6.6h-.2c-3.3-.1-6.5-.8-9.3-2.2m-11.5-13.7c-.2-.7-.3-1.5-.4-2.2.8 1.1 1.7 2.1 2.7 3.1 1.6 1.5 3.6 2.9 5.7 4-.4 2.5-.6 4.7-.3 6.5-3.6-2.8-6.4-6.8-7.7-11.4m27.8-6v-2.6c2.8-.2 5.4-.9 7.5-2.1 1.9 3.9 3 7.9 3 11.8 0 1.1-.1 2.2-.3 3.2-1 .6-2.2 1.1-3.5 1.6-2.3.8-4.9 1.2-7.7 1.3.7-4.1 1-8.7 1-13.2m-9.4 12.3c-2.8-.6-5.4-1.5-7.8-2.6.8-3.5 2.2-7.8 4.5-12.5.3-.7.7-1.4 1-2 1.6.7 3.4 1.3 5.2 1.7 1.4.3 2.8.5 4.1.5v2.6c0 5.3-.4 9.7-1 13.1-1.9-.1-3.9-.4-6-.8m-14.5-7c-1.9-1.8-3.2-3.6-3.9-5.5.5-2.1 1.5-4.1 3-6.1 1.4-1.9 3.2-3.6 5.2-5 .6 1.1 1.4 2.1 2.5 3.1 1 .9 2.2 1.8 3.4 2.5-.4.7-.7 1.4-1 2-2 4.1-3.6 8.4-4.6 12.4-1.7-1.1-3.3-2.2-4.6-3.4m22.4-20.8c2.6 1.9 4.9 4.3 6.8 7.2.4.5.7 1.1 1.1 1.6-1.8 1-4.1 1.6-6.5 1.8-.3-3.8-.7-7.5-1.4-10.6m-4.5 10.2c-1.6-.4-3.2-.8-4.6-1.5 2.1-3.7 4.4-6.8 6.6-9.2.7 2.8 1.3 6.5 1.5 11.1-1.1 0-2.3-.1-3.5-.4m-9.5-4.7c-.9-.9-1.6-1.8-2.1-2.7 2.1-1.3 4.4-2.3 6.9-3 1.5-.4 3-.8 4.5-1-2.2 2.4-4.3 5.5-6.3 8.9-1.2-.6-2.2-1.3-3-2.2m-4.8-7.1c0 .1-.1.2-.1.4-.2 1.1-.2 2.1.1 3.2-2.4 1.7-4.5 3.6-6.2 5.8-.5.7-1 1.4-1.4 2 1.2-4.5 3.9-8.5 7.6-11.4m2 .8c.3-1.2.9-2.2 2-3.1 2.6-.8 5.6-.6 8.9.6-1.3.2-2.7.5-4 .9-2.5.8-4.8 1.8-6.9 3-.1-.4-.1-.9 0-1.4m18.2-2.9c.8-.5 1.5-.8 2.1-1 1.1.4 2.2 1 3.3 1.8-1.7-.5-3.5-.7-5.4-.8m-3.7-2.4c.9.1 1.9.3 2.9.5-.6.3-1.3.8-1.9 1.3-.4-.7-.7-1.3-1-1.8m-2.5.9c-1-.4-2-.7-3-.9.8-.1 1.6-.1 2.4-.1.4 0 .8.5 1.3 1.3-.2-.1-.4-.2-.7-.3M728 222.2c0 2.3.3 4.5.9 6.6 0 .1.1.3.1.4v.1c3 9.8 12.2 17 23 17 5 0 9.6-1.5 13.5-4.1 0 0 .1 0 .1-.1.2-.2.4-.3.7-.5 4.4-3.3 7.7-8 9.1-13.5.1-.3.1-.5.2-.8v-.2c.3-1.6.5-3.2.5-4.9 0-3.3-.6-6.4-1.9-9.4-.2-.6-.9-.8-1.5-.6-.6.2-.8.9-.6 1.5 1.1 2.7 1.7 5.6 1.7 8.5 0 1.8-.2 3.6-.6 5.3-.3 1.1-.9 2-1.7 2.9v-1.1c0-4.3-1.2-8.8-3.4-13.1 1.6-1.4 2.6-3.1 3-5 .1-.6-.3-1.2-.9-1.3s-1.2.3-1.3.9c-.2 1.3-.9 2.4-1.9 3.4-.3-.5-.7-1.1-1-1.6-2-2.9-4.3-5.4-6.8-7.4 3.4.2 6.5 1 9 2.4.4.2.9.2 1.3-.1.5-.4.5-1.1.1-1.6-3.6-5-9.8-7.8-17.6-7.8-13.2.1-24 10.9-24 24.1"/><path fill="#435261" d="M930.7 233.7c1.6 0 2.4.8 2.4 2.1s-.8 2.1-2.3 2.1h-1v2h-1.3v-6.2h2.2m-.9 3.1h.8c.8 0 1.1-.3 1.1-1s-.4-1-1.2-1h-.8v2h.1zm-3.7.6c0 .9-.4 1.4-1.1 1.4-.7 0-1.1-.4-1.1-1.4v-3.7h-1.3v3.6c0 .9.2 1.6.7 2 .4.4 1 .6 1.8.6 1.1 0 2.4-.4 2.4-2.6v-3.6h-1.3l-.1 3.7zm-7.1-3.8c1.3 0 2.8.8 2.8 3.2 0 2.3-1.4 3.1-2.8 3.1s-2.8-.8-2.8-3.1c0-2.4 1.5-3.2 2.8-3.2m0 5.1c.5 0 1.4-.3 1.4-2s-.9-2-1.4-2c-.9 0-1.4.7-1.4 2s.5 2 1.4 2m-4.1-.7c.2.4.4.8.8.8h.3v1s-.2.1-.7.1c-1 0-1.4-.7-1.6-1.3-.2-.5-.4-1-1-1h-.6v2.3h-1.3v-6.2h2.2c1.6 0 2.3.6 2.3 2 0 .8-.5 1.3-1 1.6.3.1.4.4.6.7m-2.7-1.5h.7c.7 0 1.2-.4 1.2-.9 0-.6-.4-.9-1.1-.9h-.8v1.8zm-4.9 1.1h1.4v.1c0 .4-.1 1.1-1.1 1.1-.9 0-1.4-.7-1.4-2s.5-2 1.4-2c1.1 0 1.1 1.1 1.1 1.1v.1l1.2-.2c0-.4-.4-2.1-2.3-2.1-1.8 0-2.7 1.1-2.7 3.2 0 2 1 3.1 2.8 3.1s2.4-1.2 2.4-2.2v-1.1h-2.6l-.2.9zm-3.9-3.9h-1.6l-2 2.8v-2.8h-1.3v6.2h1.3V237l2.1 2.9h1.6l-2.4-3.1 2.3-3.1zm-7.5 3.8l-2.2-3.8h-1.3v6.2h1.3v-3.7l2.2 3.7h1.3v-6.2h-1.3v3.8zm-6.1-3.8l2.2 6.2h-1.4l-.5-1.5H888l-.5 1.5h-1.4l2.3-6.2h1.4zm-.7 1.6l-.7 1.9h1.4l-.7-1.9zm-4.1 1.3c.5.1 1.1.6 1.1 1.5 0 1.1-.8 1.8-2.2 1.8h-2.6v-6.2h2.4c1.3 0 2 .6 2 1.7-.1.8-.4 1.1-.7 1.2m-1.5-.4c.5 0 .8-.2.8-.7 0-.5-.3-.7-1-.7h-.7v1.4h.9zm-.9 2.5h1c.7 0 1-.3 1-.8 0-.7-.6-.8-1-.8h-1v1.6zm-6.8-5c1.9 0 3.1 1.2 3.1 3.2 0 1.9-1 3-2.8 3H874v-6.2h1.8zm-.5 5h.8c1 0 1.5-.7 1.5-1.9 0-1.4-.6-2.1-1.8-2.1h-.5v4zm-4.6-5h-1.3v6.2h4v-1.1h-2.7v-5.1zm-3.1 4.3c.2.4.4.8.8.8h.3v1s-.2.1-.6.1c-1 0-1.4-.7-1.6-1.3-.2-.5-.4-1-1-1h-.6v2.3h-1.3v-6.2h2.2c1.6 0 2.3.6 2.3 2 0 .8-.5 1.3-1 1.6.2.1.4.4.5.7m-2.7-1.5h.7c.7 0 1.2-.4 1.2-.9 0-.6-.4-.9-1.1-.9h-.8v1.8zm-4.9-2.9c1.3 0 2.8.8 2.8 3.2 0 2.3-1.4 3.1-2.8 3.1s-2.8-.8-2.8-3.1c.1-2.4 1.5-3.2 2.8-3.2m0 5.1c.5 0 1.4-.3 1.4-2s-.9-2-1.4-2c-.9 0-1.4.7-1.4 2s.5 2 1.4 2m-4.4-5h1.5l-1.8 6.2h-1.5l-1.1-3.9-1.1 3.9h-1.5l-1.8-6.2h1.5l1 4.5 1.2-4.5h1.1l1.2 4.5 1.3-4.5zM787.3 231.8h1.6v8h-1.6zM790.3 239.8v-8h3c1.6 0 2.6.6 2.6 2.1 0 1.4-.8 1.7-1.2 1.7.5 0 1.8.5 1.8 2 0 1.7-1.3 2.2-2.8 2.2h-3.4m2.9-4.6c.9 0 1.1-.4 1.1-1.1 0-.7-.4-1-1.4-1h-1.1v2.1h1.4zm.1 3.4c.8 0 1.4-.3 1.4-1.1s-.6-1.1-1.4-1.1h-1.4v2.3l1.4-.1zM804.2 239.8s-.3.1-.8.1c-2.4 0-1.8-3.1-3.5-3.1h-.9v3h-1.6v-8h2.8c2 0 3 .7 3 2.5 0 1.2-.8 1.8-1.4 2 .8.7.9 2.2 1.9 2.2h.3v1.3m-3.9-4.2c1 0 1.7-.4 1.7-1.3 0-.8-.6-1.3-1.5-1.3H799v2.6h1.1zM804.9 239.8v-8h2.3c2.1 0 4 1.1 4 4.1 0 2.9-1.7 3.9-3.7 3.9h-2.6m2.7-1.2c1.2 0 2.1-.9 2.1-2.6 0-1.8-.8-2.9-2.4-2.9h-.8v5.5h1.1zM815.9 238c-.8 0-1.5-.7-1.5-1.5s.7-1.5 1.5-1.5 1.5.7 1.5 1.5-.6 1.5-1.5 1.5"/><path fill="#435261" d="M821 231.8h1.6v8H821zM824 239.8v-8h2.4c2.1 0 4 1.1 4 4.1 0 2.9-1.7 3.9-3.7 3.9H824m2.7-1.2c1.2 0 2.1-.9 2.1-2.6 0-1.8-.8-2.9-2.4-2.9h-.8v5.5h1.1zM835.6 237.8h-2.9l-.7 2h-1.7l3-8h1.6l3 8h-1.6l-.7-2m-2.4-1.2h2l-1-2.9-1 2.9zM783.1 212.3h12v2.4h-4.4V227h-3.2v-12.3h-4.4v-2.4M796.7 227v-14.7h3.2v5.8h5.6v-5.8h3.2V227h-3.2v-6.4h-5.6v6.4h-3.2M811.3 212.3h9.9v2.4h-6.8v3.5h6.3v2.4h-6.3v4h7v2.4h-10.1v-14.7M836.9 212.3h3.6l2.6 11.1 2.4-11.1h3l-3.8 14.7h-3.5l-2.6-11.2h-.1l-2.8 11.2h-3.6l-3.6-14.7h3.2l2.3 11.1 2.9-11.1M849.6 219.7c0-4.4 2.2-7.7 7.1-7.7s7.1 3.3 7.1 7.7-2.2 7.7-7.1 7.7c-4.9-.1-7.1-3.4-7.1-7.7m3.3 0c0 2.5.6 5.4 3.7 5.4s3.7-2.9 3.7-5.4c0-2.5-.6-5.4-3.7-5.4s-3.7 2.8-3.7 5.4"/><path fill="#435261" d="M869 227h-3.2v-14.7h6.3c2.5 0 5.1.8 5.1 3.8 0 1.9-1.2 3.2-3.1 3.6 2.4.3 2.4 1.8 2.7 3.8.1.9.3 2.7.9 3.5h-3.5c-.3-1.3-.4-2.6-.5-4-.1-.8-.3-1.9-1.3-2H869v6m0-8.4h2.6c1.4 0 2.2-.7 2.2-2s-.8-1.9-2.2-1.9H869v3.9zM879.6 227v-14.7h3.2v12.3h6.4v2.4h-9.6"/><path fill="#435261" d="M890.9 212.3h5c4.6 0 7.5 2.2 7.5 7.4s-2.9 7.4-7.5 7.4h-5v-14.8m3.2 12.3h1.6c3.8 0 4.3-2.6 4.3-4.9s-.6-5-4.3-4.9h-1.6v9.8zM911.4 227v-14.7h5.5c2.6-.2 5.3.9 5.3 3.8 0 1.6-1.1 2.7-2.6 3.2 1.9.4 3.3 1.7 3.3 3.8 0 2.9-3.7 4-6 3.8l-5.5.1m5.7-2.4c1.5 0 2.5-.3 2.5-2s-1-2-2.5-2h-2.5v3.9h2.5zm0-6.4c1.3 0 2.1-.6 2.1-1.7 0-1.2-.7-1.7-2.1-1.7h-2.5v3.5h2.5zM923.9 227l5.3-14.7h3.8l5.1 14.7H935l-1.1-3.1h-5.8L927 227h-3.1m9.2-5.5l-2-6.3-2.2 6.3h4.2zM948.6 227l-5.8-12.2h-.1V227h-2.9v-14.7h4.7l5.6 11.6v-11.6h3V227h-4.5M958.9 218.7l4.9-6.4h3.7l-5.4 6.6 5.9 8.1h-4l-5.1-7.5v7.5h-3.2v-14.7h3.2v6.4M843 240.8c-.2 0-.4-.2-.4-.4v-9c0-.2.2-.4.4-.4s.4.2.4.4v9c0 .2-.2.4-.4.4"/><g fill="#435261"><path d="M440 206.1h-6.7l-13.6 17.5v2.8l13.6 17.5h6.7L425 225zM337.6 223.2c1.3-1.9 2.1-4.2 2.1-6.4 0-5.3-3.5-10.7-10.4-10.7h-11.8v29.1l-30.1-29.1H280l38.4 37.3c.5.5 1.1.6 1.8.6.3 0 .6 0 1-.2 1-.5 1.6-1.4 1.6-2.6v-30.4h6.7c3.8 0 5.8 2.9 5.8 5.8s-1.9 5.9-5.8 5.9h-4.8V226.9h8.2s5.3-.3 7.2 3.2c.3.6.5 1.4.6 2.6.2 5.1-3.7 6.2-4 6.2H325v4.8h11.8c1.3 0 3.8-1 5.8-3 1.4-1.4 2.9-4.2 2.7-8.3-.7-5-3.9-8-7.7-9.2zM374.1 206v33h-3.4c-.8 0-1.3-.5-1.6-.8l-.3-.2-6.6-8.3c5.1-1 8.2-4.8 9.1-9.1.2-.8.2-1.6.2-2.4 0-1.3-.2-2.6-.6-3.8-1.4-4.5-5.6-7.8-10.6-8.2h-13.7V244h5.4v-33h8.2c3.2 0 5.1 1.9 6.1 4.2.5 1 .6 1.9.6 2.9 0 2.6-1.3 4.6-3.2 5.9-.8.6-1.8 1-2.7 1h-6.8v2.2l1.6 1.9 11 13.9c.3.3.8.6 1.4.6h8.5s2.7.2 3-2.6v-35h-5.6zM399.7 239.1h.6-1.4.8zM412.8 206v33.1h-13.7c-1.8-.2-3.5-.6-5-1.4-4.3-2.2-7.2-7-7.2-12.6 0-7.8 5.8-14.1 13-14.1 3.2 0 6.1 1.3 8.3 3.2l2.9-3.7c-3-2.7-7-4.5-11.4-4.5h-.2c-9.8 0-17.8 8.5-17.8 19 0 6.6 3.2 12.5 8 15.8 2.6 1.9 5.6 3.2 8.8 3.2h17s2.2.2 2.7-2.6V206h-5.4z"/></g><g><g fill="#435261"><path d="M1003.902 242.47h4.817c1.178 0 2.358.197 2.358 2.163 0 2.064-1.474 2.064-2.752 2.064h-4.424v-4.227m-4.227 12.583h4.13v-5.505h6.487c3.342 0 5.11-1.966 5.11-5.21 0-2.064-1.08-4.62-5.405-4.62h-10.322v15.335z"/><path d="M1020.71 248.073c0-.294.59-2.555 3.64-2.555 2.75 0 3.537 1.966 3.537 2.555h-7.175m6.782 3.54c-.49.982-1.573 1.474-3.145 1.474-2.557 0-3.737-1.67-3.737-2.753h11.01v-.295c0-4.326-2.36-6.882-7.373-6.882-4.52 0-7.57 1.868-7.57 6.193s3.05 6.194 7.57 6.194c3.44 0 6.095-1.18 7.176-3.833l-3.932-.098z"/><path d="M1033.982 243.552h3.637v2.26c1.375-1.77 2.457-2.555 4.62-2.555.392 0 .982 0 1.375.098v3.54c-.688-.198-1.376-.296-2.064-.296-2.555 0-3.833 1.277-3.833 3.538v4.915h-3.735v-11.5"/><path d="M1045.876 239.423h3.834v8.356l5.013-4.228h5.21l-5.505 4.325 5.8 7.176h-4.915l-3.834-4.817-1.77 1.475v3.343h-3.834v-15.63"/><path d="M1062.292 243.552h3.736v11.5h-3.736v-11.5zm0-4.13h3.736v2.655h-3.736v-2.654z"/><path d="M1078.512 248.467c0-1.573-.786-2.36-2.556-2.36s-3.244.885-3.244 3.343v5.505h-3.735v-11.502h3.637v1.67c.688-.982 2.457-1.965 4.718-1.965 1.966 0 4.915.787 4.915 4.13v7.666h-3.735v-6.487"/><path d="M1066.028 188.995v.59c4.62 3.342 7.667 8.355 7.667 14.45 0 6.095-3.047 11.305-7.667 14.647v.393l25.656-12.78-25.656-17.3"/><path d="M1049.907 233.034h-14.057l5.603-44.137h14.057l-5.603 44.137"/><path d="M1085.59 239.718h14.35v2.85h-10.124v3.245h9.634v2.752h-9.634v3.54h10.224v2.948h-14.45v-15.335"/><path d="M1102.497 239.423h3.735v15.53h-3.735z"/><path d="M1127.072 248.073c0-1.572-1.18-1.966-2.36-1.966-1.572 0-2.85.885-2.85 2.655v6.192h-3.735v-6.88c0-1.573-1.18-1.967-2.26-1.967-1.574 0-2.95.885-2.95 2.655v6.192h-3.735v-11.5h3.637v1.67c.687-.983 2.456-1.966 4.717-1.966 2.163 0 3.342.885 3.932 2.163 1.08-1.375 2.653-2.162 4.717-2.162 2.36 0 4.522.983 4.522 4.03v7.766h-3.736l.098-6.88"/><path d="M1136.804 248.073c0-.294.59-2.555 3.637-2.555 2.753 0 3.54 1.966 3.54 2.555h-7.176m6.782 3.54c-.49.982-1.572 1.474-3.145 1.474-2.555 0-3.735-1.67-3.735-2.753h11.01v-.295c0-4.326-2.36-6.882-7.372-6.882-4.522 0-7.57 1.868-7.57 6.193s3.048 6.194 7.57 6.194c3.44 0 6.094-1.18 7.175-3.833l-3.932-.098z"/><path d="M1149.976 243.552h3.637v2.26c1.376-1.77 2.458-2.555 4.62-2.555.393 0 .983 0 1.376.098v3.54c-.69-.198-1.377-.296-2.065-.296-2.556 0-3.834 1.277-3.834 3.538v4.915h-3.734v-11.5"/></g></g><path fill="#435261" d="M94.8 65.6c-1.6.2-4.4.2-5.9.2v-7h5.3c.8 0 1.6.2 2.3.2 0-.2-.2-.5-.2-.6 0-.2.2-.5.2-.6-.8 0-1.6.2-2.3.2h-5.3v-6h3.3l2.6.2c.8 0 1.6.2 2.3.2 0-.2-.2-.5-.2-.6 0-.3.2-.5.2-.8H86.6v16.1h10.7c0-.2-.2-.5-.2-.6 0-.3.2-.5.2-.8-.7-.1-1.7-.1-2.5-.1m21.8-14.8h-.9V67c.2-.2.5-.2.8-.2.2 0 .5 0 .6.2V54.2h.3l11.4 11.3c.6.6 1.1 1.1 1.4 1.5h.8V50.8c-.3 0-.5.2-.8.2-.3 0-.5-.2-.8-.2V63h-.2l-12.6-12.2zM84.1 64.4c-.5.5-2.6 1.9-5.6 1.9-4 0-7-2.8-7-7.4 0-3.9 2.3-7.4 7.2-7.4 2.8 0 4.7 1.5 5.1 2h.2c.2-.6.3-1.2.5-1.9-1.7-.6-3.7-1.1-5.6-1.1-5.6 0-10 3.1-10 8.3 0 5.1 3.6 8.3 9.3 8.3 2 0 4.2-.3 5.8-1.2l.1-1.5zm17.9-6.2v-6.5c1.1 0 4-.2 5 0 2 .3 3 1.4 3 2.9 0 1.9-1.4 3.1-3.4 3.4-1.3.4-4.1.2-4.6.2m10.4 6.8l-5.4-6.2c2.6-.3 5.4-1.7 5.4-4.5 0-2.3-1.9-3.6-5.9-3.6h-6.7V67c.5-.2.8-.2 1.2-.2.3 0 .8 0 1.1.2v-7.9h2.2l2 2.2 3.1 3.6c.6.8 1.1 1.4 1.7 2.2.5-.2.9-.2 1.6-.2.5 0 .9 0 1.4.2l-.5-.6-1.2-1.5zm-15 35.6c-1.7-.2-3.4-.6-5-1 4.1 4.1 9.1 7.2 14.7 9.2l1.9-2.1c-4.2-1.4-8.1-3.4-11.6-6.1M88.8 47H92c4.1-5.2 14.5-13 28.5-13 3 0 6 .4 8.8 1.1-1.1-1.2-2.3-2.2-3.6-3.2-1.7-.2-3.5-.4-5.3-.4-12.4 0-23.9 5.7-31.6 15.5m31.7 61.5c-1.8 0-3.5-.2-5.3-.4l-2.1 2.2c2.4.4 4.8.7 7.3.7 11.4 0 21.7-4.7 29-12.3l-.7-3c-6.8 7.8-16.9 12.8-28.2 12.8m33.4-15.3c3.3-4.9 5.4-10.5 6.3-16.6h.2l6.4-45.6-2.5-.4-4.6 32.5c-2.7-12.7-11.5-23.2-23.3-28.3 1.1 1.4 2 2.8 2.9 4.3 11.2 6.5 18.7 18.5 18.7 32.2 0 6.7-1.8 13-4.9 18.4l.8 3.5zM83 71.3v-.9l-2.6-.1v.9c0 3.3.4 6.6 1.2 9.7.9 3.5 2.3 6.8 4 9.9 1.4.8 2.9 1.5 4.4 2.1-2.7-3.7-4.7-7.9-5.9-12.6-.7-2.9-1.1-6-1.1-9m57.9-11.5c0 20.5-16.8 37.2-37.5 37.2C86.2 97 71.2 85.4 67 68.9c-.7-3-1.1-6-1.1-9.1 0-20.5 16.8-37.2 37.5-37.2 20.7-.1 37.5 16.6 37.5 37.2M103.4 20c-22.1 0-40 17.8-40 39.8 0 3.3.4 6.6 1.2 9.7.1.3.2.7.3 1l10 35.7 2.5-.7-6.3-22.2c7.4 10 19.2 16.3 32.3 16.3 6.6 0 12.8-1.6 18.3-4.4l-32 34.9h3.5L133 86.6c5.4-5.9 9-13.4 10.1-21.7l15.3 65.1h2.6l-18.6-79.3c-3.1-13-12.5-23.6-24.9-28.2h59.2V20"/></svg>